<?xml version="1.0" encoding="UTF-8" standalone="no"?>
<!-- Created with Inkscape (http://www.inkscape.org/) -->

<svg
   xmlns:osb="http://www.openswatchbook.org/uri/2009/osb"
   xmlns:dc="http://purl.org/dc/elements/1.1/"
   xmlns:cc="http://creativecommons.org/ns#"
   xmlns:rdf="http://www.w3.org/1999/02/22-rdf-syntax-ns#"
   xmlns:svg="http://www.w3.org/2000/svg"
   xmlns="http://www.w3.org/2000/svg"
   xmlns:xlink="http://www.w3.org/1999/xlink"
   xmlns:sodipodi="http://sodipodi.sourceforge.net/DTD/sodipodi-0.dtd"
   xmlns:inkscape="http://www.inkscape.org/namespaces/inkscape"
   width="210mm"
   height="297mm"
   viewBox="0 0 744.09448819 1052.3622047"
   id="svg4157"
   version="1.1"
   inkscape:version="0.91 r13725"
   sodipodi:docname="LH_37_03_071-072+AE_1684_319-325_d-3a.svg">
  <sodipodi:namedview
     id="base"
     pagecolor="#ffffff"
     bordercolor="#666666"
     borderopacity="1.0"
     inkscape:pageopacity="0.0"
     inkscape:pageshadow="2"
     inkscape:zoom="11.313708"
     inkscape:cx="8.7359861"
     inkscape:cy="89.012496"
     inkscape:document-units="px"
     inkscape:current-layer="layer1-6"
     showgrid="true"
     inkscape:window-width="2048"
     inkscape:window-height="1035"
     inkscape:window-x="4000"
     inkscape:window-y="944"
     inkscape:window-maximized="1"
     showguides="false">
    <inkscape:grid
       type="xygrid"
       id="grid4713" />
  </sodipodi:namedview>
  <defs
     id="defs4159">
    <linearGradient
       inkscape:collect="always"
       id="linearGradient5928">
      <stop
         style="stop-color:#000000;stop-opacity:1;"
         offset="0"
         id="stop5930" />
      <stop
         style="stop-color:#000000;stop-opacity:0;"
         offset="1"
         id="stop5932" />
    </linearGradient>
    <linearGradient
       inkscape:collect="always"
       id="linearGradient5916">
      <stop
         style="stop-color:#000000;stop-opacity:1;"
         offset="0"
         id="stop5918" />
      <stop
         style="stop-color:#000000;stop-opacity:0;"
         offset="1"
         id="stop5920" />
    </linearGradient>
    <linearGradient
       id="linearGradient5886"
       osb:paint="solid">
      <stop
         style="stop-color:#010101;stop-opacity:1;"
         offset="0"
         id="stop5888" />
    </linearGradient>
    <linearGradient
       id="linearGradient5796"
       osb:paint="gradient">
      <stop
         style="stop-color:#090909;stop-opacity:1;"
         offset="0"
         id="stop5798" />
      <stop
         style="stop-color:#090909;stop-opacity:0;"
         offset="1"
         id="stop5800" />
    </linearGradient>
    <linearGradient
       id="linearGradient4248"
       osb:paint="solid">
      <stop
         style="stop-color:#000000;stop-opacity:1;"
         offset="0"
         id="stop4250" />
    </linearGradient>
    <linearGradient
       id="linearGradient4258"
       osb:paint="gradient">
      <stop
         style="stop-color:#1e1e1e;stop-opacity:1;"
         offset="0"
         id="stop4260" />
      <stop
         style="stop-color:#1e1e1e;stop-opacity:0;"
         offset="1"
         id="stop4262" />
    </linearGradient>
    <filter
       style="color-interpolation-filters:sRGB;"
       inkscape:label="Greyscale"
       id="filter5898">
      <feColorMatrix
         values="0 0 0 0 0 0 0 0 0 0 0 0 0 0 0 -0.61 -0.72 -0.072 1.1 0 "
         id="feColorMatrix5900" />
    </filter>
    <linearGradient
       inkscape:collect="always"
       xlink:href="#linearGradient5916"
       id="linearGradient5922"
       x1="-92.125984"
       y1="1031.1024"
       x2="-113.38583"
       y2="1031.1024"
       gradientUnits="userSpaceOnUse" />
    <linearGradient
       inkscape:collect="always"
       xlink:href="#linearGradient5928"
       id="linearGradient5936"
       x1="95.669289"
       y1="1020.4724"
       x2="116.92913"
       y2="1013.3858"
       gradientUnits="userSpaceOnUse" />
    <linearGradient
       inkscape:collect="always"
       xlink:href="#linearGradient5916-921"
       id="linearGradient5922-878"
       x1="-92.125984"
       y1="1031.1024"
       x2="-113.38583"
       y2="1031.1024"
       gradientUnits="userSpaceOnUse" />
    <linearGradient
       inkscape:collect="always"
       id="linearGradient5916-921">
      <stop
         style="stop-color:#000000;stop-opacity:1;"
         offset="0"
         id="stop4431" />
      <stop
         style="stop-color:#000000;stop-opacity:0;"
         offset="1"
         id="stop4433" />
    </linearGradient>
    <linearGradient
       inkscape:collect="always"
       xlink:href="#linearGradient5928-598"
       id="linearGradient5936-507"
       x1="95.669289"
       y1="1020.4724"
       x2="116.92913"
       y2="1013.3858"
       gradientUnits="userSpaceOnUse" />
    <linearGradient
       inkscape:collect="always"
       id="linearGradient5928-598">
      <stop
         style="stop-color:#000000;stop-opacity:1;"
         offset="0"
         id="stop4437" />
      <stop
         style="stop-color:#000000;stop-opacity:0;"
         offset="1"
         id="stop4439" />
    </linearGradient>
  </defs>
  <metadata
     id="metadata4162">
    <rdf:RDF>
      <cc:Work
         rdf:about="">
        <dc:format>image/svg+xml</dc:format>
        <dc:type
           rdf:resource="http://purl.org/dc/dcmitype/StillImage" />
        <dc:title></dc:title>
      </cc:Work>
    </rdf:RDF>
  </metadata>
  <g
     inkscape:label="Ebene 1"
     inkscape:groupmode="layer"
     id="layer1">
    <path
       style="fill:none;fill-rule:evenodd;stroke:#000000;stroke-width:1.5;stroke-linecap:butt;stroke-linejoin:miter;stroke-miterlimit:4;stroke-dasharray:none;stroke-opacity:1"
       d="m 0.49999999,839.7521 c 0,212.1061 0,212.1061 0,212.1061 l 0,0 0,0"
       id="path4734"
       inkscape:connector-curvature="0" />
    <path
       inkscape:connector-curvature="0"
       id="path4736"
       d="m -1.2634941,1051.5622 c 3.54331,0 3.54331,0 3.54331,0 l 0,0 0,0"
       style="fill:none;fill-rule:evenodd;stroke:#000000;stroke-width:1.5;stroke-linecap:butt;stroke-linejoin:miter;stroke-miterlimit:4;stroke-dasharray:none;stroke-opacity:1" />
    <path
       style="fill:none;fill-rule:evenodd;stroke:#000000;stroke-width:1.5;stroke-linecap:butt;stroke-linejoin:miter;stroke-miterlimit:4;stroke-dasharray:none;stroke-opacity:1"
       d="m -1.2634941,840.21378 c 3.54331,0 3.54331,0 3.54331,0 l 0,0 0,0"
       id="path4738"
       inkscape:connector-curvature="0" />
    <rect
       style="opacity:1;fill:none;fill-opacity:0.37004406;stroke:#000000;stroke-width:1.5;stroke-linecap:square;stroke-linejoin:miter;stroke-miterlimit:4;stroke-dasharray:none;stroke-dashoffset:0;stroke-opacity:1"
       id="rect4740"
       width="106.29921"
       height="106.29921"
       x="17.889269"
       y="882.28949"
       rx="1.0629921" />
    <text
       xml:space="preserve"
       style="font-style:italic;font-variant:normal;font-weight:normal;font-stretch:normal;font-size:20px;line-height:125%;font-family:'Myriad Pro';-inkscape-font-specification:'Myriad Pro Italic';letter-spacing:0px;word-spacing:0px;fill:#000000;fill-opacity:1;stroke:none;stroke-width:1px;stroke-linecap:butt;stroke-linejoin:miter;stroke-opacity:1"
       x="-21.589729"
       y="854.82678"
       id="text5942"
       sodipodi:linespacing="125%"><tspan
         sodipodi:role="line"
         id="tspan5944"
         x="-21.589729"
         y="854.82678"
         style="font-size:22.5px">D</tspan></text>
    <text
       sodipodi:linespacing="125%"
       id="text5946"
       y="871.90112"
       x="16.660271"
       style="font-style:italic;font-variant:normal;font-weight:normal;font-stretch:normal;font-size:20px;line-height:125%;font-family:'Myriad Pro';-inkscape-font-specification:'Myriad Pro Italic';letter-spacing:0px;word-spacing:0px;fill:#000000;fill-opacity:1;stroke:none;stroke-width:1px;stroke-linecap:butt;stroke-linejoin:miter;stroke-opacity:1"
       xml:space="preserve"><tspan
         style="font-size:22.5px"
         y="871.90112"
         x="16.660271"
         id="tspan5948"
         sodipodi:role="line">B</tspan></text>
    <text
       xml:space="preserve"
       style="font-style:normal;font-weight:normal;font-size:30px;line-height:125%;font-family:sans-serif;letter-spacing:0px;word-spacing:0px;fill:#000000;fill-opacity:1;stroke:none;stroke-width:1px;stroke-linecap:butt;stroke-linejoin:miter;stroke-opacity:1"
       x="-28.346457"
       y="903.54333"
       id="text5954"
       sodipodi:linespacing="125%"><tspan
         sodipodi:role="line"
         id="tspan5956"
         x="-28.346457"
         y="903.54333" /></text>
    <text
       sodipodi:linespacing="125%"
       id="text5958"
       y="1012.9655"
       x="18.410271"
       style="font-style:italic;font-variant:normal;font-weight:normal;font-stretch:normal;font-size:20px;line-height:125%;font-family:'Myriad Pro';-inkscape-font-specification:'Myriad Pro Italic';letter-spacing:0px;word-spacing:0px;fill:#000000;fill-opacity:1;stroke:none;stroke-width:1px;stroke-linecap:butt;stroke-linejoin:miter;stroke-opacity:1"
       xml:space="preserve"><tspan
         style="font-size:22.5px"
         y="1012.9655"
         x="18.410271"
         id="tspan5960"
         sodipodi:role="line">A</tspan></text>
    <text
       xml:space="preserve"
       style="font-style:italic;font-variant:normal;font-weight:normal;font-stretch:normal;font-size:20px;line-height:125%;font-family:'Myriad Pro';-inkscape-font-specification:'Myriad Pro Italic';letter-spacing:0px;word-spacing:0px;fill:#000000;fill-opacity:1;stroke:none;stroke-width:1px;stroke-linecap:butt;stroke-linejoin:miter;stroke-opacity:1"
       x="-20.318283"
       y="1051.5287"
       id="text5962"
       sodipodi:linespacing="125%"><tspan
         sodipodi:role="line"
         id="tspan5964"
         x="-20.318283"
         y="1051.5287"
         style="font-size:22.5px">E</tspan></text>
    <text
       xml:space="preserve"
       style="font-style:italic;font-variant:normal;font-weight:normal;font-stretch:normal;font-size:20px;line-height:125%;font-family:'Myriad Pro';-inkscape-font-specification:'Myriad Pro Italic';letter-spacing:0px;word-spacing:0px;fill:#000000;fill-opacity:1;stroke:none;stroke-width:1px;stroke-linecap:butt;stroke-linejoin:miter;stroke-opacity:1"
       x="132.27312"
       y="988.0387"
       id="text5978"
       sodipodi:linespacing="125%"><tspan
         sodipodi:role="line"
         id="tspan5980"
         x="132.27312"
         y="988.0387"
         style="font-size:22.5px">C</tspan></text>
    <g
       transform="matrix(3.5433071,0,0,3.5433071,-124.83067,405.33375)"
       id="layer1-6"
       inkscape:label="Ebene 1">
      <flowRoot
         xml:space="preserve"
         id="flowRoot2756"
         style="font-style:italic;font-variant:normal;font-weight:normal;font-stretch:normal;font-size:16px;line-height:1.25;font-family:'Myriad Pro';-inkscape-font-specification:'Myriad Pro Italic';letter-spacing:0px;word-spacing:0px;fill:#000000;fill-opacity:1;stroke:none;stroke-width:1.33333337;stroke-miterlimit:4;stroke-dasharray:none"
         transform="matrix(0.26458333,0,0,0.26458333,27.344651,81.373814)"><flowRegion
           id="flowRegion2752"
           style="stroke-width:1.33333337;stroke-miterlimit:4;stroke-dasharray:none"><rect
             id="rect2750"
             width="16.407187"
             height="20.507141"
             x="154.92958"
             y="507.02673"
             style="stroke-width:1.33333337;stroke-miterlimit:4;stroke-dasharray:none" /></flowRegion><flowPara
           id="flowPara2754">ba</flowPara></flowRoot>      <g
         transform="translate(0,23.812509)"
         id="g2772">
        <flowRoot
           xml:space="preserve"
           id="flowRoot2770"
           style="font-style:italic;font-variant:normal;font-weight:normal;font-stretch:normal;font-size:16px;line-height:1.25;font-family:'Myriad Pro';-inkscape-font-specification:'Myriad Pro Italic';letter-spacing:0px;word-spacing:0px;fill:#000000;fill-opacity:1;stroke:none;stroke-width:1.33333337;stroke-miterlimit:4;stroke-dasharray:none"
           transform="matrix(0.26458333,0,0,0.26458333,84.494687,52.798796)"><flowRegion
             id="flowRegion2766"
             style="stroke-width:1.33333337;stroke-miterlimit:4;stroke-dasharray:none"><rect
               id="rect2764"
               width="11.171583"
               height="21.030718"
               x="154.92958"
               y="507.02673"
               style="stroke-width:1.33333337;stroke-miterlimit:4;stroke-dasharray:none" /></flowRegion><flowPara
             id="flowPara2768" /></flowRoot>      </g>
      <flowRoot
         style="font-style:italic;font-variant:normal;font-weight:normal;font-stretch:normal;font-size:16px;line-height:1.25;font-family:'Myriad Pro';-inkscape-font-specification:'Myriad Pro Italic';letter-spacing:0px;word-spacing:0px;fill:#000000;fill-opacity:1;stroke:none"
         id="flowRoot2774"
         xml:space="preserve"><flowRegion
           id="flowRegion2776"><rect
             y="800.53015"
             x="469.10992"
             height="21.989517"
             width="8.9005375"
             id="rect2778" /></flowRegion><flowPara
           id="flowPara2780" /></flowRoot>      <path
         id="path4382"
         style="fill:none;stroke:#000000;stroke-width:0.08466667;stroke-linecap:butt;stroke-linejoin:miter;stroke-miterlimit:4;stroke-dasharray:none;stroke-opacity:1"
         d="m 39.976405,139.61779 c 0,0 0.0538,0.45519 0.101779,0.45519 0.04797,0 0.101779,-0.45519 0.101779,-0.45519 m -0.407115,0 c 0,0 0.0538,-0.45519 0.101779,-0.45519 0.04797,0 0.101779,0.45519 0.101779,0.45519 m -0.408353,0 c 0,0 0.0538,0.45519 0.101779,0.45519 0.04797,0 0.101779,-0.45519 0.101779,-0.45519 m -0.407116,0 c 0,0 0.0538,-0.45519 0.101779,-0.45519 0.04797,0 0.101779,0.45519 0.101779,0.45519 m -0.408351,0 c 0,0 0.0538,0.45519 0.101779,0.45519 0.04797,0 0.101779,-0.45519 0.101779,-0.45519 m -0.407114,0 c 0,0 0.0538,-0.45519 0.101779,-0.45519 0.04797,0 0.101779,0.45519 0.101779,0.45519 m -0.408352,0 c 0,0 0.0538,0.45519 0.101779,0.45519 0.04797,0 0.101779,-0.45519 0.101779,-0.45519 m -0.407115,0 c 0,0 0.0538,-0.45519 0.101779,-0.45519 0.04797,0 0.101778,0.45519 0.101778,0.45519 m -0.408349,0 c 0,0 0.0538,0.45519 0.101779,0.45519 0.04797,0 0.101779,-0.45519 0.101779,-0.45519 m -0.407114,0 c 0,0 0.0538,-0.45519 0.101779,-0.45519 0.04797,0 0.101779,0.45519 0.101779,0.45519 m -0.408353,0 c 0,0 0.0538,0.45519 0.101779,0.45519 0.04797,0 0.101779,-0.45519 0.101779,-0.45519 m -0.407115,0 c 0,0 0.0538,-0.45519 0.101779,-0.45519 0.04797,0 0.101779,0.45519 0.101779,0.45519 m -0.407115,0 c 0,0 0.0538,0.45519 0.101779,0.45519 0.04797,0 0.101779,-0.45519 0.101779,-0.45519 m -0.407114,0 c 0,0 0.0538,-0.45519 0.101779,-0.45519 0.04797,0 0.101779,0.45519 0.101779,0.45519 m -0.408351,0 c 0,0 0.0538,0.45519 0.101779,0.45519 0.04797,0 0.101779,-0.45519 0.101779,-0.45519 m -0.407115,0 c 0,0 0.0538,-0.45519 0.101779,-0.45519 0.04797,0 0.101778,0.45519 0.101778,0.45519 m -0.40835,0 c 0,0 0.0538,0.45519 0.101779,0.45519 0.04797,0 0.101779,-0.45519 0.101779,-0.45519 m -0.407114,0 c 0,0 0.0538,-0.45519 0.101779,-0.45519 0.04797,0 0.101779,0.45519 0.101779,0.45519 m -0.408352,0 c 0,0 0.0538,0.45519 0.101779,0.45519 0.04797,0 0.101779,-0.45519 0.101779,-0.45519 m -0.407115,0 c 0,0 0.0538,-0.45519 0.101779,-0.45519 0.04797,0 0.101779,0.45519 0.101779,0.45519 m -0.408351,0 c 0,0 0.0538,0.45519 0.101779,0.45519 0.04797,0 0.101779,-0.45519 0.101779,-0.45519 m -0.407114,0 c 0,0 0.0538,-0.45519 0.101779,-0.45519 0.04797,0 0.101779,0.45519 0.101779,0.45519 m -0.408353,0 c 0,0 0.0538,0.45519 0.101779,0.45519 0.04797,0 0.101779,-0.45519 0.101779,-0.45519 m -0.407114,0 c 0,0 0.0538,-0.45519 0.101778,-0.45519 0.04797,0 0.101779,0.45519 0.101779,0.45519"
         inkscape:connector-curvature="0" />
      <path
         inkscape:connector-curvature="0"
         d="m 39.976405,145.61783 c 0,0 0.0538,0.45519 0.101779,0.45519 0.04797,0 0.101779,-0.45519 0.101779,-0.45519 m -0.407115,0 c 0,0 0.0538,-0.45519 0.101779,-0.45519 0.04797,0 0.101779,0.45519 0.101779,0.45519 m -0.408353,0 c 0,0 0.0538,0.45519 0.101779,0.45519 0.04797,0 0.101779,-0.45519 0.101779,-0.45519 m -0.407116,0 c 0,0 0.0538,-0.45519 0.101779,-0.45519 0.04797,0 0.101779,0.45519 0.101779,0.45519 m -0.408351,0 c 0,0 0.0538,0.45519 0.101779,0.45519 0.04797,0 0.101779,-0.45519 0.101779,-0.45519 m -0.407114,0 c 0,0 0.0538,-0.45519 0.101779,-0.45519 0.04797,0 0.101779,0.45519 0.101779,0.45519 m -0.408352,0 c 0,0 0.0538,0.45519 0.101779,0.45519 0.04797,0 0.101779,-0.45519 0.101779,-0.45519 m -0.407115,0 c 0,0 0.0538,-0.45519 0.101779,-0.45519 0.04797,0 0.101778,0.45519 0.101778,0.45519 m -0.408349,0 c 0,0 0.0538,0.45519 0.101779,0.45519 0.04797,0 0.101779,-0.45519 0.101779,-0.45519 m -0.407114,0 c 0,0 0.0538,-0.45519 0.101779,-0.45519 0.04797,0 0.101779,0.45519 0.101779,0.45519 m -0.408353,0 c 0,0 0.0538,0.45519 0.101779,0.45519 0.04797,0 0.101779,-0.45519 0.101779,-0.45519 m -0.407115,0 c 0,0 0.0538,-0.45519 0.101779,-0.45519 0.04797,0 0.101779,0.45519 0.101779,0.45519 m -0.407115,0 c 0,0 0.0538,0.45519 0.101779,0.45519 0.04797,0 0.101779,-0.45519 0.101779,-0.45519 m -0.407114,0 c 0,0 0.0538,-0.45519 0.101779,-0.45519 0.04797,0 0.101779,0.45519 0.101779,0.45519 m -0.408351,0 c 0,0 0.0538,0.45519 0.101779,0.45519 0.04797,0 0.101779,-0.45519 0.101779,-0.45519 m -0.407115,0 c 0,0 0.0538,-0.45519 0.101779,-0.45519 0.04797,0 0.101778,0.45519 0.101778,0.45519 m -0.40835,0 c 0,0 0.0538,0.45519 0.101779,0.45519 0.04797,0 0.101779,-0.45519 0.101779,-0.45519 m -0.407114,0 c 0,0 0.0538,-0.45519 0.101779,-0.45519 0.04797,0 0.101779,0.45519 0.101779,0.45519 m -0.408352,0 c 0,0 0.0538,0.45519 0.101779,0.45519 0.04797,0 0.101779,-0.45519 0.101779,-0.45519 m -0.407115,0 c 0,0 0.0538,-0.45519 0.101779,-0.45519 0.04797,0 0.101779,0.45519 0.101779,0.45519 m -0.408351,0 c 0,0 0.0538,0.45519 0.101779,0.45519 0.04797,0 0.101779,-0.45519 0.101779,-0.45519 m -0.407114,0 c 0,0 0.0538,-0.45519 0.101779,-0.45519 0.04797,0 0.101779,0.45519 0.101779,0.45519 m -0.408353,0 c 0,0 0.0538,0.45519 0.101779,0.45519 0.04797,0 0.101779,-0.45519 0.101779,-0.45519 m -0.407114,0 c 0,0 0.0538,-0.45519 0.101778,-0.45519 0.04797,0 0.101779,0.45519 0.101779,0.45519"
         style="fill:none;stroke:#000000;stroke-width:0.08466667;stroke-linecap:butt;stroke-linejoin:miter;stroke-miterlimit:4;stroke-dasharray:none;stroke-opacity:1"
         id="path4197" />
      <path
         id="path4199"
         style="fill:none;stroke:#000000;stroke-width:0.08466667;stroke-linecap:butt;stroke-linejoin:miter;stroke-miterlimit:4;stroke-dasharray:none;stroke-opacity:1"
         d="m 39.976405,150.63181 c 0,0 0.0538,0.45519 0.101779,0.45519 0.04797,0 0.101779,-0.45519 0.101779,-0.45519 m -0.407115,0 c 0,0 0.0538,-0.45519 0.101779,-0.45519 0.04797,0 0.101779,0.45519 0.101779,0.45519 m -0.408353,0 c 0,0 0.0538,0.45519 0.101779,0.45519 0.04797,0 0.101779,-0.45519 0.101779,-0.45519 m -0.407116,0 c 0,0 0.0538,-0.45519 0.101779,-0.45519 0.04797,0 0.101779,0.45519 0.101779,0.45519 m -0.408351,0 c 0,0 0.0538,0.45519 0.101779,0.45519 0.04797,0 0.101779,-0.45519 0.101779,-0.45519 m -0.407114,0 c 0,0 0.0538,-0.45519 0.101779,-0.45519 0.04797,0 0.101779,0.45519 0.101779,0.45519 m -0.408352,0 c 0,0 0.0538,0.45519 0.101779,0.45519 0.04797,0 0.101779,-0.45519 0.101779,-0.45519 m -0.407115,0 c 0,0 0.0538,-0.45519 0.101779,-0.45519 0.04797,0 0.101778,0.45519 0.101778,0.45519 m -0.408349,0 c 0,0 0.0538,0.45519 0.101779,0.45519 0.04797,0 0.101779,-0.45519 0.101779,-0.45519 m -0.407114,0 c 0,0 0.0538,-0.45519 0.101779,-0.45519 0.04797,0 0.101779,0.45519 0.101779,0.45519 m -0.408353,0 c 0,0 0.0538,0.45519 0.101779,0.45519 0.04797,0 0.101779,-0.45519 0.101779,-0.45519 m -0.407115,0 c 0,0 0.0538,-0.45519 0.101779,-0.45519 0.04797,0 0.101779,0.45519 0.101779,0.45519 m -0.407115,0 c 0,0 0.0538,0.45519 0.101779,0.45519 0.04797,0 0.101779,-0.45519 0.101779,-0.45519 m -0.407114,0 c 0,0 0.0538,-0.45519 0.101779,-0.45519 0.04797,0 0.101779,0.45519 0.101779,0.45519 m -0.408351,0 c 0,0 0.0538,0.45519 0.101779,0.45519 0.04797,0 0.101779,-0.45519 0.101779,-0.45519 m -0.407115,0 c 0,0 0.0538,-0.45519 0.101779,-0.45519 0.04797,0 0.101778,0.45519 0.101778,0.45519 m -0.40835,0 c 0,0 0.0538,0.45519 0.101779,0.45519 0.04797,0 0.101779,-0.45519 0.101779,-0.45519 m -0.407114,0 c 0,0 0.0538,-0.45519 0.101779,-0.45519 0.04797,0 0.101779,0.45519 0.101779,0.45519 m -0.408352,0 c 0,0 0.0538,0.45519 0.101779,0.45519 0.04797,0 0.101779,-0.45519 0.101779,-0.45519 m -0.407115,0 c 0,0 0.0538,-0.45519 0.101779,-0.45519 0.04797,0 0.101779,0.45519 0.101779,0.45519 m -0.408351,0 c 0,0 0.0538,0.45519 0.101779,0.45519 0.04797,0 0.101779,-0.45519 0.101779,-0.45519 m -0.407114,0 c 0,0 0.0538,-0.45519 0.101779,-0.45519 0.04797,0 0.101779,0.45519 0.101779,0.45519 m -0.408353,0 c 0,0 0.0538,0.45519 0.101779,0.45519 0.04797,0 0.101779,-0.45519 0.101779,-0.45519 m -0.407114,0 c 0,0 0.0538,-0.45519 0.101778,-0.45519 0.04797,0 0.101779,0.45519 0.101779,0.45519"
         inkscape:connector-curvature="0" />
      <path
         inkscape:connector-curvature="0"
         d="m 39.976405,155.62084 c 0,0 0.0538,0.45519 0.101779,0.45519 0.04797,0 0.101779,-0.45519 0.101779,-0.45519 m -0.407115,0 c 0,0 0.0538,-0.45519 0.101779,-0.45519 0.04797,0 0.101779,0.45519 0.101779,0.45519 m -0.408353,0 c 0,0 0.0538,0.45519 0.101779,0.45519 0.04797,0 0.101779,-0.45519 0.101779,-0.45519 m -0.407116,0 c 0,0 0.0538,-0.45519 0.101779,-0.45519 0.04797,0 0.101779,0.45519 0.101779,0.45519 m -0.408351,0 c 0,0 0.0538,0.45519 0.101779,0.45519 0.04797,0 0.101779,-0.45519 0.101779,-0.45519 m -0.407114,0 c 0,0 0.0538,-0.45519 0.101779,-0.45519 0.04797,0 0.101779,0.45519 0.101779,0.45519 m -0.408352,0 c 0,0 0.0538,0.45519 0.101779,0.45519 0.04797,0 0.101779,-0.45519 0.101779,-0.45519 m -0.407115,0 c 0,0 0.0538,-0.45519 0.101779,-0.45519 0.04797,0 0.101778,0.45519 0.101778,0.45519 m -0.408349,0 c 0,0 0.0538,0.45519 0.101779,0.45519 0.04797,0 0.101779,-0.45519 0.101779,-0.45519 m -0.407114,0 c 0,0 0.0538,-0.45519 0.101779,-0.45519 0.04797,0 0.101779,0.45519 0.101779,0.45519 m -0.408353,0 c 0,0 0.0538,0.45519 0.101779,0.45519 0.04797,0 0.101779,-0.45519 0.101779,-0.45519 m -0.407115,0 c 0,0 0.0538,-0.45519 0.101779,-0.45519 0.04797,0 0.101779,0.45519 0.101779,0.45519 m -0.407115,0 c 0,0 0.0538,0.45519 0.101779,0.45519 0.04797,0 0.101779,-0.45519 0.101779,-0.45519 m -0.407114,0 c 0,0 0.0538,-0.45519 0.101779,-0.45519 0.04797,0 0.101779,0.45519 0.101779,0.45519 m -0.408351,0 c 0,0 0.0538,0.45519 0.101779,0.45519 0.04797,0 0.101779,-0.45519 0.101779,-0.45519 m -0.407115,0 c 0,0 0.0538,-0.45519 0.101779,-0.45519 0.04797,0 0.101778,0.45519 0.101778,0.45519 m -0.40835,0 c 0,0 0.0538,0.45519 0.101779,0.45519 0.04797,0 0.101779,-0.45519 0.101779,-0.45519 m -0.407114,0 c 0,0 0.0538,-0.45519 0.101779,-0.45519 0.04797,0 0.101779,0.45519 0.101779,0.45519 m -0.408352,0 c 0,0 0.0538,0.45519 0.101779,0.45519 0.04797,0 0.101779,-0.45519 0.101779,-0.45519 m -0.407115,0 c 0,0 0.0538,-0.45519 0.101779,-0.45519 0.04797,0 0.101779,0.45519 0.101779,0.45519 m -0.408351,0 c 0,0 0.0538,0.45519 0.101779,0.45519 0.04797,0 0.101779,-0.45519 0.101779,-0.45519 m -0.407114,0 c 0,0 0.0538,-0.45519 0.101779,-0.45519 0.04797,0 0.101779,0.45519 0.101779,0.45519 m -0.408353,0 c 0,0 0.0538,0.45519 0.101779,0.45519 0.04797,0 0.101779,-0.45519 0.101779,-0.45519 m -0.407114,0 c 0,0 0.0538,-0.45519 0.101778,-0.45519 0.04797,0 0.101779,0.45519 0.101779,0.45519"
         style="fill:none;stroke:#000000;stroke-width:0.08466667;stroke-linecap:butt;stroke-linejoin:miter;stroke-miterlimit:4;stroke-dasharray:none;stroke-opacity:1"
         id="path4201" />
      <path
         id="path4203"
         style="fill:none;stroke:#000000;stroke-width:0.08466667;stroke-linecap:butt;stroke-linejoin:miter;stroke-miterlimit:4;stroke-dasharray:none;stroke-opacity:1"
         d="m 39.976405,160.60987 c 0,0 0.0538,0.45519 0.101779,0.45519 0.04797,0 0.101779,-0.45519 0.101779,-0.45519 m -0.407115,0 c 0,0 0.0538,-0.45519 0.101779,-0.45519 0.04797,0 0.101779,0.45519 0.101779,0.45519 m -0.408353,0 c 0,0 0.0538,0.45519 0.101779,0.45519 0.04797,0 0.101779,-0.45519 0.101779,-0.45519 m -0.407116,0 c 0,0 0.0538,-0.45519 0.101779,-0.45519 0.04797,0 0.101779,0.45519 0.101779,0.45519 m -0.408351,0 c 0,0 0.0538,0.45519 0.101779,0.45519 0.04797,0 0.101779,-0.45519 0.101779,-0.45519 m -0.407114,0 c 0,0 0.0538,-0.45519 0.101779,-0.45519 0.04797,0 0.101779,0.45519 0.101779,0.45519 m -0.408352,0 c 0,0 0.0538,0.45519 0.101779,0.45519 0.04797,0 0.101779,-0.45519 0.101779,-0.45519 m -0.407115,0 c 0,0 0.0538,-0.45519 0.101779,-0.45519 0.04797,0 0.101778,0.45519 0.101778,0.45519 m -0.408349,0 c 0,0 0.0538,0.45519 0.101779,0.45519 0.04797,0 0.101779,-0.45519 0.101779,-0.45519 m -0.407114,0 c 0,0 0.0538,-0.45519 0.101779,-0.45519 0.04797,0 0.101779,0.45519 0.101779,0.45519 m -0.408353,0 c 0,0 0.0538,0.45519 0.101779,0.45519 0.04797,0 0.101779,-0.45519 0.101779,-0.45519 m -0.407115,0 c 0,0 0.0538,-0.45519 0.101779,-0.45519 0.04797,0 0.101779,0.45519 0.101779,0.45519 m -0.407115,0 c 0,0 0.0538,0.45519 0.101779,0.45519 0.04797,0 0.101779,-0.45519 0.101779,-0.45519 m -0.407114,0 c 0,0 0.0538,-0.45519 0.101779,-0.45519 0.04797,0 0.101779,0.45519 0.101779,0.45519 m -0.408351,0 c 0,0 0.0538,0.45519 0.101779,0.45519 0.04797,0 0.101779,-0.45519 0.101779,-0.45519 m -0.407115,0 c 0,0 0.0538,-0.45519 0.101779,-0.45519 0.04797,0 0.101778,0.45519 0.101778,0.45519 m -0.40835,0 c 0,0 0.0538,0.45519 0.101779,0.45519 0.04797,0 0.101779,-0.45519 0.101779,-0.45519 m -0.407114,0 c 0,0 0.0538,-0.45519 0.101779,-0.45519 0.04797,0 0.101779,0.45519 0.101779,0.45519 m -0.408352,0 c 0,0 0.0538,0.45519 0.101779,0.45519 0.04797,0 0.101779,-0.45519 0.101779,-0.45519 m -0.407115,0 c 0,0 0.0538,-0.45519 0.101779,-0.45519 0.04797,0 0.101779,0.45519 0.101779,0.45519 m -0.408351,0 c 0,0 0.0538,0.45519 0.101779,0.45519 0.04797,0 0.101779,-0.45519 0.101779,-0.45519 m -0.407114,0 c 0,0 0.0538,-0.45519 0.101779,-0.45519 0.04797,0 0.101779,0.45519 0.101779,0.45519 m -0.408353,0 c 0,0 0.0538,0.45519 0.101779,0.45519 0.04797,0 0.101779,-0.45519 0.101779,-0.45519 m -0.407114,0 c 0,0 0.0538,-0.45519 0.101778,-0.45519 0.04797,0 0.101779,0.45519 0.101779,0.45519"
         inkscape:connector-curvature="0" />
    </g>
  </g>
</svg>
