<?xml version="1.0" encoding="UTF-8" standalone="no"?>
<!-- Created with Inkscape (http://www.inkscape.org/) -->

<svg
   xmlns:osb="http://www.openswatchbook.org/uri/2009/osb"
   xmlns:dc="http://purl.org/dc/elements/1.1/"
   xmlns:cc="http://creativecommons.org/ns#"
   xmlns:rdf="http://www.w3.org/1999/02/22-rdf-syntax-ns#"
   xmlns:svg="http://www.w3.org/2000/svg"
   xmlns="http://www.w3.org/2000/svg"
   xmlns:xlink="http://www.w3.org/1999/xlink"
   xmlns:sodipodi="http://sodipodi.sourceforge.net/DTD/sodipodi-0.dtd"
   xmlns:inkscape="http://www.inkscape.org/namespaces/inkscape"
   width="210mm"
   height="297mm"
   viewBox="0 0 744.09448819 1052.3622047"
   id="svg4157"
   version="1.1"
   inkscape:version="0.91 r13725"
   sodipodi:docname="LH_37_03_071-072+AE_1684_319-325_d-4a.svg">
  <sodipodi:namedview
     id="base"
     pagecolor="#ffffff"
     bordercolor="#666666"
     borderopacity="1.0"
     inkscape:pageopacity="0.0"
     inkscape:pageshadow="2"
     inkscape:zoom="2.1459631"
     inkscape:cx="114.3984"
     inkscape:cy="40.921332"
     inkscape:document-units="px"
     inkscape:current-layer="layer1"
     showgrid="true"
     inkscape:window-width="1734"
     inkscape:window-height="1002"
     inkscape:window-x="4846"
     inkscape:window-y="1562"
     inkscape:window-maximized="0"
     showguides="false">
    <inkscape:grid
       type="xygrid"
       id="grid4713" />
  </sodipodi:namedview>
  <defs
     id="defs4159">
    <linearGradient
       inkscape:collect="always"
       id="linearGradient5928">
      <stop
         style="stop-color:#000000;stop-opacity:1;"
         offset="0"
         id="stop5930" />
      <stop
         style="stop-color:#000000;stop-opacity:0;"
         offset="1"
         id="stop5932" />
    </linearGradient>
    <linearGradient
       inkscape:collect="always"
       id="linearGradient5916">
      <stop
         style="stop-color:#000000;stop-opacity:1;"
         offset="0"
         id="stop5918" />
      <stop
         style="stop-color:#000000;stop-opacity:0;"
         offset="1"
         id="stop5920" />
    </linearGradient>
    <linearGradient
       id="linearGradient5886"
       osb:paint="solid">
      <stop
         style="stop-color:#010101;stop-opacity:1;"
         offset="0"
         id="stop5888" />
    </linearGradient>
    <linearGradient
       id="linearGradient5796"
       osb:paint="gradient">
      <stop
         style="stop-color:#090909;stop-opacity:1;"
         offset="0"
         id="stop5798" />
      <stop
         style="stop-color:#090909;stop-opacity:0;"
         offset="1"
         id="stop5800" />
    </linearGradient>
    <linearGradient
       id="linearGradient4248"
       osb:paint="solid">
      <stop
         style="stop-color:#000000;stop-opacity:1;"
         offset="0"
         id="stop4250" />
    </linearGradient>
    <linearGradient
       id="linearGradient4258"
       osb:paint="gradient">
      <stop
         style="stop-color:#1e1e1e;stop-opacity:1;"
         offset="0"
         id="stop4260" />
      <stop
         style="stop-color:#1e1e1e;stop-opacity:0;"
         offset="1"
         id="stop4262" />
    </linearGradient>
    <filter
       style="color-interpolation-filters:sRGB;"
       inkscape:label="Greyscale"
       id="filter5898">
      <feColorMatrix
         values="0 0 0 0 0 0 0 0 0 0 0 0 0 0 0 -0.61 -0.72 -0.072 1.1 0 "
         id="feColorMatrix5900" />
    </filter>
    <linearGradient
       inkscape:collect="always"
       xlink:href="#linearGradient5916"
       id="linearGradient5922"
       x1="-92.125984"
       y1="1031.1024"
       x2="-113.38583"
       y2="1031.1024"
       gradientUnits="userSpaceOnUse" />
    <linearGradient
       inkscape:collect="always"
       xlink:href="#linearGradient5928"
       id="linearGradient5936"
       x1="95.669289"
       y1="1020.4724"
       x2="116.92913"
       y2="1013.3858"
       gradientUnits="userSpaceOnUse" />
    <linearGradient
       inkscape:collect="always"
       xlink:href="#linearGradient5916-921"
       id="linearGradient5922-878"
       x1="-92.125984"
       y1="1031.1024"
       x2="-113.38583"
       y2="1031.1024"
       gradientUnits="userSpaceOnUse" />
    <linearGradient
       inkscape:collect="always"
       id="linearGradient5916-921">
      <stop
         style="stop-color:#000000;stop-opacity:1;"
         offset="0"
         id="stop4431" />
      <stop
         style="stop-color:#000000;stop-opacity:0;"
         offset="1"
         id="stop4433" />
    </linearGradient>
    <linearGradient
       inkscape:collect="always"
       xlink:href="#linearGradient5928-598"
       id="linearGradient5936-507"
       x1="95.669289"
       y1="1020.4724"
       x2="116.92913"
       y2="1013.3858"
       gradientUnits="userSpaceOnUse" />
    <linearGradient
       inkscape:collect="always"
       id="linearGradient5928-598">
      <stop
         style="stop-color:#000000;stop-opacity:1;"
         offset="0"
         id="stop4437" />
      <stop
         style="stop-color:#000000;stop-opacity:0;"
         offset="1"
         id="stop4439" />
    </linearGradient>
    <filter
       id="filter5898-1"
       inkscape:label="Greyscale"
       style="color-interpolation-filters:sRGB;">
      <feColorMatrix
         id="feColorMatrix5900-3"
         values="0 0 0 0 0 0 0 0 0 0 0 0 0 0 0 -0.61 -0.72 -0.072 1.1 0 " />
    </filter>
    <linearGradient
       gradientUnits="userSpaceOnUse"
       y2="1031.1024"
       x2="-113.38583"
       y1="1031.1024"
       x1="-92.125984"
       id="linearGradient4580"
       xlink:href="#linearGradient5928"
       inkscape:collect="always" />
    <linearGradient
       gradientUnits="userSpaceOnUse"
       y2="1013.3858"
       x2="116.92913"
       y1="1020.4724"
       x1="95.669289"
       id="linearGradient4582"
       xlink:href="#linearGradient5928"
       inkscape:collect="always" />
  </defs>
  <metadata
     id="metadata4162">
    <rdf:RDF>
      <cc:Work
         rdf:about="">
        <dc:format>image/svg+xml</dc:format>
        <dc:type
           rdf:resource="http://purl.org/dc/dcmitype/StillImage" />
        <dc:title></dc:title>
      </cc:Work>
    </rdf:RDF>
  </metadata>
  <g
     inkscape:label="Ebene 1"
     inkscape:groupmode="layer"
     id="layer1">
    <text
       xml:space="preserve"
       style="font-style:normal;font-weight:normal;font-size:30px;line-height:125%;font-family:sans-serif;letter-spacing:0px;word-spacing:0px;fill:#000000;fill-opacity:1;stroke:none;stroke-width:1px;stroke-linecap:butt;stroke-linejoin:miter;stroke-opacity:1"
       x="-28.346457"
       y="903.54333"
       id="text5954"
       sodipodi:linespacing="125%"><tspan
         sodipodi:role="line"
         id="tspan5956"
         x="-28.346457"
         y="903.54333" /></text>
    <text
       xml:space="preserve"
       style="font-style:normal;font-weight:normal;font-size:30px;line-height:125%;font-family:sans-serif;letter-spacing:0px;word-spacing:0px;fill:#000000;fill-opacity:1;stroke:none;stroke-width:1px;stroke-linecap:butt;stroke-linejoin:miter;stroke-opacity:1"
       x="225.45767"
       y="885.95526"
       id="text5954-3"
       sodipodi:linespacing="125%"><tspan
         sodipodi:role="line"
         id="tspan5956-3"
         x="225.45767"
         y="885.95526" /></text>
    <flowRoot
       style="font-style:italic;font-variant:normal;font-weight:normal;font-stretch:normal;font-size:15px;line-height:1.25;font-family:'Myriad Pro';-inkscape-font-specification:'Myriad Pro Italic';letter-spacing:0px;word-spacing:0px;fill:#000000;fill-opacity:1;stroke:none;stroke-width:1.33333337;stroke-miterlimit:4;stroke-dasharray:none"
       id="flowRoot2756"
       xml:space="preserve"
       transform="translate(253.80413,-17.588096)"><flowRegion
         style="stroke-width:1.33333337;stroke-miterlimit:4;stroke-dasharray:none"
         id="flowRegion2752"><rect
           style="stroke-width:1.33333337;stroke-miterlimit:4;stroke-dasharray:none"
           y="1167.236"
           x="-26.23637"
           height="19.225445"
           width="15.381737"
           id="rect2750" /></flowRegion><flowPara
         id="flowPara2754">ba</flowPara></flowRoot>    <g
       id="g2772"
       transform="matrix(3.5433071,0,0,3.5433071,-14.56922,470.35291)">
      <flowRoot
         transform="matrix(0.26458333,0,0,0.26458333,84.494687,52.798796)"
         style="font-style:italic;font-variant:normal;font-weight:normal;font-stretch:normal;font-size:16px;line-height:1.25;font-family:'Myriad Pro';-inkscape-font-specification:'Myriad Pro Italic';letter-spacing:0px;word-spacing:0px;fill:#000000;fill-opacity:1;stroke:none;stroke-width:1.33333337;stroke-miterlimit:4;stroke-dasharray:none"
         id="flowRoot2770"
         xml:space="preserve"><flowRegion
           style="stroke-width:1.33333337;stroke-miterlimit:4;stroke-dasharray:none"
           id="flowRegion2766"><rect
             style="stroke-width:1.33333337;stroke-miterlimit:4;stroke-dasharray:none"
             y="507.02673"
             x="154.92958"
             height="21.030718"
             width="11.171583"
             id="rect2764" /></flowRegion><flowPara
           id="flowPara2768" /></flowRoot>    </g>
    <flowRoot
       xml:space="preserve"
       id="flowRoot2774"
       style="font-style:italic;font-variant:normal;font-weight:normal;font-stretch:normal;font-size:16px;line-height:1.25;font-family:'Myriad Pro';-inkscape-font-specification:'Myriad Pro Italic';letter-spacing:0px;word-spacing:0px;fill:#000000;fill-opacity:1;stroke:none"
       transform="matrix(3.5433071,0,0,3.5433071,-14.56922,385.97788)"><flowRegion
         id="flowRegion2776"><rect
           id="rect2778"
           width="8.9005375"
           height="21.989517"
           x="469.10992"
           y="800.53015" /></flowRegion><flowPara
         id="flowPara2780" /></flowRoot>    <g
       id="g4230">
      <path
         inkscape:connector-curvature="0"
         id="path4734"
         d="m 0.37139198,928.64348 c 0,123.56592 0,123.56592 0,123.56592 l 0,0 0,0"
         style="fill:none;fill-rule:evenodd;stroke:#000000;stroke-width:1.50000012;stroke-linecap:butt;stroke-linejoin:miter;stroke-miterlimit:4;stroke-dasharray:none;stroke-opacity:1" />
      <path
         style="fill:none;fill-rule:evenodd;stroke:#000000;stroke-width:1.5;stroke-linecap:butt;stroke-linejoin:miter;stroke-miterlimit:4;stroke-dasharray:none;stroke-opacity:1"
         d="m -1.2634941,1051.5622 c 3.54331,0 3.54331,0 3.54331,0 l 0,0 0,0"
         id="path4736"
         inkscape:connector-curvature="0" />
      <path
         inkscape:connector-curvature="0"
         id="path4738"
         d="m -1.2634941,929.21868 c 3.54331,0 3.54331,0 3.54331,0 l 0,0 0,0"
         style="fill:none;fill-rule:evenodd;stroke:#000000;stroke-width:1.5;stroke-linecap:butt;stroke-linejoin:miter;stroke-miterlimit:4;stroke-dasharray:none;stroke-opacity:1" />
      <rect
         ry="0.80812663"
         rx="0"
         y="959.50037"
         x="0.53571433"
         height="37.17421"
         width="124.29921"
         id="rect4740"
         style="opacity:1;fill:none;fill-opacity:0.37004406;stroke:#000000;stroke-width:1.5;stroke-linecap:square;stroke-linejoin:miter;stroke-miterlimit:4;stroke-dasharray:none;stroke-dashoffset:0;stroke-opacity:1" />
      <text
         sodipodi:linespacing="125%"
         id="text5942"
         y="1042.1387"
         x="163.65887"
         style="font-style:italic;font-variant:normal;font-weight:normal;font-stretch:normal;font-size:20px;line-height:125%;font-family:'Myriad Pro';-inkscape-font-specification:'Myriad Pro Italic';letter-spacing:0px;word-spacing:0px;fill:#000000;fill-opacity:1;stroke:none;stroke-width:1px;stroke-linecap:butt;stroke-linejoin:miter;stroke-opacity:1"
         xml:space="preserve"><tspan
           style="font-size:17.5px"
           y="1042.1387"
           x="163.65887"
           id="tspan5944"
           sodipodi:role="line">G</tspan></text>
      <text
         xml:space="preserve"
         style="font-style:italic;font-variant:normal;font-weight:normal;font-stretch:normal;font-size:20px;line-height:125%;font-family:'Myriad Pro';-inkscape-font-specification:'Myriad Pro Italic';letter-spacing:0px;word-spacing:0px;fill:#000000;fill-opacity:1;stroke:none;stroke-width:1px;stroke-linecap:butt;stroke-linejoin:miter;stroke-opacity:1"
         x="-17.703684"
         y="960.33539"
         id="text5946"
         sodipodi:linespacing="125%"><tspan
           sodipodi:role="line"
           id="tspan5948"
           x="-17.703684"
           y="960.33539"
           style="font-size:22.5px">B</tspan></text>
      <text
         xml:space="preserve"
         style="font-style:italic;font-variant:normal;font-weight:normal;font-stretch:normal;font-size:20px;line-height:125%;font-family:'Myriad Pro';-inkscape-font-specification:'Myriad Pro Italic';letter-spacing:0px;word-spacing:0px;fill:#000000;fill-opacity:1;stroke:none;stroke-width:1px;stroke-linecap:butt;stroke-linejoin:miter;stroke-opacity:1"
         x="-16.953684"
         y="1011.5743"
         id="text5958"
         sodipodi:linespacing="125%"><tspan
           sodipodi:role="line"
           id="tspan5960"
           x="-16.953684"
           y="1011.5743"
           style="font-size:22.5px">A</tspan></text>
      <text
         sodipodi:linespacing="125%"
         id="text5978"
         y="991.73309"
         x="28.174292"
         style="font-style:italic;font-variant:normal;font-weight:normal;font-stretch:normal;font-size:20px;line-height:125%;font-family:'Myriad Pro';-inkscape-font-specification:'Myriad Pro Italic';letter-spacing:0px;word-spacing:0px;fill:#000000;fill-opacity:1;stroke:none;stroke-width:1px;stroke-linecap:butt;stroke-linejoin:miter;stroke-opacity:1"
         xml:space="preserve"><tspan
           style="font-size:22.5px"
           y="991.73309"
           x="28.174292"
           id="tspan5980"
           sodipodi:role="line">C</tspan></text>
      <path
         transform="scale(1,-1)"
         d="m 155.60707,-986.32335 a 7.3582649,7.3582654 0 0 1 7.42063,-7.29258 7.3582649,7.3582654 0 0 1 7.29536,7.41789 7.3582649,7.3582654 0 0 1 -7.41516,7.29815 7.3582649,7.3582654 0 0 1 -7.30092,-7.41242"
         sodipodi:open="true"
         sodipodi:end="3.1489827"
         sodipodi:start="3.1504834"
         sodipodi:ry="7.3582654"
         sodipodi:rx="7.3582649"
         sodipodi:cy="-986.25793"
         sodipodi:cx="162.96504"
         sodipodi:type="arc"
         id="path4271"
         style="opacity:1;fill:none;fill-opacity:0.83628319;fill-rule:nonzero;stroke:#000000;stroke-width:3;stroke-linecap:butt;stroke-linejoin:miter;stroke-miterlimit:4;stroke-dasharray:none;stroke-dashoffset:4.19999981;stroke-opacity:1" />
      <path
         inkscape:connector-curvature="0"
         d="m 35.332297,998.31372 c 0,0 0.99476,-0.3741 0.99476,-0.7078 0,-0.3336 -0.99476,-0.7077 -0.99476,-0.7077 m 0,2.831 c 0,0 -0.99474,-0.3741 -0.99474,-0.7078 0,-0.3336 0.99474,-0.7077 0.99474,-0.7077 m 0,2.83948 c 0,0 0.99476,-0.374 0.99476,-0.7077 0,-0.3336 -0.99476,-0.70768 -0.99476,-0.70768 m 0,2.83088 c 0,0 -0.99474,-0.3741 -0.99474,-0.7078 0,-0.3336 0.99474,-0.7077 0.99474,-0.7077 m 0,2.8396 c 0,0 0.99476,-0.3741 0.99476,-0.7078 0,-0.3336 -0.99476,-0.7077 -0.99476,-0.7077 m 0,2.8309 c 0,0 -0.99474,-0.374 -0.99474,-0.7077 0,-0.3336 0.99474,-0.7077 0.99474,-0.7077 m 0,2.8395 c 0,0 0.99476,-0.3741 0.99476,-0.7078 0,-0.3335 -0.99476,-0.7076 -0.99476,-0.7076 m 0,2.8308 c 0,0 -0.99474,-0.3742 -0.99474,-0.7077 0,-0.3335 0.99474,-0.7077 0.99474,-0.7077 m 0,2.8396 c 0,0 0.99476,-0.3742 0.99476,-0.7078 0,-0.3336 -0.99476,-0.7078 -0.99476,-0.7078 m 0,2.831 c 0,0 -0.99474,-0.3742 -0.99474,-0.7078 0,-0.3336 0.99474,-0.7077 0.99474,-0.7077 m 0,2.8396 c 0,0 0.99476,-0.3742 0.99476,-0.7079 0,-0.3335 -0.99476,-0.7076 -0.99476,-0.7076 m 0,2.8309 c 0,0 -0.99474,-0.3741 -0.99474,-0.7077 0,-0.3336 0.99474,-0.7078 0.99474,-0.7078 m 0,2.831 c 0,0 0.99476,-0.3742 0.99476,-0.7078 0,-0.3336 -0.99476,-0.7077 -0.99476,-0.7077 m 0,2.8309 c 0,0 -0.99474,-0.3742 -0.99474,-0.7077 0,-0.3335 0.99474,-0.7077 0.99474,-0.7077 m 0,2.8395 c 0,0 0.99476,-0.3741 0.99476,-0.7077 0,-0.3336 -0.99476,-0.7078 -0.99476,-0.7078 m 0,2.831 c 0,0 -0.99474,-0.3742 -0.99474,-0.7078 0,-0.3336 0.99474,-0.7077 0.99474,-0.7077 m 0,2.8396 c 0,0 0.99476,-0.3742 0.99476,-0.7078 0,-0.3336 -0.99476,-0.7078 -0.99476,-0.7078 m 0,2.8309 c 0,0 -0.99474,-0.374 -0.99474,-0.7076 0,-0.3335 0.99474,-0.7077 0.99474,-0.7077 m 0,2.8394 c 0,0 0.99476,-0.3742 0.99476,-0.7078 0,-0.3335 -0.99476,-0.7077 -0.99476,-0.7077 m 0,2.8311 c 0,0 -0.99474,-0.3743 -0.99474,-0.7078 0,-0.3336 0.99474,-0.7078 0.99474,-0.7078 m 0,2.8395 c 0,0 0.99476,-0.374 0.99476,-0.7076 0,-0.3336 -0.99476,-0.7077 -0.99476,-0.7077 m 0,2.8308 c 0,0 -0.99474,-0.3741 -0.99474,-0.7077 0,-0.3336 0.99474,-0.7078 0.99474,-0.7078 m 0,2.8397 c 0,0 0.99476,-0.3742 0.99476,-0.7079 0,-0.3335 -0.99476,-0.7077 -0.99476,-0.7077 m 0,2.8309 c 0,0 -0.99474,-0.374 -0.99474,-0.7076 0,-0.3336 0.99474,-0.7077 0.99474,-0.7077"
         style="fill:none;stroke:#000000;stroke-width:1.39999998;stroke-linecap:butt;stroke-linejoin:miter;stroke-miterlimit:4;stroke-dasharray:none;stroke-opacity:1"
         id="path4725" />
      <path
         id="path4727"
         style="fill:none;stroke:#000000;stroke-width:1.39999998;stroke-linecap:butt;stroke-linejoin:miter;stroke-miterlimit:4;stroke-dasharray:none;stroke-opacity:1"
         d="m 123.97874,998.22533 c 0,0 0.99476,-0.3741 0.99476,-0.7078 0,-0.3336 -0.99476,-0.7077 -0.99476,-0.7077 m 0,2.831 c 0,0 -0.99474,-0.3741 -0.99474,-0.7078 0,-0.3336 0.99474,-0.7077 0.99474,-0.7077 m 0,2.83947 c 0,0 0.99476,-0.374 0.99476,-0.7077 0,-0.3336 -0.99476,-0.70767 -0.99476,-0.70767 m 0,2.83087 c 0,0 -0.99474,-0.3741 -0.99474,-0.7078 0,-0.3336 0.99474,-0.7077 0.99474,-0.7077 m 0,2.8396 c 0,0 0.99476,-0.3741 0.99476,-0.7078 0,-0.3336 -0.99476,-0.7077 -0.99476,-0.7077 m 0,2.8309 c 0,0 -0.99474,-0.374 -0.99474,-0.7077 0,-0.3336 0.99474,-0.7077 0.99474,-0.7077 m 0,2.8395 c 0,0 0.99476,-0.3741 0.99476,-0.7078 0,-0.3335 -0.99476,-0.7076 -0.99476,-0.7076 m 0,2.8308 c 0,0 -0.99474,-0.3742 -0.99474,-0.7077 0,-0.3335 0.99474,-0.7077 0.99474,-0.7077 m 0,2.8396 c 0,0 0.99476,-0.3742 0.99476,-0.7078 0,-0.3336 -0.99476,-0.7078 -0.99476,-0.7078 m 0,2.831 c 0,0 -0.99474,-0.3742 -0.99474,-0.7078 0,-0.3336 0.99474,-0.7077 0.99474,-0.7077 m 0,2.8396 c 0,0 0.99476,-0.3742 0.99476,-0.7079 0,-0.3335 -0.99476,-0.7076 -0.99476,-0.7076 m 0,2.8309 c 0,0 -0.99474,-0.3741 -0.99474,-0.7077 0,-0.3336 0.99474,-0.7078 0.99474,-0.7078 m 0,2.831 c 0,0 0.99476,-0.3742 0.99476,-0.7078 0,-0.3336 -0.99476,-0.7077 -0.99476,-0.7077 m 0,2.8309 c 0,0 -0.99474,-0.3742 -0.99474,-0.7077 0,-0.3335 0.99474,-0.7077 0.99474,-0.7077 m 0,2.8395 c 0,0 0.99476,-0.3741 0.99476,-0.7077 0,-0.3336 -0.99476,-0.7078 -0.99476,-0.7078 m 0,2.831 c 0,0 -0.99474,-0.3742 -0.99474,-0.7078 0,-0.3336 0.99474,-0.7077 0.99474,-0.7077 m 0,2.8396 c 0,0 0.99476,-0.3742 0.99476,-0.7078 0,-0.3336 -0.99476,-0.7078 -0.99476,-0.7078 m 0,2.8309 c 0,0 -0.99474,-0.374 -0.99474,-0.7076 0,-0.3335 0.99474,-0.7077 0.99474,-0.7077 m 0,2.8394 c 0,0 0.99476,-0.3742 0.99476,-0.7078 0,-0.3335 -0.99476,-0.7077 -0.99476,-0.7077 m 0,2.8311 c 0,0 -0.99474,-0.3743 -0.99474,-0.7078 0,-0.3336 0.99474,-0.7078 0.99474,-0.7078 m 0,2.8395 c 0,0 0.99476,-0.374 0.99476,-0.7076 0,-0.3336 -0.99476,-0.7077 -0.99476,-0.7077 m 0,2.8308 c 0,0 -0.99474,-0.3741 -0.99474,-0.7077 0,-0.3336 0.99474,-0.7078 0.99474,-0.7078 m 0,2.8397 c 0,0 0.99476,-0.3742 0.99476,-0.7079 0,-0.3335 -0.99476,-0.7077 -0.99476,-0.7077 m 0,2.8309 c 0,0 -0.99474,-0.374 -0.99474,-0.7076 0,-0.3336 0.99474,-0.7077 0.99474,-0.7077"
         inkscape:connector-curvature="0" />
      <path
         inkscape:connector-curvature="0"
         d="m 169.62378,988.6806 c 0,0 0.99476,-0.41254 0.99476,-0.78052 0,-0.36788 -0.99476,-0.78042 -0.99476,-0.78042 m 0,3.12187 c 0,0 -0.99474,-0.41253 -0.99474,-0.78052 0,-0.36788 0.99474,-0.78041 0.99474,-0.78041 m 0,3.13124 c 0,0 0.99476,-0.41242 0.99476,-0.78042 0,-0.36787 -0.99476,-0.78041 -0.99476,-0.78041 m 0,3.12177 c 0,0 -0.99474,-0.41254 -0.99474,-0.78053 0,-0.36788 0.99474,-0.78041 0.99474,-0.78041 m 0,3.13135 c 0,0 0.99476,-0.41254 0.99476,-0.78052 0,-0.36787 -0.99476,-0.78041 -0.99476,-0.78041 m 0,3.12176 c 0,0 -0.99474,-0.41243 -0.99474,-0.7804 0,-0.36788 0.99474,-0.78043 0.99474,-0.78043 m 0,3.13125 c 0,0 0.99476,-0.41253 0.99476,-0.78053 0,-0.36776 -0.99476,-0.7803 -0.99476,-0.7803 m 0,3.12166 c 0,0 -0.99474,-0.41264 -0.99474,-0.78041 0,-0.36776 0.99474,-0.78042 0.99474,-0.78042 m 0,3.13136 c 0,0 0.99476,-0.4127 0.99476,-0.7805 0,-0.3679 -0.99476,-0.78054 -0.99476,-0.78054 m 0,3.12184 c 0,0 -0.99474,-0.4125 -0.99474,-0.7805 0,-0.368 0.99474,-0.7804 0.99474,-0.7804 m 0,3.1314 c 0,0 0.99476,-0.4127 0.99476,-0.7807 0,-0.3677 -0.99476,-0.7803 -0.99476,-0.7803 m 0,3.1218 c 0,0 -0.99474,-0.4126 -0.99474,-0.7804 0,-0.368 0.99474,-0.7805 0.99474,-0.7805 m 0,3.1218 c 0,0 0.99476,-0.4126 0.99476,-0.7805 0,-0.3679 -0.99476,-0.7804 -0.99476,-0.7804 m 0,3.1218 c 0,0 -0.99474,-0.4127 -0.99474,-0.7805 0,-0.3677 0.99474,-0.7804 0.99474,-0.7804 m 0,3.1313 c 0,0 0.99476,-0.4126 0.99476,-0.7804 0,-0.368 -0.99476,-0.7806 -0.99476,-0.7806 m 0,3.1219 c 0,0 -0.99474,-0.4127 -0.99474,-0.7805 0,-0.3679 0.99474,-0.7804 0.99474,-0.7804 m 0,3.1313 c 0,0 0.99476,-0.4127 0.99476,-0.7805 0,-0.3679 -0.99476,-0.7806 -0.99476,-0.7806 m 0,3.1219 c 0,0 -0.99474,-0.4125 -0.99474,-0.7804 0,-0.3677 0.99474,-0.7804 0.99474,-0.7804 m 0,3.1311 c 0,0 0.99476,-0.4126 0.99476,-0.7805 0,-0.3677 -0.99476,-0.7804 -0.99476,-0.7804 m 0,3.122 c 0,0 -0.99474,-0.4127 -0.99474,-0.7806 0,-0.3678 0.99474,-0.7805 0.99474,-0.7805 m 0,3.1313 c 0,0 0.99476,-0.4124 0.99476,-0.7804 0,-0.3677 -0.99476,-0.7804 -0.99476,-0.7804 m 0,3.1216 c 0,0 -0.99474,-0.4124 -0.99474,-0.7803 0,-0.3679 0.99474,-0.7805 0.99474,-0.7805 m 0,3.1315 c 0,0 0.99476,-0.4126 0.99476,-0.7807 0,-0.3678 -0.99476,-0.7804 -0.99476,-0.7804 m 0,3.1217 c 0,0 -0.99474,-0.4123 -0.99474,-0.7803 0,-0.3678 0.99474,-0.7803 0.99474,-0.7803"
         style="fill:none;stroke:#000000;stroke-width:1.39999998;stroke-linecap:butt;stroke-linejoin:miter;stroke-miterlimit:4;stroke-dasharray:none;stroke-opacity:1"
         id="path4729" />
      <path
         id="path4731"
         style="fill:none;stroke:#000000;stroke-width:1.39999998;stroke-linecap:butt;stroke-linejoin:miter;stroke-miterlimit:4;stroke-dasharray:none;stroke-opacity:1"
         d="m 126.77883,978.912 c 0,0 -0.44585,-0.99476 -0.84356,-0.99476 -0.39759,0 -0.84343,0.99476 -0.84343,0.99476 m 3.37399,0 c 0,0 -0.44585,0.99474 -0.84356,0.99474 -0.39758,0 -0.84344,-0.99474 -0.84344,-0.99474 m 3.38413,0 c 0,0 -0.44574,-0.99476 -0.84344,-0.99476 -0.39758,0 -0.84344,0.99476 -0.84344,0.99476 m 3.37388,0 c 0,0 -0.44586,0.99474 -0.84356,0.99474 -0.39758,0 -0.84344,-0.99474 -0.84344,-0.99474 m 3.38425,0 c 0,0 -0.44586,-0.99476 -0.84356,-0.99476 -0.39759,0 -0.84344,0.99476 -0.84344,0.99476 m 3.37387,0 c 0,0 -0.44573,0.99474 -0.84343,0.99474 -0.39759,0 -0.84344,-0.99474 -0.84344,-0.99474 m 3.38412,0 c 0,0 -0.44584,-0.99476 -0.84355,-0.99476 -0.39747,0 -0.84333,0.99476 -0.84333,0.99476 m 3.37377,0 c 0,0 -0.44597,0.99474 -0.84344,0.99474 -0.39747,0 -0.84345,-0.99474 -0.84345,-0.99474 m 3.38426,0 c 0,0 -0.44598,-0.99476 -0.84357,-0.99476 -0.39758,0 -0.84355,0.99476 -0.84355,0.99476 m 3.374,0 c 0,0 -0.44598,0.99474 -0.84357,0.99474 -0.39758,0 -0.84343,-0.99474 -0.84343,-0.99474 m 3.38424,0 c 0,0 -0.44597,-0.99476 -0.84368,-0.99476 -0.39746,0 -0.84331,0.99476 -0.84331,0.99476 m 3.37387,0 c 0,0 -0.44585,0.99474 -0.84343,0.99474 -0.39759,0 -0.84357,-0.99474 -0.84357,-0.99474 m 3.374,0 c 0,0 -0.44597,-0.99476 -0.84355,-0.99476 -0.39759,0 -0.84345,0.99476 -0.84345,0.99476 m 3.37388,0 c 0,0 -0.44598,0.99474 -0.84343,0.99474 -0.39747,0 -0.84345,-0.99474 -0.84345,-0.99474 m 3.38413,0 c 0,0 -0.44585,-0.99476 -0.84344,-0.99476 -0.39759,0 -0.84356,0.99476 -0.84356,0.99476 m 3.37401,0 c 0,0 -0.44598,0.99474 -0.84357,0.99474 -0.39759,0 -0.84344,-0.99474 -0.84344,-0.99474 m 3.38425,0 c 0,0 -0.44597,-0.99476 -0.84356,-0.99476 -0.39759,0 -0.84355,0.99476 -0.84355,0.99476 m 3.37387,0 c 0,0 -0.44573,0.99474 -0.84332,0.99474 -0.39747,0 -0.84344,-0.99474 -0.84344,-0.99474 m 3.38401,0 c 0,0 -0.44598,-0.99476 -0.84356,-0.99476 -0.39746,0 -0.84344,0.99476 -0.84344,0.99476 m 3.37412,0 c 0,0 -0.4461,0.99474 -0.84356,0.99474 -0.39759,0 -0.84356,-0.99474 -0.84356,-0.99474 m 3.38413,0 c 0,0 -0.44574,-0.99476 -0.84332,-0.99476 -0.39759,0 -0.84344,0.99476 -0.84344,0.99476 m 3.37375,0 c 0,0 -0.44585,0.99474 -0.84343,0.99474 -0.39759,0 -0.84356,-0.99474 -0.84356,-0.99474 m 3.38436,0 c 0,0 -0.44596,-0.99476 -0.84367,-0.99476 -0.39747,0 -0.84345,0.99476 -0.84345,0.99476 m 3.37389,0 c 0,0 -0.44574,0.99474 -0.84332,0.99474 -0.39759,0 -0.84345,-0.99474 -0.84345,-0.99474"
         inkscape:connector-curvature="0" />
      <rect
         style="opacity:1;fill:none;fill-opacity:0.37004406;stroke:#000000;stroke-width:2;stroke-linecap:square;stroke-linejoin:miter;stroke-miterlimit:4;stroke-dasharray:none;stroke-dashoffset:0;stroke-opacity:1"
         id="rect4733"
         width="12.518435"
         height="12.85054"
         x="29.183687"
         y="1031.3451"
         rx="0"
         ry="0.27935669" />
      <rect
         ry="0.42958409"
         rx="0"
         y="1031.4636"
         x="114.12489"
         height="19.761074"
         width="19.705618"
         id="rect4259"
         style="opacity:1;fill:none;fill-opacity:0.37004406;stroke:#000000;stroke-width:2;stroke-linecap:square;stroke-linejoin:miter;stroke-miterlimit:4;stroke-dasharray:none;stroke-dashoffset:0;stroke-opacity:1" />
      <rect
         style="opacity:1;fill:none;fill-opacity:0.37004406;stroke:#000000;stroke-width:2;stroke-linecap:square;stroke-linejoin:miter;stroke-miterlimit:4;stroke-dasharray:none;stroke-dashoffset:0;stroke-opacity:1"
         id="rect4261"
         width="24.080618"
         height="22.261074"
         x="157.37349"
         y="1025.1884"
         rx="0"
         ry="0.48393133" />
      <path
         style="opacity:1;fill:#000000;fill-opacity:1;fill-rule:nonzero;stroke:#000000;stroke-width:1.49999988;stroke-linecap:butt;stroke-linejoin:miter;stroke-miterlimit:4;stroke-dasharray:none;stroke-dashoffset:4.19999981;stroke-opacity:1"
         id="path4263"
         sodipodi:type="arc"
         sodipodi:cx="162.92532"
         sodipodi:cy="-986.24133"
         sodipodi:rx="0.90826499"
         sodipodi:ry="0.91004103"
         sodipodi:start="3.1504834"
         sodipodi:end="3.1489827"
         sodipodi:open="true"
         d="m 162.01709,-986.24942 a 0.90826499,0.91004103 0 0 1 0.91597,-0.90192 0.90826499,0.91004103 0 0 1 0.9005,0.91742 0.90826499,0.91004103 0 0 1 -0.91529,0.9026 0.90826499,0.91004103 0 0 1 -0.90119,-0.91674"
         transform="scale(1,-1)" />
    </g>
  </g>
</svg>
