<?xml version="1.0" encoding="UTF-8" standalone="no"?>
<!-- Created with Inkscape (http://www.inkscape.org/) -->

<svg
   xmlns:osb="http://www.openswatchbook.org/uri/2009/osb"
   xmlns:dc="http://purl.org/dc/elements/1.1/"
   xmlns:cc="http://creativecommons.org/ns#"
   xmlns:rdf="http://www.w3.org/1999/02/22-rdf-syntax-ns#"
   xmlns:svg="http://www.w3.org/2000/svg"
   xmlns="http://www.w3.org/2000/svg"
   xmlns:xlink="http://www.w3.org/1999/xlink"
   xmlns:sodipodi="http://sodipodi.sourceforge.net/DTD/sodipodi-0.dtd"
   xmlns:inkscape="http://www.inkscape.org/namespaces/inkscape"
   width="210mm"
   height="297mm"
   viewBox="0 0 744.09448819 1052.3622047"
   id="svg4157"
   version="1.1"
   inkscape:version="0.91 r13725"
   sodipodi:docname="LH_37_03_071-072+AE_1684_319-325_d-4b.svg">
  <sodipodi:namedview
     id="base"
     pagecolor="#ffffff"
     bordercolor="#666666"
     borderopacity="1.0"
     inkscape:pageopacity="0.0"
     inkscape:pageshadow="2"
     inkscape:zoom="4.0209947"
     inkscape:cx="58.691945"
     inkscape:cy="33.694795"
     inkscape:document-units="px"
     inkscape:current-layer="layer1"
     showgrid="true"
     inkscape:window-width="2031"
     inkscape:window-height="1032"
     inkscape:window-x="4008"
     inkscape:window-y="943"
     inkscape:window-maximized="0"
     showguides="false">
    <inkscape:grid
       type="xygrid"
       id="grid4713" />
  </sodipodi:namedview>
  <defs
     id="defs4159">
    <linearGradient
       inkscape:collect="always"
       id="linearGradient5928">
      <stop
         style="stop-color:#000000;stop-opacity:1;"
         offset="0"
         id="stop5930" />
      <stop
         style="stop-color:#000000;stop-opacity:0;"
         offset="1"
         id="stop5932" />
    </linearGradient>
    <linearGradient
       inkscape:collect="always"
       id="linearGradient5916">
      <stop
         style="stop-color:#000000;stop-opacity:1;"
         offset="0"
         id="stop5918" />
      <stop
         style="stop-color:#000000;stop-opacity:0;"
         offset="1"
         id="stop5920" />
    </linearGradient>
    <linearGradient
       id="linearGradient5886"
       osb:paint="solid">
      <stop
         style="stop-color:#010101;stop-opacity:1;"
         offset="0"
         id="stop5888" />
    </linearGradient>
    <linearGradient
       id="linearGradient5796"
       osb:paint="gradient">
      <stop
         style="stop-color:#090909;stop-opacity:1;"
         offset="0"
         id="stop5798" />
      <stop
         style="stop-color:#090909;stop-opacity:0;"
         offset="1"
         id="stop5800" />
    </linearGradient>
    <linearGradient
       id="linearGradient4248"
       osb:paint="solid">
      <stop
         style="stop-color:#000000;stop-opacity:1;"
         offset="0"
         id="stop4250" />
    </linearGradient>
    <linearGradient
       id="linearGradient4258"
       osb:paint="gradient">
      <stop
         style="stop-color:#1e1e1e;stop-opacity:1;"
         offset="0"
         id="stop4260" />
      <stop
         style="stop-color:#1e1e1e;stop-opacity:0;"
         offset="1"
         id="stop4262" />
    </linearGradient>
    <filter
       style="color-interpolation-filters:sRGB;"
       inkscape:label="Greyscale"
       id="filter5898">
      <feColorMatrix
         values="0 0 0 0 0 0 0 0 0 0 0 0 0 0 0 -0.61 -0.72 -0.072 1.1 0 "
         id="feColorMatrix5900" />
    </filter>
    <linearGradient
       inkscape:collect="always"
       xlink:href="#linearGradient5916"
       id="linearGradient5922"
       x1="-92.125984"
       y1="1031.1024"
       x2="-113.38583"
       y2="1031.1024"
       gradientUnits="userSpaceOnUse" />
    <linearGradient
       inkscape:collect="always"
       xlink:href="#linearGradient5928"
       id="linearGradient5936"
       x1="95.669289"
       y1="1020.4724"
       x2="116.92913"
       y2="1013.3858"
       gradientUnits="userSpaceOnUse" />
    <linearGradient
       inkscape:collect="always"
       xlink:href="#linearGradient5916-921"
       id="linearGradient5922-878"
       x1="-92.125984"
       y1="1031.1024"
       x2="-113.38583"
       y2="1031.1024"
       gradientUnits="userSpaceOnUse" />
    <linearGradient
       inkscape:collect="always"
       id="linearGradient5916-921">
      <stop
         style="stop-color:#000000;stop-opacity:1;"
         offset="0"
         id="stop4431" />
      <stop
         style="stop-color:#000000;stop-opacity:0;"
         offset="1"
         id="stop4433" />
    </linearGradient>
    <linearGradient
       inkscape:collect="always"
       xlink:href="#linearGradient5928-598"
       id="linearGradient5936-507"
       x1="95.669289"
       y1="1020.4724"
       x2="116.92913"
       y2="1013.3858"
       gradientUnits="userSpaceOnUse" />
    <linearGradient
       inkscape:collect="always"
       id="linearGradient5928-598">
      <stop
         style="stop-color:#000000;stop-opacity:1;"
         offset="0"
         id="stop4437" />
      <stop
         style="stop-color:#000000;stop-opacity:0;"
         offset="1"
         id="stop4439" />
    </linearGradient>
    <filter
       id="filter5898-1"
       inkscape:label="Greyscale"
       style="color-interpolation-filters:sRGB;">
      <feColorMatrix
         id="feColorMatrix5900-3"
         values="0 0 0 0 0 0 0 0 0 0 0 0 0 0 0 -0.61 -0.72 -0.072 1.1 0 " />
    </filter>
    <linearGradient
       gradientUnits="userSpaceOnUse"
       y2="1031.1024"
       x2="-113.38583"
       y1="1031.1024"
       x1="-92.125984"
       id="linearGradient4580"
       xlink:href="#linearGradient5928"
       inkscape:collect="always" />
    <linearGradient
       gradientUnits="userSpaceOnUse"
       y2="1013.3858"
       x2="116.92913"
       y1="1020.4724"
       x1="95.669289"
       id="linearGradient4582"
       xlink:href="#linearGradient5928"
       inkscape:collect="always" />
  </defs>
  <metadata
     id="metadata4162">
    <rdf:RDF>
      <cc:Work
         rdf:about="">
        <dc:format>image/svg+xml</dc:format>
        <dc:type
           rdf:resource="http://purl.org/dc/dcmitype/StillImage" />
        <dc:title></dc:title>
      </cc:Work>
    </rdf:RDF>
  </metadata>
  <g
     inkscape:label="Ebene 1"
     inkscape:groupmode="layer"
     id="layer1">
    <text
       xml:space="preserve"
       style="font-style:normal;font-weight:normal;font-size:30px;line-height:125%;font-family:sans-serif;letter-spacing:0px;word-spacing:0px;fill:#000000;fill-opacity:1;stroke:none;stroke-width:1px;stroke-linecap:butt;stroke-linejoin:miter;stroke-opacity:1"
       x="-28.346457"
       y="903.54333"
       id="text5954"
       sodipodi:linespacing="125%"><tspan
         sodipodi:role="line"
         id="tspan5956"
         x="-28.346457"
         y="903.54333" /></text>
    <text
       xml:space="preserve"
       style="font-style:normal;font-weight:normal;font-size:30px;line-height:125%;font-family:sans-serif;letter-spacing:0px;word-spacing:0px;fill:#000000;fill-opacity:1;stroke:none;stroke-width:1px;stroke-linecap:butt;stroke-linejoin:miter;stroke-opacity:1"
       x="225.45767"
       y="885.95526"
       id="text5954-3"
       sodipodi:linespacing="125%"><tspan
         sodipodi:role="line"
         id="tspan5956-3"
         x="225.45767"
         y="885.95526" /></text>
    <flowRoot
       style="font-style:italic;font-variant:normal;font-weight:normal;font-stretch:normal;font-size:15px;line-height:1.25;font-family:'Myriad Pro';-inkscape-font-specification:'Myriad Pro Italic';letter-spacing:0px;word-spacing:0px;fill:#000000;fill-opacity:1;stroke:none;stroke-width:1.33333337;stroke-miterlimit:4;stroke-dasharray:none"
       id="flowRoot2756"
       xml:space="preserve"
       transform="translate(253.80413,-17.588096)"><flowRegion
         style="stroke-width:1.33333337;stroke-miterlimit:4;stroke-dasharray:none"
         id="flowRegion2752"><rect
           style="stroke-width:1.33333337;stroke-miterlimit:4;stroke-dasharray:none"
           y="1167.236"
           x="-26.23637"
           height="19.225445"
           width="15.381737"
           id="rect2750" /></flowRegion><flowPara
         id="flowPara2754">ba</flowPara></flowRoot>    <g
       id="g2772"
       transform="matrix(3.5433071,0,0,3.5433071,-14.56922,470.35291)">
      <flowRoot
         transform="matrix(0.26458333,0,0,0.26458333,84.494687,52.798796)"
         style="font-style:italic;font-variant:normal;font-weight:normal;font-stretch:normal;font-size:16px;line-height:1.25;font-family:'Myriad Pro';-inkscape-font-specification:'Myriad Pro Italic';letter-spacing:0px;word-spacing:0px;fill:#000000;fill-opacity:1;stroke:none;stroke-width:1.33333337;stroke-miterlimit:4;stroke-dasharray:none"
         id="flowRoot2770"
         xml:space="preserve"><flowRegion
           style="stroke-width:1.33333337;stroke-miterlimit:4;stroke-dasharray:none"
           id="flowRegion2766"><rect
             style="stroke-width:1.33333337;stroke-miterlimit:4;stroke-dasharray:none"
             y="507.02673"
             x="154.92958"
             height="21.030718"
             width="11.171583"
             id="rect2764" /></flowRegion><flowPara
           id="flowPara2768" /></flowRoot>    </g>
    <flowRoot
       xml:space="preserve"
       id="flowRoot2774"
       style="font-style:italic;font-variant:normal;font-weight:normal;font-stretch:normal;font-size:16px;line-height:1.25;font-family:'Myriad Pro';-inkscape-font-specification:'Myriad Pro Italic';letter-spacing:0px;word-spacing:0px;fill:#000000;fill-opacity:1;stroke:none"
       transform="matrix(3.5433071,0,0,3.5433071,-14.56922,385.97788)"><flowRegion
         id="flowRegion2776"><rect
           id="rect2778"
           width="8.9005375"
           height="21.989517"
           x="469.10992"
           y="800.53015" /></flowRegion><flowPara
         id="flowPara2780" /></flowRoot>    <g
       id="g4200">
      <path
         inkscape:connector-curvature="0"
         id="path4734"
         d="m 0.37139198,928.64348 c 0,123.56592 0,123.56592 0,123.56592 l 0,0 0,0"
         style="fill:none;fill-rule:evenodd;stroke:#000000;stroke-width:1.50000012;stroke-linecap:butt;stroke-linejoin:miter;stroke-miterlimit:4;stroke-dasharray:none;stroke-opacity:1" />
      <path
         style="fill:none;fill-rule:evenodd;stroke:#000000;stroke-width:1.5;stroke-linecap:butt;stroke-linejoin:miter;stroke-miterlimit:4;stroke-dasharray:none;stroke-opacity:1"
         d="m -1.2634941,1051.5622 c 3.54331,0 3.54331,0 3.54331,0 l 0,0 0,0"
         id="path4736"
         inkscape:connector-curvature="0" />
      <path
         inkscape:connector-curvature="0"
         id="path4738"
         d="m -1.2634941,929.21868 c 3.54331,0 3.54331,0 3.54331,0 l 0,0 0,0"
         style="fill:none;fill-rule:evenodd;stroke:#000000;stroke-width:1.5;stroke-linecap:butt;stroke-linejoin:miter;stroke-miterlimit:4;stroke-dasharray:none;stroke-opacity:1" />
      <rect
         ry="0.80812663"
         rx="0"
         y="959.50037"
         x="0.53571433"
         height="37.17421"
         width="123.05573"
         id="rect4740"
         style="opacity:1;fill:none;fill-opacity:0.37004406;stroke:#000000;stroke-width:1.5;stroke-linecap:square;stroke-linejoin:miter;stroke-miterlimit:4;stroke-dasharray:none;stroke-dashoffset:0;stroke-opacity:1" />
      <text
         xml:space="preserve"
         style="font-style:italic;font-variant:normal;font-weight:normal;font-stretch:normal;font-size:20px;line-height:125%;font-family:'Myriad Pro';-inkscape-font-specification:'Myriad Pro Italic';letter-spacing:0px;word-spacing:0px;fill:#000000;fill-opacity:1;stroke:none;stroke-width:1px;stroke-linecap:butt;stroke-linejoin:miter;stroke-opacity:1"
         x="-17.703684"
         y="960.33539"
         id="text5946"
         sodipodi:linespacing="125%"><tspan
           sodipodi:role="line"
           id="tspan5948"
           x="-17.703684"
           y="960.33539"
           style="font-size:22.5px">B</tspan></text>
      <text
         xml:space="preserve"
         style="font-style:italic;font-variant:normal;font-weight:normal;font-stretch:normal;font-size:20px;line-height:125%;font-family:'Myriad Pro';-inkscape-font-specification:'Myriad Pro Italic';letter-spacing:0px;word-spacing:0px;fill:#000000;fill-opacity:1;stroke:none;stroke-width:1px;stroke-linecap:butt;stroke-linejoin:miter;stroke-opacity:1"
         x="-16.953684"
         y="1011.5743"
         id="text5958"
         sodipodi:linespacing="125%"><tspan
           sodipodi:role="line"
           id="tspan5960"
           x="-16.953684"
           y="1011.5743"
           style="font-size:22.5px">A</tspan></text>
      <text
         sodipodi:linespacing="125%"
         id="text5978"
         y="985.14771"
         x="66.359367"
         style="font-style:italic;font-variant:normal;font-weight:normal;font-stretch:normal;font-size:20px;line-height:125%;font-family:'Myriad Pro';-inkscape-font-specification:'Myriad Pro Italic';letter-spacing:0px;word-spacing:0px;fill:#000000;fill-opacity:1;stroke:none;stroke-width:1px;stroke-linecap:butt;stroke-linejoin:miter;stroke-opacity:1"
         xml:space="preserve"><tspan
           style="font-size:22.5px"
           y="985.14771"
           x="66.359367"
           id="tspan5980"
           sodipodi:role="line">K</tspan></text>
      <path
         transform="scale(1,-1)"
         d="m 52.354406,-1041.6391 a 9.3799162,9.37992 0 0 1 9.45942,-9.2961 9.3799162,9.37992 0 0 1 9.299731,9.4559 9.3799162,9.37992 0 0 1 -9.452442,9.3033 9.3799162,9.37992 0 0 1 -9.306823,-9.449"
         sodipodi:open="true"
         sodipodi:end="3.1489827"
         sodipodi:start="3.1504834"
         sodipodi:ry="9.37992"
         sodipodi:rx="9.3799162"
         sodipodi:cy="-1041.5557"
         sodipodi:cx="61.733952"
         sodipodi:type="arc"
         id="path4271"
         style="opacity:1;fill:none;fill-opacity:0.83628319;fill-rule:nonzero;stroke:#000000;stroke-width:2;stroke-linecap:butt;stroke-linejoin:miter;stroke-miterlimit:4;stroke-dasharray:none;stroke-dashoffset:4.19999981;stroke-opacity:1" />
      <path
         inkscape:connector-curvature="0"
         d="m 62.359789,998.33922 c 0,0 0.99476,-0.38094 0.99476,-0.72074 0,-0.33969 -0.99476,-0.72063 -0.99476,-0.72063 m 0,2.88275 c 0,0 -0.99474,-0.38094 -0.99474,-0.72074 0,-0.3397 0.99474,-0.72064 0.99474,-0.72064 m 0,2.89138 c 0,0 0.99476,-0.3808 0.99476,-0.7206 0,-0.3397 -0.99476,-0.72065 -0.99476,-0.72065 m 0,2.88265 c 0,0 -0.99474,-0.381 -0.99474,-0.7208 0,-0.3397 0.99474,-0.7206 0.99474,-0.7206 m 0,2.8915 c 0,0 0.99476,-0.3809 0.99476,-0.7207 0,-0.3397 -0.99476,-0.7207 -0.99476,-0.7207 m 0,2.8827 c 0,0 -0.99474,-0.3809 -0.99474,-0.7207 0,-0.3396 0.99474,-0.7206 0.99474,-0.7206 m 0,2.8914 c 0,0 0.99476,-0.3809 0.99476,-0.7207 0,-0.3396 -0.99476,-0.7206 -0.99476,-0.7206 m 0,2.8826 c 0,0 -0.99474,-0.3811 -0.99474,-0.7206 0,-0.3396 0.99474,-0.7207 0.99474,-0.7207 m 0,2.8915 c 0,0 0.99476,-0.381 0.99476,-0.7207 0,-0.3397 -0.99476,-0.7208 -0.99476,-0.7208 m 0,2.8828 c 0,0 -0.99474,-0.381 -0.99474,-0.7207 0,-0.3397 0.99474,-0.7207 0.99474,-0.7207 m 0,2.8915 c 0,0 0.99476,-0.381 0.99476,-0.7208 0,-0.3396 -0.99476,-0.7205 -0.99476,-0.7205 m 0,2.8826 c 0,0 -0.99474,-0.3809 -0.99474,-0.7206 0,-0.3397 0.99474,-0.7208 0.99474,-0.7208 m 0,2.8828 c 0,0 0.99476,-0.3811 0.99476,-0.7208 0,-0.3397 -0.99476,-0.7206 -0.99476,-0.7206 m 0,2.8826 c 0,0 -0.99474,-0.381 -0.99474,-0.7206 0,-0.3396 0.99474,-0.7206 0.99474,-0.7206 m 0,2.8914 c 0,0 0.99476,-0.381 0.99476,-0.7207 0,-0.3397 -0.99476,-0.7207 -0.99476,-0.7207 m 0,2.8828 c 0,0 -0.99474,-0.3811 -0.99474,-0.7208 0,-0.3397 0.99474,-0.7206 0.99474,-0.7206 m 0,2.8915 c 0,0 0.99476,-0.3811 0.99476,-0.7208 0,-0.3397 -0.99476,-0.7207 -0.99476,-0.7207 m 0,2.8827 c 0,0 -0.99474,-0.3809 -0.99474,-0.7206 0,-0.3396 0.99474,-0.7206 0.99474,-0.7206 m 0,2.8913 c 0,0 0.99476,-0.3811 0.99476,-0.7208 0,-0.3395 -0.99476,-0.7206 -0.99476,-0.7206 m 0,2.8829 c 0,0 -0.99474,-0.3812 -0.99474,-0.7208 0,-0.3397 0.99474,-0.7207 0.99474,-0.7207 m 0,2.8914 c 0,0 0.99476,-0.3808 0.99476,-0.7205 0,-0.3397 -0.99476,-0.7207 -0.99476,-0.7207 m 0,2.8826 c 0,0 -0.99474,-0.381 -0.99474,-0.7207 0,-0.3397 0.99474,-0.7207 0.99474,-0.7207 m 0,2.8916 c 0,0 0.99476,-0.381 0.99476,-0.7208 0,-0.3396 -0.99476,-0.7207 -0.99476,-0.7207 m 0,2.8827 c 0,0 -0.99474,-0.3809 -0.99474,-0.7206 0,-0.3397 0.99474,-0.7206 0.99474,-0.7206"
         style="fill:none;stroke:#000000;stroke-width:1.4;stroke-linecap:butt;stroke-linejoin:miter;stroke-miterlimit:4;stroke-dasharray:none;stroke-opacity:1"
         id="path4725" />
      <path
         style="opacity:1;fill:#000000;fill-opacity:1;fill-rule:nonzero;stroke:#000000;stroke-width:1.49999988;stroke-linecap:butt;stroke-linejoin:miter;stroke-miterlimit:4;stroke-dasharray:none;stroke-dashoffset:4.19999981;stroke-opacity:1"
         id="path4263"
         sodipodi:type="arc"
         sodipodi:cx="61.996681"
         sodipodi:cy="-978.52966"
         sodipodi:rx="0.90826499"
         sodipodi:ry="0.91004103"
         sodipodi:start="3.1504834"
         sodipodi:end="3.1489827"
         sodipodi:open="true"
         d="m 61.088452,-978.53775 a 0.90826499,0.91004103 0 0 1 0.915964,-0.90192 0.90826499,0.91004103 0 0 1 0.9005,0.91741 0.90826499,0.91004103 0 0 1 -0.915288,0.90261 0.90826499,0.91004103 0 0 1 -0.901187,-0.91674"
         transform="scale(1,-1)" />
      <text
         xml:space="preserve"
         style="font-style:italic;font-variant:normal;font-weight:normal;font-stretch:normal;font-size:20px;line-height:125%;font-family:'Myriad Pro';-inkscape-font-specification:'Myriad Pro Italic';letter-spacing:0px;word-spacing:0px;fill:#000000;fill-opacity:1;stroke:none;stroke-width:1px;stroke-linecap:butt;stroke-linejoin:miter;stroke-opacity:1"
         x="77.301933"
         y="1048.0675"
         id="text4196"
         sodipodi:linespacing="125%"><tspan
           sodipodi:role="line"
           id="tspan4198"
           x="77.301933"
           y="1048.0675"
           style="font-size:22.5px">I</tspan></text>
    </g>
  </g>
</svg>
