<?xml version="1.0" encoding="UTF-8" standalone="no"?>
<!-- Created with Inkscape (http://www.inkscape.org/) -->

<svg
   xmlns:osb="http://www.openswatchbook.org/uri/2009/osb"
   xmlns:dc="http://purl.org/dc/elements/1.1/"
   xmlns:cc="http://creativecommons.org/ns#"
   xmlns:rdf="http://www.w3.org/1999/02/22-rdf-syntax-ns#"
   xmlns:svg="http://www.w3.org/2000/svg"
   xmlns="http://www.w3.org/2000/svg"
   xmlns:sodipodi="http://sodipodi.sourceforge.net/DTD/sodipodi-0.dtd"
   xmlns:inkscape="http://www.inkscape.org/namespaces/inkscape"
   width="210mm"
   height="297mm"
   viewBox="0 0 744.09448819 1052.3622047"
   id="svg3338"
   version="1.1"
   inkscape:version="0.91 r13725"
   sodipodi:docname="LH035,09,15_008-009_d-4.svg">
  <defs
     id="defs3340">
    <linearGradient
       id="linearGradient5594"
       osb:paint="solid">
      <stop
         style="stop-color:#000000;stop-opacity:1;"
         offset="0"
         id="stop5596" />
    </linearGradient>
  </defs>
  <sodipodi:namedview
     id="base"
     pagecolor="#ffffff"
     bordercolor="#666666"
     borderopacity="1.0"
     inkscape:pageopacity="0.0"
     inkscape:pageshadow="2"
     inkscape:zoom="5.6568542"
     inkscape:cx="107.65372"
     inkscape:cy="817.13762"
     inkscape:document-units="px"
     inkscape:current-layer="layer1"
     showgrid="true"
     showguides="true"
     inkscape:window-width="2048"
     inkscape:window-height="1036"
     inkscape:window-x="2832"
     inkscape:window-y="1"
     inkscape:window-maximized="1"
     inkscape:snap-bbox="true"
     inkscape:snap-global="false">
    <inkscape:grid
       type="xygrid"
       id="grid3346" />
  </sodipodi:namedview>
  <metadata
     id="metadata3343">
    <rdf:RDF>
      <cc:Work
         rdf:about="">
        <dc:format>image/svg+xml</dc:format>
        <dc:type
           rdf:resource="http://purl.org/dc/dcmitype/StillImage" />
        <dc:title />
      </cc:Work>
    </rdf:RDF>
  </metadata>
  <g
     inkscape:label="Ebene 1"
     inkscape:groupmode="layer"
     id="layer1">
    <path
       inkscape:connector-curvature="0"
       id="path5689"
       d="m 0.05872022,202.39423 c 8.95780158,0.007 17.94075378,0.007 26.91332878,0.008 12.308589,-0.0104 24.609051,-0.0363 36.938351,-0.0304 8.849184,0.0156 17.71315,0.0324 26.608724,0.0247 3.158003,3.2e-4 6.316336,3.4e-4 9.474592,3e-4 -0.07447,-0.006 -0.568714,0.004 -0.657651,-0.002"
       style="fill:none;fill-rule:evenodd;stroke:#000000;stroke-width:1;stroke-linecap:round;stroke-linejoin:round;stroke-miterlimit:4;stroke-dasharray:none;stroke-opacity:1" />
    <path
       style="fill:none;fill-rule:evenodd;stroke:#000000;stroke-width:1;stroke-linecap:round;stroke-linejoin:round;stroke-miterlimit:4;stroke-dasharray:none;stroke-opacity:1"
       d="m 0.13522879,226.94363 c 17.90911921,0.0149 35.86851421,0.0138 53.80717021,0.0153 24.608265,-0.0206 49.200281,-0.0726 73.849951,-0.0611 17.69196,0.0312 35.41347,0.0651 53.19817,0.0495 6.31374,6.5e-4 12.62812,7e-4 18.94234,6.1e-4 -0.14884,-0.0126 -1.13701,0.008 -1.31484,-0.005"
       id="path4152"
       inkscape:connector-curvature="0" />
    <path
       inkscape:connector-curvature="0"
       id="path4156"
       d="m 25.050651,204.34838 c 7.56e-4,-0.15577 7.09e-4,-0.31199 7.56e-4,-0.468 -0.0011,-0.21406 -0.0037,-0.42795 -0.0031,-0.64234 0.0015,-0.15393 0.0034,-0.30803 0.0025,-0.46271 3.1e-5,-0.0549 3.2e-5,-0.1099 2.9e-5,-0.16477 -6.45e-4,0.002 4.3e-4,0.009 -2.34e-4,0.0108"
       style="fill:none;fill-rule:evenodd;stroke:#000000;stroke-width:1;stroke-linecap:butt;stroke-linejoin:miter;stroke-miterlimit:4;stroke-dasharray:none;stroke-opacity:1" />
    <path
       inkscape:connector-curvature="0"
       id="path4164"
       d="m 100.00414,224.40055 c 9.1e-4,0.18764 8.5e-4,0.3758 9.1e-4,0.56373 -9.3e-4,0.25783 -0.005,0.51548 -0.004,0.77372 0.002,0.18536 0.004,0.37102 0.003,0.55735 4e-5,0.0661 4e-5,0.1323 4e-5,0.19846 -7.8e-4,-0.002 5.2e-4,-0.0119 -2.8e-4,-0.0137"
       style="fill:none;fill-rule:evenodd;stroke:#000000;stroke-width:1;stroke-linecap:butt;stroke-linejoin:miter;stroke-miterlimit:4;stroke-dasharray:none;stroke-opacity:1" />
    <path
       style="fill:none;fill-rule:evenodd;stroke:#000000;stroke-width:1;stroke-linecap:butt;stroke-linejoin:miter;stroke-miterlimit:4;stroke-dasharray:none;stroke-opacity:1"
       d="m 50.019805,224.38501 c 9.44e-4,0.195 8.86e-4,0.39054 9.44e-4,0.58585 -9.63e-4,0.26795 -0.0048,0.53571 -0.0039,0.80409 0.0019,0.19263 0.0039,0.38558 0.0029,0.57922 3.8e-5,0.0687 3.8e-5,0.1375 3.8e-5,0.20625 -8.09e-4,-0.002 5.4e-4,-0.0123 -2.89e-4,-0.0143"
       id="path4166"
       inkscape:connector-curvature="0" />
    <path
       style="fill:none;fill-rule:evenodd;stroke:#000000;stroke-width:1;stroke-linecap:butt;stroke-linejoin:miter;stroke-miterlimit:4;stroke-dasharray:none;stroke-opacity:1"
       d="m 50.019401,204.34839 c 7.56e-4,-0.15577 7.09e-4,-0.31199 7.56e-4,-0.468 -0.0011,-0.21406 -0.0037,-0.42795 -0.0031,-0.64234 0.0015,-0.15393 0.0034,-0.30803 0.0025,-0.46271 3.1e-5,-0.0549 3.2e-5,-0.1099 2.9e-5,-0.16477 -6.45e-4,0.002 4.3e-4,0.009 -2.34e-4,0.0108"
       id="path4157"
       inkscape:connector-curvature="0" />
    <path
       inkscape:connector-curvature="0"
       id="path4159"
       d="m 75.003776,204.36402 c 7.56e-4,-0.15577 7.09e-4,-0.31199 7.56e-4,-0.468 -0.0011,-0.21406 -0.0037,-0.42795 -0.0031,-0.64234 0.0015,-0.15393 0.0034,-0.30803 0.0025,-0.46271 3.1e-5,-0.0549 3.2e-5,-0.1099 2.9e-5,-0.16477 -6.45e-4,0.002 4.3e-4,0.009 -2.34e-4,0.0108"
       style="fill:none;fill-rule:evenodd;stroke:#000000;stroke-width:1;stroke-linecap:butt;stroke-linejoin:miter;stroke-miterlimit:4;stroke-dasharray:none;stroke-opacity:1" />
    <path
       style="fill:none;fill-rule:evenodd;stroke:#000000;stroke-width:1;stroke-linecap:butt;stroke-linejoin:miter;stroke-miterlimit:4;stroke-dasharray:none;stroke-opacity:1"
       d="m 150.00651,224.38156 c 9.1e-4,0.18764 8.5e-4,0.3758 9.1e-4,0.56373 -9.3e-4,0.25783 -0.005,0.51548 -0.004,0.77372 0.002,0.18536 0.004,0.37102 0.003,0.55735 4e-5,0.0661 4e-5,0.1323 4e-5,0.19846 -7.8e-4,-0.002 5.2e-4,-0.0119 -2.8e-4,-0.0137"
       id="path4161"
       inkscape:connector-curvature="0" />
    <path
       inkscape:connector-curvature="0"
       id="path4163"
       d="m 200.00917,224.89711 c 9.4e-4,0.18064 8.8e-4,0.36178 9.4e-4,0.54269 -9.6e-4,0.24822 -0.005,0.49625 -0.004,0.74486 0.002,0.17844 0.004,0.35718 0.003,0.53655 5e-5,0.0636 5e-5,0.12737 5e-5,0.19106 -8.1e-4,-0.002 5.3e-4,-0.0115 -2.9e-4,-0.0132"
       style="fill:none;fill-rule:evenodd;stroke:#000000;stroke-width:1;stroke-linecap:square;stroke-linejoin:round;stroke-miterlimit:4;stroke-dasharray:none;stroke-opacity:1" />
    <path
       style="fill:none;fill-rule:evenodd;stroke:#000000;stroke-width:1;stroke-linecap:butt;stroke-linejoin:round;stroke-miterlimit:4;stroke-dasharray:none;stroke-opacity:1"
       d="m 100.00489,204.35291 c 7.7e-4,-0.15961 7.3e-4,-0.31968 7.7e-4,-0.47954 -0.001,-0.21934 -0.004,-0.43851 -0.003,-0.65818 0.002,-0.15773 0.004,-0.31563 0.003,-0.47412 4e-5,-0.0563 4e-5,-0.11262 3e-5,-0.16884 -6.6e-4,0.002 4.4e-4,0.009 -2.4e-4,0.0111"
       id="path4165"
       inkscape:connector-curvature="0" />
    <path
       inkscape:connector-curvature="0"
       id="path4167"
       d="m 0.00815211,197.37987 c 0.01513905,3.12725 0.01420886,6.26317 0.01513905,9.3954 -0.01544399,4.29718 -0.07697874,8.59133 -0.06254521,12.89536 0.03047057,3.08925 0.06254521,6.18366 0.04650798,9.28912 6.0938e-4,1.10174 6.0938e-4,2.20511 6.0938e-4,3.30767 -0.01297412,-0.0333 0.00866011,-0.1973 -0.00463474,-0.2295"
       style="fill:none;fill-rule:evenodd;stroke:#000000;stroke-width:1;stroke-linecap:butt;stroke-linejoin:miter;stroke-miterlimit:4;stroke-dasharray:none;stroke-opacity:1" />
  </g>
</svg>
