<?xml version="1.0" encoding="UTF-8" standalone="no"?>
<!-- Created with Inkscape (http://www.inkscape.org/) -->

<svg
   xmlns:osb="http://www.openswatchbook.org/uri/2009/osb"
   xmlns:dc="http://purl.org/dc/elements/1.1/"
   xmlns:cc="http://creativecommons.org/ns#"
   xmlns:rdf="http://www.w3.org/1999/02/22-rdf-syntax-ns#"
   xmlns:svg="http://www.w3.org/2000/svg"
   xmlns="http://www.w3.org/2000/svg"
   xmlns:sodipodi="http://sodipodi.sourceforge.net/DTD/sodipodi-0.dtd"
   xmlns:inkscape="http://www.inkscape.org/namespaces/inkscape"
   sodipodi:docname="LH035,09,15_016-017_d-2.svg"
   inkscape:version="0.91 r13725"
   version="1.1"
   id="svg3338"
   viewBox="0 0 744.09448819 1052.3622047"
   height="297mm"
   width="210mm">
  <defs
     id="defs3340">
    <linearGradient
       id="linearGradient5594"
       osb:paint="solid">
      <stop
         style="stop-color:#000000;stop-opacity:1;"
         offset="0"
         id="stop5596" />
    </linearGradient>
  </defs>
  <sodipodi:namedview
     inkscape:snap-global="false"
     inkscape:snap-bbox="true"
     inkscape:window-maximized="1"
     inkscape:window-y="1"
     inkscape:window-x="2960"
     inkscape:window-height="1036"
     inkscape:window-width="2048"
     showguides="true"
     showgrid="true"
     inkscape:current-layer="layer1"
     inkscape:document-units="px"
     inkscape:cy="1004.3353"
     inkscape:cx="74.702365"
     inkscape:zoom="6.219775"
     inkscape:pageshadow="2"
     inkscape:pageopacity="0.0"
     borderopacity="1.0"
     bordercolor="#666666"
     pagecolor="#ffffff"
     id="base">
    <inkscape:grid
       type="xygrid"
       id="grid3346" />
  </sodipodi:namedview>
  <metadata
     id="metadata3343">
    <rdf:RDF>
      <cc:Work
         rdf:about="">
        <dc:format>image/svg+xml</dc:format>
        <dc:type
           rdf:resource="http://purl.org/dc/dcmitype/StillImage" />
        <dc:title></dc:title>
      </cc:Work>
    </rdf:RDF>
  </metadata>
  <g
     inkscape:label="Ebene 1"
     inkscape:groupmode="layer"
     id="layer1">
    <path
       style="fill:none;fill-rule:evenodd;stroke:#000000;stroke-width:1.00033784;stroke-linecap:round;stroke-linejoin:round;stroke-miterlimit:4;stroke-dasharray:none;stroke-opacity:1"
       d="m 0.5072925,25.083082 c 14.2497485,-0.06981 28.5395055,-0.06486 42.8127615,-0.07144 19.580067,0.09614 39.147196,0.337896 58.760206,0.283912 14.07696,-0.144939 28.17745,-0.302347 42.32822,-0.229927 5.02367,-0.0029 10.04779,-0.0032 15.07183,-0.0028 -0.11843,0.05892 -0.90467,-0.04009 -1.04618,0.02005"
       id="path5640"
       inkscape:connector-curvature="0" />
    <path
       inkscape:connector-curvature="0"
       id="path5644"
       d="m 0.04353032,42.013181 c 12.69857868,-0.0157 25.43281068,-0.01458 38.15233268,-0.01606 17.448659,0.02161 34.885792,0.07596 52.363812,0.06382 12.544585,-0.03255 25.110145,-0.06796 37.720515,-0.05167 4.47681,-6.63e-4 8.95407,-7.29e-4 13.43121,-6.24e-4 -0.10552,0.01323 -0.80624,-0.009 -0.93231,0.0045"
       style="fill:none;fill-rule:evenodd;stroke:#000000;stroke-width:1;stroke-linecap:butt;stroke-linejoin:miter;stroke-miterlimit:4;stroke-dasharray:none;stroke-opacity:1" />
    <path
       style="fill:none;fill-rule:evenodd;stroke:#000000;stroke-width:0.90853405;stroke-linecap:butt;stroke-linejoin:miter;stroke-miterlimit:4;stroke-dasharray:none;stroke-opacity:1"
       d="m 0.45524843,42.519434 c 0.001757,-1.586216 0.002166,-3.176914 0.002765,-4.765771 -0.001143,-2.179637 -0.004998,-4.357893 -0.003337,-6.541141 0.003153,-1.56695 0.006616,-3.136514 0.005704,-4.711767 2.3242e-4,-0.55922 3.6533e-4,-1.118493 5.959e-4,-1.677756 -0.001152,0.01316 7.2014e-4,0.100723 -4.1186e-4,0.11645"
       id="path5646"
       inkscape:connector-curvature="0"
       inkscape:transform-center-x="-8.1332299"
       inkscape:transform-center-y="0.30035775" />
    <text
       xml:space="preserve"
       style="font-style:normal;font-weight:normal;font-size:15px;line-height:125%;font-family:sans-serif;letter-spacing:0px;word-spacing:0px;fill:#000000;fill-opacity:1;stroke:none;stroke-width:1px;stroke-linecap:butt;stroke-linejoin:miter;stroke-opacity:1"
       x="0.97103298"
       y="56.313278"
       id="text5648"
       sodipodi:linespacing="125%"><tspan
         sodipodi:role="line"
         id="tspan5650"
         x="0.97103298"
         y="56.313278"
         style="font-style:italic;font-variant:normal;font-weight:normal;font-stretch:normal;font-size:15px;font-family:'Myriad Pro';-inkscape-font-specification:'Myriad Pro Italic'">A</tspan></text>
    <text
       sodipodi:linespacing="125%"
       id="text5652"
       y="87.99353"
       x="174.9612"
       style="font-style:normal;font-weight:normal;font-size:15px;line-height:125%;font-family:sans-serif;letter-spacing:0px;word-spacing:0px;fill:#000000;fill-opacity:1;stroke:none;stroke-width:1px;stroke-linecap:butt;stroke-linejoin:miter;stroke-opacity:1"
       xml:space="preserve"><tspan
         style="font-style:italic;font-variant:normal;font-weight:normal;font-stretch:normal;font-size:15px;font-family:'Myriad Pro';-inkscape-font-specification:'Myriad Pro Italic'"
         y="87.99353"
         x="174.9612"
         id="tspan5654"
         sodipodi:role="line">D</tspan></text>
    <text
       xml:space="preserve"
       style="font-style:normal;font-weight:normal;font-size:15px;line-height:125%;font-family:sans-serif;letter-spacing:0px;word-spacing:0px;fill:#000000;fill-opacity:1;stroke:none;stroke-width:1px;stroke-linecap:butt;stroke-linejoin:miter;stroke-opacity:1"
       x="131.85571"
       y="56.252804"
       id="text5656"
       sodipodi:linespacing="125%"><tspan
         sodipodi:role="line"
         id="tspan5658"
         x="131.85571"
         y="56.252804"
         style="font-style:italic;font-variant:normal;font-weight:normal;font-stretch:normal;font-size:15px;font-family:'Myriad Pro';-inkscape-font-specification:'Myriad Pro Italic'">B</tspan></text>
    <path
       inkscape:connector-curvature="0"
       id="path4182"
       d="m 159.48185,74.361993 c 0.002,-4.419227 0.004,-8.850983 0.006,-13.277591 -3e-4,-6.072534 -0.003,-12.141261 -3e-4,-18.223858 0.004,-4.365553 0.009,-8.738404 0.009,-13.127113 6.4e-4,-1.558004 7.8e-4,-3.116155 0.002,-4.674281 -9.8e-4,0.03675 9.8e-4,0.280615 -8.8e-4,0.324427"
       style="fill:none;fill-rule:evenodd;stroke:#000000;stroke-width:0.99999994;stroke-linecap:butt;stroke-linejoin:round;stroke-miterlimit:4;stroke-dasharray:none;stroke-dashoffset:0;stroke-opacity:1" />
    <path
       style="opacity:1;fill:none;fill-opacity:1;stroke:#000000;stroke-width:2;stroke-linecap:round;stroke-linejoin:round;stroke-miterlimit:4;stroke-dasharray:none;stroke-dashoffset:0;stroke-opacity:1"
       id="path4195"
       sodipodi:type="arc"
       sodipodi:cx="159.44662"
       sodipodi:cy="83.820549"
       sodipodi:rx="10.9992"
       sodipodi:ry="10.499207"
       sodipodi:start="3.2783043"
       sodipodi:end="3.2752565"
       d="m 148.55005,82.389652 a 10.9992,10.499207 0 0 1 12.38731,-8.971434 10.9992,10.499207 0 0 1 9.40811,11.817376 10.9992,10.499207 0 0 1 -12.37297,8.989442 10.9992,10.499207 0 0 1 -9.42697,-11.803676"
       sodipodi:open="true"
       inkscape:transform-center-x="-62.503708"
       inkscape:transform-center-y="24.302204" />
    <path
       inkscape:transform-center-y="0.30063896"
       inkscape:transform-center-x="-8.1332299"
       inkscape:connector-curvature="0"
       id="path3384"
       d="m 141.47844,42.519397 c 0.002,-1.587704 0.002,-3.179895 0.003,-4.770241 -0.001,-2.18168 -0.005,-4.361979 -0.003,-6.547275 0.003,-1.568419 0.007,-3.139456 0.006,-4.716185 2.4e-4,-0.559743 3.7e-4,-1.119542 6e-4,-1.679329 -0.001,0.01317 7.2e-4,0.100818 -4.1e-4,0.116559"
       style="fill:none;fill-rule:evenodd;stroke:#000000;stroke-width:0.90853405;stroke-linecap:butt;stroke-linejoin:miter;stroke-miterlimit:4;stroke-dasharray:none;stroke-opacity:1" />
    <path
       inkscape:transform-center-y="17.779721"
       inkscape:transform-center-x="-43.644484"
       sodipodi:open="true"
       d="m 142.85798,33.006891 a 7.6804152,7.6813216 0 0 1 8.64969,-6.563588 7.6804152,7.6813216 0 0 1 6.56941,8.645707 7.6804152,7.6813216 0 0 1 -8.63968,6.576763 7.6804152,7.6813216 0 0 1 -6.58257,-8.635684"
       sodipodi:end="3.2752565"
       sodipodi:start="3.2783043"
       sodipodi:ry="7.6813216"
       sodipodi:rx="7.6804152"
       sodipodi:cy="34.053749"
       sodipodi:cx="150.46674"
       sodipodi:type="arc"
       id="path3349"
       style="opacity:1;fill:none;fill-opacity:1;stroke:#000000;stroke-width:1.3;stroke-linecap:round;stroke-linejoin:round;stroke-miterlimit:4;stroke-dasharray:none;stroke-dashoffset:0;stroke-opacity:1" />
  </g>
</svg>
