<?xml version="1.0" encoding="UTF-8" standalone="no"?>
<!-- Created with Inkscape (http://www.inkscape.org/) -->

<svg
   xmlns:dc="http://purl.org/dc/elements/1.1/"
   xmlns:cc="http://creativecommons.org/ns#"
   xmlns:rdf="http://www.w3.org/1999/02/22-rdf-syntax-ns#"
   xmlns:svg="http://www.w3.org/2000/svg"
   xmlns="http://www.w3.org/2000/svg"
   xmlns:sodipodi="http://sodipodi.sourceforge.net/DTD/sodipodi-0.dtd"
   xmlns:inkscape="http://www.inkscape.org/namespaces/inkscape"
   width="68.071701mm"
   height="32.401947mm"
   viewBox="0 0 68.071701 32.401947"
   version="1.1"
   id="svg1773"
   inkscape:version="0.92.2 5c3e80d, 2017-08-06"
   sodipodi:docname="LH_35_09_16_015_d.svg">
  <sodipodi:namedview
     id="base"
     pagecolor="#ffffff"
     bordercolor="#666666"
     borderopacity="1.0"
     inkscape:pageopacity="0.0"
     inkscape:pageshadow="2"
     inkscape:zoom="3.82"
     inkscape:cx="108.62722"
     inkscape:cy="76.042329"
     inkscape:document-units="mm"
     inkscape:current-layer="layer1"
     showgrid="true"
     inkscape:window-width="1366"
     inkscape:window-height="706"
     inkscape:window-x="1672"
     inkscape:window-y="-8"
     inkscape:window-maximized="1"
     fit-margin-top="0.5"
     fit-margin-left="0.5"
     fit-margin-right="0.5"
     fit-margin-bottom="0.5">
    <inkscape:grid
       id="grid842"
       type="xygrid" />
  </sodipodi:namedview>
  <defs
     id="defs1767" />
  <metadata
     id="metadata1770">
    <rdf:RDF>
      <cc:Work
         rdf:about="">
        <dc:format>image/svg+xml</dc:format>
        <dc:type
           rdf:resource="http://purl.org/dc/dcmitype/StillImage" />
        <dc:title></dc:title>
      </cc:Work>
    </rdf:RDF>
  </metadata>
  <g
     transform="translate(-62.100714,-187.83636)"
     id="layer1"
     inkscape:groupmode="layer"
     inkscape:label="Ebene 1">
    <flowRoot
       xml:space="preserve"
       id="flowRoot2756"
       style="font-style:italic;font-variant:normal;font-weight:normal;font-stretch:normal;font-size:16px;line-height:1.25;font-family:'Myriad Pro';-inkscape-font-specification:'Myriad Pro Italic';letter-spacing:0px;word-spacing:0px;fill:#000000;fill-opacity:1;stroke:none;stroke-width:1.33333337;stroke-miterlimit:4;stroke-dasharray:none"
       transform="matrix(0.26458333,0,0,0.26458333,27.344651,81.373814)"><flowRegion
         id="flowRegion2752"
         style="stroke-width:1.33333337;stroke-miterlimit:4;stroke-dasharray:none"><rect
           id="rect2750"
           width="16.407187"
           height="20.507141"
           x="154.92958"
           y="507.02673"
           style="stroke-width:1.33333337;stroke-miterlimit:4;stroke-dasharray:none" /></flowRegion><flowPara
         id="flowPara2754">ba</flowPara></flowRoot>    <g
       transform="translate(0,23.812509)"
       id="g2772">
      <flowRoot
         xml:space="preserve"
         id="flowRoot2770"
         style="font-style:italic;font-variant:normal;font-weight:normal;font-stretch:normal;font-size:16px;line-height:1.25;font-family:'Myriad Pro';-inkscape-font-specification:'Myriad Pro Italic';letter-spacing:0px;word-spacing:0px;fill:#000000;fill-opacity:1;stroke:none;stroke-width:1.33333337;stroke-miterlimit:4;stroke-dasharray:none"
         transform="matrix(0.26458333,0,0,0.26458333,84.494687,52.798796)"><flowRegion
           id="flowRegion2766"
           style="stroke-width:1.33333337;stroke-miterlimit:4;stroke-dasharray:none"><rect
             id="rect2764"
             width="11.171583"
             height="21.030718"
             x="154.92958"
             y="507.02673"
             style="stroke-width:1.33333337;stroke-miterlimit:4;stroke-dasharray:none" /></flowRegion><flowPara
           id="flowPara2768" /></flowRoot>    </g>
    <flowRoot
       style="font-style:italic;font-variant:normal;font-weight:normal;font-stretch:normal;font-size:16px;line-height:1.25;font-family:'Myriad Pro';-inkscape-font-specification:'Myriad Pro Italic';letter-spacing:0px;word-spacing:0px;fill:#000000;fill-opacity:1;stroke:none"
       id="flowRoot2774"
       xml:space="preserve"><flowRegion
         id="flowRegion2776"><rect
           y="800.53015"
           x="469.10992"
           height="21.989517"
           width="8.9005375"
           id="rect2778" /></flowRegion><flowPara
         id="flowPara2780" /></flowRoot>    <g
       id="g861">
      <path
         id="path1904"
         style="fill:none;stroke:#000000;stroke-width:0.26949149;stroke-linecap:butt;stroke-linejoin:miter;stroke-miterlimit:4;stroke-dasharray:none;stroke-opacity:1;opacity:1"
         d="m 121.8824,189.43565 c 0,0 0.59438,0.4472 1.12447,0.4472 0.53005,0 1.12444,-0.4472 1.12444,-0.4472 m -4.49782,0 c 0,0 0.59439,-0.44721 1.12446,-0.44721 0.53006,0 1.12445,0.44721 1.12445,0.44721 m -4.51148,0 c 0,0 0.59437,0.4472 1.12446,0.4472 0.53005,0 1.12445,-0.4472 1.12445,-0.4472 m -4.49782,0 c 0,0 0.59438,-0.44721 1.12446,-0.44721 0.53007,0 1.12445,0.44721 1.12445,0.44721 m -4.51148,0 c 0,0 0.59438,0.4472 1.12445,0.4472 0.53008,0 1.12446,-0.4472 1.12446,-0.4472 m -4.49782,0 c 0,0 0.59439,-0.44721 1.12445,-0.44721 0.53008,0 1.12446,0.44721 1.12446,0.44721 m -4.51149,0 c 0,0 0.5944,0.4472 1.12447,0.4472 0.53006,0 1.12443,-0.4472 1.12443,-0.4472 m -4.49781,0 c 0,0 0.59438,-0.44721 1.12444,-0.44721 0.53009,0 1.12447,0.44721 1.12447,0.44721 m -4.51148,0 c 0,0 0.59439,0.4472 1.12445,0.4472 0.53008,0 1.12446,-0.4472 1.12446,-0.4472 m -4.49782,0 c 0,0 0.59438,-0.44721 1.12445,-0.44721 0.53007,0 1.12446,0.44721 1.12446,0.44721 m -4.511481,0 c 0,0 0.59439,0.4472 1.124451,0.4472 0.53007,0 1.12446,-0.4472 1.12446,-0.4472 m -4.49782,0 c 0,0 0.594383,-0.44721 1.124448,-0.44721 0.530075,0 1.124461,0.44721 1.124461,0.44721 m -4.497819,0 c 0,0 0.594385,0.4472 1.124457,0.4472 0.53007,0 1.124453,-0.4472 1.124453,-0.4472 m -4.497818,0 c 0,0 0.594382,-0.44721 1.124456,-0.44721 0.530069,0 1.124452,0.44721 1.124452,0.44721 m -4.511483,0 c 0,0 0.594382,0.4472 1.124458,0.4472 0.530068,0 1.124451,-0.4472 1.124451,-0.4472 m -4.497819,0 c 0,0 0.594383,-0.44721 1.124457,-0.44721 0.53007,0 1.124453,0.44721 1.124453,0.44721 m -4.511484,0 c 0,0 0.594383,0.4472 1.124458,0.4472 0.530074,0 1.124457,-0.4472 1.124457,-0.4472 m -4.497822,0 c 0,0 0.594381,-0.44721 1.124454,-0.44721 0.530072,0 1.124453,0.44721 1.124453,0.44721 m -4.511481,0 c 0,0 0.594382,0.4472 1.124455,0.4472 0.530074,0 1.124455,-0.4472 1.124455,-0.4472 m -4.49782,0 c 0,0 0.594383,-0.44721 1.124454,-0.44721 0.530074,0 1.124456,0.44721 1.124456,0.44721 m -4.511482,0 c 0,0 0.594382,0.4472 1.124455,0.4472 0.530073,0 1.124455,-0.4472 1.124455,-0.4472 m -4.497819,0 c 0,0 0.59438,-0.44721 1.124453,-0.44721 0.530073,0 1.124456,0.44721 1.124456,0.44721 m -4.511483,0 c 0,0 0.594382,0.4472 1.124454,0.4472 0.530074,0 1.124456,-0.4472 1.124456,-0.4472 m -4.49782,0 c 0,0 0.594382,-0.44721 1.124455,-0.44721 0.530074,0 1.124455,0.44721 1.124455,0.44721"
         inkscape:connector-curvature="0" />
      <path
         style="fill:none;stroke:#000000;stroke-width:0.35717916;stroke-linecap:butt;stroke-linejoin:miter;stroke-miterlimit:4;stroke-dasharray:none;stroke-opacity:1;opacity:1"
         d="m 70.069264,188.48831 h -0.03105 v 22.54592"
         id="path2712"
         inkscape:connector-curvature="0" />
      <path
         style="fill:none;stroke:#000000;stroke-width:0.35096645;stroke-linecap:butt;stroke-linejoin:miter;stroke-miterlimit:4;stroke-dasharray:none;stroke-opacity:1;opacity:1"
         d="m 124.2778,188.48831 h -0.15913 v 22.48958"
         id="path2714"
         inkscape:connector-curvature="0" />
      <path
         style="fill:none;stroke:#000000;stroke-width:0.34608918;stroke-linecap:butt;stroke-linejoin:miter;stroke-miterlimit:4;stroke-dasharray:none;stroke-opacity:1;opacity:1"
         d="m 66.069464,210.97789 62.177086,0.16135"
         id="path2716"
         inkscape:connector-curvature="0" />
      <flowRoot
         xml:space="preserve"
         id="flowRoot5987"
         style="font-style:italic;font-variant:normal;font-weight:normal;font-stretch:normal;font-size:16px;line-height:1.25;font-family:'Myriad Pro';-inkscape-font-specification:'Myriad Pro Italic';letter-spacing:0px;word-spacing:0px;fill:#000000;fill-opacity:1;stroke:none;stroke-width:1.33333337;stroke-miterlimit:4;stroke-dasharray:none;opacity:1"
         transform="matrix(0.26458333,0,0,0.26458333,25.716321,52.798796)"><flowRegion
           id="flowRegion5989"
           style="stroke-width:1.33333337;stroke-miterlimit:4;stroke-dasharray:none;opacity:1"><rect
             id="rect5991"
             width="11.171583"
             height="21.030718"
             x="154.92958"
             y="507.02673"
             style="stroke-width:1.33333337;stroke-miterlimit:4;stroke-dasharray:none;opacity:1" /></flowRegion><flowPara
           id="flowPara5993">a</flowPara></flowRoot>      <g
         id="g2762">
        <flowRoot
           xml:space="preserve"
           id="flowRoot2748"
           style="font-style:italic;font-variant:normal;font-weight:normal;font-stretch:normal;font-size:16px;line-height:1.25;font-family:'Myriad Pro';-inkscape-font-specification:'Myriad Pro Italic';letter-spacing:0px;word-spacing:0px;fill:#000000;fill-opacity:1;stroke:none;stroke-width:1.33333337;stroke-miterlimit:4;stroke-dasharray:none;opacity:1"
           transform="matrix(0.26458333,0,0,0.26458333,84.494687,52.798796)"><flowRegion
             id="flowRegion2744"
             style="stroke-width:1.33333337;stroke-miterlimit:4;stroke-dasharray:none;opacity:1"><rect
               id="rect2742"
               width="11.171583"
               height="21.030718"
               x="154.92958"
               y="507.02673"
               style="stroke-width:1.33333337;stroke-miterlimit:4;stroke-dasharray:none;opacity:1" /></flowRegion><flowPara
             id="flowPara2746">a</flowPara></flowRoot>      </g>
      <text
         xml:space="preserve"
         style="font-style:italic;font-variant:normal;font-weight:normal;font-stretch:normal;font-size:4.23333311px;line-height:1.25;font-family:'Myriad Pro';-inkscape-font-specification:'Myriad Pro Italic';letter-spacing:0px;word-spacing:0px;fill:#000000;fill-opacity:1;stroke:none;stroke-width:0.26458332;opacity:1"
         x="123.23765"
         y="215.20401"
         id="text2784"><tspan
           sodipodi:role="line"
           id="tspan2782"
           x="123.23765"
           y="215.20401"
           style="stroke-width:0.26458332;opacity:1">b</tspan></text>
      <text
         id="text2788"
         y="215.28389"
         x="69.221771"
         style="font-style:italic;font-variant:normal;font-weight:normal;font-stretch:normal;font-size:4.23333311px;line-height:1.25;font-family:'Myriad Pro';-inkscape-font-specification:'Myriad Pro Italic';letter-spacing:0px;word-spacing:0px;fill:#000000;fill-opacity:1;stroke:none;stroke-width:0.26458332;opacity:1"
         xml:space="preserve"><tspan
           style="stroke-width:0.26458332;opacity:1"
           y="215.28389"
           x="69.221771"
           id="tspan2786"
           sodipodi:role="line">b</tspan></text>
    </g>
  </g>
</svg>
