<?xml version="1.0" encoding="UTF-8" standalone="no"?>
<!-- Generator: Adobe Illustrator 16.0.3, SVG Export Plug-In . SVG Version: 6.00 Build 0)  -->

<svg
   xmlns:dc="http://purl.org/dc/elements/1.1/"
   xmlns:cc="http://creativecommons.org/ns#"
   xmlns:rdf="http://www.w3.org/1999/02/22-rdf-syntax-ns#"
   xmlns:svg="http://www.w3.org/2000/svg"
   xmlns="http://www.w3.org/2000/svg"
   xmlns:sodipodi="http://sodipodi.sourceforge.net/DTD/sodipodi-0.dtd"
   xmlns:inkscape="http://www.inkscape.org/namespaces/inkscape"
   version="1.1"
   id="Ebene_1"
   x="0px"
   y="0px"
   width="522.607px"
   height="658.66px"
   viewBox="0 0 522.607 658.66"
   enable-background="new 0 0 522.607 658.66"
   xml:space="preserve"
   inkscape:version="0.91 r13725"
   sodipodi:docname="LH_37_01_001-002_d1.svg"><sodipodi:namedview
     pagecolor="#ffffff"
     bordercolor="#666666"
     borderopacity="1"
     objecttolerance="10"
     gridtolerance="10"
     guidetolerance="10"
     inkscape:pageopacity="0"
     inkscape:pageshadow="2"
     inkscape:window-width="2003"
     inkscape:window-height="1228"
     id="namedview349"
     showgrid="true"
     inkscape:zoom="1.4332129"
     inkscape:cx="310.14481"
     inkscape:cy="346.50046"
     inkscape:window-x="5484"
     inkscape:window-y="1367"
     inkscape:window-maximized="0"
     inkscape:current-layer="Ebene_1"><inkscape:grid
       id="grid4481"
       type="xygrid" /></sodipodi:namedview><metadata
     id="metadata353"><rdf:RDF><cc:Work
         rdf:about=""><dc:format>image/svg+xml</dc:format><dc:type
           rdf:resource="http://purl.org/dc/dcmitype/StillImage" /></cc:Work></rdf:RDF></metadata><defs
     id="defs351" /><g
     id="g4744"><g
       id="g3"><path
         d="m 218.051,3.414 c 68.422,210.579 68.422,437.413 0,647.992"
         id="path5"
         inkscape:connector-curvature="0"
         style="fill:none;stroke:#000000;stroke-width:2;stroke-linecap:round;stroke-linejoin:round;stroke-dasharray:6.2977, 11.3358" /></g><line
       x1="216.384"
       y1="4.0760002"
       x2="216.384"
       y2="652.07599"
       id="line7"
       style="fill:none;stroke:#000000;stroke-width:2;stroke-linecap:round;stroke-linejoin:round" /><rect
       x="270.384"
       y="274.35999"
       width="108"
       height="107.716"
       id="rect9"
       style="fill:#ffffff;stroke:#000000;stroke-width:3;stroke-linecap:round;stroke-linejoin:round;stroke-dasharray:0.9987, 10.9855" /><g
       id="g11"><path
         d="M 438.116,62.986 C 375.026,277.865 246.576,461.355 77.406,590.753"
         id="path13"
         inkscape:connector-curvature="0"
         style="fill:none;stroke:#000000;stroke-width:2;stroke-linecap:round;stroke-linejoin:round;stroke-dasharray:5, 9" /></g><rect
       x="216.67599"
       y="274.233"
       width="107.854"
       height="108.184"
       id="rect15"
       style="fill:#ffffff;stroke:#000000;stroke-width:3;stroke-linecap:square" /><path
       d="M 315.051,364.437"
       id="path17"
       inkscape:connector-curvature="0"
       style="fill:none;stroke:#000000;stroke-width:5;stroke-linejoin:round;stroke-dasharray:5, 5" /><path
       d="M 315.051,256.188"
       id="path19"
       inkscape:connector-curvature="0"
       style="fill:none;stroke:#000000;stroke-width:5;stroke-linejoin:round;stroke-dasharray:5, 5" /><path
       d="M 423.467,256.188"
       id="path21"
       inkscape:connector-curvature="0"
       style="fill:none;stroke:#000000;stroke-width:5;stroke-dasharray:5, 5" /><path
       d="M 368.801,256.188"
       id="path23"
       inkscape:connector-curvature="0"
       style="fill:none;stroke:#000000;stroke-width:5;stroke-dasharray:5, 5" /><path
       d="M 368.801,364.437"
       id="path25"
       inkscape:connector-curvature="0"
       style="fill:none;stroke:#000000;stroke-width:5;stroke-dasharray:5, 5" /><path
       d="M 423.467,256.188"
       id="path27"
       inkscape:connector-curvature="0"
       style="fill:none;stroke:#000000;stroke-width:5;stroke-linejoin:round;stroke-dasharray:5, 5" /><g
       id="g29"><line
         x1="439.439"
         y1="57.771"
         x2="72.845001"
         y2="592.104"
         id="line31"
         style="fill:none;stroke:#000000;stroke-width:2;stroke-linecap:round;stroke-linejoin:round" /></g><path
       d="M 308.571,361.813"
       id="path33"
       inkscape:connector-curvature="0"
       style="fill:none;stroke:#000000;stroke-width:0.25" /><path
       d="M 303.092,366.646"
       id="path35"
       inkscape:connector-curvature="0"
       style="fill:none;stroke:#000000;stroke-width:0.25" /><path
       d="M 309.321,367.813"
       id="path37"
       inkscape:connector-curvature="0"
       style="fill:none;stroke:#000000;stroke-width:0.25" /><path
       d="M 301.571,360.833"
       id="path39"
       inkscape:connector-curvature="0"
       style="fill:none;stroke:#000000;stroke-width:0.25" /><path
       d="M 275.384,526.854"
       id="path41"
       inkscape:connector-curvature="0"
       style="fill:none;stroke:#000000;stroke-width:0.25" /><path
       d="M 250.551,563.688"
       id="path43"
       inkscape:connector-curvature="0"
       style="fill:none;stroke:#000000;stroke-width:0.25" /><text
       font-size="21"
       id="text45"
       x="323.39706"
       y="265.0762"
       style="font-size:21px;font-family:Myriad-Italic"><tspan
         style="font-style:italic;font-variant:normal;font-weight:normal;font-stretch:normal;font-size:27.5px;font-family:'Myriad Pro';-inkscape-font-specification:'Myriad Pro Italic'"
         id="tspan4499">B</tspan></text>
<text
       y="265.0762"
       x="375.7168"
       font-size="21"
       id="text47"
       style="font-size:21px;font-family:Myriad-Italic"><tspan
         style="font-style:italic;font-variant:normal;font-weight:normal;font-stretch:normal;font-size:27.5px;font-family:'Myriad Pro';-inkscape-font-specification:'Myriad Pro Italic'"
         id="tspan4501">(B)</tspan></text>
<text
       y="264.96481"
       x="432.0498"
       font-size="21"
       id="text49"
       style="font-size:21px;font-family:Myriad-Italic"><tspan
         style="font-style:italic;font-variant:normal;font-weight:normal;font-stretch:normal;font-size:27.5px;font-family:'Myriad Pro';-inkscape-font-specification:'Myriad Pro Italic'"
         id="tspan4503">C</tspan></text>
<text
       y="265.0762"
       x="488.7178"
       font-size="21"
       id="text51"
       style="font-size:21px;font-family:Myriad-Italic"><tspan
         style="font-style:italic;font-variant:normal;font-weight:normal;font-stretch:normal;font-size:27.5px;font-family:'Myriad Pro';-inkscape-font-specification:'Myriad Pro Italic'"
         id="tspan4505">D</tspan></text>
<text
       font-size="21"
       id="text53"
       x="143.08968"
       y="265.0762"
       style="font-size:21px;font-family:Myriad-Italic"><tspan
         style="font-style:italic;font-variant:normal;font-weight:normal;font-stretch:normal;font-size:27.5px;font-family:'Myriad Pro';-inkscape-font-specification:'Myriad Pro Italic'"
         id="tspan4493">F</tspan></text>
<text
       font-size="21"
       id="text55"
       x="34.42268"
       y="265.0762"
       style="font-size:21px;font-family:Myriad-Italic"><tspan
         style="font-style:italic;font-variant:normal;font-weight:normal;font-stretch:normal;font-size:27.5px;font-family:'Myriad Pro';-inkscape-font-specification:'Myriad Pro Italic'"
         id="tspan4489">H</tspan></text>
<text
       font-size="21"
       id="text57"
       inkscape:transform-center-x="-9.3740637"
       style="font-size:21px;font-family:Myriad-Italic"
       x="45.237293"
       y="590.93402"><tspan
         style="font-style:italic;font-variant:normal;font-weight:normal;font-stretch:normal;font-size:27.5px;font-family:'Myriad Pro';-inkscape-font-specification:'Myriad Pro Italic'"
         id="tspan4507">M</tspan></text>
<path
       d="M 295.051,385.437"
       id="path61"
       inkscape:connector-curvature="0"
       style="fill:none;stroke:#000000;stroke-width:5;stroke-linejoin:round;stroke-dasharray:5, 5" /><path
       d="M 295.051,277.188"
       id="path63"
       inkscape:connector-curvature="0"
       style="fill:none;stroke:#000000;stroke-width:5;stroke-linejoin:round;stroke-dasharray:5, 5" /><line
       x1="269.134"
       y1="274.57599"
       x2="269.134"
       y2="382.57599"
       id="line65"
       style="fill:none;stroke:#000000;stroke-width:3;stroke-linecap:round;stroke-dasharray:1, 11" /><g
       id="g67"><path
         d="M 90.55,283.354"
         id="path69"
         inkscape:connector-curvature="0"
         style="fill:none;stroke:#000000" /></g><g
       id="g71"><path
         d="M 72.55,283.52"
         id="path73"
         inkscape:connector-curvature="0"
         style="fill:none;stroke:#000000" /></g><g
       id="g75"><path
         d="M 117.55,283.354"
         id="path77"
         inkscape:connector-curvature="0"
         style="fill:none;stroke:#000000" /></g><g
       id="g79"><path
         d="M 198.556,283.186"
         id="path81"
         inkscape:connector-curvature="0"
         style="fill:none;stroke:#000000;stroke-width:2" /></g><g
       id="g83"><path
         d="M 180.55,283.188"
         id="path85"
         inkscape:connector-curvature="0"
         style="fill:none;stroke:#000000" /></g><g
       id="g87"><path
         d="M 216.39,291.853"
         id="path89"
         inkscape:connector-curvature="0"
         style="fill:none;stroke:#000000" /></g><g
       id="g91"><path
         d="M 216.535,328.415"
         id="path93"
         inkscape:connector-curvature="0"
         style="fill:none;stroke:#000000" /></g><g
       id="g95"><path
         d="M 216.389,363.604"
         id="path97"
         inkscape:connector-curvature="0"
         style="fill:none;stroke:#000000" /></g><g
       id="g99"><path
         d="M 216.305,418.187"
         id="path101"
         inkscape:connector-curvature="0"
         style="fill:none;stroke:#000000" /></g><g
       id="g103"><path
         d="m 396.384,283.076 c 5,-7 8,1 13,2 2,0 3,-1 5,-2"
         id="path105"
         inkscape:connector-curvature="0"
         style="fill:none;stroke:#000000" /></g><g
       id="g107"><path
         d="m 432.384,283.076 c 4,-4 8,0 12,2 1,1 4,-1 6,-2"
         id="path109"
         inkscape:connector-curvature="0"
         style="fill:none;stroke:#000000" /></g><g
       id="g111"><path
         d="m 468.384,283.076 c 5,-6 8,1 13,3 2,0 3,-2 5,-3"
         id="path113"
         inkscape:connector-curvature="0"
         style="fill:none;stroke:#000000" /></g><g
       id="g115"><path
         d="m 504.384,283.076 c 5,-6 8,1 13,3 2,0 3,-2 5,-3"
         id="path117"
         inkscape:connector-curvature="0"
         style="fill:none;stroke:#000000" /></g><g
       id="g119"><path
         d="m 387.384,310.076 c 5,-6 8,1 13,3 2,0 3,-2 5,-3"
         id="path121"
         inkscape:connector-curvature="0"
         style="fill:none;stroke:#000000" /></g><g
       id="g123"><path
         d="m 423.384,310.076 c 5,-6 8,1 13,3 2,0 3,-2 5,-3"
         id="path125"
         inkscape:connector-curvature="0"
         style="fill:none;stroke:#000000" /></g><g
       id="g127"><path
         d="m 459.384,310.076 c 4,-4 8,0 12,2 1,1 4,-1 6,-2"
         id="path129"
         inkscape:connector-curvature="0"
         style="fill:none;stroke:#000000" /></g><g
       id="g131"><path
         d="m 495.384,310.076 c 5,-6 8,1 13,3 2,0 3,-2 5,-3"
         id="path133"
         inkscape:connector-curvature="0"
         style="fill:none;stroke:#000000" /></g><g
       id="g135"><path
         d="m 396.384,337.076 c 5,-6 8,1 13,3 2,0 3,-2 5,-3"
         id="path137"
         inkscape:connector-curvature="0"
         style="fill:none;stroke:#000000" /></g><g
       id="g139"><path
         d="m 432.384,337.076 c 5,-6 8,1 13,3 2,0 3,-2 5,-3"
         id="path141"
         inkscape:connector-curvature="0"
         style="fill:none;stroke:#000000" /></g><g
       id="g143"><path
         d="m 468.384,337.076 c 5,-6 8,1 13,3 2,0 3,-2 5,-3"
         id="path145"
         inkscape:connector-curvature="0"
         style="fill:none;stroke:#000000" /></g><g
       id="g147"><path
         d="m 504.384,337.076 c 5,-6 8,1 13,3 2,0 3,-2 5,-3"
         id="path149"
         inkscape:connector-curvature="0"
         style="fill:none;stroke:#000000" /></g><g
       id="g151"><path
         d="m 387.384,364.076 c 5,-6 8,1 13,3 2,0 3,-2 5,-3"
         id="path153"
         inkscape:connector-curvature="0"
         style="fill:none;stroke:#000000" /></g><g
       id="g155"><path
         d="m 423.384,364.076 c 5,-6 8,1 13,3 2,0 3,-2 5,-3"
         id="path157"
         inkscape:connector-curvature="0"
         style="fill:none;stroke:#000000" /></g><g
       id="g159"><path
         d="m 459.384,364.076 c 5,-6 8,1 13,3 2,0 3,-2 5,-3"
         id="path161"
         inkscape:connector-curvature="0"
         style="fill:none;stroke:#000000" /></g><g
       id="g163"><path
         d="m 495.384,364.076 c 5,-6 8,1 13,3 2,0 3,-2 5,-3"
         id="path165"
         inkscape:connector-curvature="0"
         style="fill:none;stroke:#000000" /></g><g
       id="g167"><path
         d="M 383.953,312.688"
         id="path169"
         inkscape:connector-curvature="0"
         style="fill:none;stroke:#000000" /></g><g
       id="g171"><path
         d="M 365.635,312.687"
         id="path173"
         inkscape:connector-curvature="0"
         style="fill:none;stroke:#000000" /></g><g
       id="g175"><path
         d="M 372.911,287.109"
         id="path177"
         inkscape:connector-curvature="0"
         style="fill:none;stroke:#000000" /></g><g
       id="g179"><path
         d="M 354.339,287.109"
         id="path181"
         inkscape:connector-curvature="0"
         style="fill:none;stroke:#000000" /></g><g
       id="g183"><path
         d="M 383.381,340.688"
         id="path185"
         inkscape:connector-curvature="0"
         style="fill:none;stroke:#000000" /></g><g
       id="g187"><path
         d="M 364.808,340.688"
         id="path189"
         inkscape:connector-curvature="0"
         style="fill:none;stroke:#000000" /></g><g
       id="g191"><path
         d="M 212.806,363.687"
         id="path193"
         inkscape:connector-curvature="0"
         style="fill:none;stroke:#000000" /></g><g
       id="g195"><path
         d="M 229.889,418.687"
         id="path197"
         inkscape:connector-curvature="0"
         style="fill:none;stroke:#000000" /></g><g
       id="g199"><path
         d="M 223.722,418.187"
         id="path201"
         inkscape:connector-curvature="0"
         style="fill:none;stroke:#000000" /></g><text
       font-size="21"
       id="text203"
       x="192.08968"
       y="265.0762"
       style="font-size:21px;font-family:Myriad-Italic"><tspan
         style="font-style:italic;font-variant:normal;font-weight:normal;font-stretch:normal;font-size:27.5px;font-family:'Myriad Pro';-inkscape-font-specification:'Myriad Pro Italic'"
         id="tspan4495">A</tspan></text>
<g
       id="g205"><path
         d="m 36.384,283.076 c 2,-1 3,-2 5,-2 5,-1 4,9 13,2"
         id="path207"
         inkscape:connector-curvature="0"
         style="fill:none;stroke:#000000" /></g><g
       id="g209"><path
         d="m 72.384,283.076 c 5,-4 9,1 13,3 1,0 3,-2 5,-3"
         id="path211"
         inkscape:connector-curvature="0"
         style="fill:none;stroke:#000000" /></g><g
       id="g213"><path
         d="m 108.384,283.076 c 5,-4 9,1 13,3 1,0 3,-2 5,-3"
         id="path215"
         inkscape:connector-curvature="0"
         style="fill:none;stroke:#000000" /></g><g
       id="g217"><path
         d="m 144.384,283.076 c 2,-1 3,-2 5,-2 5,-1 4,9 13,2"
         id="path219"
         inkscape:connector-curvature="0"
         style="fill:none;stroke:#000000" /></g><g
       id="g221"><path
         d="m 179.384,283.076 c 5,-6 8,1 13,3 2,0 3,-2 5,-3"
         id="path223"
         inkscape:connector-curvature="0"
         style="fill:none;stroke:#000000" /></g><g
       id="g225"><path
         d="m 45.384,310.076 c 2,-1 3,-2 5,-2 5,-1 4,9 13,2"
         id="path227"
         inkscape:connector-curvature="0"
         style="fill:none;stroke:#000000" /></g><g
       id="g229"><path
         d="m 81.384,310.076 c 2,-1 3,-2 5,-2 5,-1 4,9 13,2"
         id="path231"
         inkscape:connector-curvature="0"
         style="fill:none;stroke:#000000" /></g><g
       id="g233"><path
         d="m 117.384,310.076 c 2,-1 3,-2 5,-2 5,-1 4,9 13,2"
         id="path235"
         inkscape:connector-curvature="0"
         style="fill:none;stroke:#000000" /></g><g
       id="g237"><path
         d="m 153.384,310.076 c 2,-1 3,-2 5,-2 5,-1 4,9 13,2"
         id="path239"
         inkscape:connector-curvature="0"
         style="fill:none;stroke:#000000" /></g><g
       id="g241"><path
         d="m 189.384,310.076 c 2,-1 3,-2 5,-2 5,-1 4,9 13,2"
         id="path243"
         inkscape:connector-curvature="0"
         style="fill:none;stroke:#000000" /></g><g
       id="g245"><path
         d="m 36.384,337.076 c 2,-1 3,-2 5,-2 5,-1 4,9 13,2"
         id="path247"
         inkscape:connector-curvature="0"
         style="fill:none;stroke:#000000" /></g><g
       id="g249"><path
         d="m 72.384,337.076 c 5,-6 8,1 13,3 2,0 3,-2 5,-3"
         id="path251"
         inkscape:connector-curvature="0"
         style="fill:none;stroke:#000000" /></g><g
       id="g253"><path
         d="m 108.384,337.076 c 5,-6 8,1 13,3 2,0 3,-2 5,-3"
         id="path255"
         inkscape:connector-curvature="0"
         style="fill:none;stroke:#000000" /></g><g
       id="g257"><path
         d="m 144.384,337.076 c 5,-6 8,1 13,3 2,0 3,-2 5,-3"
         id="path259"
         inkscape:connector-curvature="0"
         style="fill:none;stroke:#000000" /></g><g
       id="g261"><path
         d="m 180.384,337.076 c 5,-6 8,1 13,3 2,0 3,-2 5,-3"
         id="path263"
         inkscape:connector-curvature="0"
         style="fill:none;stroke:#000000" /></g><g
       id="g265"><path
         d="m 45.384,364.076 c 2,-1 3,-2 5,-2 5,-1 4,9 13,2"
         id="path267"
         inkscape:connector-curvature="0"
         style="fill:none;stroke:#000000" /></g><g
       id="g269"><path
         d="m 81.384,364.076 c 2,-1 3,-2 5,-2 5,-1 4,9 13,2"
         id="path271"
         inkscape:connector-curvature="0"
         style="fill:none;stroke:#000000" /></g><g
       id="g273"><path
         d="m 117.384,364.076 c 2,-1 3,-2 5,-2 5,-1 4,9 13,2"
         id="path275"
         inkscape:connector-curvature="0"
         style="fill:none;stroke:#000000" /></g><g
       id="g277"><path
         d="m 153.384,364.076 c 2,-1 3,-2 5,-2 5,-1 4,9 13,2"
         id="path279"
         inkscape:connector-curvature="0"
         style="fill:none;stroke:#000000" /></g><g
       id="g281"><path
         d="m 189.384,364.076 c 2,-1 3,-2 5,-2 5,-1 4,9 13,2"
         id="path283"
         inkscape:connector-curvature="0"
         style="fill:none;stroke:#000000" /></g><text
       font-size="21"
       id="text285"
       x="86.422684"
       y="265.0762"
       style="font-size:21px;font-family:Myriad-Italic"><tspan
         style="font-style:italic;font-variant:normal;font-weight:normal;font-stretch:normal;font-size:27.5px;font-family:'Myriad Pro';-inkscape-font-specification:'Myriad Pro Italic'"
         id="tspan4491">G</tspan></text>
<g
       id="g287"><path
         d="m 36.384,391.076 c 5,-6 8,1 13,3 2,0 3,-2 5,-3"
         id="path289"
         inkscape:connector-curvature="0"
         style="fill:none;stroke:#000000" /></g><g
       id="g291"><path
         d="m 72.384,391.076 c 5,-7 8,1 13,2 2,0 3,-1 5,-2"
         id="path293"
         inkscape:connector-curvature="0"
         style="fill:none;stroke:#000000" /></g><g
       id="g295"><path
         d="m 108.384,391.076 c 2,-1 4,-2 6,-3 5,-1 0,11 12,3"
         id="path297"
         inkscape:connector-curvature="0"
         style="fill:none;stroke:#000000" /></g><g
       id="g299"><path
         d="m 144.384,391.076 c 2,-1 4,-2 6,-3 5,-1 0,11 12,3"
         id="path301"
         inkscape:connector-curvature="0"
         style="fill:none;stroke:#000000" /></g><g
       id="g303"><path
         d="m 180.384,391.076 c 2,-1 4,-2 6,-3 5,-1 0,11 12,3"
         id="path305"
         inkscape:connector-curvature="0"
         style="fill:none;stroke:#000000" /></g><g
       id="g307"><path
         d="m 396.384,391.076 c 5,-6 8,1 13,3 2,0 3,-2 5,-3"
         id="path309"
         inkscape:connector-curvature="0"
         style="fill:none;stroke:#000000" /></g><g
       id="g311"><path
         d="m 432.384,391.076 c 5,-6 8,1 13,3 2,0 3,-2 5,-3"
         id="path313"
         inkscape:connector-curvature="0"
         style="fill:none;stroke:#000000" /></g><g
       id="g315"><path
         d="m 468.384,391.076 c 5,-6 8,1 13,3 2,0 3,-2 5,-3"
         id="path317"
         inkscape:connector-curvature="0"
         style="fill:none;stroke:#000000" /></g><g
       id="g319"><path
         d="m 504.384,391.076 c 5,-6 8,1 13,3 2,0 3,-2 5,-3"
         id="path321"
         inkscape:connector-curvature="0"
         style="fill:none;stroke:#000000" /></g><text
       font-size="21"
       id="text323"
       x="195.16431"
       y="23.506931"
       style="font-size:21px;font-family:Myriad-Italic"><tspan
         style="font-style:italic;font-variant:normal;font-weight:normal;font-stretch:normal;font-size:27.5px;font-family:'Myriad Pro';-inkscape-font-specification:'Myriad Pro Italic'"
         id="tspan4483">L</tspan></text>
<text
       font-size="21"
       id="text327"
       x="233.71431"
       y="264.41019"
       style="font-size:21px;font-family:Myriad-Italic"><tspan
         style="font-style:italic;font-variant:normal;font-weight:normal;font-stretch:normal;font-size:27.5px;font-family:'Myriad Pro';-inkscape-font-specification:'Myriad Pro Italic'"
         id="tspan4497">(A)</tspan></text>
<g
       id="g329"><path
         d="m 9.384,310.076 c 2,-1 3,-2 5,-2 5,-1 4,9 13,2"
         id="path331"
         inkscape:connector-curvature="0"
         style="fill:none;stroke:#000000" /></g><g
       id="g333"><path
         d="m 9.384,364.076 c 2,-1 3,-2 5,-2 5,-1 4,9 13,2"
         id="path335"
         inkscape:connector-curvature="0"
         style="fill:none;stroke:#000000" /></g><g
       id="g337"><path
         d="m 0.384,283.076 c 2,-1 3,-2 5,-2 5,-1 4,9 13,2"
         id="path339"
         inkscape:connector-curvature="0"
         style="fill:none;stroke:#000000" /></g><g
       id="g341"><path
         d="m 0.384,337.076 c 2,-1 3,-2 5,-2 5,-1 4,9 13,2"
         id="path343"
         inkscape:connector-curvature="0"
         style="fill:none;stroke:#000000" /></g><g
       id="g345"><path
         d="m 0.384,391.076 c 5,-6 8,1 13,3 2,0 3,-2 5,-3"
         id="path347"
         inkscape:connector-curvature="0"
         style="fill:none;stroke:#000000" /></g><text
       style="font-size:20.20947456px;font-family:Myriad-Italic"
       y="76.360207"
       x="448.44418"
       id="text4485"
       font-size="21"><tspan
         id="tspan4487"
         style="font-style:italic;font-variant:normal;font-weight:normal;font-stretch:normal;font-size:26.46478844px;font-family:'Myriad Pro';-inkscape-font-specification:'Myriad Pro Italic'">L</tspan></text>
<text
       y="652.80988"
       x="231.78139"
       style="font-size:21px;font-family:Myriad-Italic"
       inkscape:transform-center-x="-9.3740637"
       id="text4509"
       font-size="21"><tspan
         id="tspan4511"
         style="font-style:italic;font-variant:normal;font-weight:normal;font-stretch:normal;font-size:27.5px;font-family:'Myriad Pro';-inkscape-font-specification:'Myriad Pro Italic'">M</tspan></text>
</g></svg>