<?xml version="1.0" encoding="UTF-8" standalone="no"?>
<!-- Generator: Adobe Illustrator 16.0.3, SVG Export Plug-In . SVG Version: 6.00 Build 0)  -->

<svg
   xmlns:dc="http://purl.org/dc/elements/1.1/"
   xmlns:cc="http://creativecommons.org/ns#"
   xmlns:rdf="http://www.w3.org/1999/02/22-rdf-syntax-ns#"
   xmlns:svg="http://www.w3.org/2000/svg"
   xmlns="http://www.w3.org/2000/svg"
   xmlns:sodipodi="http://sodipodi.sourceforge.net/DTD/sodipodi-0.dtd"
   xmlns:inkscape="http://www.inkscape.org/namespaces/inkscape"
   version="1.1"
   id="Ebene_1"
   x="0px"
   y="0px"
   width="550.721px"
   height="714.197px"
   viewBox="0 0 550.721 714.197"
   enable-background="new 0 0 550.721 714.197"
   xml:space="preserve"
   inkscape:version="0.91 r13725"
   sodipodi:docname="LH_37_01_020-021_d.svg"><sodipodi:namedview
     pagecolor="#ffffff"
     bordercolor="#666666"
     borderopacity="1"
     objecttolerance="10"
     gridtolerance="10"
     guidetolerance="10"
     inkscape:pageopacity="0"
     inkscape:pageshadow="2"
     inkscape:window-width="2367"
     inkscape:window-height="1222"
     id="namedview4842"
     showgrid="true"
     inkscape:zoom="1.0029434"
     inkscape:cx="303.56177"
     inkscape:cy="357.09851"
     inkscape:window-x="5386"
     inkscape:window-y="1373"
     inkscape:window-maximized="0"
     inkscape:current-layer="Ebene_1"><inkscape:grid
       id="grid4848"
       type="xygrid" /></sodipodi:namedview><metadata
     id="metadata4846"><rdf:RDF><cc:Work
         rdf:about=""><dc:format>image/svg+xml</dc:format><dc:type
           rdf:resource="http://purl.org/dc/dcmitype/StillImage" /></cc:Work></rdf:RDF></metadata><defs
     id="defs4844" /><g
     id="g4779"><rect
       x="280.32599"
       y="295.509"
       width="143.521"
       height="142.907"
       id="rect4512"
       style="fill:#ffffff;stroke:#000000;stroke-width:4;stroke-linecap:round;stroke-dasharray:2, 8" /><path
       style="fill:none;stroke:#000000;stroke-width:2;stroke-linecap:round;stroke-linejoin:bevel;stroke-dasharray:4, 10"
       inkscape:connector-curvature="0"
       id="path4516"
       d="m 305.868,7.022 c 49.51,186.988 9.955,354.307 -51.865,473.624 C 192.182,601.534 108.095,674.42 68.541,708.797" /><rect
       x="208.618"
       y="295.509"
       width="143.416"
       height="142.907"
       id="rect4518"
       style="fill:#ffffff;stroke:#000000;stroke-width:4;stroke-linecap:square" /><path
       d="M 288.515,386.282"
       id="path4520"
       inkscape:connector-curvature="0"
       style="fill:none;stroke:#000000;stroke-width:5;stroke-linejoin:round;stroke-dasharray:5, 5" /><path
       d="M 288.515,278.033"
       id="path4522"
       inkscape:connector-curvature="0"
       style="fill:none;stroke:#000000;stroke-width:5;stroke-linejoin:round;stroke-dasharray:5, 5" /><path
       d="M 396.931,278.033"
       id="path4524"
       inkscape:connector-curvature="0"
       style="fill:none;stroke:#000000;stroke-width:5;stroke-dasharray:5, 5" /><path
       d="M 342.265,278.033"
       id="path4526"
       inkscape:connector-curvature="0"
       style="fill:none;stroke:#000000;stroke-width:5;stroke-dasharray:5, 5" /><path
       d="M 396.848,386.282"
       id="path4528"
       inkscape:connector-curvature="0"
       style="fill:none;stroke:#000000;stroke-width:5;stroke-dasharray:5, 5" /><path
       d="M 342.265,386.282"
       id="path4530"
       inkscape:connector-curvature="0"
       style="fill:none;stroke:#000000;stroke-width:5;stroke-dasharray:5, 5" /><path
       d="M 396.931,386.282"
       id="path4532"
       inkscape:connector-curvature="0"
       style="fill:none;stroke:#000000;stroke-width:5;stroke-linejoin:round;stroke-dasharray:5, 5" /><path
       d="M 396.931,278.033"
       id="path4534"
       inkscape:connector-curvature="0"
       style="fill:none;stroke:#000000;stroke-width:5;stroke-linejoin:round;stroke-dasharray:5, 5" /><line
       x1="305.20099"
       y1="5.5"
       x2="66.676003"
       y2="708.10199"
       id="line4536"
       style="fill:none;stroke:#000000;stroke-width:2;stroke-linecap:round;stroke-linejoin:bevel" /><path
       d="M 263.765,565.825"
       id="path4538"
       inkscape:connector-curvature="0"
       style="fill:none;stroke:#000000;stroke-width:0.5" /><path
       d="M 282.035,383.658"
       id="path4540"
       inkscape:connector-curvature="0"
       style="fill:none;stroke:#000000;stroke-width:0.25" /><path
       d="M 276.556,388.491"
       id="path4542"
       inkscape:connector-curvature="0"
       style="fill:none;stroke:#000000;stroke-width:0.25" /><path
       d="M 282.785,389.658"
       id="path4544"
       inkscape:connector-curvature="0"
       style="fill:none;stroke:#000000;stroke-width:0.25" /><path
       d="M 275.035,382.679"
       id="path4546"
       inkscape:connector-curvature="0"
       style="fill:none;stroke:#000000;stroke-width:0.25" /><path
       d="M 283.848,588.866"
       id="path4548"
       inkscape:connector-curvature="0"
       style="fill:none;stroke:#000000;stroke-width:0.25" /><path
       d="M 248.848,548.7"
       id="path4550"
       inkscape:connector-curvature="0"
       style="fill:none;stroke:#000000;stroke-width:0.25" /><path
       d="M 290.348,552.866"
       id="path4552"
       inkscape:connector-curvature="0"
       style="fill:none;stroke:#000000;stroke-width:0.25" /><path
       d="M 224.015,585.533"
       id="path4554"
       inkscape:connector-curvature="0"
       style="fill:none;stroke:#000000;stroke-width:0.25" /><text
       y="283.11331"
       x="185.75974"
       font-size="24"
       id="text4556"
       style="font-size:24px;font-family:Myriad-Italic"><tspan
         style="font-style:italic;font-variant:normal;font-weight:normal;font-stretch:normal;font-size:35px;font-family:'Myriad Pro';-inkscape-font-specification:'Myriad Pro Italic'"
         id="tspan4858">A</tspan></text>
<text
       y="283.1973"
       x="260.34235"
       font-size="24"
       id="text4558"
       style="font-size:24px;font-family:Myriad-Italic"><tspan
         style="font-style:italic;font-variant:normal;font-weight:normal;font-stretch:normal;font-size:35px;font-family:'Myriad Pro';-inkscape-font-specification:'Myriad Pro Italic'"
         id="tspan4860">(A)</tspan></text>
<text
       y="282.7002"
       x="350.35941"
       font-size="24"
       id="text4560"
       style="font-size:24px;font-family:Myriad-Italic"><tspan
         style="font-style:italic;font-variant:normal;font-weight:normal;font-stretch:normal;font-size:35px;font-family:'Myriad Pro';-inkscape-font-specification:'Myriad Pro Italic'"
         id="tspan4862">B</tspan></text>
<text
       y="282.36621"
       x="411.5264"
       font-size="24"
       id="text4562"
       style="font-size:24px;font-family:Myriad-Italic"><tspan
         style="font-style:italic;font-variant:normal;font-weight:normal;font-stretch:normal;font-size:35px;font-family:'Myriad Pro';-inkscape-font-specification:'Myriad Pro Italic'"
         id="tspan4864">(B)</tspan></text>
<text
       y="283.2002"
       x="476.02731"
       font-size="24"
       id="text4564"
       style="font-size:24px;font-family:Myriad-Italic"><tspan
         style="font-style:italic;font-variant:normal;font-weight:normal;font-stretch:normal;font-size:35px;font-family:'Myriad Pro';-inkscape-font-specification:'Myriad Pro Italic'"
         id="tspan4866">C</tspan></text>
<text
       font-size="24"
       id="text4566"
       x="532.37225"
       y="283.5332"
       style="font-size:24px;font-family:Myriad-Italic"><tspan
         style="font-style:italic;font-variant:normal;font-weight:normal;font-stretch:normal;font-size:35px;font-family:'Myriad Pro';-inkscape-font-specification:'Myriad Pro Italic'"
         id="tspan4868">D</tspan></text>
<text
       y="283.62891"
       x="130.9458"
       font-size="24"
       id="text4568"
       style="font-size:24px;font-family:Myriad-Italic"><tspan
         style="font-style:italic;font-variant:normal;font-weight:normal;font-stretch:normal;font-size:35px;font-family:'Myriad Pro';-inkscape-font-specification:'Myriad Pro Italic'"
         id="tspan4856">F</tspan></text>
<text
       y="283.19821"
       x="65.832497"
       font-size="24"
       id="text4570"
       style="font-size:24px;font-family:Myriad-Italic"><tspan
         style="font-style:italic;font-variant:normal;font-weight:normal;font-stretch:normal;font-size:35px;font-family:'Myriad Pro';-inkscape-font-specification:'Myriad Pro Italic'"
         id="tspan4854">G</tspan></text>
<text
       y="283.36819"
       x="2.5039001"
       font-size="24"
       id="text4572"
       style="font-size:24px;font-family:Myriad-Italic"><tspan
         style="font-style:italic;font-variant:normal;font-weight:normal;font-stretch:normal;font-size:35px;font-family:'Myriad Pro';-inkscape-font-specification:'Myriad Pro Italic'"
         id="tspan4852">H</tspan></text>
<text
       font-size="24"
       id="text4574"
       x="34.824162"
       y="708.69818"
       style="font-size:24px;font-family:Myriad-Italic"><tspan
         style="font-style:italic;font-variant:normal;font-weight:normal;font-stretch:normal;font-size:35px;font-family:'Myriad Pro';-inkscape-font-specification:'Myriad Pro Italic'"
         id="tspan4870">M</tspan></text>
<text
       font-size="24"
       id="text4576"
       x="277.77155"
       y="25.409027"
       style="font-size:24px;font-family:Myriad-Italic"><tspan
         style="font-style:italic;font-variant:normal;font-weight:normal;font-stretch:normal;font-size:35px;font-family:'Myriad Pro';-inkscape-font-specification:'Myriad Pro Italic'"
         id="tspan4850">L</tspan></text>
<line
       x1="309.84799"
       y1="183.7"
       x2="318.51501"
       y2="443.03299"
       id="line4578"
       style="fill:none" /><path
       d="M 268.515,407.282"
       id="path4580"
       inkscape:connector-curvature="0"
       style="fill:none;stroke:#000000;stroke-width:5;stroke-linejoin:round;stroke-dasharray:5, 5" /><path
       d="M 268.515,299.033"
       id="path4582"
       inkscape:connector-curvature="0"
       style="fill:none;stroke:#000000;stroke-width:5;stroke-linejoin:round;stroke-dasharray:5, 5" /><line
       x1="280.202"
       y1="295.83301"
       x2="280.202"
       y2="438.41599"
       id="line4584"
       style="fill:none;stroke:#000000;stroke-width:4;stroke-linecap:round;stroke-dasharray:2, 8" /><path
       style="fill:none;stroke:#000000;stroke-width:2"
       inkscape:connector-curvature="0"
       id="path4588"
       d="m 9.848,304.922 c 5,8 12,2 17,-3 2,-2 6,-2 10,3" /><path
       style="fill:none;stroke:#000000"
       inkscape:connector-curvature="0"
       id="path4592"
       d="M 190.103,349.698" /><path
       style="fill:none;stroke:#000000"
       inkscape:connector-curvature="0"
       id="path4596"
       d="M 172.103,349.698" /><path
       style="fill:none;stroke:#000000"
       inkscape:connector-curvature="0"
       id="path4600"
       d="M 180.853,367.198" /><path
       style="fill:none;stroke:#000000"
       inkscape:connector-curvature="0"
       id="path4604"
       d="M 162.853,367.198" /><path
       style="fill:none;stroke:#000000"
       inkscape:connector-curvature="0"
       id="path4608"
       d="M 189.853,385.449" /><path
       style="fill:none;stroke:#000000"
       inkscape:connector-curvature="0"
       id="path4612"
       d="M 171.853,385.448" /><path
       style="fill:none;stroke:#000000"
       inkscape:connector-curvature="0"
       id="path4616"
       d="M 186.27,385.532" /><path
       style="fill:none;stroke:#000000"
       inkscape:connector-curvature="0"
       id="path4620"
       d="M 176.603,368.031" /><path
       style="fill:none;stroke:#000000"
       inkscape:connector-curvature="0"
       id="path4624"
       d="M 163.02,368.031" /><path
       style="fill:none;stroke:#000000"
       inkscape:connector-curvature="0"
       id="path4628"
       d="M 203.353,440.532" /><path
       style="fill:none;stroke:#000000"
       inkscape:connector-curvature="0"
       id="path4632"
       d="M 197.186,440.032" /><path
       style="fill:none;stroke:#000000;stroke-width:2"
       inkscape:connector-curvature="0"
       id="path4636"
       d="m 45.848,304.922 c 5,8 12,2 17,-3 2,-2 6,-2 10,3" /><path
       style="fill:none;stroke:#000000;stroke-width:2"
       inkscape:connector-curvature="0"
       id="path4640"
       d="m 81.848,304.922 c 5,8 12,2 17,-3 2,-2 6,-2 10,3" /><path
       style="fill:none;stroke:#000000;stroke-width:2"
       inkscape:connector-curvature="0"
       id="path4644"
       d="m 117.848,304.922 c 5,8 12,2 17,-3 2,-2 6,-2 10,3" /><path
       style="fill:none;stroke:#000000;stroke-width:2"
       inkscape:connector-curvature="0"
       id="path4648"
       d="m 153.848,304.922 c 5,8 12,2 17,-3 2,-2 6,-2 10,3" /><path
       style="fill:none;stroke:#000000;stroke-width:2"
       inkscape:connector-curvature="0"
       id="path4652"
       d="m 0.848,331.922 c 5,8 12,2 17,-3 2,-2 6,-2 10,3" /><path
       style="fill:none;stroke:#000000;stroke-width:2"
       inkscape:connector-curvature="0"
       id="path4656"
       d="m 36.848,331.922 c 5,8 12,2 17,-3 2,-2 6,-2 10,3" /><path
       style="fill:none;stroke:#000000;stroke-width:2"
       inkscape:connector-curvature="0"
       id="path4660"
       d="m 72.848,331.922 c 5,8 12,2 17,-3 2,-2 6,-2 10,3" /><path
       style="fill:none;stroke:#000000;stroke-width:2"
       inkscape:connector-curvature="0"
       id="path4664"
       d="m 108.848,331.922 c 5,8 12,2 17,-3 2,-2 6,-2 10,3" /><path
       style="fill:none;stroke:#000000;stroke-width:2"
       inkscape:connector-curvature="0"
       id="path4668"
       d="m 144.848,331.922 c 5,8 12,2 17,-3 2,-2 6,-2 10,3" /><path
       style="fill:none;stroke:#000000;stroke-width:2"
       inkscape:connector-curvature="0"
       id="path4672"
       d="m 9.848,358.922 c 5,8 12,2 17,-3 2,-2 6,-2 10,3" /><path
       style="fill:none;stroke:#000000;stroke-width:2"
       inkscape:connector-curvature="0"
       id="path4676"
       d="m 45.848,358.922 c 5,8 12,2 17,-3 2,-2 6,-2 10,3" /><path
       style="fill:none;stroke:#000000;stroke-width:2"
       inkscape:connector-curvature="0"
       id="path4680"
       d="m 81.848,358.922 c 5,8 12,2 17,-3 2,-2 6,-2 10,3" /><path
       style="fill:none;stroke:#000000;stroke-width:2"
       inkscape:connector-curvature="0"
       id="path4684"
       d="m 117.848,358.922 c 5,8 12,2 17,-3 2,-2 6,-2 10,3" /><path
       style="fill:none;stroke:#000000;stroke-width:2"
       inkscape:connector-curvature="0"
       id="path4688"
       d="m 153.848,358.922 c 5,6 8,-1 13,-3 2,0 3,2 5,3" /><path
       style="fill:none;stroke:#000000;stroke-width:2"
       inkscape:connector-curvature="0"
       id="path4692"
       d="m 0.848,385.922 c 5,8 12,2 17,-3 2,-2 6,-2 10,3" /><path
       style="fill:none;stroke:#000000;stroke-width:2"
       inkscape:connector-curvature="0"
       id="path4696"
       d="m 36.848,385.922 c 5,8 12,2 17,-3 2,-2 6,-2 10,3" /><path
       style="fill:none;stroke:#000000;stroke-width:2"
       inkscape:connector-curvature="0"
       id="path4700"
       d="m 72.848,385.922 c 5,8 12,2 17,-3 2,-2 6,-2 10,3" /><path
       style="fill:none;stroke:#000000;stroke-width:2"
       inkscape:connector-curvature="0"
       id="path4704"
       d="m 108.848,385.922 c 5,8 12,2 17,-3 2,-2 6,-2 10,3" /><path
       style="fill:none;stroke:#000000;stroke-width:2"
       inkscape:connector-curvature="0"
       id="path4708"
       d="m 144.848,385.922 c 5,6 8,-1 13,-3 2,0 3,2 5,3" /><path
       style="fill:none;stroke:#000000;stroke-width:2"
       inkscape:connector-curvature="0"
       id="path4712"
       d="m 9.848,412.922 c 5,8 12,2 17,-3 2,-2 6,-2 10,3" /><path
       style="fill:none;stroke:#000000;stroke-width:2"
       inkscape:connector-curvature="0"
       id="path4716"
       d="m 45.848,412.922 c 5,8 12,2 17,-3 2,-2 6,-2 10,3" /><path
       style="fill:none;stroke:#000000;stroke-width:2"
       inkscape:connector-curvature="0"
       id="path4720"
       d="m 81.848,412.922 c 5,8 12,2 17,-3 2,-2 6,-2 10,3" /><path
       style="fill:none;stroke:#000000;stroke-width:2"
       inkscape:connector-curvature="0"
       id="path4724"
       d="m 117.848,412.922 c 5,8 12,2 17,-3 2,-2 6,-2 10,3" /><path
       style="fill:none;stroke:#000000;stroke-width:2"
       inkscape:connector-curvature="0"
       id="path4728"
       d="m 180.848,412.922 c 5,6 8,-1 13,-3 2,0 3,2 5,3" /><path
       style="fill:none;stroke:#000000;stroke-width:2"
       inkscape:connector-curvature="0"
       id="path4732"
       d="m 0.848,439.922 c 5,8 12,2 17,-3 2,-2 6,-2 10,3" /><path
       style="fill:none;stroke:#000000;stroke-width:2"
       inkscape:connector-curvature="0"
       id="path4736"
       d="m 36.848,439.922 c 5,8 12,2 17,-3 2,-2 6,-2 10,3" /><path
       style="fill:none;stroke:#000000;stroke-width:2"
       inkscape:connector-curvature="0"
       id="path4740"
       d="m 72.848,439.922 c 5,8 12,2 17,-3 2,-2 6,-2 10,3" /><path
       style="fill:none;stroke:#000000;stroke-width:2"
       inkscape:connector-curvature="0"
       id="path4744"
       d="m 108.848,439.922 c 5,8 12,2 17,-3 2,-2 6,-2 10,3" /><path
       style="fill:none;stroke:#000000;stroke-width:2"
       inkscape:connector-curvature="0"
       id="path4748"
       d="m 171.848,439.922 c 5,8 12,2 17,-3 2,-2 6,-2 10,3" /><path
       style="fill:none;stroke:#000000;stroke-width:2"
       inkscape:connector-curvature="0"
       id="path4752"
       d="m 445.848,304.922 c 5,7 12,2 17,-3 2,-2 6,-2 10,3" /><path
       style="fill:none;stroke:#000000;stroke-width:2"
       inkscape:connector-curvature="0"
       id="path4756"
       d="m 481.848,304.922 c 5,7 12,2 17,-3 2,-2 6,-2 10,3" /><path
       style="fill:none;stroke:#000000;stroke-width:2"
       inkscape:connector-curvature="0"
       id="path4760"
       d="m 517.848,304.922 c 5,7 12,2 17,-3 2,-2 6,-2 10,3" /><path
       style="fill:none;stroke:#000000;stroke-width:2"
       inkscape:connector-curvature="0"
       id="path4764"
       d="m 436.848,331.922 c 5,7 12,2 17,-3 2,-2 6,-2 10,3" /><path
       style="fill:none;stroke:#000000;stroke-width:2"
       inkscape:connector-curvature="0"
       id="path4768"
       d="m 472.848,331.922 c 5,7 12,2 17,-3 2,-2 6,-2 10,3" /><path
       style="fill:none;stroke:#000000;stroke-width:2"
       inkscape:connector-curvature="0"
       id="path4772"
       d="m 508.848,331.922 c 5,7 12,2 17,-3 2,-2 6,-2 10,3" /><path
       style="fill:none;stroke:#000000;stroke-width:2"
       inkscape:connector-curvature="0"
       id="path4776"
       d="m 445.848,358.922 c 5,7 12,2 17,-3 2,-2 6,-2 10,3" /><path
       style="fill:none;stroke:#000000;stroke-width:2"
       inkscape:connector-curvature="0"
       id="path4780"
       d="m 481.848,358.922 c 5,7 12,2 17,-3 2,-2 6,-2 10,3" /><path
       style="fill:none;stroke:#000000;stroke-width:2"
       inkscape:connector-curvature="0"
       id="path4784"
       d="m 517.848,358.922 c 5,7 12,2 17,-3 2,-2 6,-2 10,3" /><path
       style="fill:none;stroke:#000000;stroke-width:2"
       inkscape:connector-curvature="0"
       id="path4788"
       d="m 436.848,385.922 c 5,7 12,2 17,-3 2,-2 6,-2 10,3" /><path
       style="fill:none;stroke:#000000;stroke-width:2"
       inkscape:connector-curvature="0"
       id="path4792"
       d="m 472.848,385.922 c 5,7 12,2 17,-3 2,-2 6,-2 10,3" /><path
       style="fill:none;stroke:#000000;stroke-width:2"
       inkscape:connector-curvature="0"
       id="path4796"
       d="m 508.848,385.922 c 5,7 12,2 17,-3 2,-2 6,-2 10,3" /><path
       style="fill:none;stroke:#000000;stroke-width:2"
       inkscape:connector-curvature="0"
       id="path4800"
       d="m 445.848,412.922 c 5,7 12,2 17,-3 2,-2 6,-2 10,3" /><path
       style="fill:none;stroke:#000000;stroke-width:2"
       inkscape:connector-curvature="0"
       id="path4804"
       d="m 481.848,412.922 c 5,7 12,2 17,-3 2,-2 6,-2 10,3" /><path
       style="fill:none;stroke:#000000;stroke-width:2"
       inkscape:connector-curvature="0"
       id="path4808"
       d="m 517.848,412.922 c 5,7 12,2 17,-3 2,-2 6,-2 10,3" /><path
       style="fill:none;stroke:#000000;stroke-width:2"
       inkscape:connector-curvature="0"
       id="path4812"
       d="m 436.848,439.922 c 5,7 12,2 17,-3 2,-2 6,-2 10,3" /><path
       style="fill:none;stroke:#000000;stroke-width:2"
       inkscape:connector-curvature="0"
       id="path4816"
       d="m 472.848,439.922 c 5,7 12,2 17,-3 2,-2 6,-2 10,3" /><path
       style="fill:none;stroke:#000000;stroke-width:2"
       inkscape:connector-curvature="0"
       id="path4820"
       d="m 508.848,439.922 c 5,7 12,2 17,-3 2,-2 6,-2 10,3" /><path
       style="fill:none;stroke:#000000;stroke-width:2"
       inkscape:connector-curvature="0"
       id="path4824"
       d="m 378.848,313.922 c 5,8 12,2 17,-3 2,-2 6,-2 10,3" /><path
       style="fill:none;stroke:#000000;stroke-width:2"
       inkscape:connector-curvature="0"
       id="path4828"
       d="m 378.848,421.922 c 5,8 12,2 17,-3 2,-2 6,-2 10,3" /><path
       style="fill:none;stroke:#000000;stroke-width:2"
       inkscape:connector-curvature="0"
       id="path4832"
       d="m 369.848,394.922 c 5,8 12,2 17,-3 2,-2 6,-2 10,3" /><path
       style="fill:none;stroke:#000000;stroke-width:2"
       inkscape:connector-curvature="0"
       id="path4836"
       d="m 369.848,340.922 c 5,8 12,2 17,-3 2,-2 6,-2 10,3" /><path
       style="fill:none;stroke:#000000;stroke-width:2"
       inkscape:connector-curvature="0"
       id="path4840"
       d="m 378.848,367.922 c 5,8 12,2 17,-3 2,-2 6,-2 10,3" /></g></svg>