<?xml version="1.0" encoding="UTF-8" standalone="no"?>
<!-- Created with Inkscape (http://www.inkscape.org/) -->

<svg
   xmlns:osb="http://www.openswatchbook.org/uri/2009/osb"
   xmlns:dc="http://purl.org/dc/elements/1.1/"
   xmlns:cc="http://creativecommons.org/ns#"
   xmlns:rdf="http://www.w3.org/1999/02/22-rdf-syntax-ns#"
   xmlns:svg="http://www.w3.org/2000/svg"
   xmlns="http://www.w3.org/2000/svg"
   xmlns:sodipodi="http://sodipodi.sourceforge.net/DTD/sodipodi-0.dtd"
   xmlns:inkscape="http://www.inkscape.org/namespaces/inkscape"
   sodipodi:docname="LH035,09,15_010-011_d-1.svg"
   inkscape:version="0.91 r13725"
   version="1.1"
   id="svg3338"
   viewBox="0 0 744.09448819 1052.3622047"
   height="297mm"
   width="210mm">
  <defs
     id="defs3340">
    <linearGradient
       id="linearGradient5594"
       osb:paint="solid">
      <stop
         style="stop-color:#000000;stop-opacity:1;"
         offset="0"
         id="stop5596" />
    </linearGradient>
  </defs>
  <sodipodi:namedview
     inkscape:snap-global="false"
     inkscape:snap-bbox="true"
     inkscape:window-maximized="1"
     inkscape:window-y="1"
     inkscape:window-x="2960"
     inkscape:window-height="1042"
     inkscape:window-width="2048"
     showguides="true"
     showgrid="true"
     inkscape:current-layer="layer1"
     inkscape:document-units="px"
     inkscape:cy="887.59889"
     inkscape:cx="169.27561"
     inkscape:zoom="1.979899"
     inkscape:pageshadow="2"
     inkscape:pageopacity="0.0"
     borderopacity="1.0"
     bordercolor="#666666"
     pagecolor="#ffffff"
     id="base">
    <inkscape:grid
       type="xygrid"
       id="grid3346" />
  </sodipodi:namedview>
  <metadata
     id="metadata3343">
    <rdf:RDF>
      <cc:Work
         rdf:about="">
        <dc:format>image/svg+xml</dc:format>
        <dc:type
           rdf:resource="http://purl.org/dc/dcmitype/StillImage" />
        <dc:title />
      </cc:Work>
    </rdf:RDF>
  </metadata>
  <g
     inkscape:label="Ebene 1"
     inkscape:groupmode="layer"
     id="layer1">
    <path
       style="fill:none;fill-rule:evenodd;stroke:#000000;stroke-width:1;stroke-linecap:butt;stroke-linejoin:miter;stroke-miterlimit:4;stroke-dasharray:none;stroke-opacity:1"
       d="M 9.6576728e-4,32.873093 C 35.405243,32.838957 70.908919,32.841375 106.37159,32.838165 c 48.64777,0.047 97.26335,0.165194 145.99294,0.138801 34.97498,-0.07087 70.00842,-0.147829 105.16675,-0.112409 12.48155,-0.0015 24.96429,-0.0016 37.4468,-0.0014 -0.29434,0.02879 -2.24778,-0.01962 -2.59929,0.0098"
       id="path5640"
       inkscape:connector-curvature="0" />
    <path
       inkscape:connector-curvature="0"
       id="path5644"
       d="m -0.08040305,66.865784 c 8.95103645,-0.0094 17.92720405,-0.0087 26.89300205,-0.0096 12.299295,0.013 24.590466,0.0457 36.910455,0.03839 8.842491,-0.01958 17.699768,-0.04089 26.588627,-0.03109 3.155629,-3.98e-4 6.311581,-4.38e-4 9.467451,-3.75e-4 -0.07439,0.0079 -0.568303,-0.0054 -0.657171,0.0027"
       style="fill:none;fill-rule:evenodd;stroke:#000000;stroke-width:1;stroke-linecap:butt;stroke-linejoin:miter;stroke-miterlimit:4;stroke-dasharray:none;stroke-opacity:1" />
    <path
       style="fill:none;fill-rule:evenodd;stroke:#000000;stroke-width:1;stroke-linecap:butt;stroke-linejoin:miter;stroke-miterlimit:4;stroke-dasharray:none;stroke-opacity:1"
       d="m -0.50143639,72.345097 c 0.001757,-4.023407 0.002166,-8.058185 0.002765,-12.08829 -0.001143,-5.528606 -0.004998,-11.053712 -0.003337,-16.59148 0.003153,-3.974539 0.006616,-7.95571 0.005704,-11.951309 2.3242e-4,-1.418448 3.6533e-4,-2.837034 5.959e-4,-4.255595 -0.001152,0.03338 7.2014e-4,0.255482 -4.1186e-4,0.295373"
       id="path5646"
       inkscape:connector-curvature="0"
       inkscape:transform-center-x="-8.1332299"
       inkscape:transform-center-y="0.76185123" />
    <text
       xml:space="preserve"
       style="font-style:normal;font-weight:normal;font-size:15px;line-height:125%;font-family:sans-serif;letter-spacing:0px;word-spacing:0px;fill:#000000;fill-opacity:1;stroke:none;stroke-width:1px;stroke-linecap:butt;stroke-linejoin:miter;stroke-opacity:1"
       x="4.0896988"
       y="27.384138"
       id="text5648"
       sodipodi:linespacing="125%"><tspan
         sodipodi:role="line"
         id="tspan5650"
         x="4.0896988"
         y="27.384138"
         style="font-style:italic;font-variant:normal;font-weight:normal;font-stretch:normal;font-size:15px;font-family:'Myriad Pro';-inkscape-font-specification:'Myriad Pro Italic'">A</tspan></text>
    <text
       sodipodi:linespacing="125%"
       id="text5652"
       y="122.88548"
       x="77.447433"
       style="font-style:normal;font-weight:normal;font-size:15px;line-height:125%;font-family:sans-serif;letter-spacing:0px;word-spacing:0px;fill:#000000;fill-opacity:1;stroke:none;stroke-width:1px;stroke-linecap:butt;stroke-linejoin:miter;stroke-opacity:1"
       xml:space="preserve"><tspan
         style="font-style:italic;font-variant:normal;font-weight:normal;font-stretch:normal;font-size:15px;font-family:'Myriad Pro';-inkscape-font-specification:'Myriad Pro Italic'"
         y="122.88548"
         x="77.447433"
         id="tspan5654"
         sodipodi:role="line">E</tspan></text>
    <text
       xml:space="preserve"
       style="font-style:normal;font-weight:normal;font-size:15px;line-height:125%;font-family:sans-serif;letter-spacing:0px;word-spacing:0px;fill:#000000;fill-opacity:1;stroke:none;stroke-width:1px;stroke-linecap:butt;stroke-linejoin:miter;stroke-opacity:1"
       x="98.890144"
       y="27.301197"
       id="text5656"
       sodipodi:linespacing="125%"><tspan
         sodipodi:role="line"
         id="tspan5658"
         x="98.890144"
         y="27.301197"
         style="font-style:italic;font-variant:normal;font-weight:normal;font-stretch:normal;font-size:15px;font-family:'Myriad Pro';-inkscape-font-specification:'Myriad Pro Italic'">B</tspan></text>
    <text
       sodipodi:linespacing="125%"
       id="text5662"
       y="162.38461"
       x="99.302689"
       style="font-style:normal;font-weight:normal;font-size:15px;line-height:125%;font-family:sans-serif;letter-spacing:0px;word-spacing:0px;fill:#000000;fill-opacity:1;stroke:none;stroke-width:1px;stroke-linecap:butt;stroke-linejoin:miter;stroke-opacity:1"
       xml:space="preserve"><tspan
         style="font-style:italic;font-variant:normal;font-weight:normal;font-stretch:normal;font-size:15px;font-family:'Myriad Pro';-inkscape-font-specification:'Myriad Pro Italic'"
         y="162.38461"
         x="99.302689"
         id="tspan5664"
         sodipodi:role="line">R</tspan></text>
    <text
       xml:space="preserve"
       style="font-style:normal;font-weight:normal;font-size:15px;line-height:125%;font-family:sans-serif;letter-spacing:0px;word-spacing:0px;fill:#000000;fill-opacity:1;stroke:none;stroke-width:1px;stroke-linecap:butt;stroke-linejoin:miter;stroke-opacity:1"
       x="3.6665964"
       y="162.29796"
       id="text5666"
       sodipodi:linespacing="125%"><tspan
         sodipodi:role="line"
         id="tspan5668"
         x="3.6665964"
         y="162.29796"
         style="font-style:italic;font-variant:normal;font-weight:normal;font-stretch:normal;font-size:15px;font-family:'Myriad Pro';-inkscape-font-specification:'Myriad Pro Italic'">L</tspan></text>
    <text
       xml:space="preserve"
       style="font-style:italic;font-variant:normal;font-weight:normal;font-stretch:normal;font-size:15px;line-height:125%;font-family:sans-serif;-inkscape-font-specification:'sans-serif Italic';letter-spacing:0px;word-spacing:0px;fill:#000000;fill-opacity:1;stroke:none;stroke-width:1px;stroke-linecap:butt;stroke-linejoin:miter;stroke-opacity:1"
       x="370.30713"
       y="241.4286"
       id="text4178"
       sodipodi:linespacing="125%"><tspan
         sodipodi:role="line"
         id="tspan4180"
         x="370.30713"
         y="241.4286"
         style="font-style:italic;font-variant:normal;font-weight:normal;font-stretch:normal;font-size:15px;font-family:'Myriad Pro';-inkscape-font-specification:'Myriad Pro Italic'">N</tspan></text>
    <path
       style="fill:none;fill-rule:evenodd;stroke:#000000;stroke-width:1;stroke-linecap:butt;stroke-linejoin:miter;stroke-miterlimit:4;stroke-dasharray:none;stroke-opacity:1"
       d="m 100.03767,67.326577 c -5.1e-4,-3.131602 -0.002,-6.272059 -0.004,-9.408886 -0.004,-4.303172 -0.0109,-8.603636 -0.012,-12.913942 0.001,-3.093562 0.003,-6.192295 -5e-4,-9.302258 -6e-5,-1.104048 -0.001,-2.208197 -0.001,-3.312331 -10e-4,0.02603 6.5e-4,0.198848 -2.6e-4,0.229898"
       id="path4180"
       inkscape:connector-curvature="0" />
    <path
       inkscape:connector-curvature="0"
       id="path4182"
       d="m 100.0152,107.42053 c 0.001,-3.59678 0.002,-7.20376 0.003,-10.806546 -1.8e-4,-4.942392 -0.002,-9.881685 -1.7e-4,-14.832268 0.002,-3.553095 0.005,-7.112127 0.005,-10.684069 3.7e-4,-1.268049 4.5e-4,-2.536218 0.001,-3.804365 -5.7e-4,0.02991 5.7e-4,0.22839 -5.1e-4,0.264048"
       style="fill:none;fill-rule:evenodd;stroke:#000000;stroke-width:1;stroke-linecap:butt;stroke-linejoin:miter;stroke-miterlimit:4;stroke-dasharray:none;stroke-dashoffset:0;stroke-opacity:1" />
    <path
       style="opacity:1;fill:none;fill-opacity:1;stroke:#000000;stroke-width:2;stroke-linecap:round;stroke-linejoin:round;stroke-miterlimit:4;stroke-dasharray:none;stroke-dashoffset:0;stroke-opacity:1"
       id="path4195"
       sodipodi:type="arc"
       sodipodi:cx="100.19576"
       sodipodi:cy="117.98745"
       sodipodi:rx="9.5422001"
       sodipodi:ry="9.5051842"
       sodipodi:start="3.2783043"
       sodipodi:end="3.2752565"
       d="m 90.742596,116.69202 a 9.5422001,9.5051842 0 0 1 10.746434,-8.12205 9.5422001,9.5051842 0 0 1 8.16187,10.69855 9.5422001,9.5051842 0 0 1 -10.733996,8.13836 9.5422001,9.5051842 0 0 1 -8.178228,-10.68615"
       sodipodi:open="true"
       inkscape:transform-center-x="-54.224205"
       inkscape:transform-center-y="22.001363" />
    <path
       inkscape:connector-curvature="0"
       id="path4217"
       d="m 0.02112588,167.85896 c 35.41824912,-0.0342 70.93595112,-0.0318 106.41263412,-0.0349 48.66697,0.0471 97.30176,0.16527 146.0506,0.13896 34.98879,-0.0708 70.03607,-0.14781 105.20828,-0.11241 12.48649,-10e-4 24.97415,-0.002 37.4616,-10e-4 -0.29431,0.029 -2.24864,-0.0191 -2.60031,0.01"
       style="fill:none;fill-rule:evenodd;stroke:#000000;stroke-width:1;stroke-linecap:butt;stroke-linejoin:miter;stroke-miterlimit:4;stroke-dasharray:none;stroke-opacity:1" />
    <path
       style="fill:none;fill-rule:evenodd;stroke:#000000;stroke-width:1;stroke-linecap:butt;stroke-linejoin:miter;stroke-miterlimit:4;stroke-dasharray:none;stroke-opacity:1"
       d="m 106.27979,184.8312 c -35.451895,0.002 -70.944133,0.005 -106.33765974,0.0418 l 134.88143974,0 c -9.51398,-0.0143 -19.02843,-0.0318 -28.54378,-0.0418 z m 28.54378,0.0418 c 39.11201,0.0585 78.22053,0.13486 117.40397,0.11156 23.31007,-0.0516 46.66297,-0.0923 70.04468,-0.11156 l -187.44865,0 z m 187.44865,0 69.92856,0 c 0.35139,-0.0333 2.30284,0.0167 2.59701,-0.0143 -12.4787,-2.6e-4 -24.95809,0.002 -37.43586,0.005 -11.71537,-0.0119 -23.39963,-3.4e-4 -35.08971,0.01 z"
       id="path4219"
       inkscape:connector-curvature="0" />
    <path
       inkscape:transform-center-y="0.46780863"
       inkscape:transform-center-x="-4.9941101"
       inkscape:connector-curvature="0"
       id="path4221"
       d="m -0.47902032,189.90599 c 0.001228,-2.47053 0.001228,-4.94804 0.001842,-7.42267 -6.1397e-4,-3.39478 -0.00307,-6.7874 -0.001842,-10.1878 0.001842,-2.44051 0.004298,-4.8851 0.003684,-7.33855 1.4123e-4,-0.87099 2.2719e-4,-1.74205 3.6842e-4,-2.6131 -6.1397e-4,0.0205 4.4211e-4,0.15687 -2.5789e-4,0.18137"
       style="fill:none;fill-rule:evenodd;stroke:#000000;stroke-width:1;stroke-linecap:butt;stroke-linejoin:miter;stroke-miterlimit:4;stroke-dasharray:none;stroke-opacity:1" />
    <path
       inkscape:connector-curvature="0"
       id="path4223"
       d="m 394.69522,185.52682 c -2.7e-4,-1.62785 -0.001,-3.2603 -0.002,-4.89087 -0.002,-2.23685 -0.006,-4.4723 -0.006,-6.71285 5.2e-4,-1.60808 0.002,-3.21885 -2.6e-4,-4.83545 -3e-5,-0.5739 -5.2e-4,-1.14785 -5.2e-4,-1.7218 -5.2e-4,0.0135 3.4e-4,0.10337 -1.4e-4,0.11951"
       style="fill:none;fill-rule:evenodd;stroke:#000000;stroke-width:1;stroke-linecap:butt;stroke-linejoin:miter;stroke-miterlimit:4;stroke-dasharray:none;stroke-opacity:1" />
    <path
       style="fill:none;fill-rule:evenodd;stroke:#000000;stroke-width:1;stroke-linecap:butt;stroke-linejoin:miter;stroke-miterlimit:4;stroke-dasharray:none;stroke-dashoffset:0;stroke-opacity:1"
       d="m 394.6771,225.97786 c 8.6e-4,-3.62874 0.003,-7.26777 0.003,-10.90256 -1.8e-4,-4.98632 -0.002,-9.96949 -1.7e-4,-14.96406 0.003,-3.58466 0.005,-7.17532 0.005,-10.779 3.6e-4,-1.27931 4.4e-4,-2.55874 8.5e-4,-3.83816 -5.7e-4,0.0301 5.7e-4,0.23041 -5.1e-4,0.26639"
       id="path4225"
       inkscape:connector-curvature="0" />
    <path
       inkscape:transform-center-y="22.001363"
       inkscape:transform-center-x="-54.224205"
       sodipodi:open="true"
       d="m 385.33056,235.04016 a 9.5422001,9.5051842 0 0 1 10.74643,-8.12205 9.5422001,9.5051842 0 0 1 8.16187,10.69855 9.5422001,9.5051842 0 0 1 -10.734,8.13836 9.5422001,9.5051842 0 0 1 -8.17822,-10.68615"
       sodipodi:end="3.2752565"
       sodipodi:start="3.2783043"
       sodipodi:ry="9.5051842"
       sodipodi:rx="9.5422001"
       sodipodi:cy="236.33559"
       sodipodi:cx="394.78372"
       sodipodi:type="arc"
       id="path4227"
       style="opacity:1;fill:none;fill-opacity:1;stroke:#000000;stroke-width:2;stroke-linecap:round;stroke-linejoin:round;stroke-miterlimit:4;stroke-dasharray:none;stroke-dashoffset:0;stroke-opacity:1" />
    <path
       style="fill:none;fill-rule:evenodd;stroke:#000000;stroke-width:1;stroke-linecap:butt;stroke-linejoin:miter;stroke-miterlimit:4;stroke-dasharray:none;stroke-opacity:1"
       d="M -0.79317991,49.893355 C 34.680024,49.855925 70.252822,49.8586 105.78453,49.855067 c 48.74244,0.05152 97.45269,0.181091 146.27715,0.152148 35.04303,-0.0776 70.14467,-0.162017 105.37147,-0.123182 12.50584,-0.0016 25.01295,-0.0018 37.51974,-0.0015 -0.29481,0.03154 -2.25219,-0.02146 -2.60438,0.01073"
       id="path4160"
       inkscape:connector-curvature="0" />
    <path
       inkscape:connector-curvature="0"
       id="path4162"
       d="m 394.54819,50.228404 c -2.6e-4,-1.599884 -9.7e-4,-3.204293 -0.002,-4.806847 -0.002,-2.19842 -0.006,-4.395457 -0.006,-6.597523 5.1e-4,-1.58045 0.002,-3.163543 -2.6e-4,-4.752372 -3e-5,-0.56404 -5.1e-4,-1.128132 -5.1e-4,-1.692216 -5.1e-4,0.0133 3.3e-4,0.101588 -1.3e-4,0.117451"
       style="fill:none;fill-rule:evenodd;stroke:#000000;stroke-width:1;stroke-linecap:butt;stroke-linejoin:miter;stroke-miterlimit:4;stroke-dasharray:none;stroke-opacity:1" />
    <text
       sodipodi:linespacing="125%"
       id="text4164"
       y="82.928825"
       x="3.3320844"
       style="font-style:normal;font-weight:normal;font-size:15px;line-height:125%;font-family:sans-serif;letter-spacing:0px;word-spacing:0px;fill:#000000;fill-opacity:1;stroke:none;stroke-width:1px;stroke-linecap:butt;stroke-linejoin:miter;stroke-opacity:1"
       xml:space="preserve"><tspan
         style="font-style:italic;font-variant:normal;font-weight:normal;font-stretch:normal;font-size:15px;font-family:'Myriad Pro';-inkscape-font-specification:'Myriad Pro Italic'"
         y="82.928825"
         x="3.3320844"
         id="tspan4166"
         sodipodi:role="line">Q</tspan></text>
    <text
       sodipodi:linespacing="125%"
       id="text4168"
       y="27.384138"
       x="47.987633"
       style="font-style:normal;font-weight:normal;font-size:15px;line-height:125%;font-family:sans-serif;letter-spacing:0px;word-spacing:0px;fill:#000000;fill-opacity:1;stroke:none;stroke-width:1px;stroke-linecap:butt;stroke-linejoin:miter;stroke-opacity:1"
       xml:space="preserve"><tspan
         style="font-style:italic;font-variant:normal;font-weight:normal;font-stretch:normal;font-size:15px;font-family:'Myriad Pro';-inkscape-font-specification:'Myriad Pro Italic'"
         y="27.384138"
         x="47.987633"
         id="tspan4170"
         sodipodi:role="line">T</tspan></text>
    <text
       xml:space="preserve"
       style="font-style:normal;font-weight:normal;font-size:15px;line-height:125%;font-family:sans-serif;letter-spacing:0px;word-spacing:0px;fill:#000000;fill-opacity:1;stroke:none;stroke-width:1px;stroke-linecap:butt;stroke-linejoin:miter;stroke-opacity:1"
       x="-12.104281"
       y="55.389214"
       id="text4172"
       sodipodi:linespacing="125%"><tspan
         sodipodi:role="line"
         id="tspan4174"
         x="-12.104281"
         y="55.389214"
         style="font-style:italic;font-variant:normal;font-weight:normal;font-stretch:normal;font-size:15px;font-family:'Myriad Pro';-inkscape-font-specification:'Myriad Pro Italic'">S</tspan></text>
    <text
       sodipodi:linespacing="125%"
       id="text4176"
       y="27.301197"
       x="384.6044"
       style="font-style:normal;font-weight:normal;font-size:15px;line-height:125%;font-family:sans-serif;letter-spacing:0px;word-spacing:0px;fill:#000000;fill-opacity:1;stroke:none;stroke-width:1px;stroke-linecap:butt;stroke-linejoin:miter;stroke-opacity:1"
       xml:space="preserve"><tspan
         style="font-style:italic;font-variant:normal;font-weight:normal;font-stretch:normal;font-size:15px;font-family:'Myriad Pro';-inkscape-font-specification:'Myriad Pro Italic'"
         y="27.301197"
         x="384.6044"
         id="tspan4178"
         sodipodi:role="line">H</tspan></text>
    <text
       sodipodi:linespacing="125%"
       id="text4180"
       y="64.801193"
       x="104.51514"
       style="font-style:normal;font-weight:normal;font-size:15px;line-height:125%;font-family:sans-serif;letter-spacing:0px;word-spacing:0px;fill:#000000;fill-opacity:1;stroke:none;stroke-width:1px;stroke-linecap:butt;stroke-linejoin:miter;stroke-opacity:1"
       xml:space="preserve"><tspan
         style="font-style:italic;font-variant:normal;font-weight:normal;font-stretch:normal;font-size:15px;font-family:'Myriad Pro';-inkscape-font-specification:'Myriad Pro Italic'"
         y="64.801193"
         x="104.51514"
         id="tspan4182"
         sodipodi:role="line">K</tspan></text>
    <text
       xml:space="preserve"
       style="font-style:normal;font-weight:normal;font-size:15px;line-height:125%;font-family:sans-serif;letter-spacing:0px;word-spacing:0px;fill:#000000;fill-opacity:1;stroke:none;stroke-width:1px;stroke-linecap:butt;stroke-linejoin:miter;stroke-opacity:1"
       x="3.2312596"
       y="200.42032"
       id="text4185"
       sodipodi:linespacing="125%"><tspan
         sodipodi:role="line"
         id="tspan4187"
         x="3.2312596"
         y="200.42032"
         style="font-style:italic;font-variant:normal;font-weight:normal;font-stretch:normal;font-size:15px;font-family:'Myriad Pro';-inkscape-font-specification:'Myriad Pro Italic'">P</tspan></text>
    <text
       sodipodi:linespacing="125%"
       id="text4189"
       y="161.49174"
       x="383.58841"
       style="font-style:normal;font-weight:normal;font-size:15px;line-height:125%;font-family:sans-serif;letter-spacing:0px;word-spacing:0px;fill:#000000;fill-opacity:1;stroke:none;stroke-width:1px;stroke-linecap:butt;stroke-linejoin:miter;stroke-opacity:1"
       xml:space="preserve"><tspan
         style="font-style:italic;font-variant:normal;font-weight:normal;font-stretch:normal;font-size:15px;font-family:'Myriad Pro';-inkscape-font-specification:'Myriad Pro Italic'"
         y="161.49174"
         x="383.58841"
         id="tspan4191"
         sodipodi:role="line">M</tspan></text>
  </g>
</svg>
