<?xml version="1.0" encoding="UTF-8" standalone="no"?>
<!-- Created with Inkscape (http://www.inkscape.org/) -->

<svg
   xmlns:osb="http://www.openswatchbook.org/uri/2009/osb"
   xmlns:dc="http://purl.org/dc/elements/1.1/"
   xmlns:cc="http://creativecommons.org/ns#"
   xmlns:rdf="http://www.w3.org/1999/02/22-rdf-syntax-ns#"
   xmlns:svg="http://www.w3.org/2000/svg"
   xmlns="http://www.w3.org/2000/svg"
   xmlns:sodipodi="http://sodipodi.sourceforge.net/DTD/sodipodi-0.dtd"
   xmlns:inkscape="http://www.inkscape.org/namespaces/inkscape"
   width="210mm"
   height="297mm"
   viewBox="0 0 744.09448819 1052.3622047"
   id="svg3338"
   version="1.1"
   inkscape:version="0.91 r13725"
   sodipodi:docname="LH035,09,15_008-009_d-3.svg">
  <defs
     id="defs3340">
    <linearGradient
       id="linearGradient5594"
       osb:paint="solid">
      <stop
         style="stop-color:#000000;stop-opacity:1;"
         offset="0"
         id="stop5596" />
    </linearGradient>
  </defs>
  <sodipodi:namedview
     id="base"
     pagecolor="#ffffff"
     bordercolor="#666666"
     borderopacity="1.0"
     inkscape:pageopacity="0.0"
     inkscape:pageshadow="2"
     inkscape:zoom="3.9597979"
     inkscape:cx="123.34595"
     inkscape:cy="942.33561"
     inkscape:document-units="px"
     inkscape:current-layer="layer1"
     showgrid="true"
     showguides="true"
     inkscape:window-width="2048"
     inkscape:window-height="1036"
     inkscape:window-x="2832"
     inkscape:window-y="1"
     inkscape:window-maximized="1"
     inkscape:snap-bbox="true"
     inkscape:snap-global="false">
    <inkscape:grid
       type="xygrid"
       id="grid3346" />
  </sodipodi:namedview>
  <metadata
     id="metadata3343">
    <rdf:RDF>
      <cc:Work
         rdf:about="">
        <dc:format>image/svg+xml</dc:format>
        <dc:type
           rdf:resource="http://purl.org/dc/dcmitype/StillImage" />
        <dc:title />
      </cc:Work>
    </rdf:RDF>
  </metadata>
  <g
     inkscape:label="Ebene 1"
     inkscape:groupmode="layer"
     id="layer1">
    <path
       inkscape:connector-curvature="0"
       id="path5689"
       d="m 0.00993314,117.34856 c 21.50411886,-0.0178 43.06860986,-0.0165 64.60819486,-0.0183 29.548026,0.0247 59.076542,0.0868 88.674292,0.073 21.24337,-0.0373 42.52222,-0.0779 63.87695,-0.0591 7.58111,-7.6e-4 15.16301,-8.2e-4 22.74474,-7.1e-4 -0.17873,0.0151 -1.36527,-0.01 -1.57877,0.006"
       style="fill:none;fill-rule:evenodd;stroke:#000000;stroke-width:1;stroke-linecap:butt;stroke-linejoin:miter;stroke-miterlimit:4;stroke-dasharray:none;stroke-opacity:1" />
    <text
       sodipodi:linespacing="125%"
       id="text5695"
       y="117.2995"
       x="-11.432689"
       style="font-style:normal;font-weight:normal;font-size:15px;line-height:125%;font-family:sans-serif;letter-spacing:0px;word-spacing:0px;fill:#000000;fill-opacity:1;stroke:none;stroke-width:1px;stroke-linecap:butt;stroke-linejoin:miter;stroke-opacity:1"
       xml:space="preserve"><tspan
         style="font-style:italic;font-variant:normal;font-weight:normal;font-stretch:normal;font-size:12.5px;font-family:'Myriad Pro';-inkscape-font-specification:'Myriad Pro Italic'"
         y="117.2995"
         x="-11.432689"
         id="tspan5697"
         sodipodi:role="line">A</tspan></text>
    <text
       xml:space="preserve"
       style="font-style:normal;font-weight:normal;font-size:15px;line-height:125%;font-family:sans-serif;letter-spacing:0px;word-spacing:0px;fill:#000000;fill-opacity:1;stroke:none;stroke-width:1px;stroke-linecap:butt;stroke-linejoin:miter;stroke-opacity:1"
       x="86.379349"
       y="132.40511"
       id="text5699"
       sodipodi:linespacing="125%"><tspan
         sodipodi:role="line"
         id="tspan5701"
         x="86.379349"
         y="132.40511"
         style="font-style:italic;font-variant:normal;font-weight:normal;font-stretch:normal;font-size:12.5px;font-family:'Myriad Pro';-inkscape-font-specification:'Myriad Pro Italic'">E</tspan></text>
    <text
       sodipodi:linespacing="125%"
       id="text5703"
       y="108.94781"
       x="117.04974"
       style="font-style:normal;font-weight:normal;font-size:15px;line-height:125%;font-family:sans-serif;letter-spacing:0px;word-spacing:0px;fill:#000000;fill-opacity:1;stroke:none;stroke-width:1px;stroke-linecap:butt;stroke-linejoin:miter;stroke-opacity:1"
       xml:space="preserve"><tspan
         style="font-style:italic;font-variant:normal;font-weight:normal;font-stretch:normal;font-size:12.5px;font-family:'Myriad Pro';-inkscape-font-specification:'Myriad Pro Italic'"
         y="108.94781"
         x="117.04974"
         id="tspan5705"
         sodipodi:role="line">B</tspan></text>
    <text
       xml:space="preserve"
       style="font-style:italic;font-variant:normal;font-weight:normal;font-stretch:normal;font-size:15px;line-height:125%;font-family:sans-serif;-inkscape-font-specification:'sans-serif Italic';letter-spacing:0px;word-spacing:0px;fill:#000000;fill-opacity:1;stroke:none;stroke-width:1px;stroke-linecap:butt;stroke-linejoin:miter;stroke-opacity:1"
       x="25.635233"
       y="132.41679"
       id="text5709"
       sodipodi:linespacing="125%"><tspan
         sodipodi:role="line"
         id="tspan5711"
         x="25.635233"
         y="132.41679"
         style="font-style:italic;font-variant:normal;font-weight:normal;font-stretch:normal;font-size:12.5px;font-family:'Myriad Pro';-inkscape-font-specification:'Myriad Pro Italic'">D</tspan></text>
    <text
       sodipodi:linespacing="125%"
       id="text5713"
       y="117.21658"
       x="244.45384"
       style="font-style:normal;font-weight:normal;font-size:15px;line-height:125%;font-family:sans-serif;letter-spacing:0px;word-spacing:0px;fill:#000000;fill-opacity:1;stroke:none;stroke-width:1px;stroke-linecap:butt;stroke-linejoin:miter;stroke-opacity:1"
       xml:space="preserve"><tspan
         style="font-style:italic;font-variant:normal;font-weight:normal;font-stretch:normal;font-size:12.5px;font-family:'Myriad Pro';-inkscape-font-specification:'Myriad Pro Italic'"
         y="117.21658"
         x="244.45384"
         id="tspan5715"
         sodipodi:role="line">C</tspan></text>
    <text
       xml:space="preserve"
       style="font-style:normal;font-weight:normal;font-size:15px;line-height:125%;font-family:sans-serif;letter-spacing:0px;word-spacing:0px;fill:#000000;fill-opacity:1;stroke:none;stroke-width:1px;stroke-linecap:butt;stroke-linejoin:miter;stroke-opacity:1"
       x="205.61925"
       y="132.29765"
       id="text5727"
       sodipodi:linespacing="125%"><tspan
         sodipodi:role="line"
         id="tspan5729"
         x="205.61925"
         y="132.29765"
         style="font-style:italic;font-variant:normal;font-weight:normal;font-stretch:normal;font-size:12.5px;font-family:'Myriad Pro';-inkscape-font-specification:'Myriad Pro Italic'">G</tspan></text>
    <text
       xml:space="preserve"
       style="font-style:italic;font-variant:normal;font-weight:normal;font-stretch:normal;font-size:15px;line-height:125%;font-family:sans-serif;-inkscape-font-specification:'sans-serif Italic';letter-spacing:0px;word-spacing:0px;fill:#000000;fill-opacity:1;stroke:none;stroke-width:1px;stroke-linecap:butt;stroke-linejoin:miter;stroke-opacity:1"
       x="146.487"
       y="132.46085"
       id="text4178"
       sodipodi:linespacing="125%"><tspan
         sodipodi:role="line"
         id="tspan4180"
         x="146.487"
         y="132.46085"
         style="font-style:italic;font-variant:normal;font-weight:normal;font-stretch:normal;font-size:12.5px;font-family:'Myriad Pro';-inkscape-font-specification:'Myriad Pro Italic'">F</tspan></text>
    <path
       style="fill:none;fill-rule:evenodd;stroke:#000000;stroke-width:1.5;stroke-linecap:butt;stroke-linejoin:miter;stroke-miterlimit:4;stroke-dasharray:none;stroke-opacity:1"
       d="m 60.038861,114.38298 c 4.38e-4,0.52946 4.03e-4,1.06041 4.5e-4,1.59076 -6.16e-4,0.72748 -0.0022,1.45456 -0.0022,2.18325 9.15e-4,0.52305 0.0022,1.04697 0.0011,1.57275 2.1e-5,0.1867 2.1e-5,0.37332 2.1e-5,0.55999 -3.77e-4,-0.005 2.5e-4,-0.0337 -1.43e-4,-0.0391"
       id="path4152"
       inkscape:connector-curvature="0" />
    <path
       inkscape:connector-curvature="0"
       id="path4154"
       d="m 120.01079,114.38288 c 4.4e-4,0.53274 3.8e-4,1.06697 4.4e-4,1.6006 -6.2e-4,0.732 -0.003,1.46355 -0.003,2.19678 9.2e-4,0.52629 0.003,1.05345 0.001,1.58248 3e-5,0.18797 3e-5,0.37562 3e-5,0.56345 -3.8e-4,-0.004 2.5e-4,-0.0339 -1.5e-4,-0.0392"
       style="fill:none;fill-rule:evenodd;stroke:#000000;stroke-width:1;stroke-linecap:butt;stroke-linejoin:miter;stroke-miterlimit:4;stroke-dasharray:none;stroke-opacity:1" />
    <path
       style="fill:none;fill-rule:evenodd;stroke:#000000;stroke-width:1.5;stroke-linecap:butt;stroke-linejoin:miter;stroke-miterlimit:4.6;stroke-dasharray:none;stroke-opacity:1"
       d="m 180.00943,114.35544 c 4.3e-4,0.53322 4e-4,1.06792 4.4e-4,1.60203 -6e-4,0.73265 -0.003,1.46485 -0.003,2.19874 9e-4,0.52675 0.003,1.05438 0.001,1.58391 2e-5,0.18787 2e-5,0.37596 2e-5,0.56394 -4e-4,-0.004 2.3e-4,-0.034 -1.6e-4,-0.0393"
       id="path4156"
       inkscape:connector-curvature="0" />
    <path
       inkscape:connector-curvature="0"
       id="path4158"
       d="m 29.997413,117.83468 c 1.11e-4,0.13226 1.03e-4,0.2649 1.11e-4,0.39738 -1.48e-4,0.18174 -5.48e-4,0.36336 -5.48e-4,0.5454 2.3e-4,0.13067 5.48e-4,0.26154 2.81e-4,0.3929 0,0.0466 0,0.0932 0,0.13988 -8.8e-5,-7.4e-4 6.7e-5,-0.008 -3.7e-5,-0.01"
       style="fill:none;fill-rule:evenodd;stroke:#000000;stroke-width:1;stroke-linecap:butt;stroke-linejoin:miter;stroke-miterlimit:4;stroke-dasharray:none;stroke-opacity:1" />
    <path
       style="fill:none;fill-rule:evenodd;stroke:#000000;stroke-width:1;stroke-linecap:butt;stroke-linejoin:miter;stroke-miterlimit:4;stroke-dasharray:none;stroke-opacity:1"
       d="m 90.029687,117.85046 c 1.07e-4,0.13041 9.9e-5,0.26119 1.09e-4,0.39182 -1.5e-4,0.1792 -5.4e-4,0.35827 -5.4e-4,0.53777 2.24e-4,0.12884 5.4e-4,0.25788 2.74e-4,0.3874 5e-6,0.046 5e-6,0.0919 5e-6,0.13792 -9.3e-5,-7.2e-4 6.1e-5,-0.008 -3.5e-5,-0.01"
       id="path4160"
       inkscape:connector-curvature="0" />
    <path
       inkscape:connector-curvature="0"
       id="path4162"
       d="m 210.00854,117.83378 c 1.1e-4,0.13503 1e-4,0.27044 1.1e-4,0.4057 -1.5e-4,0.18555 -5.6e-4,0.37097 -5.6e-4,0.55683 2.3e-4,0.1334 5.6e-4,0.26701 2.9e-4,0.40112 1e-5,0.0476 1e-5,0.0952 1e-5,0.14281 -1e-4,-7.5e-4 6e-5,-0.009 -4e-5,-0.01"
       style="fill:none;fill-rule:evenodd;stroke:#000000;stroke-width:1;stroke-linecap:butt;stroke-linejoin:miter;stroke-miterlimit:4;stroke-dasharray:none;stroke-opacity:1" />
    <path
       style="fill:none;fill-rule:evenodd;stroke:#000000;stroke-width:1;stroke-linecap:butt;stroke-linejoin:miter;stroke-miterlimit:4;stroke-dasharray:none;stroke-opacity:1"
       d="m 150.03376,117.90867 c 1.1e-4,0.12944 1e-4,0.25924 1.1e-4,0.38889 -1.5e-4,0.17785 -5.4e-4,0.35559 -5.4e-4,0.53374 2.3e-4,0.12787 5.4e-4,0.25595 2.8e-4,0.38449 0,0.0457 0,0.0913 0,0.1369 -9e-5,-7.3e-4 6e-5,-0.008 -4e-5,-0.009"
       id="path4164"
       inkscape:connector-curvature="0" />
    <path
       inkscape:connector-curvature="0"
       id="path4166"
       d="m 239.50507,102.37507 c 0.003,2.68962 0.003,5.38675 0.003,8.08087 -0.003,3.69575 -0.0107,7.38894 -0.0107,11.09098 0.004,2.65717 0.0107,5.31851 0.005,7.98963 10e-5,0.94878 10e-5,1.89651 10e-5,2.84461 -0.002,-0.0107 8.6e-4,-0.16959 -7.2e-4,-0.19769"
       style="fill:none;fill-rule:evenodd;stroke:#000000;stroke-width:1;stroke-linecap:butt;stroke-linejoin:miter;stroke-miterlimit:4;stroke-dasharray:none;stroke-opacity:1" />
    <path
       style="fill:none;fill-rule:evenodd;stroke:#000000;stroke-width:1;stroke-linecap:butt;stroke-linejoin:miter;stroke-miterlimit:4;stroke-dasharray:none;stroke-opacity:1"
       d="m 0.51240193,102.48729 c 0.002143,2.67246 0.001967,5.35246 0.002191,8.02946 -0.003006,3.67223 -0.0106305,7.34192 -0.0106305,11.02035 0.004481,2.64027 0.0106305,5.28461 0.005477,7.93874 1.1814e-4,0.94274 1.1814e-4,1.88441 1.1814e-4,2.82655 -0.001867,-0.0101 0.001204,-0.16924 -7.1452e-4,-0.19587"
       id="path4170"
       inkscape:connector-curvature="0" />
    <text
       sodipodi:linespacing="125%"
       id="text4172"
       y="108.92563"
       x="56.366314"
       style="font-style:italic;font-variant:normal;font-weight:normal;font-stretch:normal;font-size:15px;line-height:125%;font-family:sans-serif;-inkscape-font-specification:'sans-serif Italic';letter-spacing:0px;word-spacing:0px;fill:#000000;fill-opacity:1;stroke:none;stroke-width:1px;stroke-linecap:butt;stroke-linejoin:miter;stroke-opacity:1"
       xml:space="preserve"><tspan
         style="font-style:italic;font-variant:normal;font-weight:normal;font-stretch:normal;font-size:12.5px;font-family:'Myriad Pro';-inkscape-font-specification:'Myriad Pro Italic'"
         y="108.92563"
         x="56.366314"
         id="tspan4174"
         sodipodi:role="line">H</tspan></text>
    <text
       sodipodi:linespacing="125%"
       id="text4176"
       y="108.8271"
       x="178.22385"
       style="font-style:normal;font-weight:normal;font-size:15px;line-height:125%;font-family:sans-serif;letter-spacing:0px;word-spacing:0px;fill:#000000;fill-opacity:1;stroke:none;stroke-width:1px;stroke-linecap:butt;stroke-linejoin:miter;stroke-opacity:1"
       xml:space="preserve"><tspan
         style="font-style:italic;font-variant:normal;font-weight:normal;font-stretch:normal;font-size:12.5px;font-family:'Myriad Pro';-inkscape-font-specification:'Myriad Pro Italic'"
         y="108.8271"
         x="178.22385"
         id="tspan4178"
         sodipodi:role="line">I</tspan></text>
    <path
       style="fill:none;fill-rule:evenodd;stroke:#000000;stroke-width:0.99842507;stroke-linecap:butt;stroke-linejoin:miter;stroke-miterlimit:4;stroke-dasharray:none;stroke-opacity:1"
       d="m 30.009887,91.858964 c 5.377533,-0.0045 10.770161,-0.0042 16.156562,-0.0045 7.389071,0.0063 14.773263,0.02171 22.174766,0.01825 5.312327,-0.0094 10.633526,-0.01948 15.9737,-0.01475 1.895807,-1.89e-4 3.791812,-2.04e-4 5.687774,-1.77e-4 -0.04469,0.0038 -0.341413,-0.0024 -0.394802,0.0015"
       id="path4165"
       inkscape:connector-curvature="0" />
    <path
       inkscape:connector-curvature="0"
       id="path4167"
       d="m 150.04146,91.847204 c 5.37471,-0.0045 10.7645,-0.0042 16.14807,-0.0045 7.38518,0.0063 14.76549,0.02169 22.1631,0.01824 5.30954,-0.0094 10.62793,-0.01947 15.9653,-0.01474 1.89482,-1.89e-4 3.78982,-2.04e-4 5.68479,-1.77e-4 -0.0447,0.0038 -0.34123,-0.0024 -0.3946,0.0015"
       style="fill:none;fill-rule:evenodd;stroke:#000000;stroke-width:0.99790007;stroke-linecap:butt;stroke-linejoin:miter;stroke-miterlimit:4;stroke-dasharray:none;stroke-opacity:1" />
    <path
       style="fill:none;fill-rule:evenodd;stroke:#000000;stroke-width:1;stroke-linecap:butt;stroke-linejoin:miter;stroke-miterlimit:4;stroke-dasharray:none;stroke-opacity:1"
       d="m 14.998816,142.8647 c 2.689574,-0.003 5.386692,-0.002 8.080702,-0.003 3.695638,0.003 7.388839,0.0108 11.0907,0.009 2.656961,-0.005 5.318356,-0.0101 7.989244,-0.007 0.948189,-1e-4 1.896473,-1.1e-4 2.844741,-9e-5 -0.02238,0.002 -0.170757,-6.9e-4 -0.197463,4.9e-4"
       id="path4169"
       inkscape:connector-curvature="0" />
    <path
       inkscape:connector-curvature="0"
       id="path4171"
       d="m 75.052048,142.8548 c 2.683923,-0.003 5.375375,-0.002 8.063725,-0.003 3.687874,0.003 7.373316,0.0108 11.0674,0.009 2.651379,-0.005 5.307182,-0.0101 7.972457,-0.007 0.9462,-1.1e-4 1.89249,-1.2e-4 2.83877,-9e-5 -0.0223,0.002 -0.17041,-6.9e-4 -0.19706,4.9e-4"
       style="fill:none;fill-rule:evenodd;stroke:#000000;stroke-width:1;stroke-linecap:butt;stroke-linejoin:miter;stroke-miterlimit:4;stroke-dasharray:none;stroke-opacity:1" />
    <path
       style="fill:none;fill-rule:evenodd;stroke:#000000;stroke-width:1;stroke-linecap:butt;stroke-linejoin:miter;stroke-miterlimit:4;stroke-dasharray:none;stroke-opacity:1"
       d="m 135.03038,142.87554 c 2.68393,-0.003 5.37537,-0.002 8.06372,-0.003 3.68789,0.003 7.37332,0.0108 11.06741,0.009 2.65138,-0.005 5.30719,-0.0101 7.97246,-0.007 0.9462,-1.1e-4 1.89249,-1.2e-4 2.83877,-9e-5 -0.0223,0.002 -0.17041,-6.9e-4 -0.19706,4.9e-4"
       id="path4173"
       inkscape:connector-curvature="0" />
    <path
       inkscape:connector-curvature="0"
       id="path4175"
       d="m 195.00965,141.88705 c 2.68675,-0.003 5.38103,-0.002 8.07221,-0.003 3.69177,0.003 7.38108,0.0108 11.07905,0.009 2.65418,-0.005 5.31278,-0.0101 7.98086,-0.007 0.94719,-1e-4 1.89449,-1.1e-4 2.84176,-9e-5 -0.0224,0.002 -0.17059,-6.8e-4 -0.19726,5e-4"
       style="fill:none;fill-rule:evenodd;stroke:#000000;stroke-width:1;stroke-linecap:butt;stroke-linejoin:miter;stroke-miterlimit:4;stroke-dasharray:none;stroke-opacity:1" />
  </g>
</svg>
