<?xml version="1.0" encoding="UTF-8" standalone="no"?>
<!-- Created with Inkscape (http://www.inkscape.org/) -->

<svg
   xmlns:dc="http://purl.org/dc/elements/1.1/"
   xmlns:cc="http://creativecommons.org/ns#"
   xmlns:rdf="http://www.w3.org/1999/02/22-rdf-syntax-ns#"
   xmlns:svg="http://www.w3.org/2000/svg"
   xmlns="http://www.w3.org/2000/svg"
   xmlns:sodipodi="http://sodipodi.sourceforge.net/DTD/sodipodi-0.dtd"
   xmlns:inkscape="http://www.inkscape.org/namespaces/inkscape"
   width="68.071701mm"
   height="32.401947mm"
   viewBox="0 0 68.071701 32.401947"
   version="1.1"
   id="svg1773"
   inkscape:version="0.91 r13725"
   sodipodi:docname="LH_35_14_02_048_d1.svg">
  <defs
     id="defs1767" />
  <sodipodi:namedview
     id="base"
     pagecolor="#ffffff"
     bordercolor="#666666"
     borderopacity="1.0"
     inkscape:pageopacity="0.0"
     inkscape:pageshadow="2"
     inkscape:zoom="4.6699283"
     inkscape:cx="149.08254"
     inkscape:cy="63.016875"
     inkscape:document-units="mm"
     inkscape:current-layer="layer1"
     showgrid="true"
     inkscape:window-width="2048"
     inkscape:window-height="1044"
     inkscape:window-x="2960"
     inkscape:window-y="1"
     inkscape:window-maximized="1"
     fit-margin-top="0.5"
     fit-margin-left="0.5"
     fit-margin-right="0.5"
     fit-margin-bottom="0.5">
    <inkscape:grid
       type="xygrid"
       id="grid4163" />
  </sodipodi:namedview>
  <metadata
     id="metadata1770">
    <rdf:RDF>
      <cc:Work
         rdf:about="">
        <dc:format>image/svg+xml</dc:format>
        <dc:type
           rdf:resource="http://purl.org/dc/dcmitype/StillImage" />
        <dc:title></dc:title>
      </cc:Work>
    </rdf:RDF>
  </metadata>
  <g
     inkscape:label="Ebene 1"
     inkscape:groupmode="layer"
     id="layer1"
     transform="translate(-62.100714,-187.83636)">
    <flowRoot
       transform="matrix(0.26458333,0,0,0.26458333,27.344651,81.373814)"
       style="font-style:italic;font-variant:normal;font-weight:normal;font-stretch:normal;font-size:16px;line-height:1.25;font-family:'Myriad Pro';-inkscape-font-specification:'Myriad Pro Italic';letter-spacing:0px;word-spacing:0px;fill:#000000;fill-opacity:1;stroke:none;stroke-width:1.33333337;stroke-miterlimit:4;stroke-dasharray:none"
       id="flowRoot2756"
       xml:space="preserve"><flowRegion
         style="stroke-width:1.33333337;stroke-miterlimit:4;stroke-dasharray:none"
         id="flowRegion2752"><rect
           style="stroke-width:1.33333337;stroke-miterlimit:4;stroke-dasharray:none"
           y="507.02673"
           x="154.92958"
           height="20.507141"
           width="16.407187"
           id="rect2750" /></flowRegion><flowPara
         id="flowPara2754">ba</flowPara></flowRoot>    <g
       id="g2772"
       transform="translate(0,23.812509)">
      <flowRoot
         transform="matrix(0.26458333,0,0,0.26458333,84.494687,52.798796)"
         style="font-style:italic;font-variant:normal;font-weight:normal;font-stretch:normal;font-size:16px;line-height:1.25;font-family:'Myriad Pro';-inkscape-font-specification:'Myriad Pro Italic';letter-spacing:0px;word-spacing:0px;fill:#000000;fill-opacity:1;stroke:none;stroke-width:1.33333337;stroke-miterlimit:4;stroke-dasharray:none"
         id="flowRoot2770"
         xml:space="preserve"><flowRegion
           style="stroke-width:1.33333337;stroke-miterlimit:4;stroke-dasharray:none"
           id="flowRegion2766"><rect
             style="stroke-width:1.33333337;stroke-miterlimit:4;stroke-dasharray:none"
             y="507.02673"
             x="154.92958"
             height="21.030718"
             width="11.171583"
             id="rect2764" /></flowRegion><flowPara
           id="flowPara2768" /></flowRoot>    </g>
    <flowRoot
       xml:space="preserve"
       id="flowRoot2774"
       style="font-style:italic;font-variant:normal;font-weight:normal;font-stretch:normal;font-size:16px;line-height:1.25;font-family:'Myriad Pro';-inkscape-font-specification:'Myriad Pro Italic';letter-spacing:0px;word-spacing:0px;fill:#000000;fill-opacity:1;stroke:none"><flowRegion
         id="flowRegion2776"><rect
           id="rect2778"
           width="8.9005375"
           height="21.989517"
           x="469.10992"
           y="800.53015" /></flowRegion><flowPara
         id="flowPara2780" /></flowRoot>    <circle
       r="1.8588889"
       style="opacity:1;fill:none;fill-opacity:1;stroke:#000000;stroke-width:0.33866668;stroke-linecap:round;stroke-linejoin:round;stroke-miterlimit:4;stroke-dasharray:none;stroke-dashoffset:0;stroke-opacity:1"
       id="path4183"
       cx="193.25278"
       cy="82.111481"
       transform="matrix(0,1,1,0,0,0)" />
    <path
       inkscape:connector-curvature="0"
       id="path4209"
       d="m 70.287884,190.22867 c 0,8.026 0,8.026 0,8.026"
       style="fill:none;fill-rule:evenodd;stroke:#000000;stroke-width:0.39511111;stroke-linecap:butt;stroke-linejoin:miter;stroke-miterlimit:4;stroke-dasharray:none;stroke-opacity:1" />
    <path
       inkscape:connector-curvature="0"
       d="m 81.622082,191.39257 c 0,0 0.128237,-0.0427 0.242616,-0.0427 0.114333,0 0.242617,0.0427 0.242617,0.0427 m -0.970488,0 c 0,0 0.128247,0.0427 0.242615,0.0427 0.114333,0 0.24264,-0.0427 0.24264,-0.0427 m -0.973446,0 c 0,0 0.128251,-0.0427 0.242617,-0.0427 0.114332,0 0.242628,0.0427 0.242628,0.0427 m -0.970491,0 c 0,0 0.128251,0.0427 0.242618,0.0427 0.114332,0 0.242628,-0.0427 0.242628,-0.0427 m -0.973433,0 c 0,0 0.128248,-0.0427 0.242616,-0.0427 0.114331,0 0.242618,0.0427 0.242618,0.0427 m -0.970479,0 c 0,0 0.12825,0.0427 0.242615,0.0427 0.114332,0 0.24263,-0.0427 0.24263,-0.0427 m -0.973434,0 c 0,0 0.128248,-0.0427 0.242617,-0.0427 0.114331,0 0.242616,0.0427 0.242616,0.0427 m -0.970479,0 c 0,0 0.128249,0.0427 0.242618,0.0427 0.11433,0 0.242628,-0.0427 0.242628,-0.0427 m -0.973435,0 c 0,0 0.12825,-0.0427 0.242616,-0.0427 0.114333,0 0.242618,0.0427 0.242618,0.0427 m -0.970478,0 c 0,0 0.128248,0.0427 0.242628,0.0427 0.114333,0 0.242616,-0.0427 0.242616,-0.0427 m -0.973433,0 c 0,0 0.12825,-0.0427 0.242617,-0.0427 0.11433,0 0.242627,0.0427 0.242627,0.0427 m -0.970491,0 c 0,0 0.12825,0.0427 0.242618,0.0427 0.11433,0 0.242629,-0.0427 0.242629,-0.0427 m -0.970491,0 c 0,0 0.128249,-0.0427 0.242616,-0.0427 0.114333,0 0.242628,0.0427 0.242628,0.0427 m -0.970489,0 c 0,0 0.128249,0.0427 0.242617,0.0427 0.114332,0 0.242628,-0.0427 0.242628,-0.0427 m -0.973434,0 c 0,0 0.128249,-0.0427 0.242617,-0.0427 0.114331,0 0.242629,0.0427 0.242629,0.0427 m -0.97049,0 c 0,0 0.128249,0.0427 0.242627,0.0427 0.114332,0 0.242617,-0.0427 0.242617,-0.0427 m -0.973434,0 c 0,0 0.128248,-0.0427 0.242616,-0.0427 0.114332,0 0.242629,0.0427 0.242629,0.0427 m -0.97048,0 c 0,0 0.128239,0.0427 0.242618,0.0427 0.114331,0 0.242617,-0.0427 0.242617,-0.0427 m -0.973435,0 c 0,0 0.12825,-0.0427 0.24263,-0.0427 0.11433,0 0.242615,0.0427 0.242615,0.0427 m -0.970478,0 c 0,0 0.128238,0.0427 0.242617,0.0427 0.114331,0 0.242616,-0.0427 0.242616,-0.0427 m -0.973433,0 c 0,0 0.12825,-0.0427 0.242628,-0.0427 0.114333,0 0.242617,0.0427 0.242617,0.0427 m -0.970478,0 c 0,0 0.128236,0.0427 0.242616,0.0427 0.114332,0 0.242617,-0.0427 0.242617,-0.0427 m -0.973435,0 c 0,0 0.128251,-0.0427 0.242617,-0.0427 0.114331,0 0.242628,0.0427 0.242628,0.0427 m -0.97049,0 c 0,0 0.12825,0.0427 0.242616,0.0427 0.114333,0 0.242629,-0.0427 0.242629,-0.0427"
       style="fill:none;stroke:#000000;stroke-width:0.28222224;stroke-linecap:butt;stroke-linejoin:miter;stroke-miterlimit:4;stroke-dasharray:none;stroke-opacity:1"
       id="path4222" />
    <circle
       r="0.15888886"
       cy="82.110138"
       cx="193.25412"
       id="ellipse4228"
       style="opacity:1;fill:none;fill-opacity:1;stroke:#000000;stroke-width:0.31044444;stroke-linecap:round;stroke-linejoin:round;stroke-miterlimit:4;stroke-dasharray:none;stroke-dashoffset:0;stroke-opacity:1"
       transform="matrix(0,1,1,0,0,0)" />
    <rect
       y="204.78291"
       x="82.114525"
       height="3.6048889"
       width="3.6048889"
       id="rect4230"
       style="opacity:1;fill:none;fill-opacity:1;stroke:#000000;stroke-width:0.33866668;stroke-linecap:round;stroke-linejoin:round;stroke-miterlimit:4;stroke-dasharray:none;stroke-dashoffset:0;stroke-opacity:1" />
    <circle
       cy="106.72573"
       cx="193.25278"
       id="circle4236"
       style="opacity:1;fill:none;fill-opacity:1;stroke:#000000;stroke-width:0.33866668;stroke-linecap:round;stroke-linejoin:round;stroke-miterlimit:4;stroke-dasharray:none;stroke-dashoffset:0;stroke-opacity:1"
       r="1.8588889"
       transform="matrix(0,1,1,0,0,0)" />
    <circle
       r="1.8588889"
       style="opacity:1;fill:none;fill-opacity:1;stroke:#000000;stroke-width:0.33866668;stroke-linecap:round;stroke-linejoin:round;stroke-miterlimit:4;stroke-dasharray:none;stroke-dashoffset:0;stroke-opacity:1"
       id="circle4238"
       cx="193.25278"
       cy="118.71373"
       transform="matrix(0,1,1,0,0,0)" />
    <rect
       style="opacity:1;fill:none;fill-opacity:1;stroke:#000000;stroke-width:0.33866668;stroke-linecap:round;stroke-linejoin:round;stroke-miterlimit:4;stroke-dasharray:none;stroke-dashoffset:0;stroke-opacity:1"
       id="rect4246"
       width="3.6048889"
       height="3.6048889"
       x="103.13869"
       y="204.80536" />
    <rect
       y="204.83557"
       x="118.72769"
       height="3.6048889"
       width="3.6048889"
       id="rect4248"
       style="opacity:1;fill:none;fill-opacity:1;stroke:#000000;stroke-width:0.33866668;stroke-linecap:round;stroke-linejoin:round;stroke-miterlimit:4;stroke-dasharray:none;stroke-dashoffset:0;stroke-opacity:1" />
    <circle
       style="opacity:1;fill:none;fill-opacity:1;stroke:#000000;stroke-width:0.31044444;stroke-linecap:round;stroke-linejoin:round;stroke-miterlimit:4;stroke-dasharray:none;stroke-dashoffset:0;stroke-opacity:1"
       id="circle4250"
       cx="193.28618"
       cy="106.70701"
       r="0.15888886"
       transform="matrix(0,1,1,0,0,0)" />
    <circle
       r="0.15888886"
       cy="118.71929"
       cx="193.25597"
       id="circle4254"
       style="opacity:1;fill:none;fill-opacity:1;stroke:#000000;stroke-width:0.31044444;stroke-linecap:round;stroke-linejoin:round;stroke-miterlimit:4;stroke-dasharray:none;stroke-dashoffset:0;stroke-opacity:1"
       transform="matrix(0,1,1,0,0,0)" />
    <text
       xml:space="preserve"
       style="font-style:normal;font-weight:normal;font-size:5.64444447px;line-height:125%;font-family:sans-serif;letter-spacing:0px;word-spacing:0px;fill:#000000;fill-opacity:1;stroke:none;stroke-width:1px;stroke-linecap:butt;stroke-linejoin:miter;stroke-opacity:1"
       x="78.440964"
       y="208.1109"
       id="text4210"
       sodipodi:linespacing="125%"><tspan
         sodipodi:role="line"
         id="tspan4212"
         x="78.440964"
         y="208.1109"
         style="font-style:italic;font-variant:normal;font-weight:normal;font-stretch:normal;font-size:4.23333359px;font-family:'Myriad Pro';-inkscape-font-specification:'Myriad Pro Italic'">A</tspan></text>
    <text
       xml:space="preserve"
       style="font-style:normal;font-weight:normal;font-size:5.64444447px;line-height:125%;font-family:sans-serif;letter-spacing:0px;word-spacing:0px;fill:#000000;fill-opacity:1;stroke:none;stroke-width:1px;stroke-linecap:butt;stroke-linejoin:miter;stroke-opacity:1"
       x="99.305626"
       y="208.14844"
       id="text4218"
       sodipodi:linespacing="125%"><tspan
         sodipodi:role="line"
         id="tspan4220"
         x="99.305626"
         y="208.14844"
         style="font-style:italic;font-variant:normal;font-weight:normal;font-stretch:normal;font-size:4.23333359px;font-family:'Myriad Pro';-inkscape-font-specification:'Myriad Pro Italic'">B</tspan></text>
    <text
       sodipodi:linespacing="125%"
       id="text4222"
       y="208.20377"
       x="123.72872"
       style="font-style:normal;font-weight:normal;font-size:5.64444447px;line-height:125%;font-family:sans-serif;letter-spacing:0px;word-spacing:0px;fill:#000000;fill-opacity:1;stroke:none;stroke-width:1px;stroke-linecap:butt;stroke-linejoin:miter;stroke-opacity:1"
       xml:space="preserve"><tspan
         style="font-style:italic;font-variant:normal;font-weight:normal;font-stretch:normal;font-size:4.23333359px;font-family:'Myriad Pro';-inkscape-font-specification:'Myriad Pro Italic'"
         y="208.20377"
         x="123.72872"
         id="tspan4224"
         sodipodi:role="line">C</tspan></text>
    <path
       style="font-style:normal;font-weight:normal;font-size:5.64444447px;line-height:125%;font-family:sans-serif;letter-spacing:0px;word-spacing:0px;fill:#000000;fill-opacity:1;stroke:none;stroke-width:1px;stroke-linecap:butt;stroke-linejoin:miter;stroke-opacity:1"
       d="m 101.82164,191.23681 -0.5424,2.85309 1.52025,0 0.059,-0.30041 -1.16857,0 0.19513,-1.0418 1.03683,0 0.0595,-0.296 -1.03738,0 0.17363,-0.91447 1.10078,0 0.059,-0.30041 -1.45576,0 z"
       id="text4230"
       inkscape:connector-curvature="0" />
    <text
       sodipodi:linespacing="125%"
       id="text4234"
       y="194.1059"
       x="121.91598"
       style="font-style:normal;font-weight:normal;font-size:5.64444447px;line-height:125%;font-family:sans-serif;letter-spacing:0px;word-spacing:0px;fill:#000000;fill-opacity:1;stroke:none;stroke-width:1px;stroke-linecap:butt;stroke-linejoin:miter;stroke-opacity:1"
       xml:space="preserve"><tspan
         style="font-style:italic;font-variant:normal;font-weight:normal;font-stretch:normal;font-size:4.23333359px;font-family:'Myriad Pro';-inkscape-font-specification:'Myriad Pro Italic'"
         y="194.1059"
         x="121.91598"
         id="tspan4236"
         sodipodi:role="line">F</tspan></text>
    <text
       sodipodi:linespacing="125%"
       id="text4232"
       y="194.02158"
       x="66.161324"
       style="font-style:normal;font-weight:normal;font-size:5.64444447px;line-height:125%;font-family:sans-serif;letter-spacing:0px;word-spacing:0px;fill:#000000;fill-opacity:1;stroke:none;stroke-width:1px;stroke-linecap:butt;stroke-linejoin:miter;stroke-opacity:1"
       xml:space="preserve"><tspan
         style="font-style:italic;font-variant:normal;font-weight:normal;font-stretch:normal;font-size:4.23333359px;font-family:'Myriad Pro';-inkscape-font-specification:'Myriad Pro Italic'"
         y="194.02158"
         x="66.161324"
         id="tspan4234"
         sodipodi:role="line">D</tspan></text>
    <path
       id="path4173"
       style="fill:none;stroke:#000000;stroke-width:0.28222224;stroke-linecap:butt;stroke-linejoin:miter;stroke-miterlimit:4;stroke-dasharray:none;stroke-opacity:1"
       d="m 83.983006,204.33718 c 0,0 -0.0427,0.12823 -0.0427,0.24261 0,0.11434 0.0427,0.24262 0.0427,0.24262 m 0,-0.97049 c 0,0 0.0427,0.12825 0.0427,0.24262 0,0.11433 -0.0427,0.24264 -0.0427,0.24264 m 0,-0.97345 c 0,0 -0.0427,0.12825 -0.0427,0.24262 0,0.11433 0.0427,0.24263 0.0427,0.24263 m 0,-0.97049 c 0,0 0.0427,0.12825 0.0427,0.24261 0,0.11434 -0.0427,0.24263 -0.0427,0.24263 m 0,-0.97343 c 0,0 -0.0427,0.12825 -0.0427,0.24261 0,0.11434 0.0427,0.24262 0.0427,0.24262 m 0,-0.97048 c 0,0 0.0427,0.12825 0.0427,0.24262 0,0.11433 -0.0427,0.24263 -0.0427,0.24263 m 0,-0.97344 c 0,0 -0.0427,0.12825 -0.0427,0.24262 0,0.11433 0.0427,0.24262 0.0427,0.24262 m 0,-0.97048 c 0,0 0.0427,0.12825 0.0427,0.24262 0,0.11433 -0.0427,0.24262 -0.0427,0.24262 m 0,-0.97343 c 0,0 -0.0427,0.12825 -0.0427,0.24262 0,0.11433 0.0427,0.24261 0.0427,0.24261 m 0,-0.97047 c 0,0 0.0427,0.12824 0.0427,0.24262 0,0.11434 -0.0427,0.24262 -0.0427,0.24262 m 0,-0.97343 c 0,0 -0.0427,0.12825 -0.0427,0.24261 0,0.11433 0.0427,0.24263 0.0427,0.24263 m 0,-0.97049 c 0,0 0.0427,0.12825 0.0427,0.24262 0,0.11433 -0.0427,0.24263 -0.0427,0.24263 m 0,-0.97049 c 0,0 -0.0427,0.12824 -0.0427,0.24261 0,0.11433 0.0427,0.24263 0.0427,0.24263 m 0,-0.97049 c 0,0 0.0427,0.12825 0.0427,0.24262 0,0.11433 -0.0427,0.24263 -0.0427,0.24263 m 0,-0.97344 c 0,0 -0.0427,0.12825 -0.0427,0.24262 0,0.11433 0.0427,0.24263 0.0427,0.24263 m 0,-0.97049 c 0,0 0.0427,0.12825 0.0427,0.24262 0,0.11434 -0.0427,0.24262 -0.0427,0.24262 m 0,-0.97343 c 0,0 -0.0427,0.12825 -0.0427,0.24261 0,0.11434 0.0427,0.24263 0.0427,0.24263 m 0,-0.97048 c 0,0 0.0427,0.12824 0.0427,0.24262 0,0.11433 -0.0427,0.24262 -0.0427,0.24262 m 0,-0.97344 c 0,0 -0.0427,0.12825 -0.0427,0.24263 0,0.11433 0.0427,0.24262 0.0427,0.24262 m 0,-0.97048 c 0,0 0.0427,0.12824 0.0427,0.24262 0,0.11433 -0.0427,0.24261 -0.0427,0.24261 m 0,-0.97343 c 0,0 -0.0427,0.12825 -0.0427,0.24263 0,0.11433 0.0427,0.24261 0.0427,0.24261 m 0,-0.97047 c 0,0 0.0427,0.12823 0.0427,0.24261 0,0.11433 -0.0427,0.24262 -0.0427,0.24262 m 0,-0.97344 c 0,0 -0.0427,0.12826 -0.0427,0.24262 0,0.11433 0.0427,0.24263 0.0427,0.24263 m 0,-0.97049 c 0,0 0.0427,0.12825 0.0427,0.24262 0,0.11433 -0.0427,0.24262 -0.0427,0.24262"
       inkscape:connector-curvature="0" />
    <path
       id="path4175"
       style="fill:none;stroke:#000000;stroke-width:0.28222224;stroke-linecap:butt;stroke-linejoin:miter;stroke-miterlimit:4;stroke-dasharray:none;stroke-opacity:1"
       d="m 118.13675,191.39127 c 0,0 0.12999,-0.0427 0.24594,-0.0427 0.11589,0 0.24594,0.0427 0.24594,0.0427 m -0.98376,0 c 0,0 0.12999,0.0427 0.24593,0.0427 0.1159,0 0.24595,-0.0427 0.24595,-0.0427 m -0.98674,0 c 0,0 0.13,-0.0427 0.24592,-0.0427 0.1159,0 0.24595,0.0427 0.24595,0.0427 m -0.98376,0 c 0,0 0.13001,0.0427 0.24594,0.0427 0.11589,0 0.24595,-0.0427 0.24595,-0.0427 m -0.98675,0 c 0,0 0.13001,-0.0427 0.24594,-0.0427 0.11589,0 0.24593,0.0427 0.24593,0.0427 m -0.98374,0 c 0,0 0.13,0.0427 0.24592,0.0427 0.1159,0 0.24595,-0.0427 0.24595,-0.0427 m -0.98674,0 c 0,0 0.13001,-0.0427 0.24594,-0.0427 0.11589,0 0.24593,0.0427 0.24593,0.0427 m -0.98375,0 c 0,0 0.13,0.0427 0.24593,0.0427 0.11591,0 0.24595,-0.0427 0.24595,-0.0427 m -0.98674,0 c 0,0 0.13,-0.0427 0.24593,-0.0427 0.1159,0 0.24594,0.0427 0.24594,0.0427 m -0.98374,0 c 0,0 0.13,0.0427 0.24595,0.0427 0.11589,0 0.24592,-0.0427 0.24592,-0.0427 m -0.98673,0 c 0,0 0.12999,-0.0427 0.24593,-0.0427 0.11589,0 0.24595,0.0427 0.24595,0.0427 m -0.98377,0 c 0,0 0.13001,0.0427 0.24594,0.0427 0.11589,0 0.24595,-0.0427 0.24595,-0.0427 m -0.98376,0 c 0,0 0.13,-0.0427 0.24594,-0.0427 0.11589,0 0.24593,0.0427 0.24593,0.0427 m -0.98374,0 c 0,0 0.12999,0.0427 0.24592,0.0427 0.11589,0 0.24595,-0.0427 0.24595,-0.0427 m -0.98674,0 c 0,0 0.13001,-0.0427 0.24593,-0.0427 0.11589,0 0.24594,0.0427 0.24594,0.0427 m -0.98375,0 c 0,0 0.13,0.0427 0.24594,0.0427 0.1159,0 0.24594,-0.0427 0.24594,-0.0427 m -0.98674,0 c 0,0 0.13,-0.0427 0.24593,-0.0427 0.11589,0 0.24595,0.0427 0.24595,0.0427 m -0.98375,0 c 0,0 0.13,0.0427 0.24594,0.0427 0.1159,0 0.24593,-0.0427 0.24593,-0.0427 m -0.98673,0 c 0,0 0.12999,-0.0427 0.24593,-0.0427 0.11591,0 0.24593,0.0427 0.24593,0.0427 m -0.98374,0 c 0,0 0.12999,0.0427 0.24594,0.0427 0.11589,0 0.24594,-0.0427 0.24594,-0.0427 m -0.98675,0 c 0,0 0.13,-0.0427 0.24595,-0.0427 0.1159,0 0.24593,0.0427 0.24593,0.0427 m -0.98375,0 c 0,0 0.13,0.0427 0.24594,0.0427 0.11589,0 0.24593,-0.0427 0.24593,-0.0427 m -0.98674,0 c 0,0 0.13001,-0.0427 0.24594,-0.0427 0.11589,0 0.24594,0.0427 0.24594,0.0427 m -0.98376,0 c 0,0 0.13,0.0427 0.24594,0.0427 0.11588,0 0.24594,-0.0427 0.24594,-0.0427"
       inkscape:connector-curvature="0" />
    <path
       inkscape:connector-curvature="0"
       d="m 104.86738,193.71527 c 0,0 -0.0427,-0.12824 -0.0427,-0.24262 0,-0.11433 0.0427,-0.24262 0.0427,-0.24262 m 0,0.97049 c 0,0 0.0427,-0.12824 0.0427,-0.24261 0,-0.11434 -0.0427,-0.24264 -0.0427,-0.24264 m 0,0.97344 c 0,0 -0.0427,-0.12825 -0.0427,-0.24261 0,-0.11434 0.0427,-0.24263 0.0427,-0.24263 m 0,0.97049 c 0,0 0.0427,-0.12825 0.0427,-0.24262 0,-0.11433 -0.0427,-0.24263 -0.0427,-0.24263 m 0,0.97344 c 0,0 -0.0427,-0.12825 -0.0427,-0.24262 0,-0.11433 0.0427,-0.24262 0.0427,-0.24262 m 0,0.97048 c 0,0 0.0427,-0.12825 0.0427,-0.24261 0,-0.11434 -0.0427,-0.24263 -0.0427,-0.24263 m 0,0.97343 c 0,0 -0.0427,-0.12825 -0.0427,-0.24262 0,-0.11433 0.0427,-0.24261 0.0427,-0.24261 m 0,0.97048 c 0,0 0.0427,-0.12825 0.0427,-0.24262 0,-0.11433 -0.0427,-0.24263 -0.0427,-0.24263 m 0,0.97344 c 0,0 -0.0427,-0.12825 -0.0427,-0.24262 0,-0.11433 0.0427,-0.24262 0.0427,-0.24262 m 0,0.97047 c 0,0 0.0427,-0.12824 0.0427,-0.24262 0,-0.11433 -0.0427,-0.24261 -0.0427,-0.24261 m 0,0.97342 c 0,0 -0.0427,-0.12825 -0.0427,-0.24262 0,-0.11433 0.0427,-0.24263 0.0427,-0.24263 m 0,0.9705 c 0,0 0.0427,-0.12825 0.0427,-0.24262 0,-0.11433 -0.0427,-0.24263 -0.0427,-0.24263 m 0,0.97049 c 0,0 -0.0427,-0.12825 -0.0427,-0.24262 0,-0.11433 0.0427,-0.24262 0.0427,-0.24262 m 0,0.97048 c 0,0 0.0427,-0.12824 0.0427,-0.24261 0,-0.11433 -0.0427,-0.24263 -0.0427,-0.24263 m 0,0.97343 c 0,0 -0.0427,-0.12825 -0.0427,-0.24261 0,-0.11433 0.0427,-0.24263 0.0427,-0.24263 m 0,0.97049 c 0,0 0.0427,-0.12825 0.0427,-0.24263 0,-0.11433 -0.0427,-0.24262 -0.0427,-0.24262 m 0,0.97344 c 0,0 -0.0427,-0.12825 -0.0427,-0.24262 0,-0.11433 0.0427,-0.24263 0.0427,-0.24263 m 0,0.97048 c 0,0 0.0427,-0.12824 0.0427,-0.24262 0,-0.11433 -0.0427,-0.24261 -0.0427,-0.24261 m 0,0.97343 c 0,0 -0.0427,-0.12825 -0.0427,-0.24263 0,-0.11433 0.0427,-0.24261 0.0427,-0.24261 m 0,0.97048 c 0,0 0.0427,-0.12824 0.0427,-0.24262 0,-0.11433 -0.0427,-0.24262 -0.0427,-0.24262 m 0,0.97344 c 0,0 -0.0427,-0.12825 -0.0427,-0.24263 0,-0.11434 0.0427,-0.24262 0.0427,-0.24262 m 0,0.97048 c 0,0 0.0427,-0.12824 0.0427,-0.24262 0,-0.11433 -0.0427,-0.24261 -0.0427,-0.24261 m 0,0.97343 c 0,0 -0.0427,-0.12825 -0.0427,-0.24262 0,-0.11433 0.0427,-0.24262 0.0427,-0.24262 m 0,0.97049 c 0,0 0.0427,-0.12825 0.0427,-0.24262 0,-0.11433 -0.0427,-0.24263 -0.0427,-0.24263"
       style="fill:none;stroke:#000000;stroke-width:0.28222224;stroke-linecap:butt;stroke-linejoin:miter;stroke-miterlimit:4;stroke-dasharray:none;stroke-opacity:1"
       id="path4177" />
    <path
       id="path4179"
       style="fill:none;stroke:#000000;stroke-width:0.28222224;stroke-linecap:butt;stroke-linejoin:miter;stroke-miterlimit:4;stroke-dasharray:none;stroke-opacity:1"
       d="m 120.5651,193.62462 c 0,0 0.0427,-0.12824 0.0427,-0.24262 0,-0.11433 -0.0427,-0.24262 -0.0427,-0.24262 m 0,0.97049 c 0,0 -0.0427,-0.12824 -0.0427,-0.24261 0,-0.11434 0.0427,-0.24264 0.0427,-0.24264 m 0,0.97344 c 0,0 0.0427,-0.12825 0.0427,-0.24261 0,-0.11434 -0.0427,-0.24263 -0.0427,-0.24263 m 0,0.97049 c 0,0 -0.0427,-0.12825 -0.0427,-0.24262 0,-0.11433 0.0427,-0.24263 0.0427,-0.24263 m 0,0.97344 c 0,0 0.0427,-0.12825 0.0427,-0.24262 0,-0.11433 -0.0427,-0.24262 -0.0427,-0.24262 m 0,0.97048 c 0,0 -0.0427,-0.12825 -0.0427,-0.24261 0,-0.11434 0.0427,-0.24263 0.0427,-0.24263 m 0,0.97343 c 0,0 0.0427,-0.12825 0.0427,-0.24262 0,-0.11433 -0.0427,-0.24261 -0.0427,-0.24261 m 0,0.97048 c 0,0 -0.0427,-0.12825 -0.0427,-0.24262 0,-0.11433 0.0427,-0.24263 0.0427,-0.24263 m 0,0.97344 c 0,0 0.0427,-0.12825 0.0427,-0.24262 0,-0.11433 -0.0427,-0.24262 -0.0427,-0.24262 m 0,0.97047 c 0,0 -0.0427,-0.12824 -0.0427,-0.24262 0,-0.11433 0.0427,-0.24261 0.0427,-0.24261 m 0,0.97342 c 0,0 0.0427,-0.12825 0.0427,-0.24262 0,-0.11433 -0.0427,-0.24263 -0.0427,-0.24263 m 0,0.9705 c 0,0 -0.0427,-0.12825 -0.0427,-0.24262 0,-0.11433 0.0427,-0.24263 0.0427,-0.24263 m 0,0.97049 c 0,0 0.0427,-0.12825 0.0427,-0.24262 0,-0.11433 -0.0427,-0.24262 -0.0427,-0.24262 m 0,0.97048 c 0,0 -0.0427,-0.12824 -0.0427,-0.24261 0,-0.11433 0.0427,-0.24263 0.0427,-0.24263 m 0,0.97343 c 0,0 0.0427,-0.12825 0.0427,-0.24261 0,-0.11433 -0.0427,-0.24263 -0.0427,-0.24263 m 0,0.97049 c 0,0 -0.0427,-0.12825 -0.0427,-0.24263 0,-0.11433 0.0427,-0.24262 0.0427,-0.24262 m 0,0.97344 c 0,0 0.0427,-0.12825 0.0427,-0.24262 0,-0.11433 -0.0427,-0.24263 -0.0427,-0.24263 m 0,0.97048 c 0,0 -0.0427,-0.12824 -0.0427,-0.24262 0,-0.11433 0.0427,-0.24261 0.0427,-0.24261 m 0,0.97343 c 0,0 0.0427,-0.12825 0.0427,-0.24263 0,-0.11433 -0.0427,-0.24261 -0.0427,-0.24261 m 0,0.97048 c 0,0 -0.0427,-0.12824 -0.0427,-0.24262 0,-0.11433 0.0427,-0.24262 0.0427,-0.24262 m 0,0.97344 c 0,0 0.0427,-0.12825 0.0427,-0.24263 0,-0.11434 -0.0427,-0.24262 -0.0427,-0.24262 m 0,0.97048 c 0,0 -0.0427,-0.12824 -0.0427,-0.24262 0,-0.11433 0.0427,-0.24261 0.0427,-0.24261 m 0,0.97343 c 0,0 0.0427,-0.12825 0.0427,-0.24262 0,-0.11433 -0.0427,-0.24262 -0.0427,-0.24262 m 0,0.97049 c 0,0 -0.0427,-0.12825 -0.0427,-0.24262 0,-0.11433 0.0427,-0.24263 0.0427,-0.24263"
       inkscape:connector-curvature="0" />
  </g>
</svg>
