<?xml version="1.0" encoding="utf-8"?>
<!-- Generator: Adobe Illustrator 16.0.3, SVG Export Plug-In . SVG Version: 6.00 Build 0)  -->
<!DOCTYPE svg PUBLIC "-//W3C//DTD SVG 1.1//EN" "http://www.w3.org/Graphics/SVG/1.1/DTD/svg11.dtd">
<svg version="1.1" id="Ebene_1" xmlns="http://www.w3.org/2000/svg" xmlns:xlink="http://www.w3.org/1999/xlink" x="0px" y="0px"
	 width="434px" height="190px" viewBox="0 0 434 190" enable-background="new 0 0 434 190" xml:space="preserve">
<line fill="none" stroke="#000000" stroke-width="2" stroke-linecap="round" x1="1" y1="10.444" x2="433" y2="10.444"/>
<line fill="none" stroke="#000000" stroke-width="2" stroke-linecap="round" x1="1" y1="135" x2="433" y2="135"/>
<line fill="none" stroke="#000000" stroke-width="2" stroke-linecap="round" x1="1" y1="1.444" x2="1" y2="189"/>
<line fill="none" stroke="#000000" stroke-width="2" stroke-linecap="round" x1="37" y1="1.444" x2="37" y2="19.444"/>
<line fill="none" stroke="#000000" stroke-width="2" stroke-linecap="round" x1="73" y1="1.444" x2="73" y2="19.444"/>
<line fill="none" stroke="#000000" stroke-width="2" stroke-linecap="round" x1="109" y1="1.444" x2="109" y2="19.444"/>
<line fill="none" stroke="#000000" stroke-width="2" stroke-linecap="round" x1="145" y1="1.444" x2="145" y2="19.444"/>
<line fill="none" stroke="#000000" stroke-width="2" stroke-linecap="round" x1="181" y1="1.444" x2="181" y2="19.444"/>
<line fill="none" stroke="#000000" stroke-width="2" stroke-linecap="round" x1="217" y1="1.444" x2="217" y2="19.444"/>
<line fill="none" stroke="#000000" stroke-width="2" stroke-linecap="round" x1="253" y1="1.444" x2="253" y2="19.444"/>
<line fill="none" stroke="#000000" stroke-width="2" stroke-linecap="round" x1="289" y1="1.444" x2="289" y2="19.444"/>
<line fill="none" stroke="#000000" stroke-width="2" stroke-linecap="round" x1="325" y1="1" x2="325" y2="19"/>
<line fill="none" stroke="#000000" stroke-width="2" stroke-linecap="round" x1="361" y1="1.444" x2="361" y2="19.444"/>
<line fill="none" stroke="#000000" stroke-width="2" stroke-linecap="round" x1="397" y1="1.444" x2="397" y2="19.444"/>
<line fill="none" stroke="#000000" stroke-width="2" stroke-linecap="round" x1="433" y1="1.444" x2="433" y2="19.444"/>
<line fill="none" stroke="#000000" stroke-width="2" stroke-linecap="round" x1="145" y1="63" x2="145" y2="81"/>
<line fill="none" stroke="#000000" stroke-width="2" stroke-linecap="round" x1="217" y1="63" x2="217" y2="81"/>
<line fill="none" stroke="#000000" stroke-width="2" stroke-linecap="round" x1="73" y1="63" x2="73" y2="81"/>
<line fill="none" stroke="#000000" stroke-width="2" stroke-linecap="round" x1="1" y1="72" x2="433" y2="72"/>
<line fill="none" stroke="#000000" stroke-width="2" stroke-linecap="round" x1="289" y1="63" x2="289" y2="81"/>
<line fill="none" stroke="#000000" stroke-width="2" stroke-linecap="round" x1="361" y1="63" x2="361" y2="81"/>
<line fill="none" stroke="#000000" stroke-width="2" stroke-linecap="round" x1="433" y1="63" x2="433" y2="81"/>
<line fill="none" stroke="#000000" stroke-width="2" stroke-linecap="round" x1="217" y1="126" x2="217" y2="144"/>
<line fill="none" stroke="#000000" stroke-width="2" stroke-linecap="round" x1="109" y1="126" x2="109" y2="144"/>
<line fill="none" stroke="#000000" stroke-width="2" stroke-linecap="round" x1="325" y1="126" x2="325" y2="144"/>
<line fill="none" stroke="#000000" stroke-width="2" stroke-linecap="round" x1="433" y1="126" x2="433" y2="144"/>
</svg>
