<?xml version="1.0" encoding="UTF-8" standalone="no"?>
<!-- Generator: Adobe Illustrator 16.0.3, SVG Export Plug-In . SVG Version: 6.00 Build 0)  -->

<svg
   xmlns:dc="http://purl.org/dc/elements/1.1/"
   xmlns:cc="http://creativecommons.org/ns#"
   xmlns:rdf="http://www.w3.org/1999/02/22-rdf-syntax-ns#"
   xmlns:svg="http://www.w3.org/2000/svg"
   xmlns="http://www.w3.org/2000/svg"
   xmlns:sodipodi="http://sodipodi.sourceforge.net/DTD/sodipodi-0.dtd"
   xmlns:inkscape="http://www.inkscape.org/namespaces/inkscape"
   version="1.1"
   id="Ebene_1"
   x="0px"
   y="0px"
   width="486.447px"
   height="652.564px"
   viewBox="0 0 486.447 652.564"
   enable-background="new 0 0 486.447 652.564"
   xml:space="preserve"
   inkscape:version="0.91 r13725"
   sodipodi:docname="LH_37_01_003-008_d1.svg"><sodipodi:namedview
     pagecolor="#ffffff"
     bordercolor="#666666"
     borderopacity="1"
     objecttolerance="10"
     gridtolerance="10"
     guidetolerance="10"
     inkscape:pageopacity="0"
     inkscape:pageshadow="2"
     inkscape:window-width="2438"
     inkscape:window-height="1291"
     id="namedview5152"
     showgrid="true"
     inkscape:zoom="1.2537046"
     inkscape:cx="212.05296"
     inkscape:cy="399.43779"
     inkscape:window-x="5330"
     inkscape:window-y="1361"
     inkscape:window-maximized="0"
     inkscape:current-layer="Ebene_1"><inkscape:grid
       id="grid5178"
       type="xygrid" /></sodipodi:namedview><metadata
     id="metadata5156"><rdf:RDF><cc:Work
         rdf:about=""><dc:format>image/svg+xml</dc:format><dc:type
           rdf:resource="http://purl.org/dc/dcmitype/StillImage" /></cc:Work></rdf:RDF></metadata><defs
     id="defs5154" /><g
     id="g4480"><path
       style="fill:none;stroke:#000000;stroke-width:2;stroke-linecap:round;stroke-linejoin:round;stroke-dasharray:5, 9"
       inkscape:connector-curvature="0"
       id="path4884"
       d="m 180.225,2.403 c 71.903,210.013 71.903,437.978 0,647.991" /><rect
       x="234.224"
       y="272.39801"
       width="108"
       height="108"
       id="rect4886"
       style="fill:#ffffff;stroke:#000000;stroke-width:3;stroke-linecap:round;stroke-linejoin:round;stroke-dasharray:1, 11" /><rect
       x="180.37"
       y="272.21399"
       width="107.854"
       height="108.184"
       id="rect4888"
       style="fill:#ffffff;stroke:#000000;stroke-width:3;stroke-linecap:square" /><path
       d="M 278.891,362.759"
       id="path4890"
       inkscape:connector-curvature="0"
       style="fill:none;stroke:#000000;stroke-width:5;stroke-linejoin:round;stroke-dasharray:5, 5" /><path
       d="M 282.81076,254.51"
       id="path4892"
       inkscape:connector-curvature="0"
       style="fill:none;stroke:#000000;stroke-width:5;stroke-linejoin:round;stroke-dasharray:5, 5" /><path
       d="M 391.22676,254.51"
       id="path4894"
       inkscape:connector-curvature="0"
       style="fill:none;stroke:#000000;stroke-width:5;stroke-dasharray:5, 5" /><path
       d="M 336.56076,254.51"
       id="path4896"
       inkscape:connector-curvature="0"
       style="fill:none;stroke:#000000;stroke-width:5;stroke-dasharray:5, 5" /><path
       d="M 332.641,362.759"
       id="path4898"
       inkscape:connector-curvature="0"
       style="fill:none;stroke:#000000;stroke-width:5;stroke-dasharray:5, 5" /><path
       d="M 391.22676,254.51"
       id="path4900"
       inkscape:connector-curvature="0"
       style="fill:none;stroke:#000000;stroke-width:5;stroke-linejoin:round;stroke-dasharray:5, 5" /><line
       x1="180.224"
       y1="2.398"
       x2="180.224"
       y2="650.39801"
       id="line4902"
       style="fill:none;stroke:#000000;stroke-width:2.4000001;stroke-linecap:round;stroke-linejoin:round;stroke-miterlimit:4;stroke-dasharray:none" /><path
       d="M 272.411,360.135"
       id="path4904"
       inkscape:connector-curvature="0"
       style="fill:none;stroke:#000000;stroke-width:0.25" /><path
       d="M 266.932,364.968"
       id="path4906"
       inkscape:connector-curvature="0"
       style="fill:none;stroke:#000000;stroke-width:0.25" /><path
       d="M 273.161,366.135"
       id="path4908"
       inkscape:connector-curvature="0"
       style="fill:none;stroke:#000000;stroke-width:0.25" /><path
       d="M 265.411,359.155"
       id="path4910"
       inkscape:connector-curvature="0"
       style="fill:none;stroke:#000000;stroke-width:0.25" /><text
       font-size="18"
       id="text4912"
       x="292.14334"
       y="262.60077"
       style="font-size:18px;font-family:Myriad-Italic"><tspan
         style="font-style:italic;font-variant:normal;font-weight:normal;font-stretch:normal;font-size:27.5px;font-family:'Myriad Pro';-inkscape-font-specification:'Myriad Pro Italic'"
         id="tspan5170">B</tspan></text>
<text
       font-size="18"
       id="text4914"
       x="340.81033"
       y="262.60077"
       style="font-size:18px;font-family:Myriad-Italic"><tspan
         style="font-style:italic;font-variant:normal;font-weight:normal;font-stretch:normal;font-size:27.5px;font-family:'Myriad Pro';-inkscape-font-specification:'Myriad Pro Italic'"
         id="tspan5172">(B)</tspan></text>
<text
       font-size="18"
       id="text4916"
       x="400.94098"
       y="262.60077"
       style="font-size:18px;font-family:Myriad-Italic"><tspan
         style="font-style:italic;font-variant:normal;font-weight:normal;font-stretch:normal;font-size:27.5px;font-family:'Myriad Pro';-inkscape-font-specification:'Myriad Pro Italic'"
         id="tspan5174">C</tspan></text>
<text
       font-size="18"
       id="text4918"
       x="454.14334"
       y="262.60077"
       style="font-size:18px;font-family:Myriad-Italic"><tspan
         style="font-style:italic;font-variant:normal;font-weight:normal;font-stretch:normal;font-size:27.5px;font-family:'Myriad Pro';-inkscape-font-specification:'Myriad Pro Italic'"
         id="tspan5176">D</tspan></text>
<text
       font-size="18"
       id="text4920"
       x="107.12804"
       y="262.60077"
       style="font-size:18px;font-family:Myriad-Italic"><tspan
         style="font-style:italic;font-variant:normal;font-weight:normal;font-stretch:normal;font-size:27.5px;font-family:'Myriad Pro';-inkscape-font-specification:'Myriad Pro Italic'"
         id="tspan5164">F</tspan></text>
<text
       font-size="18"
       id="text4922"
       x="4.7114892"
       y="262.60077"
       style="font-size:18px;font-family:Myriad-Italic"><tspan
         style="font-style:italic;font-variant:normal;font-weight:normal;font-stretch:normal;font-size:27.5px;font-family:'Myriad Pro';-inkscape-font-specification:'Myriad Pro Italic'"
         id="tspan5160">H</tspan></text>
<text
       font-size="18"
       id="text4924"
       x="149.96837"
       y="648.06445"
       style="font-size:18px;font-family:Myriad-Italic"><tspan
         style="font-style:italic;font-variant:normal;font-weight:normal;font-stretch:normal;font-size:27.5px;font-family:'Myriad Pro';-inkscape-font-specification:'Myriad Pro Italic'"
         id="tspan5180">M</tspan></text>
<text
       font-size="18"
       id="text4926"
       x="161.19856"
       y="21.269552"
       style="font-size:18px;font-family:Myriad-Italic"><tspan
         style="font-style:italic;font-variant:normal;font-weight:normal;font-stretch:normal;font-size:27.5px;font-family:'Myriad Pro';-inkscape-font-specification:'Myriad Pro Italic'"
         id="tspan5158">L</tspan></text>
<path
       d="M 258.891,383.759"
       id="path4928"
       inkscape:connector-curvature="0"
       style="fill:none;stroke:#000000;stroke-width:5;stroke-linejoin:round;stroke-dasharray:5, 5" /><path
       d="M 258.891,275.51"
       id="path4930"
       inkscape:connector-curvature="0"
       style="fill:none;stroke:#000000;stroke-width:5;stroke-linejoin:round;stroke-dasharray:5, 5" /><line
       x1="234.224"
       y1="272.39801"
       x2="234.224"
       y2="380.39801"
       id="line4932"
       style="fill:none;stroke:#000000;stroke-width:3;stroke-linecap:round;stroke-dasharray:1,11;stroke-miterlimit:4;stroke-dashoffset:6" /><path
       style="fill:none;stroke:#000000"
       inkscape:connector-curvature="0"
       id="path4936"
       d="M 54.39,281.676" /><path
       style="fill:none;stroke:#000000"
       inkscape:connector-curvature="0"
       id="path4940"
       d="M 36.39,281.842" /><path
       style="fill:none;stroke:#000000"
       inkscape:connector-curvature="0"
       id="path4944"
       d="M 81.39,281.676" /><path
       style="fill:none;stroke:#000000;stroke-width:2"
       inkscape:connector-curvature="0"
       id="path4948"
       d="M 162.396,281.508" /><path
       style="fill:none;stroke:#000000"
       inkscape:connector-curvature="0"
       id="path4952"
       d="M 144.39,281.51" /><path
       style="fill:none;stroke:#000000"
       inkscape:connector-curvature="0"
       id="path4956"
       d="M 180.229,290.175" /><path
       style="fill:none;stroke:#000000"
       inkscape:connector-curvature="0"
       id="path4960"
       d="M 180.479,326.175" /><path
       style="fill:none;stroke:#000000"
       inkscape:connector-curvature="0"
       id="path4964"
       d="M 180.229,361.926" /><path
       style="fill:none;stroke:#000000"
       inkscape:connector-curvature="0"
       id="path4968"
       d="M 180.145,416.509" /><path
       style="fill:none;stroke:#000000"
       inkscape:connector-curvature="0"
       id="path4972"
       d="m 349.85473,281.398 c 5,-7 8,1 13,2 2,0 3,-1 5,-2" /><path
       style="fill:none;stroke:#000000"
       inkscape:connector-curvature="0"
       id="path4976"
       d="m 385.85473,281.398 c 4,-4 8,0 12,2 1,1 4,-1 6,-2" /><path
       style="fill:none;stroke:#000000"
       inkscape:connector-curvature="0"
       id="path4980"
       d="m 421.85473,281.398 c 5,-6 8,1 13,3 2,0 3,-2 5,-3" /><path
       style="fill:none;stroke:#000000"
       inkscape:connector-curvature="0"
       id="path4984"
       d="m 457.85473,281.398 c 5,-6 8,1 13,3 2,0 3,-2 5,-3" /><path
       style="fill:none;stroke:#000000"
       inkscape:connector-curvature="0"
       id="path4988"
       d="m 349.85473,317.398 c 5,-6 8,1 13,3 2,0 3,-2 5,-3" /><path
       style="fill:none;stroke:#000000"
       inkscape:connector-curvature="0"
       id="path4992"
       d="m 385.85473,317.398 c 5,-6 8,1 13,3 2,0 3,-2 5,-3" /><path
       style="fill:none;stroke:#000000"
       inkscape:connector-curvature="0"
       id="path4996"
       d="m 421.85473,317.398 c 4,-4 8,0 12,2 1,1 4,-1 6,-2" /><path
       style="fill:none;stroke:#000000"
       inkscape:connector-curvature="0"
       id="path5000"
       d="m 457.85473,317.398 c 5,-6 8,1 13,3 2,0 3,-2 5,-3" /><path
       style="fill:none;stroke:#000000"
       inkscape:connector-curvature="0"
       id="path5004"
       d="m 349.85473,353.398 c 5,-6 8,1 13,3 2,0 3,-2 5,-3" /><path
       style="fill:none;stroke:#000000"
       inkscape:connector-curvature="0"
       id="path5008"
       d="m 385.85473,353.398 c 5,-6 8,1 13,3 2,0 3,-2 5,-3" /><path
       style="fill:none;stroke:#000000"
       inkscape:connector-curvature="0"
       id="path5012"
       d="m 421.85473,353.398 c 5,-6 8,1 13,3 2,0 3,-2 5,-3" /><path
       style="fill:none;stroke:#000000"
       inkscape:connector-curvature="0"
       id="path5016"
       d="m 457.85473,353.398 c 5,-6 8,1 13,3 2,0 3,-2 5,-3" /><path
       style="fill:none;stroke:#000000"
       inkscape:connector-curvature="0"
       id="path5020"
       d="m 349.85473,389.398 c 5,-6 8,1 13,3 2,0 3,-2 5,-3" /><path
       style="fill:none;stroke:#000000"
       inkscape:connector-curvature="0"
       id="path5024"
       d="m 385.85473,389.398 c 5,-6 8,1 13,3 2,0 3,-2 5,-3" /><path
       style="fill:none;stroke:#000000"
       inkscape:connector-curvature="0"
       id="path5028"
       d="m 421.85473,389.398 c 5,-6 8,1 13,3 2,0 3,-2 5,-3" /><path
       style="fill:none;stroke:#000000"
       inkscape:connector-curvature="0"
       id="path5032"
       d="m 457.85473,389.398 c 5,-6 8,1 13,3 2,0 3,-2 5,-3" /><path
       style="fill:none;stroke:#000000"
       inkscape:connector-curvature="0"
       id="path5036"
       d="M 347.793,311.01" /><path
       style="fill:none;stroke:#000000"
       inkscape:connector-curvature="0"
       id="path5040"
       d="M 329.475,311.009" /><path
       style="fill:none;stroke:#000000"
       inkscape:connector-curvature="0"
       id="path5044"
       d="M 336.751,285.431" /><path
       style="fill:none;stroke:#000000"
       inkscape:connector-curvature="0"
       id="path5048"
       d="M 318.179,285.431" /><path
       style="fill:none;stroke:#000000"
       inkscape:connector-curvature="0"
       id="path5052"
       d="M 347.221,339.01" /><path
       style="fill:none;stroke:#000000"
       inkscape:connector-curvature="0"
       id="path5056"
       d="M 328.647,339.01" /><path
       style="fill:none;stroke:#000000"
       inkscape:connector-curvature="0"
       id="path5060"
       d="M 176.646,362.009" /><path
       style="fill:none;stroke:#000000"
       inkscape:connector-curvature="0"
       id="path5064"
       d="M 187.562,416.509" /><text
       font-size="18"
       id="text5066"
       x="152.12804"
       y="262.60077"
       style="font-size:18px;font-family:Myriad-Italic"><tspan
         style="font-style:italic;font-variant:normal;font-weight:normal;font-stretch:normal;font-size:27.5px;font-family:'Myriad Pro';-inkscape-font-specification:'Myriad Pro Italic'"
         id="tspan5166">A</tspan></text>
<path
       style="fill:none;stroke:#000000"
       inkscape:connector-curvature="0"
       id="path5070"
       d="m 0.224,281.398 c 2,-1 3,-2 5,-2 5,-1 4,9 13,2" /><path
       style="fill:none;stroke:#000000"
       inkscape:connector-curvature="0"
       id="path5074"
       d="m 36.224,281.398 c 5,-4 9,1 13,3 1,0 3,-2 5,-3" /><path
       style="fill:none;stroke:#000000"
       inkscape:connector-curvature="0"
       id="path5078"
       d="m 72.224,281.398 c 5,-4 9,1 13,3 1,0 3,-2 5,-3" /><path
       style="fill:none;stroke:#000000"
       inkscape:connector-curvature="0"
       id="path5082"
       d="m 108.224,281.398 c 2,-1 3,-2 5,-2 5,-1 4,9 13,2" /><path
       style="fill:none;stroke:#000000"
       inkscape:connector-curvature="0"
       id="path5086"
       d="m 143.224,281.398 c 5,-6 8,1 13,3 2,0 3,-2 5,-3" /><path
       style="fill:none;stroke:#000000"
       inkscape:connector-curvature="0"
       id="path5090"
       d="m 0.224,317.398 c 2,-1 3,-2 5,-2 5,-1 4,9 13,2" /><path
       style="fill:none;stroke:#000000"
       inkscape:connector-curvature="0"
       id="path5094"
       d="m 36.224,317.398 c 2,-1 3,-2 5,-2 5,-1 4,9 13,2" /><path
       style="fill:none;stroke:#000000"
       inkscape:connector-curvature="0"
       id="path5098"
       d="m 72.224,317.398 c 2,-1 3,-2 5,-2 5,-1 4,9 13,2" /><path
       style="fill:none;stroke:#000000"
       inkscape:connector-curvature="0"
       id="path5102"
       d="m 108.224,317.398 c 2,-1 3,-2 5,-2 5,-1 4,9 13,2" /><path
       style="fill:none;stroke:#000000"
       inkscape:connector-curvature="0"
       id="path5106"
       d="m 144.224,317.398 c 2,-1 3,-2 5,-2 5,-1 4,9 13,2" /><path
       style="fill:none;stroke:#000000"
       inkscape:connector-curvature="0"
       id="path5110"
       d="m 0.224,353.398 c 2,-1 3,-2 5,-2 5,-1 4,9 13,2" /><path
       style="fill:none;stroke:#000000"
       inkscape:connector-curvature="0"
       id="path5114"
       d="m 36.224,353.398 c 5,-4 9,1 13,3 1,0 3,-2 5,-3" /><path
       style="fill:none;stroke:#000000"
       inkscape:connector-curvature="0"
       id="path5118"
       d="m 72.224,353.398 c 5,-4 9,1 13,3 1,0 3,-2 5,-3" /><path
       style="fill:none;stroke:#000000"
       inkscape:connector-curvature="0"
       id="path5122"
       d="m 108.224,353.398 c 5,-4 9,1 13,3 1,0 3,-2 5,-3" /><path
       style="fill:none;stroke:#000000"
       inkscape:connector-curvature="0"
       id="path5126"
       d="m 144.224,353.398 c 2,-1 3,-2 5,-2 5,-1 4,9 13,2" /><path
       style="fill:none;stroke:#000000"
       inkscape:connector-curvature="0"
       id="path5130"
       d="m 0.224,389.398 c 2,-1 3,-2 5,-2 5,-1 4,9 13,2" /><path
       style="fill:none;stroke:#000000"
       inkscape:connector-curvature="0"
       id="path5134"
       d="m 36.224,389.398 c 2,-1 3,-2 5,-2 5,-1 4,9 13,2" /><path
       style="fill:none;stroke:#000000"
       inkscape:connector-curvature="0"
       id="path5138"
       d="m 72.224,389.398 c 5,-4 9,1 13,3 1,0 3,-2 5,-3" /><path
       style="fill:none;stroke:#000000"
       inkscape:connector-curvature="0"
       id="path5142"
       d="m 108.224,389.398 c 5,-4 9,1 13,3 1,0 3,-2 5,-3" /><path
       style="fill:none;stroke:#000000"
       inkscape:connector-curvature="0"
       id="path5146"
       d="m 144.224,389.398 c 5,-4 9,1 13,3 1,0 3,-2 5,-3" /><text
       font-size="18"
       id="text5148"
       x="236.01355"
       y="262.60077"
       style="font-size:18px;font-family:Myriad-Italic"><tspan
         style="font-style:italic;font-variant:normal;font-weight:normal;font-stretch:normal;font-size:27.5px;font-family:'Myriad Pro';-inkscape-font-specification:'Myriad Pro Italic'"
         id="tspan5168">(A)</tspan></text>
<text
       font-size="18"
       id="text5150"
       x="53.128036"
       y="262.60077"
       style="font-size:18px;font-family:Myriad-Italic"><tspan
         style="font-style:italic;font-variant:normal;font-weight:normal;font-stretch:normal;font-size:27.5px;font-family:'Myriad Pro';-inkscape-font-specification:'Myriad Pro Italic'"
         id="tspan5162">G</tspan></text>
</g></svg>