<?xml version="1.0" encoding="UTF-8" standalone="no"?>
<!-- Created with Inkscape (http://www.inkscape.org/) -->

<svg
   xmlns:dc="http://purl.org/dc/elements/1.1/"
   xmlns:cc="http://creativecommons.org/ns#"
   xmlns:rdf="http://www.w3.org/1999/02/22-rdf-syntax-ns#"
   xmlns:svg="http://www.w3.org/2000/svg"
   xmlns="http://www.w3.org/2000/svg"
   xmlns:sodipodi="http://sodipodi.sourceforge.net/DTD/sodipodi-0.dtd"
   xmlns:inkscape="http://www.inkscape.org/namespaces/inkscape"
   width="69.571213mm"
   height="36.798637mm"
   viewBox="0 0 69.571214 36.798637"
   version="1.1"
   id="svg1773"
   inkscape:version="0.92.2 5c3e80d, 2017-08-06"
   sodipodi:docname="LH_35_09_15_018-019_d1.svg">
  <sodipodi:namedview
     id="base"
     pagecolor="#ffffff"
     bordercolor="#666666"
     borderopacity="1.0"
     inkscape:pageopacity="0.0"
     inkscape:pageshadow="2"
     inkscape:zoom="3.302138"
     inkscape:cx="163.17179"
     inkscape:cy="95.673256"
     inkscape:document-units="mm"
     inkscape:current-layer="layer1"
     showgrid="true"
     inkscape:window-width="2048"
     inkscape:window-height="1057"
     inkscape:window-x="2960"
     inkscape:window-y="1"
     inkscape:window-maximized="1"
     fit-margin-top="0.5"
     fit-margin-left="0.5"
     fit-margin-right="0.5"
     fit-margin-bottom="0.5">
    <inkscape:grid
       id="grid4163"
       type="xygrid"
       originx="0.36024166"
       originy="334.02429" />
  </sodipodi:namedview>
  <defs
     id="defs1767" />
  <metadata
     id="metadata1770">
    <rdf:RDF>
      <cc:Work
         rdf:about="">
        <dc:format>image/svg+xml</dc:format>
        <dc:type
           rdf:resource="http://purl.org/dc/dcmitype/StillImage" />
        <dc:title />
      </cc:Work>
    </rdf:RDF>
  </metadata>
  <g
     transform="translate(-61.740474,-517.46392)"
     id="layer1"
     inkscape:groupmode="layer"
     inkscape:label="Ebene 1">
    <flowRoot
       xml:space="preserve"
       id="flowRoot2756"
       style="font-style:italic;font-variant:normal;font-weight:normal;font-stretch:normal;line-height:0.01%;font-family:'Myriad Pro';-inkscape-font-specification:'Myriad Pro Italic';letter-spacing:0px;word-spacing:0px;fill:#000000;fill-opacity:1;stroke:none;stroke-width:1.33333337;stroke-miterlimit:4;stroke-dasharray:none"
       transform="matrix(0.26458333,0,0,0.26458333,27.344651,81.373814)"><flowRegion
         id="flowRegion2752"
         style="stroke-width:1.33333337;stroke-miterlimit:4;stroke-dasharray:none"><rect
           id="rect2750"
           width="16.407187"
           height="20.507141"
           x="154.92958"
           y="507.02673"
           style="stroke-width:1.33333337;stroke-miterlimit:4;stroke-dasharray:none" /></flowRegion><flowPara
         style="font-size:16px;line-height:1.25"
         id="flowPara2754">ba</flowPara></flowRoot>    <flowRoot
       style="font-style:italic;font-variant:normal;font-weight:normal;font-stretch:normal;line-height:0.01%;font-family:'Myriad Pro';-inkscape-font-specification:'Myriad Pro Italic';letter-spacing:0px;word-spacing:0px;fill:#000000;fill-opacity:1;stroke:none"
       id="flowRoot2774"
       xml:space="preserve"><flowRegion
         id="flowRegion2776"><rect
           y="800.53015"
           x="469.10992"
           height="21.989517"
           width="8.9005375"
           id="rect2778" /></flowRegion><flowPara
         style="font-size:16px;line-height:1.25"
         id="flowPara2780"> </flowPara></flowRoot>    <g
       id="g146">
      <path
         id="path1904"
         style="opacity:1;fill:none;stroke:#000000;stroke-width:0.28222221;stroke-linecap:butt;stroke-linejoin:miter;stroke-miterlimit:4;stroke-dasharray:none;stroke-opacity:1"
         d="m 83.528496,520.54038 c 0,0 0.216032,0.62361 0.408693,0.62361 0.192652,0 0.408684,-0.62361 0.408684,-0.62361 m -1.634759,0 c 0,0 0.216032,-0.62361 0.408691,-0.62361 0.192654,0 0.408691,0.62361 0.408691,0.62361 m -1.639726,0 c 0,0 0.216033,0.62361 0.408692,0.62361 0.192653,0 0.408686,-0.62361 0.408686,-0.62361 m -1.634756,0 c 0,0 0.216031,-0.62361 0.408691,-0.62361 0.192654,0 0.408687,0.62361 0.408687,0.62361 m -1.639723,0 c 0,0 0.216032,0.62361 0.408692,0.62361 0.192658,0 0.408686,-0.62361 0.408686,-0.62361 m -1.634755,0 c 0,0 0.21603,-0.62361 0.40869,-0.62361 0.192655,0 0.408687,0.62361 0.408687,0.62361 m -1.639722,0 c 0,0 0.216032,0.62361 0.408691,0.62361 0.192655,0 0.408687,-0.62361 0.408687,-0.62361 m -1.634757,0 c 0,0 0.216032,-0.62361 0.408686,-0.62361 0.19266,0 0.408693,0.62361 0.408693,0.62361 m -1.639723,0 c 0,0 0.216032,0.62361 0.408691,0.62361 0.192654,0 0.408687,-0.62361 0.408687,-0.62361 m -1.634756,0 c 0,0 0.216032,-0.62361 0.408686,-0.62361 0.19266,0 0.408692,0.62361 0.408692,0.62361 m -1.639721,0 c 0,0 0.216031,0.62361 0.408686,0.62361 0.192658,0 0.408691,-0.62361 0.408691,-0.62361 m -1.634755,0 c 0,0 0.216031,-0.62361 0.408686,-0.62361 0.192659,0 0.408692,0.62361 0.408692,0.62361 m -1.634757,0 c 0,0 0.216032,0.62361 0.408691,0.62361 0.192656,0 0.408688,-0.62361 0.408688,-0.62361 m -1.634755,0 c 0,0 0.21603,-0.62361 0.408688,-0.62361 0.192657,0 0.408688,0.62361 0.408688,0.62361 m -1.639722,0 c 0,0 0.216031,0.62361 0.408689,0.62361 0.192658,0 0.408689,-0.62361 0.408689,-0.62361 m -1.634756,0 c 0,0 0.216031,-0.62361 0.40869,-0.62361 0.192657,0 0.408688,0.62361 0.408688,0.62361 m -1.639723,0 c 0,0 0.216032,0.62361 0.408691,0.62361 0.192657,0 0.40869,-0.62361 0.40869,-0.62361 m -1.634757,0 c 0,0 0.21603,-0.62361 0.408688,-0.62361 0.192658,0 0.408688,0.62361 0.408688,0.62361 m -1.639721,0 c 0,0 0.216032,0.62361 0.408689,0.62361 0.192657,0 0.408689,-0.62361 0.408689,-0.62361 m -1.634756,0 c 0,0 0.216031,-0.62361 0.408689,-0.62361 0.192658,0 0.408689,0.62361 0.408689,0.62361 m -1.639722,0 c 0,0 0.216031,0.62361 0.408689,0.62361 0.192658,0 0.408689,-0.62361 0.408689,-0.62361 m -1.634756,0 c 0,0 0.21603,-0.62361 0.408689,-0.62361 0.192658,0 0.408689,0.62361 0.408689,0.62361 m -1.639723,0 c 0,0 0.216031,0.62361 0.40869,0.62361 0.192658,0 0.408689,-0.62361 0.408689,-0.62361 m -1.634757,0 c 0,0 0.216031,-0.62361 0.40869,-0.62361 0.192658,0 0.408688,0.62361 0.408688,0.62361"
         inkscape:connector-curvature="0" />
      <g
         id="g2772"
         transform="matrix(1.0747021,0,0,1.0875301,-4.4942554,335.5259)">
        <flowRoot
           transform="matrix(0.26458333,0,0,0.26458333,84.494687,52.798796)"
           style="font-style:italic;font-variant:normal;font-weight:normal;font-stretch:normal;line-height:0.01%;font-family:'Myriad Pro';-inkscape-font-specification:'Myriad Pro Italic';letter-spacing:0px;word-spacing:0px;opacity:1;fill:#000000;fill-opacity:1;stroke:none;stroke-width:1.33333337;stroke-miterlimit:4;stroke-dasharray:none"
           id="flowRoot2770"
           xml:space="preserve"><flowRegion
             style="opacity:1;stroke-width:1.33333337;stroke-miterlimit:4;stroke-dasharray:none"
             id="flowRegion2766"><rect
               style="opacity:1;stroke-width:1.33333337;stroke-miterlimit:4;stroke-dasharray:none"
               y="507.02673"
               x="154.92958"
               height="21.030718"
               width="11.171583"
               id="rect2764" /></flowRegion><flowPara
             id="flowPara2768"
             style="font-size:16px;line-height:1.25;opacity:1"> </flowPara></flowRoot>      </g>
      <path
         inkscape:connector-curvature="0"
         d="m 84.57292,534.09165 c 0,0 0.226333,0.65335 0.42818,0.65335 0.201838,0 0.428171,-0.65335 0.428171,-0.65335 m -1.712706,0 c 0,0 0.226332,-0.65334 0.428177,-0.65334 0.20184,0 0.428178,0.65334 0.428178,0.65334 m -1.71791,0 c 0,0 0.226333,0.65335 0.428179,0.65335 0.201839,0 0.428173,-0.65335 0.428173,-0.65335 m -1.712704,0 c 0,0 0.226332,-0.65334 0.428178,-0.65334 0.201841,0 0.428174,0.65334 0.428174,0.65334 m -1.717907,0 c 0,0 0.226333,0.65335 0.428179,0.65335 0.201844,0 0.428173,-0.65335 0.428173,-0.65335 m -1.712702,0 c 0,0 0.22633,-0.65334 0.428177,-0.65334 0.20184,0 0.428173,0.65334 0.428173,0.65334 m -1.717906,0 c 0,0 0.226332,0.65335 0.428178,0.65335 0.201841,0 0.428173,-0.65335 0.428173,-0.65335 m -1.712704,0 c 0,0 0.226333,-0.65334 0.428173,-0.65334 0.201846,0 0.42818,0.65334 0.42818,0.65334 m -1.717908,0 c 0,0 0.226333,0.65335 0.428178,0.65335 0.201841,0 0.428175,-0.65335 0.428175,-0.65335 m -1.712704,0 c 0,0 0.226332,-0.65334 0.428172,-0.65334 0.201846,0 0.428179,0.65334 0.428179,0.65334 m -1.717904,0 c 0,0 0.226331,0.65335 0.428172,0.65335 0.201844,0 0.428178,-0.65335 0.428178,-0.65335 m -1.712703,0 c 0,0 0.226332,-0.65334 0.428174,-0.65334 0.201845,0 0.428179,0.65334 0.428179,0.65334 m -1.712705,0 c 0,0 0.226332,0.65335 0.428178,0.65335 0.201842,0 0.428174,-0.65335 0.428174,-0.65335 m -1.712702,0 c 0,0 0.226331,-0.65334 0.428175,-0.65334 0.201843,0 0.428175,0.65334 0.428175,0.65334 m -1.717906,0 c 0,0 0.226332,0.65335 0.428176,0.65335 0.201844,0 0.428176,-0.65335 0.428176,-0.65335 m -1.712704,0 c 0,0 0.226331,-0.65334 0.428177,-0.65334 0.201844,0 0.428175,0.65334 0.428175,0.65334 m -1.717907,0 c 0,0 0.226333,0.65335 0.428178,0.65335 0.201843,0 0.428177,-0.65335 0.428177,-0.65335 m -1.712705,0 c 0,0 0.226331,-0.65334 0.428175,-0.65334 0.201844,0 0.428175,0.65334 0.428175,0.65334 m -1.717906,0 c 0,0 0.226333,0.65335 0.428176,0.65335 0.201843,0 0.428176,-0.65335 0.428176,-0.65335 m -1.712703,0 c 0,0 0.226332,-0.65334 0.428176,-0.65334 0.201844,0 0.428175,0.65334 0.428175,0.65334 m -1.717906,0 c 0,0 0.226332,0.65335 0.428176,0.65335 0.201845,0 0.428177,-0.65335 0.428177,-0.65335 m -1.712705,0 c 0,0 0.226331,-0.65334 0.428176,-0.65334 0.201844,0 0.428176,0.65334 0.428176,0.65334 m -1.717907,0 c 0,0 0.226332,0.65335 0.428177,0.65335 0.201844,0 0.428176,-0.65335 0.428176,-0.65335 m -1.712704,0 c 0,0 0.226332,-0.65334 0.428177,-0.65334 0.201844,0 0.428174,0.65334 0.428174,0.65334"
         style="opacity:1;fill:none;stroke:#000000;stroke-width:0.29567894;stroke-linecap:butt;stroke-linejoin:miter;stroke-miterlimit:4;stroke-dasharray:none;stroke-opacity:1"
         id="path4173" />
      <path
         id="path4175"
         style="opacity:1;fill:none;stroke:#000000;stroke-width:0.29567894;stroke-linecap:butt;stroke-linejoin:miter;stroke-miterlimit:4;stroke-dasharray:none;stroke-opacity:1"
         d="m 105.18144,534.09165 c 0,0 0.22632,0.65335 0.42817,0.65335 0.20184,0 0.42818,-0.65335 0.42818,-0.65335 m -1.71271,0 c 0,0 0.22634,-0.65334 0.42818,-0.65334 0.20184,0 0.42818,0.65334 0.42818,0.65334 m -1.71792,0 c 0,0 0.22635,0.65335 0.42819,0.65335 0.20184,0 0.42817,-0.65335 0.42817,-0.65335 m -1.7127,0 c 0,0 0.22633,-0.65334 0.42817,-0.65334 0.20184,0 0.42817,0.65334 0.42817,0.65334 m -1.7179,0 c 0,0 0.22633,0.65335 0.42817,0.65335 0.20185,0 0.42818,-0.65335 0.42818,-0.65335 m -1.71271,0 c 0,0 0.22634,-0.65334 0.42818,-0.65334 0.20185,0 0.42818,0.65334 0.42818,0.65334 m -1.71791,0 c 0,0 0.22634,0.65335 0.42818,0.65335 0.20185,0 0.42818,-0.65335 0.42818,-0.65335 m -1.712715,0 c 0,0 0.226337,-0.65334 0.428178,-0.65334 0.201849,0 0.428177,0.65334 0.428177,0.65334 m -1.717906,0 c 0,0 0.226333,0.65335 0.428178,0.65335 0.20184,0 0.428167,-0.65335 0.428167,-0.65335 m -1.712696,0 c 0,0 0.226332,-0.65334 0.428172,-0.65334 0.201846,0 0.428179,0.65334 0.428179,0.65334 m -1.717905,0 c 0,0 0.226331,0.65335 0.428172,0.65335 0.201844,0 0.428178,-0.65335 0.428178,-0.65335 m -1.712702,0 c 0,0 0.226332,-0.65334 0.428173,-0.65334 0.201845,0 0.428179,0.65334 0.428179,0.65334 m -1.712704,0 c 0,0 0.226332,0.65335 0.428178,0.65335 0.201842,0 0.428174,-0.65335 0.428174,-0.65335 m -1.712702,0 c 0,0 0.226331,-0.65334 0.428175,-0.65334 0.201843,0 0.428175,0.65334 0.428175,0.65334 m -1.717907,0 c 0,0 0.226332,0.65335 0.428176,0.65335 0.201844,0 0.428176,-0.65335 0.428176,-0.65335 m -1.712703,0 c 0,0 0.226331,-0.65334 0.428177,-0.65334 0.201843,0 0.428174,0.65334 0.428174,0.65334 m -1.717907,0 c 0,0 0.226332,0.65335 0.428178,0.65335 0.201843,0 0.428177,-0.65335 0.428177,-0.65335 m -1.712705,0 c 0,0 0.226331,-0.65334 0.428175,-0.65334 0.201844,0 0.428175,0.65334 0.428175,0.65334 m -1.717905,0 c 0,0 0.226333,0.65335 0.428176,0.65335 0.201843,0 0.428176,-0.65335 0.428176,-0.65335 m -1.712704,0 c 0,0 0.226332,-0.65334 0.428176,-0.65334 0.201845,0 0.428176,0.65334 0.428176,0.65334 m -1.717906,0 c 0,0 0.226332,0.65335 0.428176,0.65335 0.201844,0 0.428176,-0.65335 0.428176,-0.65335 m -1.712704,0 c 0,0 0.226331,-0.65334 0.428176,-0.65334 0.201844,0 0.428176,0.65334 0.428176,0.65334 m -1.717908,0 c 0,0 0.226332,0.65335 0.428177,0.65335 0.201844,0 0.428176,-0.65335 0.428176,-0.65335 m -1.712704,0 c 0,0 0.226332,-0.65334 0.428177,-0.65334 0.201844,0 0.428174,0.65334 0.428174,0.65334"
         inkscape:connector-curvature="0" />
      <path
         inkscape:connector-curvature="0"
         d="m 85.081153,548.00287 c 0,0 0.232171,0.6782 0.439225,0.6782 0.207042,0 0.439212,-0.6782 0.439212,-0.6782 m -1.75688,0 c 0,0 0.232171,-0.67819 0.439222,-0.67819 0.207045,0 0.439221,0.67819 0.439221,0.67819 m -1.762217,0 c 0,0 0.232171,0.6782 0.439222,0.6782 0.207046,0 0.439216,-0.6782 0.439216,-0.6782 m -1.756876,0 c 0,0 0.232169,-0.67819 0.439221,-0.67819 0.207045,0 0.439217,0.67819 0.439217,0.67819 m -1.762214,0 c 0,0 0.23217,0.6782 0.439223,0.6782 0.20705,0 0.439215,-0.6782 0.439215,-0.6782 m -1.756875,0 c 0,0 0.232167,-0.67819 0.439221,-0.67819 0.207046,0 0.439216,0.67819 0.439216,0.67819 m -1.762213,0 c 0,0 0.23217,0.6782 0.439221,0.6782 0.207047,0 0.439217,-0.6782 0.439217,-0.6782 m -1.756877,0 c 0,0 0.232171,-0.67819 0.439216,-0.67819 0.207052,0 0.439223,0.67819 0.439223,0.67819 m -1.762213,0 c 0,0 0.232169,0.6782 0.439221,0.6782 0.207046,0 0.439215,-0.6782 0.439215,-0.6782 m -1.756875,0 c 0,0 0.232171,-0.67819 0.439217,-0.67819 0.207052,0 0.439222,0.67819 0.439222,0.67819 m -1.762212,0 c 0,0 0.232168,0.6782 0.439215,0.6782 0.207051,0 0.439221,-0.6782 0.439221,-0.6782 m -1.756875,0 c 0,0 0.23217,-0.67819 0.439217,-0.67819 0.207051,0 0.439222,0.67819 0.439222,0.67819 m -1.756877,0 c 0,0 0.23217,0.6782 0.439221,0.6782 0.207049,0 0.439217,-0.6782 0.439217,-0.6782 m -1.756874,0 c 0,0 0.232169,-0.67819 0.439218,-0.67819 0.207048,0 0.439218,0.67819 0.439218,0.67819 m -1.762213,0 c 0,0 0.232169,0.6782 0.43922,0.6782 0.20705,0 0.439218,-0.6782 0.439218,-0.6782 m -1.756875,0 c 0,0 0.232169,-0.67819 0.439219,-0.67819 0.207049,0 0.439218,0.67819 0.439218,0.67819 m -1.762214,0 c 0,0 0.23217,0.6782 0.439221,0.6782 0.20705,0 0.439221,-0.6782 0.439221,-0.6782 m -1.756877,0 c 0,0 0.232168,-0.67819 0.439217,-0.67819 0.207051,0 0.439218,0.67819 0.439218,0.67819 m -1.762212,0 c 0,0 0.23217,0.6782 0.43922,0.6782 0.207049,0 0.439218,-0.6782 0.439218,-0.6782 m -1.756876,0 c 0,0 0.232171,-0.67819 0.439219,-0.67819 0.207051,0 0.439219,0.67819 0.439219,0.67819 m -1.762213,0 c 0,0 0.232169,0.6782 0.439219,0.6782 0.20705,0 0.43922,-0.6782 0.43922,-0.6782 m -1.756877,0 c 0,0 0.232169,-0.67819 0.43922,-0.67819 0.20705,0 0.439218,0.67819 0.439218,0.67819 m -1.762213,0 c 0,0 0.232168,0.6782 0.439221,0.6782 0.207049,0 0.439218,-0.6782 0.439218,-0.6782 m -1.756878,0 c 0,0 0.232169,-0.67819 0.43922,-0.67819 0.207051,0 0.439219,0.67819 0.439219,0.67819"
         style="opacity:1;fill:none;stroke:#000000;stroke-width:0.30510965;stroke-linecap:butt;stroke-linejoin:miter;stroke-miterlimit:4;stroke-dasharray:none;stroke-opacity:1"
         id="path4177" />
      <path
         id="path4179"
         style="opacity:1;fill:none;stroke:#000000;stroke-width:0.30510965;stroke-linecap:butt;stroke-linejoin:miter;stroke-miterlimit:4;stroke-dasharray:none;stroke-opacity:1"
         d="m 106.22118,548.00287 c 0,0 0.23219,0.6782 0.43922,0.6782 0.20704,0 0.43922,-0.6782 0.43922,-0.6782 m -1.75687,0 c 0,0 0.23218,-0.67819 0.43923,-0.67819 0.20702,0 0.4392,0.67819 0.4392,0.67819 m -1.76221,0 c 0,0 0.23217,0.6782 0.43922,0.6782 0.20705,0 0.43922,-0.6782 0.43922,-0.6782 m -1.75686,0 c 0,0 0.23216,-0.67819 0.4392,-0.67819 0.20704,0 0.43922,0.67819 0.43922,0.67819 m -1.76222,0 c 0,0 0.23217,0.6782 0.43923,0.6782 0.20706,0 0.43922,-0.6782 0.43922,-0.6782 m -1.75689,0 c 0,0 0.23217,-0.67819 0.43922,-0.67819 0.20705,0 0.43922,0.67819 0.43922,0.67819 m -1.76221,0 c 0,0 0.23217,0.6782 0.43923,0.6782 0.20704,0 0.43921,-0.6782 0.43921,-0.6782 m -1.75687,0 c 0,0 0.23216,-0.67819 0.43921,-0.67819 0.20706,0 0.43922,0.67819 0.43922,0.67819 m -1.762215,0 c 0,0 0.23217,0.6782 0.439219,0.6782 0.207048,0 0.439216,-0.6782 0.439216,-0.6782 m -1.756873,0 c 0,0 0.23217,-0.67819 0.439216,-0.67819 0.207052,0 0.439222,0.67819 0.439222,0.67819 m -1.762212,0 c 0,0 0.232169,0.6782 0.439216,0.6782 0.20705,0 0.439221,-0.6782 0.439221,-0.6782 m -1.756876,0 c 0,0 0.232171,-0.67819 0.439216,-0.67819 0.207051,0 0.439223,0.67819 0.439223,0.67819 m -1.756876,0 c 0,0 0.232169,0.6782 0.439221,0.6782 0.207047,0 0.439216,-0.6782 0.439216,-0.6782 m -1.756875,0 c 0,0 0.232169,-0.67819 0.439219,-0.67819 0.207049,0 0.439219,0.67819 0.439219,0.67819 m -1.762213,0 c 0,0 0.232169,0.6782 0.439217,0.6782 0.207051,0 0.43922,-0.6782 0.43922,-0.6782 m -1.756875,0 c 0,0 0.232168,-0.67819 0.43922,-0.67819 0.207048,0 0.439218,0.67819 0.439218,0.67819 m -1.762214,0 c 0,0 0.232169,0.6782 0.43922,0.6782 0.207049,0 0.43922,-0.6782 0.43922,-0.6782 m -1.756876,0 c 0,0 0.232167,-0.67819 0.439218,-0.67819 0.207049,0 0.439218,0.67819 0.439218,0.67819 m -1.762213,0 c 0,0 0.232171,0.6782 0.439219,0.6782 0.207049,0 0.439219,-0.6782 0.439219,-0.6782 m -1.756875,0 c 0,0 0.232169,-0.67819 0.43922,-0.67819 0.207048,0 0.439217,0.67819 0.439217,0.67819 m -1.762212,0 c 0,0 0.232168,0.6782 0.439218,0.6782 0.207051,0 0.439219,-0.6782 0.439219,-0.6782 m -1.756875,0 c 0,0 0.232169,-0.67819 0.439219,-0.67819 0.207049,0 0.439219,0.67819 0.439219,0.67819 m -1.762214,0 c 0,0 0.232168,0.6782 0.43922,0.6782 0.207051,0 0.439218,-0.6782 0.439218,-0.6782 m -1.756876,0 c 0,0 0.232169,-0.67819 0.43922,-0.67819 0.207049,0 0.439218,0.67819 0.439218,0.67819"
         inkscape:connector-curvature="0" />
      <path
         inkscape:connector-curvature="0"
         d="m 127.36121,548.00287 c 0,0 0.23216,0.6782 0.43922,0.6782 0.20705,0 0.43922,-0.6782 0.43922,-0.6782 m -1.75687,0 c 0,0 0.23217,-0.67819 0.43921,-0.67819 0.20704,0 0.43922,0.67819 0.43922,0.67819 m -1.76221,0 c 0,0 0.23217,0.6782 0.43922,0.6782 0.20705,0 0.43922,-0.6782 0.43922,-0.6782 m -1.75689,0 c 0,0 0.23219,-0.67819 0.43922,-0.67819 0.20706,0 0.43923,0.67819 0.43923,0.67819 m -1.76222,0 c 0,0 0.23218,0.6782 0.43924,0.6782 0.20704,0 0.4392,-0.6782 0.4392,-0.6782 m -1.75687,0 c 0,0 0.23217,-0.67819 0.43922,-0.67819 0.20705,0 0.43921,0.67819 0.43921,0.67819 m -1.7622,0 c 0,0 0.23216,0.6782 0.43921,0.6782 0.20706,0 0.43923,-0.6782 0.43923,-0.6782 m -1.75689,0 c 0,0 0.23218,-0.67819 0.43922,-0.67819 0.20705,0 0.43923,0.67819 0.43923,0.67819 m -1.76222,0 c 0,0 0.23217,0.6782 0.43923,0.6782 0.20703,0 0.4392,-0.6782 0.4392,-0.6782 m -1.75687,0 c 0,0 0.23216,-0.67819 0.43923,-0.67819 0.20705,0 0.43921,0.67819 0.43921,0.67819 m -1.76222,0 c 0,0 0.23218,0.6782 0.43921,0.6782 0.20707,0 0.43923,-0.6782 0.43923,-0.6782 m -1.75686,0 c 0,0 0.23216,-0.67819 0.43921,-0.67819 0.20703,0 0.43921,0.67819 0.43921,0.67819 m -1.75687,0 c 0,0 0.23218,0.6782 0.43922,0.6782 0.20705,0 0.43923,-0.6782 0.43923,-0.6782 m -1.75689,0 c 0,0 0.23216,-0.67819 0.43923,-0.67819 0.20704,0 0.43921,0.67819 0.43921,0.67819 m -1.76221,0 c 0,0 0.23217,0.6782 0.43922,0.6782 0.20705,0 0.43922,-0.6782 0.43922,-0.6782 m -1.75687,0 c 0,0 0.23216,-0.67819 0.43921,-0.67819 0.20706,0 0.43922,0.67819 0.43922,0.67819 m -1.76221,0 c 0,0 0.23218,0.6782 0.43921,0.6782 0.20704,0 0.43922,-0.6782 0.43922,-0.6782 m -1.75687,0 c 0,0 0.23218,-0.67819 0.43923,-0.67819 0.20704,0 0.43921,0.67819 0.43921,0.67819 m -1.76223,0 c 0,0 0.23219,0.6782 0.43922,0.6782 0.20706,0 0.43922,-0.6782 0.43922,-0.6782 m -1.75685,0 c 0,0 0.23216,-0.67819 0.4392,-0.67819 0.20704,0 0.43921,0.67819 0.43921,0.67819 m -1.76221,0 c 0,0 0.23217,0.6782 0.43922,0.6782 0.20707,0 0.43923,-0.6782 0.43923,-0.6782 m -1.75688,0 c 0,0 0.23217,-0.67819 0.43921,-0.67819 0.20705,0 0.43922,0.67819 0.43922,0.67819 m -1.76221,0 c 0,0 0.23217,0.6782 0.43923,0.6782 0.20705,0 0.43922,-0.6782 0.43922,-0.6782 m -1.75689,0 c 0,0 0.23217,-0.67819 0.43922,-0.67819 0.20706,0 0.43922,0.67819 0.43922,0.67819"
         style="opacity:1;fill:none;stroke:#000000;stroke-width:0.30510965;stroke-linecap:butt;stroke-linejoin:miter;stroke-miterlimit:4;stroke-dasharray:none;stroke-opacity:1"
         id="path4181" />
      <circle
         style="opacity:1;fill:none;fill-opacity:1;stroke:#000000;stroke-width:0.28222221;stroke-linecap:round;stroke-linejoin:round;stroke-miterlimit:4;stroke-dasharray:none;stroke-dashoffset:0;stroke-opacity:1"
         id="path4183"
         cx="63.558704"
         cy="520.45221"
         r="1.1235" />
      <circle
         cy="520.41663"
         cx="85.487762"
         id="circle4185"
         style="opacity:1;fill:none;fill-opacity:1;stroke:#000000;stroke-width:0.28222221;stroke-linecap:round;stroke-linejoin:round;stroke-miterlimit:4;stroke-dasharray:none;stroke-dashoffset:0;stroke-opacity:1"
         r="1.1235" />
      <circle
         r="1.1770699"
         cy="534.04388"
         cx="63.612274"
         id="circle4187"
         style="opacity:1;fill:none;fill-opacity:1;stroke:#000000;stroke-width:0.29567894;stroke-linecap:round;stroke-linejoin:round;stroke-miterlimit:4;stroke-dasharray:none;stroke-dashoffset:0;stroke-opacity:1" />
      <circle
         style="opacity:1;fill:none;fill-opacity:1;stroke:#000000;stroke-width:0.29567894;stroke-linecap:round;stroke-linejoin:round;stroke-miterlimit:4;stroke-dasharray:none;stroke-dashoffset:0;stroke-opacity:1"
         id="circle4189"
         cx="107.20501"
         cy="534.04388"
         r="1.1770699" />
      <ellipse
         style="opacity:1;fill:none;fill-opacity:1;stroke:#000000;stroke-width:0.30510965;stroke-linecap:round;stroke-linejoin:round;stroke-miterlimit:4;stroke-dasharray:none;stroke-dashoffset:0;stroke-opacity:1"
         id="circle4191"
         cx="63.642632"
         cy="547.73108"
         rx="1.2074277"
         ry="1.22184" />
      <ellipse
         cy="547.73108"
         cx="129.45171"
         id="circle4193"
         style="opacity:1;fill:none;fill-opacity:1;stroke:#000000;stroke-width:0.30510965;stroke-linecap:round;stroke-linejoin:round;stroke-miterlimit:4;stroke-dasharray:none;stroke-dashoffset:0;stroke-opacity:1"
         rx="1.2074277"
         ry="1.22184" />
      <rect
         style="opacity:1;fill:none;fill-opacity:1;stroke:#000000;stroke-width:0.28222221;stroke-linecap:round;stroke-linejoin:round;stroke-miterlimit:4;stroke-dasharray:none;stroke-dashoffset:0;stroke-opacity:1"
         id="rect4198"
         width="0.025598163"
         height="2.3177776"
         x="-63.576664"
         y="518.10504"
         ry="0"
         transform="scale(-1,1)" />
      <rect
         transform="scale(-1,1)"
         ry="0"
         y="518.10504"
         x="-85.50351"
         height="2.3177776"
         width="0.025598163"
         id="rect4200"
         style="opacity:1;fill:none;fill-opacity:1;stroke:#000000;stroke-width:0.28222221;stroke-linecap:round;stroke-linejoin:round;stroke-miterlimit:4;stroke-dasharray:none;stroke-dashoffset:0;stroke-opacity:1" />
      <rect
         transform="scale(-1,1)"
         ry="0"
         y="531.5968"
         x="-63.631088"
         height="2.4282925"
         width="0.026818717"
         id="rect4202"
         style="opacity:1;fill:none;fill-opacity:1;stroke:#000000;stroke-width:0.29567894;stroke-linecap:round;stroke-linejoin:round;stroke-miterlimit:4;stroke-dasharray:none;stroke-dashoffset:0;stroke-opacity:1" />
      <rect
         style="opacity:1;fill:none;fill-opacity:1;stroke:#000000;stroke-width:0.29567894;stroke-linecap:round;stroke-linejoin:round;stroke-miterlimit:4;stroke-dasharray:none;stroke-dashoffset:0;stroke-opacity:1"
         id="rect4204"
         width="0.026818717"
         height="2.4282925"
         x="-107.23787"
         y="531.5744"
         ry="0"
         transform="scale(-1,1)" />
      <rect
         style="opacity:1;fill:none;fill-opacity:1;stroke:#000000;stroke-width:0.30510965;stroke-linecap:round;stroke-linejoin:round;stroke-miterlimit:4;stroke-dasharray:none;stroke-dashoffset:0;stroke-opacity:1"
         id="rect4206"
         width="0.027510399"
         height="2.520653"
         x="-63.661934"
         y="545.26276"
         ry="0"
         transform="scale(-1,1)" />
      <rect
         transform="scale(-1,1)"
         ry="0"
         y="545.23816"
         x="-129.46288"
         height="2.520653"
         width="0.027510399"
         id="rect4208"
         style="opacity:1;fill:none;fill-opacity:1;stroke:#000000;stroke-width:0.30510965;stroke-linecap:round;stroke-linejoin:round;stroke-miterlimit:4;stroke-dasharray:none;stroke-dashoffset:0;stroke-opacity:1" />
      <text
         xml:space="preserve"
         style="font-style:normal;font-weight:normal;line-height:0%;font-family:sans-serif;letter-spacing:0px;word-spacing:0px;opacity:1;fill:#000000;fill-opacity:1;stroke:none;stroke-width:1px;stroke-linecap:butt;stroke-linejoin:miter;stroke-opacity:1"
         x="62.373825"
         y="553.6123"
         id="text4210"><tspan
           sodipodi:role="line"
           id="tspan4212"
           x="62.373825"
           y="553.6123"
           style="font-style:italic;font-variant:normal;font-weight:normal;font-stretch:normal;font-size:4.93888903px;line-height:1.25;font-family:'Myriad Pro';-inkscape-font-specification:'Myriad Pro Italic';opacity:1">A</tspan></text>
      <text
         id="text4214"
         y="553.72797"
         x="84.26226"
         style="font-style:normal;font-weight:normal;line-height:0%;font-family:sans-serif;letter-spacing:0px;word-spacing:0px;opacity:1;fill:#000000;fill-opacity:1;stroke:none;stroke-width:1px;stroke-linecap:butt;stroke-linejoin:miter;stroke-opacity:1"
         xml:space="preserve"><tspan
           style="font-style:italic;font-variant:normal;font-weight:normal;font-stretch:normal;font-size:4.93888903px;line-height:1.25;font-family:'Myriad Pro';-inkscape-font-specification:'Myriad Pro Italic';opacity:1"
           y="553.72797"
           x="84.26226"
           id="tspan4216"
           sodipodi:role="line">G</tspan></text>
      <text
         xml:space="preserve"
         style="font-style:normal;font-weight:normal;line-height:0%;font-family:sans-serif;letter-spacing:0px;word-spacing:0px;opacity:1;fill:#000000;fill-opacity:1;stroke:none;stroke-width:1px;stroke-linecap:butt;stroke-linejoin:miter;stroke-opacity:1"
         x="128.2108"
         y="553.64252"
         id="text4218"><tspan
           sodipodi:role="line"
           id="tspan4220"
           x="128.2108"
           y="553.64252"
           style="font-style:italic;font-variant:normal;font-weight:normal;font-stretch:normal;font-size:4.93888903px;line-height:1.25;font-family:'Myriad Pro';-inkscape-font-specification:'Myriad Pro Italic';opacity:1">B</tspan></text>
      <text
         id="text4222"
         y="539.79565"
         x="62.122612"
         style="font-style:normal;font-weight:normal;line-height:0%;font-family:sans-serif;letter-spacing:0px;word-spacing:0px;opacity:1;fill:#000000;fill-opacity:1;stroke:none;stroke-width:1px;stroke-linecap:butt;stroke-linejoin:miter;stroke-opacity:1"
         xml:space="preserve"><tspan
           style="font-style:italic;font-variant:normal;font-weight:normal;font-stretch:normal;font-size:4.93888903px;line-height:1.25;font-family:'Myriad Pro';-inkscape-font-specification:'Myriad Pro Italic';opacity:1"
           y="539.79565"
           x="62.122612"
           id="tspan4224"
           sodipodi:role="line">C</tspan></text>
      <text
         xml:space="preserve"
         style="font-style:normal;font-weight:normal;line-height:0%;font-family:sans-serif;letter-spacing:0px;word-spacing:0px;opacity:1;fill:#000000;fill-opacity:1;stroke:none;stroke-width:1px;stroke-linecap:butt;stroke-linejoin:miter;stroke-opacity:1"
         x="105.54991"
         y="539.79565"
         id="text4226"><tspan
           sodipodi:role="line"
           id="tspan4228"
           x="105.54991"
           y="539.79565"
           style="font-style:italic;font-variant:normal;font-weight:normal;font-stretch:normal;font-size:4.93888903px;line-height:1.25;font-family:'Myriad Pro';-inkscape-font-specification:'Myriad Pro Italic';opacity:1">D</tspan></text>
      <text
         xml:space="preserve"
         style="font-style:normal;font-weight:normal;line-height:0%;font-family:sans-serif;letter-spacing:0px;word-spacing:0px;opacity:1;fill:#000000;fill-opacity:1;stroke:none;stroke-width:1px;stroke-linecap:butt;stroke-linejoin:miter;stroke-opacity:1"
         x="62.165344"
         y="526.04968"
         id="text4230"><tspan
           sodipodi:role="line"
           id="tspan4232"
           x="62.165344"
           y="526.04968"
           style="font-style:italic;font-variant:normal;font-weight:normal;font-stretch:normal;font-size:4.93888903px;line-height:1.25;font-family:'Myriad Pro';-inkscape-font-specification:'Myriad Pro Italic';opacity:1">E</tspan></text>
      <text
         id="text4234"
         y="526.04968"
         x="84.108864"
         style="font-style:normal;font-weight:normal;line-height:0%;font-family:sans-serif;letter-spacing:0px;word-spacing:0px;opacity:1;fill:#000000;fill-opacity:1;stroke:none;stroke-width:1px;stroke-linecap:butt;stroke-linejoin:miter;stroke-opacity:1"
         xml:space="preserve"><tspan
           style="font-style:italic;font-variant:normal;font-weight:normal;font-stretch:normal;font-size:4.93888903px;line-height:1.25;font-family:'Myriad Pro';-inkscape-font-specification:'Myriad Pro Italic';opacity:1"
           y="526.04968"
           x="84.108864"
           id="tspan4236"
           sodipodi:role="line">F</tspan></text>
      <circle
         cy="520.45068"
         cx="63.560204"
         id="circle4179"
         style="opacity:1;fill:#000000;fill-opacity:1;stroke:#000000;stroke-width:0.28222221;stroke-linecap:round;stroke-linejoin:round;stroke-miterlimit:4;stroke-dasharray:none;stroke-dashoffset:0;stroke-opacity:1"
         r="0.35888889" />
      <ellipse
         style="opacity:1;fill:#000000;fill-opacity:1;stroke:#000000;stroke-width:0.30510965;stroke-linecap:round;stroke-linejoin:round;stroke-miterlimit:4;stroke-dasharray:none;stroke-dashoffset:0;stroke-opacity:1"
         id="circle4181"
         cx="129.45807"
         cy="547.71417"
         rx="0.38569871"
         ry="0.39030251" />
      <circle
         cy="520.40094"
         cx="85.487045"
         id="circle4183"
         style="opacity:1;fill:#000000;fill-opacity:1;stroke:#000000;stroke-width:0.28222221;stroke-linecap:round;stroke-linejoin:round;stroke-miterlimit:4;stroke-dasharray:none;stroke-dashoffset:0;stroke-opacity:1"
         r="0.35888889" />
      <circle
         cy="534.04053"
         cx="63.60265"
         id="circle4186"
         style="opacity:1;fill:#000000;fill-opacity:1;stroke:#000000;stroke-width:0.29567894;stroke-linecap:round;stroke-linejoin:round;stroke-miterlimit:4;stroke-dasharray:none;stroke-dashoffset:0;stroke-opacity:1"
         r="0.37600121" />
      <circle
         cy="534.04053"
         cx="107.22704"
         id="circle4188"
         style="opacity:1;fill:#000000;fill-opacity:1;stroke:#000000;stroke-width:0.29567894;stroke-linecap:round;stroke-linejoin:round;stroke-miterlimit:4;stroke-dasharray:none;stroke-dashoffset:0;stroke-opacity:1"
         r="0.37600121" />
      <ellipse
         cy="547.77985"
         cx="63.632763"
         id="circle4190"
         style="opacity:1;fill:#000000;fill-opacity:1;stroke:#000000;stroke-width:0.30510965;stroke-linecap:round;stroke-linejoin:round;stroke-miterlimit:4;stroke-dasharray:none;stroke-dashoffset:0;stroke-opacity:1"
         rx="0.38569871"
         ry="0.39030251" />
    </g>
  </g>
</svg>
