<?xml version="1.0" encoding="UTF-8" standalone="no"?>
<!-- Generator: Adobe Illustrator 16.0.3, SVG Export Plug-In . SVG Version: 6.00 Build 0)  -->

<svg
   xmlns:i="&amp;#38;#38;ns_ai;"
   xmlns:dc="http://purl.org/dc/elements/1.1/"
   xmlns:cc="http://creativecommons.org/ns#"
   xmlns:rdf="http://www.w3.org/1999/02/22-rdf-syntax-ns#"
   xmlns:svg="http://www.w3.org/2000/svg"
   xmlns="http://www.w3.org/2000/svg"
   xmlns:sodipodi="http://sodipodi.sourceforge.net/DTD/sodipodi-0.dtd"
   xmlns:inkscape="http://www.inkscape.org/namespaces/inkscape"
   version="1.1"
   id="Ebene_1"
   x="0px"
   y="0px"
   width="496.261px"
   height="548.661px"
   viewBox="0 0 496.261 548.661"
   enable-background="new 0 0 496.261 548.661"
   xml:space="preserve"
   inkscape:version="0.91 r13725"
   sodipodi:docname="LH_37_01_018-019_d3b.svg"><metadata
     id="metadata353"><rdf:RDF><cc:Work
         rdf:about=""><dc:format>image/svg+xml</dc:format><dc:type
           rdf:resource="http://purl.org/dc/dcmitype/StillImage" /></cc:Work></rdf:RDF></metadata><defs
     id="defs351" /><sodipodi:namedview
     pagecolor="#ffffff"
     bordercolor="#666666"
     borderopacity="1"
     objecttolerance="10"
     gridtolerance="10"
     guidetolerance="10"
     inkscape:pageopacity="0"
     inkscape:pageshadow="2"
     inkscape:window-width="2039"
     inkscape:window-height="1125"
     id="namedview349"
     showgrid="true"
     inkscape:zoom="1.2166142"
     inkscape:cx="148.67415"
     inkscape:cy="297.57885"
     inkscape:window-x="5432"
     inkscape:window-y="1418"
     inkscape:window-maximized="0"
     inkscape:current-layer="Ebene_1"><inkscape:grid
       type="xygrid"
       id="grid4481" /></sodipodi:namedview><g
     id="g4316"><g
       id="g4870"><g
         id="g7"><path
           d="m 189.815,3.582 c 74.551,172.277 74.551,367.712 0,539.989"
           id="path9"
           inkscape:connector-curvature="0"
           style="fill:none;stroke:#000000;stroke-width:3;stroke-linecap:round;stroke-linejoin:round;stroke-dasharray:5, 16" /></g><rect
         x="243.814"
         y="219.577"
         width="108"
         height="108"
         id="rect11"
         style="fill:#ffffff;stroke:#000000;stroke-width:3;stroke-linecap:round;stroke-linejoin:round;stroke-dasharray:1, 8" /><rect
         x="189.814"
         y="219.577"
         width="107.854"
         height="108"
         id="rect13"
         style="fill:#ffffff;stroke:#000000;stroke-width:3;stroke-linecap:square" /><path
         d="M 288.481,300.937"
         id="path15"
         inkscape:connector-curvature="0"
         style="fill:none;stroke:#000000;stroke-width:5;stroke-linejoin:round;stroke-dasharray:5, 5" /><path
         d="M 288.481,192.688"
         id="path17"
         inkscape:connector-curvature="0"
         style="fill:none;stroke:#000000;stroke-width:5;stroke-linejoin:round;stroke-dasharray:5, 5" /><path
         d="M 396.897,192.688"
         id="path19"
         inkscape:connector-curvature="0"
         style="fill:none;stroke:#000000;stroke-width:5;stroke-dasharray:5, 5" /><path
         d="M 342.231,192.688"
         id="path21"
         inkscape:connector-curvature="0"
         style="fill:none;stroke:#000000;stroke-width:5;stroke-dasharray:5, 5" /><path
         d="M 342.231,300.937"
         id="path23"
         inkscape:connector-curvature="0"
         style="fill:none;stroke:#000000;stroke-width:5;stroke-dasharray:5, 5" /><path
         d="M 396.897,192.688"
         id="path25"
         inkscape:connector-curvature="0"
         style="fill:none;stroke:#000000;stroke-width:5;stroke-linejoin:round;stroke-dasharray:5, 5" /><line
         x1="189.814"
         y1="3.5769999"
         x2="189.814"
         y2="543.57703"
         id="line27"
         style="fill:none;stroke:#000000;stroke-width:3;stroke-linecap:round;stroke-linejoin:round" /><path
         d="M 282.001,298.313"
         id="path29"
         inkscape:connector-curvature="0"
         style="fill:none;stroke:#000000;stroke-width:0.25" /><path
         d="M 276.522,303.146"
         id="path31"
         inkscape:connector-curvature="0"
         style="fill:none;stroke:#000000;stroke-width:0.25" /><path
         d="M 282.751,304.313"
         id="path33"
         inkscape:connector-curvature="0"
         style="fill:none;stroke:#000000;stroke-width:0.25" /><path
         d="M 275.001,297.333"
         id="path35"
         inkscape:connector-curvature="0"
         style="fill:none;stroke:#000000;stroke-width:0.25" /><path
         d="M 248.814,463.355"
         id="path37"
         inkscape:connector-curvature="0"
         style="fill:none;stroke:#000000;stroke-width:0.25" /><path
         d="M 223.981,500.188"
         id="path39"
         inkscape:connector-curvature="0"
         style="fill:none;stroke:#000000;stroke-width:0.25" /><text
         font-size="21"
         id="text41"
         style="font-size:21px;font-family:Myriad-Italic"
         x="297.15158"
         y="210.57671"><tspan
           style="font-style:italic;font-variant:normal;font-weight:normal;font-stretch:normal;font-size:27.5px;font-family:'Myriad Pro';-inkscape-font-specification:'Myriad Pro Italic'"
           id="tspan4491">B</tspan></text>
<text
         font-size="21"
         id="text43"
         style="font-size:21px;font-family:Myriad-Italic"
         x="343.814"
         y="210.57671"><tspan
           style="font-style:italic;font-variant:normal;font-weight:normal;font-stretch:normal;font-size:27.5px;font-family:'Myriad Pro';-inkscape-font-specification:'Myriad Pro Italic'"
           id="tspan4493">(B)</tspan></text>
<text
         font-size="21"
         id="text45"
         style="font-size:21px;font-family:Myriad-Italic"
         x="437.564"
         y="210.07671"><tspan
           style="font-style:italic;font-variant:normal;font-weight:normal;font-stretch:normal;font-size:27.5px;font-family:'Myriad Pro';-inkscape-font-specification:'Myriad Pro Italic'"
           id="tspan4497">C</tspan></text>
<text
         font-size="21"
         id="text47"
         style="font-size:21px;font-family:Myriad-Italic"
         x="479.73279"
         y="210.07671"><tspan
           style="font-style:italic;font-variant:normal;font-weight:normal;font-stretch:normal;font-size:27.5px;font-family:'Myriad Pro';-inkscape-font-specification:'Myriad Pro Italic'"
           id="tspan4499">D</tspan></text>
<text
         font-size="21"
         id="text49"
         style="font-size:21px;font-family:Myriad-Italic"
         x="144.064"
         y="210.57671"><tspan
           style="font-style:italic;font-variant:normal;font-weight:normal;font-stretch:normal;font-size:27.5px;font-family:'Myriad Pro';-inkscape-font-specification:'Myriad Pro Italic'"
           id="tspan4485">F</tspan></text>
<text
         font-size="21"
         id="text51"
         style="font-size:21px;font-family:Myriad-Italic"
         x="395.814"
         y="210.57671"><tspan
           style="font-style:italic;font-variant:normal;font-weight:normal;font-stretch:normal;font-size:27.5px;font-family:'Myriad Pro';-inkscape-font-specification:'Myriad Pro Italic'"
           id="tspan4495">E</tspan></text>
<text
         font-size="21"
         id="text53"
         style="font-size:21px;font-family:Myriad-Italic"
         x="160.98917"
         y="543.41058"><tspan
           style="font-style:italic;font-variant:normal;font-weight:normal;font-stretch:normal;font-size:27.5px;font-family:'Myriad Pro';-inkscape-font-specification:'Myriad Pro Italic'"
           id="tspan4501">M</tspan></text>
<text
         font-size="21"
         id="text55"
         style="font-size:21px;font-family:Myriad-Italic"
         x="169.314"
         y="21.063951"><tspan
           style="font-style:italic;font-variant:normal;font-weight:normal;font-stretch:normal;font-size:27.5px;font-family:'Myriad Pro';-inkscape-font-specification:'Myriad Pro Italic'"
           id="tspan4483">L</tspan></text>
<path
         d="M 268.481,321.937"
         id="path57"
         inkscape:connector-curvature="0"
         style="fill:none;stroke:#000000;stroke-width:5;stroke-linejoin:round;stroke-dasharray:5, 5" /><path
         d="M 268.481,213.688"
         id="path59"
         inkscape:connector-curvature="0"
         style="fill:none;stroke:#000000;stroke-width:5;stroke-linejoin:round;stroke-dasharray:5, 5" /><line
         x1="243.814"
         y1="219.577"
         x2="243.814"
         y2="327.577"
         id="line61"
         style="fill:none;stroke:#000000;stroke-width:3;stroke-linecap:round;stroke-dasharray:1, 8" /><g
         id="g63"><path
           d="M 189.82,228.353"
           id="path65"
           inkscape:connector-curvature="0"
           style="fill:none;stroke:#000000" /></g><g
         id="g67"><path
           d="M 190.069,264.353"
           id="path69"
           inkscape:connector-curvature="0"
           style="fill:none;stroke:#000000" /></g><g
         id="g71"><path
           d="M 189.819,300.104"
           id="path73"
           inkscape:connector-curvature="0"
           style="fill:none;stroke:#000000" /></g><g
         id="g75"><path
           d="M 189.735,354.687"
           id="path77"
           inkscape:connector-curvature="0"
           style="fill:none;stroke:#000000" /></g><g
         id="g79"><path
           d="M 357.383,249.188"
           id="path81"
           inkscape:connector-curvature="0"
           style="fill:none;stroke:#000000" /></g><g
         id="g83"><path
           d="M 339.065,249.188"
           id="path85"
           inkscape:connector-curvature="0"
           style="fill:none;stroke:#000000" /></g><g
         id="g87"><path
           d="M 346.341,223.609"
           id="path89"
           inkscape:connector-curvature="0"
           style="fill:none;stroke:#000000" /></g><g
         id="g91"><path
           d="M 327.769,223.609"
           id="path93"
           inkscape:connector-curvature="0"
           style="fill:none;stroke:#000000" /></g><g
         id="g95"><path
           d="M 356.811,277.188"
           id="path97"
           inkscape:connector-curvature="0"
           style="fill:none;stroke:#000000" /></g><g
         id="g99"><path
           d="M 338.238,277.188"
           id="path101"
           inkscape:connector-curvature="0"
           style="fill:none;stroke:#000000" /></g><g
         id="g103"><path
           d="M 186.236,300.187"
           id="path105"
           inkscape:connector-curvature="0"
           style="fill:none;stroke:#000000" /></g><g
         id="g107"><path
           d="M 203.319,355.187"
           id="path109"
           inkscape:connector-curvature="0"
           style="fill:none;stroke:#000000" /></g><g
         id="g111"><path
           d="M 197.152,354.687"
           id="path113"
           inkscape:connector-curvature="0"
           style="fill:none;stroke:#000000" /></g><text
         font-size="21"
         id="text115"
         style="font-size:21px;font-family:Myriad-Roman"
         x="355.81491"
         y="409.41061"><tspan
           style="font-style:normal;font-variant:normal;font-weight:normal;font-stretch:normal;font-size:25px;font-family:'Myriad Pro';-inkscape-font-specification:'Myriad Pro'"
           id="tspan4503">fig. 3</tspan></text>
<text
         font-size="21"
         id="text117"
         style="font-size:21px;font-family:Myriad-Italic"
         x="197.65158"
         y="210.57671"><tspan
           style="font-style:italic;font-variant:normal;font-weight:normal;font-stretch:normal;font-size:27.5px;font-family:'Myriad Pro';-inkscape-font-specification:'Myriad Pro Italic'"
           id="tspan4487">A</tspan></text>
<text
         font-size="21"
         id="text119"
         style="font-size:21px;font-family:Myriad-Italic"
         x="247.564"
         y="209.57671"><tspan
           style="font-style:italic;font-variant:normal;font-weight:normal;font-stretch:normal;font-size:27.5px;font-family:'Myriad Pro';-inkscape-font-specification:'Myriad Pro Italic'"
           id="tspan4489">(A)</tspan></text>
<g
         id="g121"><path
           d="m 162.814,224.438 c 5,-7 8,1 12,2 2,1 4,-1 6,-2"
           id="path123"
           inkscape:connector-curvature="0"
           style="fill:none;stroke:#000000;stroke-width:2" /></g><g
         id="g125"><path
           d="m 135.814,224.438 c 5,-7 8,1 12,2 2,1 4,-1 6,-2"
           id="path127"
           inkscape:connector-curvature="0"
           style="fill:none;stroke:#000000;stroke-width:2" /></g><g
         id="g129"><path
           d="m 108.814,224.438 c 5,-7 8,1 12,2 2,1 4,-1 6,-2"
           id="path131"
           inkscape:connector-curvature="0"
           style="fill:none;stroke:#000000;stroke-width:2" /></g><g
         id="g133"><path
           d="m 81.814,224.438 c 5,-7 8,1 12,2 2,1 4,-1 6,-2"
           id="path135"
           inkscape:connector-curvature="0"
           style="fill:none;stroke:#000000;stroke-width:2" /></g><g
         id="g137"><path
           d="m 54.814,224.438 c 5,-7 8,1 12,2 2,1 4,-1 6,-2"
           id="path139"
           inkscape:connector-curvature="0"
           style="fill:none;stroke:#000000;stroke-width:2" /></g><g
         id="g141"><path
           d="m 27.814,224.438 c 5,-7 8,1 12,2 2,1 4,-1 6,-2"
           id="path143"
           inkscape:connector-curvature="0"
           style="fill:none;stroke:#000000;stroke-width:2" /></g><g
         id="g145"><path
           d="m 0.814,224.438 c 5,-7 8,1 12,2 2,1 4,-1 6,-2"
           id="path147"
           inkscape:connector-curvature="0"
           style="fill:none;stroke:#000000;stroke-width:2" /></g><g
         id="g149"><path
           d="m 162.814,345.577 c 5,-7 8,1 12,2 2,1 4,-1 6,-2"
           id="path151"
           inkscape:connector-curvature="0"
           style="fill:none;stroke:#000000;stroke-width:2" /></g><g
         id="g153"><path
           d="m 135.814,345.577 c 5,-7 8,1 12,2 2,1 4,-1 6,-2"
           id="path155"
           inkscape:connector-curvature="0"
           style="fill:none;stroke:#000000;stroke-width:2" /></g><g
         id="g157"><path
           d="m 108.814,345.577 c 5,-7 8,1 12,2 2,1 4,-1 6,-2"
           id="path159"
           inkscape:connector-curvature="0"
           style="fill:none;stroke:#000000;stroke-width:2" /></g><g
         id="g161"><path
           d="m 81.814,345.577 c 5,-7 8,1 12,2 2,1 4,-1 6,-2"
           id="path163"
           inkscape:connector-curvature="0"
           style="fill:none;stroke:#000000;stroke-width:2" /></g><g
         id="g165"><path
           d="m 54.814,345.577 c 5,-7 8,1 12,2 2,1 4,-1 6,-2"
           id="path167"
           inkscape:connector-curvature="0"
           style="fill:none;stroke:#000000;stroke-width:2" /></g><g
         id="g169"><path
           d="m 27.814,345.577 c 5,-7 8,1 12,2 2,1 4,-1 6,-2"
           id="path171"
           inkscape:connector-curvature="0"
           style="fill:none;stroke:#000000;stroke-width:2" /></g><g
         id="g173"><path
           d="m 0.814,345.577 c 5,-7 8,1 12,2 2,1 4,-1 6,-2"
           id="path175"
           inkscape:connector-curvature="0"
           style="fill:none;stroke:#000000;stroke-width:2" /></g><g
         id="g177"><path
           d="m 162.814,264.577 c 5,-7 8,1 12,2 2,1 4,-1 6,-2"
           id="path179"
           inkscape:connector-curvature="0"
           style="fill:none;stroke:#000000;stroke-width:2" /></g><g
         id="g181"><path
           d="m 135.814,264.577 c 5,-7 8,1 12,2 2,1 4,-1 6,-2"
           id="path183"
           inkscape:connector-curvature="0"
           style="fill:none;stroke:#000000;stroke-width:2" /></g><g
         id="g185"><path
           d="m 108.814,264.577 c 5,-7 8,1 12,2 2,1 4,-1 6,-2"
           id="path187"
           inkscape:connector-curvature="0"
           style="fill:none;stroke:#000000;stroke-width:2" /></g><g
         id="g189"><path
           d="m 81.814,264.577 c 5,-7 8,1 12,2 2,1 4,-1 6,-2"
           id="path191"
           inkscape:connector-curvature="0"
           style="fill:none;stroke:#000000;stroke-width:2" /></g><g
         id="g193"><path
           d="m 54.814,264.577 c 5,-7 8,1 12,2 2,1 4,-1 6,-2"
           id="path195"
           inkscape:connector-curvature="0"
           style="fill:none;stroke:#000000;stroke-width:2" /></g><g
         id="g197"><path
           d="m 27.814,264.577 c 5,-7 8,1 12,2 2,1 4,-1 6,-2"
           id="path199"
           inkscape:connector-curvature="0"
           style="fill:none;stroke:#000000;stroke-width:2" /></g><g
         id="g201"><path
           d="m 0.814,264.577 c 5,-7 8,1 12,2 2,1 4,-1 6,-2"
           id="path203"
           inkscape:connector-curvature="0"
           style="fill:none;stroke:#000000;stroke-width:2" /></g><g
         id="g205"><path
           d="m 162.814,305.438 c 5,-7 8,1 12,2 2,1 4,-1 6,-2"
           id="path207"
           inkscape:connector-curvature="0"
           style="fill:none;stroke:#000000;stroke-width:2" /></g><g
         id="g209"><path
           d="m 135.814,305.438 c 5,-7 8,1 12,2 2,1 4,-1 6,-2"
           id="path211"
           inkscape:connector-curvature="0"
           style="fill:none;stroke:#000000;stroke-width:2" /></g><g
         id="g213"><path
           d="m 108.814,305.438 c 5,-7 8,1 12,2 2,1 4,-1 6,-2"
           id="path215"
           inkscape:connector-curvature="0"
           style="fill:none;stroke:#000000;stroke-width:2" /></g><g
         id="g217"><path
           d="m 81.814,305.438 c 5,-7 8,1 12,2 2,1 4,-1 6,-2"
           id="path219"
           inkscape:connector-curvature="0"
           style="fill:none;stroke:#000000;stroke-width:2" /></g><g
         id="g221"><path
           d="m 54.814,305.438 c 5,-7 8,1 12,2 2,1 4,-1 6,-2"
           id="path223"
           inkscape:connector-curvature="0"
           style="fill:none;stroke:#000000;stroke-width:2" /></g><g
         id="g225"><path
           d="m 27.814,305.438 c 5,-7 8,1 12,2 2,1 4,-1 6,-2"
           id="path227"
           inkscape:connector-curvature="0"
           style="fill:none;stroke:#000000;stroke-width:2" /></g><g
         id="g229"><path
           d="m 0.814,305.438 c 5,-7 8,1 12,2 2,1 4,-1 6,-2"
           id="path231"
           inkscape:connector-curvature="0"
           style="fill:none;stroke:#000000;stroke-width:2" /></g><g
         id="g233"><path
           d="m 477.814,224.438 c 5,-7 8,1 12,2 2,1 4,-1 6,-2"
           id="path235"
           inkscape:connector-curvature="0"
           style="fill:none;stroke:#000000;stroke-width:2" /></g><g
         id="g237"><path
           d="m 450.814,224.438 c 5,-7 8,1 12,2 2,1 4,-1 6,-2"
           id="path239"
           inkscape:connector-curvature="0"
           style="fill:none;stroke:#000000;stroke-width:2" /></g><g
         id="g241"><path
           d="m 423.814,224.438 c 5,-7 8,1 12,2 2,1 4,-1 6,-2"
           id="path243"
           inkscape:connector-curvature="0"
           style="fill:none;stroke:#000000;stroke-width:2" /></g><g
         id="g245"><path
           d="m 396.814,224.438 c 5,-7 8,1 12,2 2,1 4,-1 6,-2"
           id="path247"
           inkscape:connector-curvature="0"
           style="fill:none;stroke:#000000;stroke-width:2" /></g><g
         id="g249"><path
           d="m 369.814,224.438 c 5,-7 8,1 12,2 2,1 4,-1 6,-2"
           id="path251"
           inkscape:connector-curvature="0"
           style="fill:none;stroke:#000000;stroke-width:2" /></g><g
         id="g253"><path
           d="m 477.814,345.577 c 5,-7 8,1 12,2 2,1 4,-1 6,-2"
           id="path255"
           inkscape:connector-curvature="0"
           style="fill:none;stroke:#000000;stroke-width:2" /></g><g
         id="g257"><path
           d="m 450.814,345.577 c 5,-7 8,1 12,2 2,1 4,-1 6,-2"
           id="path259"
           inkscape:connector-curvature="0"
           style="fill:none;stroke:#000000;stroke-width:2" /></g><g
         id="g261"><path
           d="m 423.814,345.577 c 5,-7 8,1 12,2 2,1 4,-1 6,-2"
           id="path263"
           inkscape:connector-curvature="0"
           style="fill:none;stroke:#000000;stroke-width:2" /></g><g
         id="g265"><path
           d="m 396.814,345.577 c 5,-7 8,1 12,2 2,1 4,-1 6,-2"
           id="path267"
           inkscape:connector-curvature="0"
           style="fill:none;stroke:#000000;stroke-width:2" /></g><g
         id="g269"><path
           d="m 369.814,345.577 c 5,-7 8,1 12,2 2,1 4,-1 6,-2"
           id="path271"
           inkscape:connector-curvature="0"
           style="fill:none;stroke:#000000;stroke-width:2" /></g><g
         id="g273"><path
           d="m 477.814,264.577 c 5,-7 8,1 12,2 2,1 4,-1 6,-2"
           id="path275"
           inkscape:connector-curvature="0"
           style="fill:none;stroke:#000000;stroke-width:2" /></g><g
         id="g277"><path
           d="m 450.814,264.577 c 5,-7 8,1 12,2 2,1 4,-1 6,-2"
           id="path279"
           inkscape:connector-curvature="0"
           style="fill:none;stroke:#000000;stroke-width:2" /></g><g
         id="g281"><path
           d="m 423.814,264.577 c 5,-7 8,1 12,2 2,1 4,-1 6,-2"
           id="path283"
           inkscape:connector-curvature="0"
           style="fill:none;stroke:#000000;stroke-width:2" /></g><g
         id="g285"><path
           d="m 396.814,264.577 c 5,-7 8,1 12,2 2,1 4,-1 6,-2"
           id="path287"
           inkscape:connector-curvature="0"
           style="fill:none;stroke:#000000;stroke-width:2" /></g><g
         id="g289"><path
           d="m 369.814,264.577 c 5,-7 8,1 12,2 2,1 4,-1 6,-2"
           id="path291"
           inkscape:connector-curvature="0"
           style="fill:none;stroke:#000000;stroke-width:2" /></g><g
         id="g293"><path
           d="m 477.814,305.188 c 5,-7 8,1 12,2 2,1 4,-1 6,-2"
           id="path295"
           inkscape:connector-curvature="0"
           style="fill:none;stroke:#000000;stroke-width:2" /></g><g
         id="g297"><path
           d="m 450.814,305.188 c 5,-7 8,1 12,2 2,1 4,-1 6,-2"
           id="path299"
           inkscape:connector-curvature="0"
           style="fill:none;stroke:#000000;stroke-width:2" /></g><g
         id="g301"><path
           d="m 423.814,305.188 c 5,-7 8,1 12,2 2,1 4,-1 6,-2"
           id="path303"
           inkscape:connector-curvature="0"
           style="fill:none;stroke:#000000;stroke-width:2" /></g><g
         id="g305"><path
           d="m 396.814,305.188 c 5,-7 8,1 12,2 2,1 4,-1 6,-2"
           id="path307"
           inkscape:connector-curvature="0"
           style="fill:none;stroke:#000000;stroke-width:2" /></g><g
         id="g309"><path
           d="m 369.814,305.188 c 5,-7 8,1 12,2 2,1 4,-1 6,-2"
           id="path311"
           inkscape:connector-curvature="0"
           style="fill:none;stroke:#000000;stroke-width:2" /></g><g
         id="g313"><path
           d="m 342.814,345.577 c 5,-7 8,1 12,2 2,1 4,-1 6,-2"
           id="path315"
           inkscape:connector-curvature="0"
           style="fill:none;stroke:#000000;stroke-width:2" /></g><g
         id="g317"><path
           d="m 315.814,345.577 c 5,-7 8,1 12,2 2,1 4,-1 6,-2"
           id="path319"
           inkscape:connector-curvature="0"
           style="fill:none;stroke:#000000;stroke-width:2" /></g><g
         id="g321"><path
           d="m 288.814,345.577 c 5,-7 8,1 12,2 2,1 4,-1 6,-2"
           id="path323"
           inkscape:connector-curvature="0"
           style="fill:none;stroke:#000000;stroke-width:2" /></g><g
         id="g325"><path
           d="m 261.814,345.577 c 5,-7 8,1 12,2 2,1 4,-1 6,-2"
           id="path327"
           inkscape:connector-curvature="0"
           style="fill:none;stroke:#000000;stroke-width:2" /></g><g
         id="g329"><path
           d="m 234.814,345.577 c 5,-7 8,1 12,2 2,1 4,-1 6,-2"
           id="path331"
           inkscape:connector-curvature="0"
           style="fill:none;stroke:#000000;stroke-width:2" /></g><g
         id="g333"><path
           d="m 207.814,345.577 c 5,-7 8,1 12,2 2,1 4,-1 6,-2"
           id="path335"
           inkscape:connector-curvature="0"
           style="fill:none;stroke:#000000;stroke-width:2" /></g><g
         id="g337"><path
           d="m 315.814,314.077 c 5,-7 8,1 12,2 2,1 4,-1 6,-2"
           id="path339"
           inkscape:connector-curvature="0"
           style="fill:none;stroke:#000000;stroke-width:2" /></g><g
         id="g341"><path
           d="m 315.814,233.077 c 5,-7 8,1 12,2 2,1 4,-1 6,-2"
           id="path343"
           inkscape:connector-curvature="0"
           style="fill:none;stroke:#000000;stroke-width:2" /></g><g
         id="g345"><path
           d="m 315.814,273.688 c 5,-7 8,1 12,2 2,1 4,-1 6,-2"
           id="path347"
           inkscape:connector-curvature="0"
           style="fill:none;stroke:#000000;stroke-width:2" /></g></g></g><i:pgf
     id="adobe_illustrator_pgf" /></svg>