<?xml version="1.0" encoding="UTF-8" standalone="no"?>
<!-- Created with Inkscape (http://www.inkscape.org/) -->

<svg
   xmlns:osb="http://www.openswatchbook.org/uri/2009/osb"
   xmlns:dc="http://purl.org/dc/elements/1.1/"
   xmlns:cc="http://creativecommons.org/ns#"
   xmlns:rdf="http://www.w3.org/1999/02/22-rdf-syntax-ns#"
   xmlns:svg="http://www.w3.org/2000/svg"
   xmlns="http://www.w3.org/2000/svg"
   xmlns:sodipodi="http://sodipodi.sourceforge.net/DTD/sodipodi-0.dtd"
   xmlns:inkscape="http://www.inkscape.org/namespaces/inkscape"
   sodipodi:docname="LH035,09,15_008-009_d-1.svg"
   inkscape:version="0.91 r13725"
   version="1.1"
   id="svg3338"
   viewBox="0 0 744.09448819 1052.3622047"
   height="297mm"
   width="210mm">
  <defs
     id="defs3340">
    <linearGradient
       id="linearGradient5594"
       osb:paint="solid">
      <stop
         style="stop-color:#000000;stop-opacity:1;"
         offset="0"
         id="stop5596" />
    </linearGradient>
  </defs>
  <sodipodi:namedview
     inkscape:snap-global="false"
     inkscape:snap-bbox="true"
     inkscape:window-maximized="1"
     inkscape:window-y="1"
     inkscape:window-x="2832"
     inkscape:window-height="1042"
     inkscape:window-width="2048"
     showguides="true"
     showgrid="true"
     inkscape:current-layer="layer1"
     inkscape:document-units="px"
     inkscape:cy="857.03755"
     inkscape:cx="201.31897"
     inkscape:zoom="2.8"
     inkscape:pageshadow="2"
     inkscape:pageopacity="0.0"
     borderopacity="1.0"
     bordercolor="#666666"
     pagecolor="#ffffff"
     id="base">
    <inkscape:grid
       type="xygrid"
       id="grid3346" />
  </sodipodi:namedview>
  <metadata
     id="metadata3343">
    <rdf:RDF>
      <cc:Work
         rdf:about="">
        <dc:format>image/svg+xml</dc:format>
        <dc:type
           rdf:resource="http://purl.org/dc/dcmitype/StillImage" />
        <dc:title />
      </cc:Work>
    </rdf:RDF>
  </metadata>
  <g
     inkscape:label="Ebene 1"
     inkscape:groupmode="layer"
     id="layer1">
    <path
       style="fill:none;fill-rule:evenodd;stroke:#000000;stroke-width:1.00033784;stroke-linecap:butt;stroke-linejoin:miter;stroke-miterlimit:4;stroke-dasharray:none;stroke-opacity:1"
       d="M -7.4717968e-4,32.894251 C 14.807338,32.879973 29.656999,32.880985 44.489508,32.879641 c 20.347257,0.01966 40.681069,0.0691 61.062562,0.05806 14.62853,-0.02964 29.28151,-0.06183 43.98672,-0.04702 5.2205,-6.02e-4 10.44149,-6.62e-4 15.66239,-5.66e-4 -0.12305,0.01205 -0.94014,-0.0082 -1.08717,0.0041"
       id="path5640"
       inkscape:connector-curvature="0" />
    <path
       inkscape:connector-curvature="0"
       id="path5644"
       d="m -0.08016852,66.859121 c 14.87967952,-0.0157 29.80113552,-0.01458 44.70535452,-0.01606 20.44563,0.02161 40.877754,0.07596 61.357784,0.06382 14.69924,-0.03255 29.42306,-0.06796 44.19938,-0.05167 5.24573,-6.63e-4 10.492,-7.29e-4 15.73813,-6.24e-4 -0.12367,0.01323 -0.94471,-0.009 -1.09244,0.0045"
       style="fill:none;fill-rule:evenodd;stroke:#000000;stroke-width:1;stroke-linecap:butt;stroke-linejoin:miter;stroke-miterlimit:4;stroke-dasharray:none;stroke-opacity:1" />
    <path
       style="fill:none;fill-rule:evenodd;stroke:#000000;stroke-width:0.90853405;stroke-linecap:butt;stroke-linejoin:miter;stroke-miterlimit:4;stroke-dasharray:none;stroke-opacity:1"
       d="m -0.50143639,72.345097 c 0.001757,-4.023407 0.002166,-8.058185 0.002765,-12.08829 -0.001143,-5.528606 -0.004998,-11.053712 -0.003337,-16.59148 0.003153,-3.974539 0.006616,-7.95571 0.005704,-11.951309 2.3242e-4,-1.418448 3.6533e-4,-2.837034 5.959e-4,-4.255595 -0.001152,0.03338 7.2014e-4,0.255482 -4.1186e-4,0.295373"
       id="path5646"
       inkscape:connector-curvature="0"
       inkscape:transform-center-x="-8.1332299"
       inkscape:transform-center-y="0.76185123" />
    <text
       xml:space="preserve"
       style="font-style:normal;font-weight:normal;font-size:15px;line-height:125%;font-family:sans-serif;letter-spacing:0px;word-spacing:0px;fill:#000000;fill-opacity:1;stroke:none;stroke-width:1px;stroke-linecap:butt;stroke-linejoin:miter;stroke-opacity:1"
       x="4.0896988"
       y="27.384138"
       id="text5648"
       sodipodi:linespacing="125%"><tspan
         sodipodi:role="line"
         id="tspan5650"
         x="4.0896988"
         y="27.384138"
         style="font-style:italic;font-variant:normal;font-weight:normal;font-stretch:normal;font-size:15px;font-family:'Myriad Pro';-inkscape-font-specification:'Myriad Pro Italic'">A</tspan></text>
    <text
       sodipodi:linespacing="125%"
       id="text5652"
       y="152.31914"
       x="142.72855"
       style="font-style:normal;font-weight:normal;font-size:15px;line-height:125%;font-family:sans-serif;letter-spacing:0px;word-spacing:0px;fill:#000000;fill-opacity:1;stroke:none;stroke-width:1px;stroke-linecap:butt;stroke-linejoin:miter;stroke-opacity:1"
       xml:space="preserve"><tspan
         style="font-style:italic;font-variant:normal;font-weight:normal;font-stretch:normal;font-size:15px;font-family:'Myriad Pro';-inkscape-font-specification:'Myriad Pro Italic'"
         y="152.31914"
         x="142.72855"
         id="tspan5654"
         sodipodi:role="line">E</tspan></text>
    <text
       xml:space="preserve"
       style="font-style:normal;font-weight:normal;font-size:15px;line-height:125%;font-family:sans-serif;letter-spacing:0px;word-spacing:0px;fill:#000000;fill-opacity:1;stroke:none;stroke-width:1px;stroke-linecap:butt;stroke-linejoin:miter;stroke-opacity:1"
       x="154.25047"
       y="27.301197"
       id="text5656"
       sodipodi:linespacing="125%"><tspan
         sodipodi:role="line"
         id="tspan5658"
         x="154.25047"
         y="27.301197"
         style="font-style:italic;font-variant:normal;font-weight:normal;font-stretch:normal;font-size:15px;font-family:'Myriad Pro';-inkscape-font-specification:'Myriad Pro Italic'">B</tspan></text>
    <text
       sodipodi:linespacing="125%"
       id="text5662"
       y="27.283247"
       x="399.33136"
       style="font-style:normal;font-weight:normal;font-size:15px;line-height:125%;font-family:sans-serif;letter-spacing:0px;word-spacing:0px;fill:#000000;fill-opacity:1;stroke:none;stroke-width:1px;stroke-linecap:butt;stroke-linejoin:miter;stroke-opacity:1"
       xml:space="preserve"><tspan
         style="font-style:italic;font-variant:normal;font-weight:normal;font-stretch:normal;font-size:15px;font-family:'Myriad Pro';-inkscape-font-specification:'Myriad Pro Italic'"
         y="27.283247"
         x="399.33136"
         id="tspan5664"
         sodipodi:role="line">D</tspan></text>
    <text
       xml:space="preserve"
       style="font-style:normal;font-weight:normal;font-size:15px;line-height:125%;font-family:sans-serif;letter-spacing:0px;word-spacing:0px;fill:#000000;fill-opacity:1;stroke:none;stroke-width:1px;stroke-linecap:butt;stroke-linejoin:miter;stroke-opacity:1"
       x="248.33812"
       y="27.196592"
       id="text5666"
       sodipodi:linespacing="125%"><tspan
         sodipodi:role="line"
         id="tspan5668"
         x="248.33812"
         y="27.196592"
         style="font-style:italic;font-variant:normal;font-weight:normal;font-stretch:normal;font-size:15px;font-family:'Myriad Pro';-inkscape-font-specification:'Myriad Pro Italic'">C</tspan></text>
    <text
       sodipodi:linespacing="125%"
       id="text5695"
       y="207.27953"
       x="3.398833"
       style="font-style:normal;font-weight:normal;font-size:15px;line-height:125%;font-family:sans-serif;letter-spacing:0px;word-spacing:0px;fill:#000000;fill-opacity:1;stroke:none;stroke-width:1px;stroke-linecap:butt;stroke-linejoin:miter;stroke-opacity:1"
       xml:space="preserve"><tspan
         style="font-style:italic;font-variant:normal;font-weight:normal;font-stretch:normal;font-size:15px;font-family:'Myriad Pro';-inkscape-font-specification:'Myriad Pro Italic'"
         y="207.27953"
         x="3.398833"
         id="tspan5697"
         sodipodi:role="line">G</tspan></text>
    <text
       xml:space="preserve"
       style="font-style:normal;font-weight:normal;font-size:15px;line-height:125%;font-family:sans-serif;letter-spacing:0px;word-spacing:0px;fill:#000000;fill-opacity:1;stroke:none;stroke-width:1px;stroke-linecap:butt;stroke-linejoin:miter;stroke-opacity:1"
       x="93.771233"
       y="207.41322"
       id="text5699"
       sodipodi:linespacing="125%"><tspan
         sodipodi:role="line"
         id="tspan5701"
         x="93.771233"
         y="207.41322"
         style="font-style:italic;font-variant:normal;font-weight:normal;font-stretch:normal;font-size:15px;font-family:'Myriad Pro';-inkscape-font-specification:'Myriad Pro Italic'">H</tspan></text>
    <text
       sodipodi:linespacing="125%"
       id="text5703"
       y="332.38943"
       x="82.479492"
       style="font-style:normal;font-weight:normal;font-size:15px;line-height:125%;font-family:sans-serif;letter-spacing:0px;word-spacing:0px;fill:#000000;fill-opacity:1;stroke:none;stroke-width:1px;stroke-linecap:butt;stroke-linejoin:miter;stroke-opacity:1"
       xml:space="preserve"><tspan
         style="font-style:italic;font-variant:normal;font-weight:normal;font-stretch:normal;font-size:15px;font-family:'Myriad Pro';-inkscape-font-specification:'Myriad Pro Italic'"
         y="332.38943"
         x="82.479492"
         id="tspan5705"
         sodipodi:role="line">K</tspan></text>
    <text
       xml:space="preserve"
       style="font-style:italic;font-variant:normal;font-weight:normal;font-stretch:normal;font-size:15px;line-height:125%;font-family:sans-serif;-inkscape-font-specification:'sans-serif Italic';letter-spacing:0px;word-spacing:0px;fill:#000000;fill-opacity:1;stroke:none;stroke-width:1px;stroke-linecap:butt;stroke-linejoin:miter;stroke-opacity:1"
       x="399.06131"
       y="207.44759"
       id="text5709"
       sodipodi:linespacing="125%"><tspan
         sodipodi:role="line"
         id="tspan5711"
         x="399.06131"
         y="207.44759"
         style="font-style:italic;font-variant:normal;font-weight:normal;font-stretch:normal;font-size:15px;font-family:'Myriad Pro';-inkscape-font-specification:'Myriad Pro Italic'">Q</tspan></text>
    <text
       sodipodi:linespacing="125%"
       id="text5713"
       y="207.43489"
       x="248.31258"
       style="font-style:normal;font-weight:normal;font-size:15px;line-height:125%;font-family:sans-serif;letter-spacing:0px;word-spacing:0px;fill:#000000;fill-opacity:1;stroke:none;stroke-width:1px;stroke-linecap:butt;stroke-linejoin:miter;stroke-opacity:1"
       xml:space="preserve"><tspan
         style="font-style:italic;font-variant:normal;font-weight:normal;font-stretch:normal;font-size:15px;font-family:'Myriad Pro';-inkscape-font-specification:'Myriad Pro Italic'"
         y="207.43489"
         x="248.31258"
         id="tspan5715"
         sodipodi:role="line">P</tspan></text>
    <text
       sodipodi:linespacing="125%"
       id="text5723"
       y="332.44354"
       x="388.15182"
       style="font-style:italic;font-variant:normal;font-weight:normal;font-stretch:normal;font-size:15px;line-height:125%;font-family:sans-serif;-inkscape-font-specification:'sans-serif Italic';letter-spacing:0px;word-spacing:0px;fill:#000000;fill-opacity:1;stroke:none;stroke-width:1px;stroke-linecap:butt;stroke-linejoin:miter;stroke-opacity:1"
       xml:space="preserve"><tspan
         style="font-style:italic;font-variant:normal;font-weight:normal;font-stretch:normal;font-size:15px;font-family:'Myriad Pro';-inkscape-font-specification:'Myriad Pro Italic'"
         y="332.44354"
         x="388.15182"
         id="tspan5725"
         sodipodi:role="line">R</tspan></text>
    <text
       xml:space="preserve"
       style="font-style:italic;font-variant:normal;font-weight:normal;font-stretch:normal;font-size:15px;line-height:125%;font-family:sans-serif;-inkscape-font-specification:'sans-serif Italic';letter-spacing:0px;word-spacing:0px;fill:#000000;fill-opacity:1;stroke:none;stroke-width:1px;stroke-linecap:butt;stroke-linejoin:miter;stroke-opacity:1"
       x="387.83582"
       y="152.57727"
       id="text4178"
       sodipodi:linespacing="125%"><tspan
         sodipodi:role="line"
         id="tspan4180"
         x="387.83582"
         y="152.57727"
         style="font-style:italic;font-variant:normal;font-weight:normal;font-stretch:normal;font-size:15px;font-family:'Myriad Pro';-inkscape-font-specification:'Myriad Pro Italic'">F</tspan></text>
    <path
       style="fill:none;fill-rule:evenodd;stroke:#000000;stroke-width:1;stroke-linecap:butt;stroke-linejoin:miter;stroke-miterlimit:4;stroke-dasharray:none;stroke-opacity:1"
       d="m 165.57132,67.326577 c -5.1e-4,-3.131602 -0.002,-6.272059 -0.004,-9.408886 -0.004,-4.303172 -0.0109,-8.603636 -0.012,-12.913942 0.001,-3.093562 0.003,-6.192295 -5e-4,-9.302258 -6e-5,-1.104048 -0.001,-2.208197 -0.001,-3.312331 -0.001,0.02603 6.5e-4,0.198848 -2.6e-4,0.229898"
       id="path4180"
       inkscape:connector-curvature="0" />
    <path
       inkscape:connector-curvature="0"
       id="path4182"
       d="m 165.54524,137.42045 c 0.002,-6.28539 0.004,-12.5886 0.006,-18.88449 -3.1e-4,-8.63686 -0.003,-17.2683 -3e-4,-25.919472 0.004,-6.209052 0.009,-12.428481 0.009,-18.670467 6.4e-4,-2.215922 7.8e-4,-4.432055 0.002,-6.648148 -9.9e-4,0.05226 9.9e-4,0.399111 -8.9e-4,0.461425"
       style="fill:none;fill-rule:evenodd;stroke:#000000;stroke-width:1;stroke-linecap:butt;stroke-linejoin:miter;stroke-miterlimit:4;stroke-dasharray:none;stroke-dashoffset:0;stroke-opacity:1" />
    <path
       style="opacity:1;fill:none;fill-opacity:1;stroke:#000000;stroke-width:2;stroke-linecap:round;stroke-linejoin:round;stroke-miterlimit:4;stroke-dasharray:none;stroke-dashoffset:0;stroke-opacity:1"
       id="path4195"
       sodipodi:type="arc"
       sodipodi:cx="165.47687"
       sodipodi:cy="147.4211"
       sodipodi:rx="9.5422001"
       sodipodi:ry="9.5051842"
       sodipodi:start="3.2783043"
       sodipodi:end="3.2752565"
       d="m 156.0237,146.12567 a 9.5422001,9.5051842 0 0 1 10.74643,-8.12205 9.5422001,9.5051842 0 0 1 8.16188,10.69855 9.5422001,9.5051842 0 0 1 -10.734,8.13836 9.5422001,9.5051842 0 0 1 -8.17823,-10.68615"
       sodipodi:open="true"
       inkscape:transform-center-x="-54.224205"
       inkscape:transform-center-y="22.001363" />
    <path
       inkscape:connector-curvature="0"
       id="path4217"
       d="m 245.04912,32.957386 c 14.80808,-0.01428 29.65774,-0.01327 44.49025,-0.01461 20.34726,0.01966 40.68107,0.0691 61.06256,0.05806 14.62853,-0.02964 29.28151,-0.06183 43.98672,-0.04702 5.2205,-6.02e-4 10.44149,-6.62e-4 15.66239,-5.66e-4 -0.12305,0.01205 -0.94014,-0.0082 -1.08717,0.0041"
       style="fill:none;fill-rule:evenodd;stroke:#000000;stroke-width:1.00033784;stroke-linecap:butt;stroke-linejoin:miter;stroke-miterlimit:4;stroke-dasharray:none;stroke-opacity:1" />
    <path
       style="fill:none;fill-rule:evenodd;stroke:#000000;stroke-width:1;stroke-linecap:butt;stroke-linejoin:miter;stroke-miterlimit:4;stroke-dasharray:none;stroke-opacity:1"
       d="m 244.9697,66.922256 c 14.87968,-0.0157 29.80113,-0.01458 44.70535,-0.01606 20.44563,0.02161 40.87775,0.07596 61.35778,0.06382 14.69924,-0.03255 29.42306,-0.06796 44.19938,-0.05167 5.24573,-6.63e-4 10.492,-7.29e-4 15.73813,-6.24e-4 -0.12367,0.01323 -0.94471,-0.009 -1.09244,0.0045"
       id="path4219"
       inkscape:connector-curvature="0" />
    <path
       inkscape:transform-center-y="0.76185123"
       inkscape:transform-center-x="-8.1332299"
       inkscape:connector-curvature="0"
       id="path4221"
       d="m 244.54843,72.408232 c 0.002,-4.023407 0.002,-8.058185 0.003,-12.08829 -0.001,-5.528606 -0.005,-11.053712 -0.003,-16.59148 0.003,-3.974539 0.007,-7.95571 0.006,-11.951309 2.3e-4,-1.418448 3.7e-4,-2.837034 6e-4,-4.255595 -10e-4,0.03338 7.2e-4,0.255482 -4.2e-4,0.295373"
       style="fill:none;fill-rule:evenodd;stroke:#000000;stroke-width:0.90853405;stroke-linecap:butt;stroke-linejoin:miter;stroke-miterlimit:4;stroke-dasharray:none;stroke-opacity:1" />
    <path
       inkscape:connector-curvature="0"
       id="path4223"
       d="m 410.62118,67.389712 c -5.1e-4,-3.131602 -0.002,-6.272059 -0.004,-9.408886 -0.004,-4.303172 -0.0109,-8.603636 -0.012,-12.913942 10e-4,-3.093562 0.003,-6.192295 -5e-4,-9.302258 -6e-5,-1.104048 -10e-4,-2.208197 -10e-4,-3.312331 -10e-4,0.02603 6.5e-4,0.198848 -2.6e-4,0.229898"
       style="fill:none;fill-rule:evenodd;stroke:#000000;stroke-width:1;stroke-linecap:butt;stroke-linejoin:miter;stroke-miterlimit:4;stroke-dasharray:none;stroke-opacity:1" />
    <path
       style="fill:none;fill-rule:evenodd;stroke:#000000;stroke-width:1;stroke-linecap:butt;stroke-linejoin:miter;stroke-miterlimit:4;stroke-dasharray:none;stroke-dashoffset:0;stroke-opacity:1"
       d="m 410.5951,137.48358 c 0.002,-6.28539 0.004,-12.5886 0.006,-18.88449 -3.1e-4,-8.63686 -0.003,-17.2683 -3e-4,-25.919467 0.004,-6.209052 0.009,-12.428481 0.009,-18.670467 6.4e-4,-2.215922 7.8e-4,-4.432055 0.002,-6.648148 -9.9e-4,0.05226 9.9e-4,0.399111 -8.9e-4,0.461425"
       id="path4225"
       inkscape:connector-curvature="0" />
    <path
       inkscape:transform-center-y="22.001363"
       inkscape:transform-center-x="-54.224205"
       sodipodi:open="true"
       d="m 401.07354,146.18883 a 9.5422001,9.5051842 0 0 1 10.74643,-8.12206 9.5422001,9.5051842 0 0 1 8.16187,10.69856 9.5422001,9.5051842 0 0 1 -10.734,8.13836 9.5422001,9.5051842 0 0 1 -8.17822,-10.68616"
       sodipodi:end="3.2752565"
       sodipodi:start="3.2783043"
       sodipodi:ry="9.5051842"
       sodipodi:rx="9.5422001"
       sodipodi:cy="147.48425"
       sodipodi:cx="410.5267"
       sodipodi:type="arc"
       id="path4227"
       style="opacity:1;fill:none;fill-opacity:1;stroke:#000000;stroke-width:2;stroke-linecap:round;stroke-linejoin:round;stroke-miterlimit:4;stroke-dasharray:none;stroke-dashoffset:0;stroke-opacity:1" />
    <path
       inkscape:connector-curvature="0"
       id="path4229"
       d="m -0.00121836,212.87356 c 9.41566006,-0.009 18.85775636,-0.008 28.28894636,-0.009 12.93772,0.0125 25.866891,0.0438 38.82638,0.0368 9.30149,-0.0188 18.618528,-0.0391 27.968775,-0.0298 3.31944,-3.8e-4 6.639177,-4.2e-4 9.958867,-3.5e-4 -0.0782,0.007 -0.59779,-0.005 -0.69127,0.003"
       style="fill:none;fill-rule:evenodd;stroke:#000000;stroke-width:1;stroke-linecap:butt;stroke-linejoin:miter;stroke-miterlimit:4;stroke-dasharray:none;stroke-opacity:1" />
    <path
       style="fill:none;fill-rule:evenodd;stroke:#000000;stroke-width:1;stroke-linecap:butt;stroke-linejoin:miter;stroke-miterlimit:4;stroke-dasharray:none;stroke-opacity:1"
       d="m -0.08072563,246.83901 c 9.42341273,-0.01 18.87328363,-0.009 28.31223663,-0.0102 12.948372,0.0136 25.88819,0.0479 38.858347,0.0402 9.30914,-0.0205 18.633846,-0.0428 27.991796,-0.0326 3.322164,-4.2e-4 6.644666,-4.6e-4 9.967086,-3.9e-4 -0.0784,0.008 -0.5983,-0.005 -0.69186,0.003"
       id="path4231"
       inkscape:connector-curvature="0" />
    <path
       inkscape:transform-center-y="0.76185123"
       inkscape:transform-center-x="-8.1332299"
       inkscape:connector-curvature="0"
       id="path4233"
       d="m -0.50143639,252.31881 c 0.001757,-4.02341 0.002166,-8.05818 0.002765,-12.08829 -0.001143,-5.52861 -0.004998,-11.05371 -0.003337,-16.59148 0.003153,-3.97454 0.006616,-7.95571 0.005704,-11.95131 2.3242e-4,-1.41845 3.6533e-4,-2.83703 5.959e-4,-4.25559 -0.001152,0.0334 7.2014e-4,0.25548 -4.1186e-4,0.29537"
       style="fill:none;fill-rule:evenodd;stroke:#000000;stroke-width:0.90853405;stroke-linecap:butt;stroke-linejoin:miter;stroke-miterlimit:4;stroke-dasharray:none;stroke-opacity:1" />
    <path
       inkscape:connector-curvature="0"
       id="path4235"
       d="m 105.6606,247.30029 c -5.1e-4,-3.1316 -0.002,-6.27206 -0.004,-9.40889 -0.004,-4.30317 -0.0109,-8.60363 -0.012,-12.91394 0.001,-3.09356 0.003,-6.19229 -5e-4,-9.30226 -6e-5,-1.10404 -10e-4,-2.20819 -10e-4,-3.31233 -0.001,0.026 6.5e-4,0.19885 -2.6e-4,0.2299"
       style="fill:none;fill-rule:evenodd;stroke:#000000;stroke-width:1;stroke-linecap:butt;stroke-linejoin:miter;stroke-miterlimit:4;stroke-dasharray:none;stroke-opacity:1" />
    <path
       style="fill:none;fill-rule:evenodd;stroke:#000000;stroke-width:1;stroke-linecap:butt;stroke-linejoin:miter;stroke-miterlimit:4;stroke-dasharray:none;stroke-dashoffset:0;stroke-opacity:1"
       d="m 105.63452,317.39416 c 0.002,-6.28539 0.004,-12.5886 0.006,-18.88449 -3.1e-4,-8.63686 -0.003,-17.2683 -3e-4,-25.91947 0.004,-6.20905 0.009,-12.42848 0.009,-18.67047 6.4e-4,-2.21592 7.8e-4,-4.43205 0.002,-6.64814 -9.9e-4,0.0523 9.9e-4,0.39911 -8.9e-4,0.46142"
       id="path4237"
       inkscape:connector-curvature="0" />
    <path
       inkscape:transform-center-y="20.456355"
       inkscape:transform-center-x="-48.147993"
       sodipodi:open="true"
       d="m 97.172274,325.61 a 8.472929,8.8376961 0 0 1 9.542216,-7.5517 8.472929,8.8376961 0 0 1 7.24728,9.94727 8.472929,8.8376961 0 0 1 -9.53118,7.56685 8.472929,8.8376961 0 0 1 -7.261796,-9.93573"
       sodipodi:end="3.2752565"
       sodipodi:start="3.2783043"
       sodipodi:ry="8.8376961"
       sodipodi:rx="8.472929"
       sodipodi:cy="326.81445"
       sodipodi:cx="105.56615"
       sodipodi:type="arc"
       id="path4239"
       style="opacity:1;fill:none;fill-opacity:1;stroke:#000000;stroke-width:2;stroke-linecap:round;stroke-linejoin:round;stroke-miterlimit:4;stroke-dasharray:none;stroke-dashoffset:0;stroke-opacity:1" />
    <path
       style="fill:none;fill-rule:evenodd;stroke:#000000;stroke-width:1.00033784;stroke-linecap:butt;stroke-linejoin:miter;stroke-miterlimit:4;stroke-dasharray:none;stroke-opacity:1"
       d="m 245.04912,212.9311 c 14.80808,-0.0143 29.65774,-0.0133 44.49025,-0.0146 20.34726,0.0197 40.68107,0.0691 61.06256,0.0581 14.62853,-0.0296 29.28151,-0.0618 43.98672,-0.047 5.2205,-6e-4 10.44149,-6.6e-4 15.66239,-5.7e-4 -0.12305,0.0121 -0.94014,-0.008 -1.08717,0.004"
       id="path4241"
       inkscape:connector-curvature="0" />
    <path
       inkscape:connector-curvature="0"
       id="path4243"
       d="m 244.9697,231.89597 c 14.87968,-0.0157 29.80113,-0.0146 44.70535,-0.0161 20.44563,0.0216 40.87775,0.076 61.35778,0.0638 14.69924,-0.0325 29.42306,-0.068 44.19938,-0.0517 5.24573,-6.6e-4 10.492,-7.3e-4 15.73813,-6.2e-4 -0.12367,0.0132 -0.94471,-0.009 -1.09244,0.005"
       style="fill:none;fill-rule:evenodd;stroke:#000000;stroke-width:1;stroke-linecap:butt;stroke-linejoin:miter;stroke-miterlimit:4;stroke-dasharray:none;stroke-opacity:1" />
    <path
       style="fill:none;fill-rule:evenodd;stroke:#000000;stroke-width:1;stroke-linecap:butt;stroke-linejoin:miter;stroke-miterlimit:4;stroke-dasharray:none;stroke-opacity:1"
       d="m 244.54948,237.47134 c 0.002,-2.68737 0.002,-5.38232 0.002,-8.07415 -6.7e-4,-3.69273 -0.003,-7.38313 -0.002,-11.08197 0.002,-2.65471 0.004,-5.31386 0.004,-7.98264 1.5e-4,-0.94743 2.5e-4,-1.89495 4e-4,-2.84245 -6.7e-4,0.0223 4.8e-4,0.17064 -2.8e-4,0.19728"
       id="path4245"
       inkscape:connector-curvature="0"
       inkscape:transform-center-x="-5.4324882"
       inkscape:transform-center-y="0.50886957" />
    <path
       style="fill:none;fill-rule:evenodd;stroke:#000000;stroke-width:1;stroke-linecap:butt;stroke-linejoin:miter;stroke-miterlimit:4;stroke-dasharray:none;stroke-opacity:1"
       d="m 410.62118,247.36343 c -5.1e-4,-3.13161 -0.002,-6.27206 -0.004,-9.40889 -0.004,-4.30317 -0.0109,-8.60364 -0.012,-12.91394 10e-4,-3.09356 0.003,-6.1923 -5e-4,-9.30226 -6e-5,-1.10405 -10e-4,-2.2082 -10e-4,-3.31233 -10e-4,0.026 6.5e-4,0.19885 -2.6e-4,0.2299"
       id="path4247"
       inkscape:connector-curvature="0" />
    <path
       inkscape:connector-curvature="0"
       id="path4249"
       d="m 410.5951,317.45729 c 0.002,-6.28539 0.004,-12.5886 0.006,-18.88449 -3.1e-4,-8.63686 -0.003,-17.2683 -3e-4,-25.91946 0.004,-6.20906 0.009,-12.42848 0.009,-18.67047 6.4e-4,-2.21592 7.8e-4,-4.43206 0.002,-6.64815 -9.9e-4,0.0523 9.9e-4,0.39911 -8.9e-4,0.46143"
       style="fill:none;fill-rule:evenodd;stroke:#000000;stroke-width:1;stroke-linecap:butt;stroke-linejoin:miter;stroke-miterlimit:4;stroke-dasharray:none;stroke-dashoffset:0;stroke-opacity:1" />
    <path
       style="opacity:1;fill:none;fill-opacity:1;stroke:#000000;stroke-width:2;stroke-linecap:round;stroke-linejoin:round;stroke-miterlimit:4;stroke-dasharray:none;stroke-dashoffset:0;stroke-opacity:1"
       id="path4184"
       sodipodi:type="arc"
       sodipodi:cx="410.38754"
       sodipodi:cy="326.63586"
       sodipodi:rx="8.472929"
       sodipodi:ry="8.8376961"
       sodipodi:start="3.2783043"
       sodipodi:end="3.2752565"
       d="m 401.99367,325.43141 a 8.472929,8.8376961 0 0 1 9.54222,-7.5517 8.472929,8.8376961 0 0 1 7.24728,9.94727 8.472929,8.8376961 0 0 1 -9.53118,7.56685 8.472929,8.8376961 0 0 1 -7.2618,-9.93573"
       sodipodi:open="true"
       inkscape:transform-center-x="-48.147993"
       inkscape:transform-center-y="20.456355" />
  </g>
</svg>
