<?xml version="1.0" encoding="UTF-8" standalone="no"?>
<!-- Created with Inkscape (http://www.inkscape.org/) -->

<svg
   xmlns:osb="http://www.openswatchbook.org/uri/2009/osb"
   xmlns:dc="http://purl.org/dc/elements/1.1/"
   xmlns:cc="http://creativecommons.org/ns#"
   xmlns:rdf="http://www.w3.org/1999/02/22-rdf-syntax-ns#"
   xmlns:svg="http://www.w3.org/2000/svg"
   xmlns="http://www.w3.org/2000/svg"
   xmlns:sodipodi="http://sodipodi.sourceforge.net/DTD/sodipodi-0.dtd"
   xmlns:inkscape="http://www.inkscape.org/namespaces/inkscape"
   sodipodi:docname="LH035,09,15_008-009_d-2.svg"
   inkscape:version="0.91 r13725"
   version="1.1"
   id="svg3338"
   viewBox="0 0 744.09448819 1052.3622047"
   height="297mm"
   width="210mm">
  <defs
     id="defs3340">
    <linearGradient
       id="linearGradient5594"
       osb:paint="solid">
      <stop
         style="stop-color:#000000;stop-opacity:1;"
         offset="0"
         id="stop5596" />
    </linearGradient>
  </defs>
  <sodipodi:namedview
     inkscape:snap-global="false"
     inkscape:snap-bbox="true"
     inkscape:window-maximized="1"
     inkscape:window-y="1"
     inkscape:window-x="2960"
     inkscape:window-height="1033"
     inkscape:window-width="2048"
     showguides="true"
     showgrid="true"
     inkscape:current-layer="layer1"
     inkscape:document-units="px"
     inkscape:cy="841.2414"
     inkscape:cx="104.14016"
     inkscape:zoom="1.979899"
     inkscape:pageshadow="2"
     inkscape:pageopacity="0.0"
     borderopacity="1.0"
     bordercolor="#666666"
     pagecolor="#ffffff"
     id="base">
    <inkscape:grid
       type="xygrid"
       id="grid3346" />
  </sodipodi:namedview>
  <metadata
     id="metadata3343">
    <rdf:RDF>
      <cc:Work
         rdf:about="">
        <dc:format>image/svg+xml</dc:format>
        <dc:type
           rdf:resource="http://purl.org/dc/dcmitype/StillImage" />
        <dc:title />
      </cc:Work>
    </rdf:RDF>
  </metadata>
  <g
     inkscape:label="Ebene 1"
     inkscape:groupmode="layer"
     id="layer1">
    <text
       sodipodi:linespacing="125%"
       id="text5695"
       y="47.279526"
       x="3.4881186"
       style="font-style:normal;font-weight:normal;font-size:15px;line-height:125%;font-family:sans-serif;letter-spacing:0px;word-spacing:0px;fill:#000000;fill-opacity:1;stroke:none;stroke-width:1px;stroke-linecap:butt;stroke-linejoin:miter;stroke-opacity:1"
       xml:space="preserve"><tspan
         style="font-style:italic;font-variant:normal;font-weight:normal;font-stretch:normal;font-size:15px;font-family:'Myriad Pro';-inkscape-font-specification:'Myriad Pro Italic'"
         y="47.279526"
         x="3.4881186"
         id="tspan5697"
         sodipodi:role="line">A</tspan></text>
    <text
       xml:space="preserve"
       style="font-style:normal;font-weight:normal;font-size:15px;line-height:125%;font-family:sans-serif;letter-spacing:0px;word-spacing:0px;fill:#000000;fill-opacity:1;stroke:none;stroke-width:1px;stroke-linecap:butt;stroke-linejoin:miter;stroke-opacity:1"
       x="69.306946"
       y="47.413223"
       id="text5699"
       sodipodi:linespacing="125%"><tspan
         sodipodi:role="line"
         id="tspan5701"
         x="69.306946"
         y="47.413223"
         style="font-style:italic;font-variant:normal;font-weight:normal;font-stretch:normal;font-size:15px;font-family:'Myriad Pro';-inkscape-font-specification:'Myriad Pro Italic'">B</tspan></text>
    <text
       sodipodi:linespacing="125%"
       id="text5703"
       y="172.13689"
       x="57.368542"
       style="font-style:normal;font-weight:normal;font-size:15px;line-height:125%;font-family:sans-serif;letter-spacing:0px;word-spacing:0px;fill:#000000;fill-opacity:1;stroke:none;stroke-width:1px;stroke-linecap:butt;stroke-linejoin:miter;stroke-opacity:1"
       xml:space="preserve"><tspan
         style="font-style:italic;font-variant:normal;font-weight:normal;font-stretch:normal;font-size:15px;font-family:'Myriad Pro';-inkscape-font-specification:'Myriad Pro Italic'"
         y="172.13689"
         x="57.368542"
         id="tspan5705"
         sodipodi:role="line">E</tspan></text>
    <text
       xml:space="preserve"
       style="font-style:italic;font-variant:normal;font-weight:normal;font-stretch:normal;font-size:15px;line-height:125%;font-family:sans-serif;-inkscape-font-specification:'sans-serif Italic';letter-spacing:0px;word-spacing:0px;fill:#000000;fill-opacity:1;stroke:none;stroke-width:1px;stroke-linecap:butt;stroke-linejoin:miter;stroke-opacity:1"
       x="308.74216"
       y="202.31017"
       id="text5709"
       sodipodi:linespacing="125%"><tspan
         sodipodi:role="line"
         id="tspan5711"
         x="308.74216"
         y="202.31017"
         style="font-style:italic;font-variant:normal;font-weight:normal;font-stretch:normal;font-size:15px;font-family:'Myriad Pro';-inkscape-font-specification:'Myriad Pro Italic'">M</tspan></text>
    <text
       sodipodi:linespacing="125%"
       id="text5713"
       y="202.29747"
       x="3.3505845"
       style="font-style:normal;font-weight:normal;font-size:15px;line-height:125%;font-family:sans-serif;letter-spacing:0px;word-spacing:0px;fill:#000000;fill-opacity:1;stroke:none;stroke-width:1px;stroke-linecap:butt;stroke-linejoin:miter;stroke-opacity:1"
       xml:space="preserve"><tspan
         style="font-style:italic;font-variant:normal;font-weight:normal;font-stretch:normal;font-size:15px;font-family:'Myriad Pro';-inkscape-font-specification:'Myriad Pro Italic'"
         y="202.29747"
         x="3.3505845"
         id="tspan5715"
         sodipodi:role="line">L</tspan></text>
    <text
       sodipodi:linespacing="125%"
       id="text5723"
       y="327.30612"
       x="297.83267"
       style="font-style:italic;font-variant:normal;font-weight:normal;font-stretch:normal;font-size:15px;line-height:125%;font-family:sans-serif;-inkscape-font-specification:'sans-serif Italic';letter-spacing:0px;word-spacing:0px;fill:#000000;fill-opacity:1;stroke:none;stroke-width:1px;stroke-linecap:butt;stroke-linejoin:miter;stroke-opacity:1"
       xml:space="preserve"><tspan
         style="font-style:italic;font-variant:normal;font-weight:normal;font-stretch:normal;font-size:15px;font-family:'Myriad Pro';-inkscape-font-specification:'Myriad Pro Italic'"
         y="327.30612"
         x="297.83267"
         id="tspan5725"
         sodipodi:role="line">N</tspan></text>
    <path
       inkscape:connector-curvature="0"
       id="path4229"
       d="m 0.08797425,52.623294 c 7.17989055,-0.0069 14.37993975,-0.0063 21.57167275,-0.007 9.865629,0.0096 19.724739,0.03338 29.606969,0.02804 7.09283,-0.0143 14.197516,-0.02985 21.327528,-0.0227 2.531232,-2.93e-4 5.062691,-3.2e-4 7.59411,-2.71e-4 -0.05962,0.0054 -0.455838,-0.0042 -0.527126,0.002"
       style="fill:none;fill-rule:evenodd;stroke:#000000;stroke-width:1;stroke-linecap:butt;stroke-linejoin:miter;stroke-miterlimit:4;stroke-dasharray:none;stroke-opacity:1" />
    <path
       style="fill:none;fill-rule:evenodd;stroke:#000000;stroke-width:1;stroke-linecap:butt;stroke-linejoin:miter;stroke-miterlimit:4;stroke-dasharray:none;stroke-opacity:1"
       d="m 0.00844725,72.951897 c 7.19152075,-0.0076 14.40323275,-0.007 21.60661275,-0.0078 9.88161,0.01034 19.756691,0.03654 29.654925,0.03066 7.104314,-0.01565 14.220505,-0.03267 21.36207,-0.02485 2.535325,-3.19e-4 5.070906,-3.47e-4 7.606425,-2.98e-4 -0.05979,0.0062 -0.456592,-0.0042 -0.527992,0.002"
       id="path4231"
       inkscape:connector-curvature="0" />
    <path
       inkscape:transform-center-y="0.5219047"
       inkscape:transform-center-x="-5.5716539"
       inkscape:connector-curvature="0"
       id="path4233"
       d="m -0.41136873,77.924199 c 0.001204,-2.75623 0.001484,-5.520241 0.001894,-8.28106 -7.8301e-4,-3.787364 -0.003424,-7.572324 -0.002286,-11.365962 0.00216,-2.722752 0.004532,-5.450045 0.003908,-8.187223 1.5922e-4,-0.971706 2.5027e-4,-1.943502 4.0822e-4,-2.915284 -7.8918e-4,0.02288 4.9333e-4,0.175016 -2.8215e-4,0.202343"
       style="fill:none;fill-rule:evenodd;stroke:#000000;stroke-width:1;stroke-linecap:butt;stroke-linejoin:miter;stroke-miterlimit:4;stroke-dasharray:none;stroke-opacity:1" />
    <path
       inkscape:connector-curvature="0"
       id="path4235"
       d="m 80.549656,87.047752 c -5.1e-4,-3.1316 -0.002,-6.27206 -0.004,-9.40889 -0.004,-4.30317 -0.0109,-8.60363 -0.012,-12.91394 0.001,-3.09356 0.003,-6.19229 -5e-4,-9.30226 -6e-5,-1.10404 -0.001,-2.20819 -0.001,-3.31233 -0.001,0.026 6.5e-4,0.19885 -2.6e-4,0.2299"
       style="fill:none;fill-rule:evenodd;stroke:#000000;stroke-width:1;stroke-linecap:butt;stroke-linejoin:miter;stroke-miterlimit:4;stroke-dasharray:none;stroke-opacity:1" />
    <path
       style="fill:none;fill-rule:evenodd;stroke:#000000;stroke-width:1;stroke-linecap:butt;stroke-linejoin:miter;stroke-miterlimit:4;stroke-dasharray:none;stroke-dashoffset:0;stroke-opacity:1"
       d="m 80.523576,157.14162 c 0.002,-6.28539 0.004,-12.5886 0.006,-18.88449 -3.1e-4,-8.63686 -0.003,-17.2683 -3e-4,-25.91947 0.004,-6.20905 0.009,-12.428477 0.009,-18.670468 6.4e-4,-2.21592 7.8e-4,-4.43205 0.002,-6.64814 -9.9e-4,0.0523 9.9e-4,0.39911 -8.9e-4,0.46142"
       id="path4237"
       inkscape:connector-curvature="0" />
    <path
       inkscape:transform-center-y="20.456355"
       inkscape:transform-center-x="-48.147993"
       sodipodi:open="true"
       d="m 72.061328,165.35745 a 8.472929,8.8376961 0 0 1 9.542219,-7.5517 8.472929,8.8376961 0 0 1 7.247276,9.94727 8.472929,8.8376961 0 0 1 -9.531176,7.56685 8.472929,8.8376961 0 0 1 -7.2618,-9.93573"
       sodipodi:end="3.2752565"
       sodipodi:start="3.2783043"
       sodipodi:ry="8.8376961"
       sodipodi:rx="8.472929"
       sodipodi:cy="166.5619"
       sodipodi:cx="80.4552"
       sodipodi:type="arc"
       id="path4239"
       style="opacity:1;fill:none;fill-opacity:1;stroke:#000000;stroke-width:2;stroke-linecap:round;stroke-linejoin:round;stroke-miterlimit:4;stroke-dasharray:none;stroke-dashoffset:0;stroke-opacity:1" />
    <path
       style="fill:none;fill-rule:evenodd;stroke:#000000;stroke-width:1;stroke-linecap:butt;stroke-linejoin:miter;stroke-miterlimit:4;stroke-dasharray:none;stroke-opacity:1"
       d="m 0.08758134,207.77939 c 28.69754066,-0.0277 57.47566366,-0.0258 86.22054966,-0.0282 39.432279,0.0382 78.838489,0.13392 118.337099,0.1126 28.3496,-0.0574 56.74656,-0.11976 85.24474,-0.091 10.11714,-9.5e-4 20.23525,-9.5e-4 30.35316,-9.5e-4 -0.23846,0.0234 -1.82195,-0.0154 -2.1069,0.008"
       id="path4241"
       inkscape:connector-curvature="0" />
    <path
       inkscape:connector-curvature="0"
       id="path4243"
       d="M 0.00819845,217.8298 C 28.713012,217.7995 57.498406,217.8016 86.25056,217.7987 c 39.44225,0.0417 78.85843,0.14662 118.36704,0.12308 28.35673,-0.0627 56.76087,-0.13118 85.26628,-0.0997 10.11969,-0.001 20.24042,-0.001 30.36088,-0.001 -0.23858,0.0255 -1.82247,-0.0174 -2.10746,0.01"
       style="fill:none;fill-rule:evenodd;stroke:#000000;stroke-width:1;stroke-linecap:butt;stroke-linejoin:miter;stroke-miterlimit:4;stroke-dasharray:none;stroke-opacity:1" />
    <path
       style="fill:none;fill-rule:evenodd;stroke:#000000;stroke-width:1;stroke-linecap:butt;stroke-linejoin:miter;stroke-miterlimit:4;stroke-dasharray:none;stroke-opacity:1"
       d="m -0.41187563,223.70461 c 0.001214,-1.90426 0.001214,-3.8139 0.001214,-5.72129 -4.7373e-4,-2.61665 -0.00243,-5.23164 -0.001214,-7.8526 0.001214,-1.88112 0.003036,-3.76537 0.003036,-5.65647 1.0934e-4,-0.67132 1.7613e-4,-1.34273 2.8547e-4,-2.01412 -4.7374e-4,0.0158 3.4011e-4,0.12091 -2.0042e-4,0.13977"
       id="path4245"
       inkscape:connector-curvature="0"
       inkscape:transform-center-x="-3.8494174"
       inkscape:transform-center-y="0.3605927" />
    <path
       style="fill:none;fill-rule:evenodd;stroke:#000000;stroke-width:1;stroke-linecap:butt;stroke-linejoin:miter;stroke-miterlimit:4;stroke-dasharray:none;stroke-opacity:1"
       d="m 320.30204,242.22601 c -5.1e-4,-3.13161 -0.002,-6.27206 -0.004,-9.40889 -0.004,-4.30317 -0.0109,-8.60364 -0.012,-12.91394 10e-4,-3.09356 0.003,-6.1923 -5e-4,-9.30226 -6e-5,-1.10405 -0.001,-2.2082 -0.001,-3.31233 -10e-4,0.026 6.5e-4,0.19885 -2.6e-4,0.2299"
       id="path4247"
       inkscape:connector-curvature="0" />
    <path
       inkscape:connector-curvature="0"
       id="path4249"
       d="m 320.27596,312.31987 c 0.002,-6.28539 0.004,-12.5886 0.006,-18.88449 -3.1e-4,-8.63686 -0.003,-17.2683 -3e-4,-25.91946 0.004,-6.20906 0.009,-12.42848 0.009,-18.67047 6.4e-4,-2.21592 7.8e-4,-4.43206 0.002,-6.64815 -9.9e-4,0.0523 9.9e-4,0.39911 -8.9e-4,0.46143"
       style="fill:none;fill-rule:evenodd;stroke:#000000;stroke-width:1;stroke-linecap:butt;stroke-linejoin:miter;stroke-miterlimit:4;stroke-dasharray:none;stroke-dashoffset:0;stroke-opacity:1" />
    <path
       style="opacity:1;fill:none;fill-opacity:1;stroke:#000000;stroke-width:2;stroke-linecap:round;stroke-linejoin:round;stroke-miterlimit:4;stroke-dasharray:none;stroke-dashoffset:0;stroke-opacity:1"
       id="path4184"
       sodipodi:type="arc"
       sodipodi:cx="320.06839"
       sodipodi:cy="321.49844"
       sodipodi:rx="8.472929"
       sodipodi:ry="8.8376961"
       sodipodi:start="3.2783043"
       sodipodi:end="3.2752565"
       d="m 311.67452,320.29399 a 8.472929,8.8376961 0 0 1 9.54222,-7.5517 8.472929,8.8376961 0 0 1 7.24727,9.94727 8.472929,8.8376961 0 0 1 -9.53117,7.56685 8.472929,8.8376961 0 0 1 -7.2618,-9.93573"
       sodipodi:open="true"
       inkscape:transform-center-x="-48.147993"
       inkscape:transform-center-y="20.456355" />
    <text
       xml:space="preserve"
       style="font-style:normal;font-weight:normal;font-size:40px;line-height:125%;font-family:sans-serif;letter-spacing:0px;word-spacing:0px;fill:#000000;fill-opacity:1;stroke:none;stroke-width:1px;stroke-linecap:butt;stroke-linejoin:miter;stroke-opacity:1"
       x="-62.857143"
       y="105.93363"
       id="text4184"
       sodipodi:linespacing="125%"><tspan
         sodipodi:role="line"
         id="tspan4186"
         x="-62.857143"
         y="105.93363" /></text>
  </g>
</svg>
