<?xml version="1.0" encoding="UTF-8" standalone="no"?>
<!-- Created with Inkscape (http://www.inkscape.org/) -->

<svg
   xmlns:osb="http://www.openswatchbook.org/uri/2009/osb"
   xmlns:dc="http://purl.org/dc/elements/1.1/"
   xmlns:cc="http://creativecommons.org/ns#"
   xmlns:rdf="http://www.w3.org/1999/02/22-rdf-syntax-ns#"
   xmlns:svg="http://www.w3.org/2000/svg"
   xmlns="http://www.w3.org/2000/svg"
   xmlns:sodipodi="http://sodipodi.sourceforge.net/DTD/sodipodi-0.dtd"
   xmlns:inkscape="http://www.inkscape.org/namespaces/inkscape"
   width="210mm"
   height="297mm"
   viewBox="0 0 744.09448819 1052.3622047"
   id="svg3338"
   version="1.1"
   inkscape:version="0.91 r13725"
   sodipodi:docname="LH035,09,15_006-007_d-2.svg">
  <defs
     id="defs3340">
    <linearGradient
       id="linearGradient5594"
       osb:paint="solid">
      <stop
         style="stop-color:#000000;stop-opacity:1;"
         offset="0"
         id="stop5596" />
    </linearGradient>
  </defs>
  <sodipodi:namedview
     id="base"
     pagecolor="#ffffff"
     bordercolor="#666666"
     borderopacity="1.0"
     inkscape:pageopacity="0.0"
     inkscape:pageshadow="2"
     inkscape:zoom="5.6"
     inkscape:cx="17.894015"
     inkscape:cy="923.85119"
     inkscape:document-units="px"
     inkscape:current-layer="layer1"
     showgrid="true"
     showguides="true"
     inkscape:window-width="2048"
     inkscape:window-height="1041"
     inkscape:window-x="2960"
     inkscape:window-y="1"
     inkscape:window-maximized="1"
     inkscape:snap-bbox="true"
     inkscape:snap-global="false">
    <inkscape:grid
       type="xygrid"
       id="grid3346" />
  </sodipodi:namedview>
  <metadata
     id="metadata3343">
    <rdf:RDF>
      <cc:Work
         rdf:about="">
        <dc:format>image/svg+xml</dc:format>
        <dc:type
           rdf:resource="http://purl.org/dc/dcmitype/StillImage" />
        <dc:title></dc:title>
      </cc:Work>
    </rdf:RDF>
  </metadata>
  <g
     inkscape:label="Ebene 1"
     inkscape:groupmode="layer"
     id="layer1">
    <path
       inkscape:connector-curvature="0"
       id="path5689"
       d="m 0.00992665,201.89894 c 17.92741635,0.0149 35.90516535,0.0138 53.86214935,0.0153 24.63341,-0.0206 49.250554,-0.0725 73.925414,-0.0609 17.71004,0.0311 35.44966,0.065 53.25254,0.0493 6.32017,6.4e-4 12.641,6.9e-4 18.96168,6e-4 -0.149,-0.0126 -1.13818,0.008 -1.31617,-0.005"
       style="fill:none;fill-rule:evenodd;stroke:#000000;stroke-width:1;stroke-linecap:butt;stroke-linejoin:miter;stroke-miterlimit:4;stroke-dasharray:none;stroke-opacity:1" />
    <path
       style="fill:none;fill-rule:evenodd;stroke:#000000;stroke-width:1;stroke-linecap:butt;stroke-linejoin:miter;stroke-miterlimit:4;stroke-dasharray:none;stroke-opacity:1"
       d="m 0.03002367,196.87508 c 4.48172083,0.0227 8.97602463,0.021 13.46513633,0.0231 6.158172,-0.0312 12.312275,-0.10944 18.480804,-0.0918 4.427377,0.0469 8.862158,0.0979 13.312741,0.0744 1.580002,9.4e-4 3.160158,0.001 4.74028,8.9e-4 -0.03725,-0.0191 -0.284533,0.0127 -0.329034,-0.007"
       id="path5691"
       inkscape:connector-curvature="0" />
    <path
       style="fill:none;fill-rule:evenodd;stroke:#000000;stroke-width:1;stroke-linecap:butt;stroke-linejoin:miter;stroke-miterlimit:4;stroke-dasharray:none;stroke-opacity:1"
       d="m 0.05458228,226.94358 c 17.92341372,0.0149 35.89714772,0.0138 53.85012272,0.0153 24.627909,-0.0206 49.239555,-0.0725 73.908905,-0.0609 17.70609,0.0311 35.44174,0.065 53.24064,0.0493 6.31877,6.4e-4 12.63819,6.9e-4 18.95746,6e-4 -0.14897,-0.0126 -1.13793,0.008 -1.31589,-0.005"
       id="path4152"
       inkscape:connector-curvature="0" />
    <path
       inkscape:connector-curvature="0"
       id="path4154"
       d="m 0.0301579,231.91973 c 4.4777132,0.0227 8.9679979,0.021 13.4530951,0.0231 6.152665,-0.0311 12.301264,-0.10948 18.464278,-0.0918 4.423418,0.0469 8.854233,0.0979 13.300836,0.0745 1.578589,9.3e-4 3.157332,9.9e-4 4.736041,8.8e-4 -0.03721,-0.0191 -0.284279,0.0127 -0.32874,-0.007"
       style="fill:none;fill-rule:evenodd;stroke:#000000;stroke-width:1;stroke-linecap:butt;stroke-linejoin:miter;stroke-miterlimit:4;stroke-dasharray:none;stroke-opacity:1" />
    <path
       inkscape:connector-curvature="0"
       id="path4156"
       d="m 50.080113,204.38074 c 9.82e-4,-0.20236 9.21e-4,-0.40529 9.82e-4,-0.60797 -0.0014,-0.27807 -0.0048,-0.55594 -0.004,-0.83446 0.0021,-0.1999 0.0043,-0.40014 0.0032,-0.60109 4.1e-5,-0.0713 4.3e-5,-0.14269 3.8e-5,-0.21404 -8.38e-4,0.002 5.57e-4,0.0128 -3.03e-4,0.0148"
       style="fill:none;fill-rule:evenodd;stroke:#000000;stroke-width:1;stroke-linecap:butt;stroke-linejoin:miter;stroke-miterlimit:4;stroke-dasharray:none;stroke-opacity:1" />
    <path
       style="fill:none;fill-rule:evenodd;stroke:#000000;stroke-width:1;stroke-linecap:butt;stroke-linejoin:miter;stroke-miterlimit:4;stroke-dasharray:none;stroke-opacity:1"
       d="m 100.03547,204.42538 c 9.8e-4,-0.20236 9.2e-4,-0.40529 9.8e-4,-0.60797 -0.001,-0.27807 -0.005,-0.55594 -0.004,-0.83446 0.002,-0.1999 0.004,-0.40014 0.003,-0.60109 4e-5,-0.0713 4e-5,-0.14269 4e-5,-0.21404 -8.4e-4,0.002 5.6e-4,0.0128 -3e-4,0.0148"
       id="path4158"
       inkscape:connector-curvature="0" />
    <path
       inkscape:connector-curvature="0"
       id="path4160"
       d="m 150.08011,204.38074 c 9.8e-4,-0.20236 9.2e-4,-0.40529 9.8e-4,-0.60797 -10e-4,-0.27807 -0.005,-0.55594 -0.004,-0.83446 0.002,-0.1999 0.004,-0.40014 0.003,-0.60109 4e-5,-0.0713 4e-5,-0.14269 4e-5,-0.21404 -8.4e-4,0.002 5.6e-4,0.0128 -3e-4,0.0148"
       style="fill:none;fill-rule:evenodd;stroke:#000000;stroke-width:1;stroke-linecap:butt;stroke-linejoin:miter;stroke-miterlimit:4;stroke-dasharray:none;stroke-opacity:1" />
    <path
       style="fill:none;fill-rule:evenodd;stroke:#000000;stroke-width:1;stroke-linecap:butt;stroke-linejoin:miter;stroke-miterlimit:4;stroke-dasharray:none;stroke-opacity:1"
       d="m 150.03327,224.44461 c -9.8e-4,0.20236 -9.2e-4,0.40529 -9.8e-4,0.60797 0.001,0.27807 0.005,0.55594 0.004,0.83446 -0.002,0.1999 -0.004,0.40014 -0.003,0.60109 -4e-5,0.0713 -4e-5,0.14269 -4e-5,0.21404 8.4e-4,-0.002 -5.6e-4,-0.0128 3e-4,-0.0148"
       id="path4162"
       inkscape:connector-curvature="0" />
    <path
       inkscape:connector-curvature="0"
       id="path4164"
       d="m 100.03547,224.43198 c 9.8e-4,0.20236 9.2e-4,0.40529 9.8e-4,0.60797 -0.001,0.27807 -0.005,0.55594 -0.004,0.83446 0.002,0.1999 0.004,0.40014 0.003,0.60109 4e-5,0.0713 4e-5,0.14269 4e-5,0.21404 -8.4e-4,-0.002 5.6e-4,-0.0128 -3e-4,-0.0148"
       style="fill:none;fill-rule:evenodd;stroke:#000000;stroke-width:1;stroke-linecap:butt;stroke-linejoin:miter;stroke-miterlimit:4;stroke-dasharray:none;stroke-opacity:1" />
    <path
       style="fill:none;fill-rule:evenodd;stroke:#000000;stroke-width:1;stroke-linecap:butt;stroke-linejoin:miter;stroke-miterlimit:4;stroke-dasharray:none;stroke-opacity:1"
       d="m 50.03547,224.43198 c 9.8e-4,0.20236 9.2e-4,0.40529 9.8e-4,0.60797 -0.001,0.27807 -0.005,0.55594 -0.004,0.83446 0.002,0.1999 0.004,0.40014 0.003,0.60109 4e-5,0.0713 4e-5,0.14269 4e-5,0.21404 -8.4e-4,-0.002 5.6e-4,-0.0128 -3e-4,-0.0148"
       id="path4166"
       inkscape:connector-curvature="0" />
    <path
       inkscape:connector-curvature="0"
       id="path4168"
       d="m 0.03678001,181.84941 c 6.70743419,0.02 13.43369999,0.0185 20.15219599,0.0204 9.216444,-0.0275 18.4268,-0.0966 27.658745,-0.081 6.626103,0.0414 13.263286,0.0864 19.924117,0.0656 2.364664,8.3e-4 4.729558,8.8e-4 7.0944,7.8e-4 -0.05575,-0.0168 -0.425838,0.0112 -0.492439,-0.006"
       style="fill:none;fill-rule:evenodd;stroke:#000000;stroke-width:1;stroke-linecap:butt;stroke-linejoin:miter;stroke-miterlimit:4;stroke-dasharray:none;stroke-opacity:1" />
    <path
       style="fill:none;fill-rule:evenodd;stroke:#000000;stroke-width:1;stroke-linecap:butt;stroke-linejoin:miter;stroke-miterlimit:4;stroke-dasharray:none;stroke-opacity:1"
       d="m 0.02139285,82.797115 c 6.71144035,0.02 13.44172315,0.0185 20.16423215,0.0204 9.221949,-0.0275 18.437806,-0.0966 27.675265,-0.081 6.630061,0.0414 13.271208,0.0864 19.936018,0.0656 2.366076,8.3e-4 4.732382,8.8e-4 7.098637,7.8e-4 -0.05578,-0.0168 -0.426092,0.0112 -0.492733,-0.006"
       id="path4170"
       inkscape:connector-curvature="0" />
    <path
       inkscape:connector-curvature="0"
       id="path4172"
       d="m 0.50921735,82.726285 c -0.0187244,8.9226 -0.0173194,17.870245 -0.019099,26.807545 0.0257453,12.26021 0.0903435,24.51233 0.075832,36.79317 -0.0387587,8.8144 -0.0808881,17.64353 -0.0614147,26.50413 -7.77e-4,3.1456 -8.2387e-4,6.29152 -7.3023e-4,9.43736 0.0157282,-0.0741 -0.0104858,-0.56648 0.005618,-0.65507"
       style="fill:none;fill-rule:evenodd;stroke:#000000;stroke-width:1;stroke-linecap:butt;stroke-linejoin:miter;stroke-miterlimit:4;stroke-dasharray:none;stroke-opacity:1" />
    <path
       inkscape:connector-curvature="0"
       id="path4176"
       d="m 74.493867,82.352905 c -3.85e-4,0.70664 -3.48e-4,1.41528 -3.85e-4,2.12309 5.17e-4,0.97097 0.0019,1.94132 0.0019,2.91392 -7.81e-4,0.69808 -0.0019,1.39732 -0.0019,2.09906 -1.9e-5,0.24929 -1.9e-5,0.4983 -1.9e-5,0.74743 3.2e-4,-0.006 -2.17e-4,-0.045 1.22e-4,-0.0518"
       style="fill:none;fill-rule:evenodd;stroke:#000000;stroke-width:1;stroke-linecap:butt;stroke-linejoin:miter;stroke-miterlimit:4;stroke-dasharray:none;stroke-opacity:1" />
    <path
       style="fill:none;fill-rule:evenodd;stroke:#000000;stroke-width:1;stroke-linecap:butt;stroke-linejoin:miter;stroke-miterlimit:4;stroke-dasharray:none;stroke-opacity:1"
       d="m 25.534146,90.400885 c -0.01933,7.50478 -0.01788,15.030625 -0.01973,22.547775 0.02657,10.31202 0.09324,20.61726 0.07826,30.94663 -0.04,7.41378 -0.08353,14.83993 -0.06337,22.29257 -8.06e-4,2.64574 -8.58e-4,5.29177 -7.55e-4,7.93774 0.01622,-0.0623 -0.01085,-0.47647 0.0062,-0.55099"
       id="path4178"
       inkscape:connector-curvature="0" />
    <path
       inkscape:connector-curvature="0"
       id="path4180"
       d="m 25.010875,90.797675 c 4.017117,0.0119 8.045512,0.011 12.069253,0.0122 5.519776,-0.0164 11.035906,-0.0576 16.564965,-0.0484 3.968407,0.0247 7.94345,0.0516 11.932657,0.0392 1.416209,4.9e-4 2.832555,5.2e-4 4.248873,4.6e-4 -0.03339,-0.01 -0.255037,0.007 -0.294925,-0.004"
       style="fill:none;fill-rule:evenodd;stroke:#000000;stroke-width:1;stroke-linecap:butt;stroke-linejoin:miter;stroke-miterlimit:4;stroke-dasharray:none;stroke-opacity:1" />
    <path
       style="fill:none;fill-rule:evenodd;stroke:#000000;stroke-width:1.00027633;stroke-linecap:butt;stroke-linejoin:miter;stroke-miterlimit:4;stroke-dasharray:none;stroke-opacity:1"
       d="m 25.04317,173.75648 c 3.991601,0.0119 7.994409,0.011 11.992592,0.0122 5.484716,-0.0164 10.965809,-0.0577 16.459749,-0.0485 3.943201,0.0247 7.892995,0.0517 11.856864,0.0393 1.407213,5e-4 2.814563,5.3e-4 4.221884,4.7e-4 -0.03317,-0.01 -0.253417,0.007 -0.293051,-0.004"
       id="path4184"
       inkscape:connector-curvature="0" />
    <path
       style="fill:none;fill-rule:evenodd;stroke:#000000;stroke-width:1;stroke-linecap:butt;stroke-linejoin:miter;stroke-miterlimit:4;stroke-dasharray:none;stroke-opacity:1"
       d="m 69.493875,90.378565 c -3.93e-4,0.61723 -3.55e-4,1.2362 -3.93e-4,1.85445 5.27e-4,0.84811 0.0019,1.69569 0.0019,2.54522 -7.96e-4,0.60976 -0.0019,1.22052 -0.0019,1.83347 -2e-5,0.21775 -2e-5,0.43525 -2e-5,0.65285 3.27e-4,-0.006 -2.2e-4,-0.0393 1.25e-4,-0.0453"
       id="path4186"
       inkscape:connector-curvature="0" />
    <path
       inkscape:connector-curvature="0"
       id="path4188"
       d="m 74.512359,174.27587 c -3.85e-4,0.7222 -3.48e-4,1.44644 -3.85e-4,2.16983 5.15e-4,0.99234 0.0019,1.98406 0.0019,2.97807 -7.79e-4,0.71344 -0.0019,1.42807 -0.0019,2.14528 -1.9e-5,0.25477 -1.9e-5,0.50926 -1.9e-5,0.76386 3.19e-4,-0.006 -2.16e-4,-0.046 1.22e-4,-0.053"
       style="fill:none;fill-rule:evenodd;stroke:#000000;stroke-width:1;stroke-linecap:butt;stroke-linejoin:miter;stroke-miterlimit:4;stroke-dasharray:none;stroke-opacity:1" />
    <path
       style="fill:none;fill-rule:evenodd;stroke:#000000;stroke-width:1;stroke-linecap:butt;stroke-linejoin:miter;stroke-miterlimit:4;stroke-dasharray:none;stroke-opacity:1"
       d="m 69.55701,167.33448 c -3.93e-4,0.61838 -3.55e-4,1.2385 -3.93e-4,1.85791 5.27e-4,0.84969 0.0019,1.69885 0.0019,2.54996 -7.96e-4,0.61089 -0.0019,1.22279 -0.0019,1.8369 -2e-5,0.21814 -2e-5,0.43605 -2e-5,0.65405 3.27e-4,-0.006 -2.2e-4,-0.0394 1.25e-4,-0.0454"
       id="path4190"
       inkscape:connector-curvature="0" />
  </g>
</svg>
