<?xml version="1.0" encoding="UTF-8" standalone="no"?>
<!-- Created with Inkscape (http://www.inkscape.org/) -->

<svg
   xmlns:dc="http://purl.org/dc/elements/1.1/"
   xmlns:cc="http://creativecommons.org/ns#"
   xmlns:rdf="http://www.w3.org/1999/02/22-rdf-syntax-ns#"
   xmlns:svg="http://www.w3.org/2000/svg"
   xmlns="http://www.w3.org/2000/svg"
   xmlns:sodipodi="http://sodipodi.sourceforge.net/DTD/sodipodi-0.dtd"
   xmlns:inkscape="http://www.inkscape.org/namespaces/inkscape"
   width="45.104359mm"
   height="36.234486mm"
   viewBox="0 0 45.104359 36.234486"
   version="1.1"
   id="svg6921"
   inkscape:version="0.92.2 (5c3e80d, 2017-08-06)"
   sodipodi:docname="LH037,05_118r-d2.svg">
  <defs
     id="defs6915" />
  <sodipodi:namedview
     id="base"
     pagecolor="#ffffff"
     bordercolor="#666666"
     borderopacity="1.0"
     inkscape:pageopacity="0.0"
     inkscape:pageshadow="2"
     inkscape:zoom="1.5"
     inkscape:cx="62.178271"
     inkscape:cy="-44.120937"
     inkscape:document-units="mm"
     inkscape:current-layer="layer1"
     showgrid="false"
     inkscape:window-width="1366"
     inkscape:window-height="706"
     inkscape:window-x="1672"
     inkscape:window-y="-8"
     inkscape:window-maximized="1"
     fit-margin-top="0.5"
     fit-margin-left="0.5"
     fit-margin-right="0.5"
     fit-margin-bottom="0.5" />
  <metadata
     id="metadata6918">
    <rdf:RDF>
      <cc:Work
         rdf:about="">
        <dc:format>image/svg+xml</dc:format>
        <dc:type
           rdf:resource="http://purl.org/dc/dcmitype/StillImage" />
        <dc:title></dc:title>
      </cc:Work>
    </rdf:RDF>
  </metadata>
  <g
     inkscape:label="Ebene 1"
     inkscape:groupmode="layer"
     id="layer1"
     transform="translate(-48.1581,-133.59226)">
    <path
       inkscape:connector-curvature="0"
       id="path6879"
       style="fill:none;stroke:#000000;stroke-width:0.35277778;stroke-linecap:butt;stroke-linejoin:miter;stroke-miterlimit:4;stroke-dasharray:none;stroke-opacity:1"
       d="m 88.748809,148.94673 0.396875,0.39687 h -0.79375 l 0.396875,0.39688 m 0,-1.5875 0.396875,0.39687 h -0.79375 l 0.396875,0.39688 m 0,-1.5875 0.396875,0.39687 h -0.79375 l 0.396875,0.39688 m 0,-1.5875 0.396875,0.39687 h -0.79375 l 0.396875,0.39688 m 0,-1.5875 0.396875,0.39687 h -0.79375 l 0.396875,0.39688 m 0,-1.5875 0.396875,0.39687 h -0.79375 l 0.396875,0.39688 m 0,-1.5875 0.396875,0.39687 h -0.79375 l 0.396875,0.39688 m 0,-1.5875 0.396875,0.39687 h -0.79375 l 0.396875,0.39688" />
    <path
       inkscape:connector-curvature="0"
       id="path6879-5"
       style="fill:none;stroke:#000000;stroke-width:0.35277778;stroke-linecap:butt;stroke-linejoin:miter;stroke-miterlimit:4;stroke-dasharray:none;stroke-opacity:1"
       d="m 88.748809,161.64673 0.396875,0.39688 h -0.79375 l 0.396875,0.39687 m 0,-1.5875 0.396875,0.39688 h -0.79375 l 0.396875,0.39687 m 0,-1.5875 0.396875,0.39688 h -0.79375 l 0.396875,0.39687 m 0,-1.5875 0.396875,0.39688 h -0.79375 l 0.396875,0.39687 m 0,-1.5875 0.396875,0.39688 h -0.79375 l 0.396875,0.39687 m 0,-1.5875 0.396875,0.39688 h -0.79375 l 0.396875,0.39687 m 0,-1.5875 0.396875,0.39688 h -0.79375 l 0.396875,0.39687 m 0,-1.5875 0.396875,0.39688 h -0.79375 l 0.396875,0.39687" />
    <path
       inkscape:connector-curvature="0"
       id="path6879-3"
       style="fill:none;stroke:#000000;stroke-width:0.35277778;stroke-linecap:butt;stroke-linejoin:miter;stroke-miterlimit:4;stroke-dasharray:none;stroke-opacity:1"
       d="m 88.748809,155.29673 0.396875,0.39688 h -0.79375 l 0.396875,0.39687 m 0,-1.5875 0.396875,0.39688 h -0.79375 l 0.396875,0.39687 m 0,-1.5875 0.396875,0.39688 h -0.79375 l 0.396875,0.39687 m 0,-1.5875 0.396875,0.39688 h -0.79375 l 0.396875,0.39687 m 0,-1.5875 0.396875,0.39688 h -0.79375 l 0.396875,0.39687 m 0,-1.5875 0.396875,0.39688 h -0.79375 l 0.396875,0.39687 m 0,-1.5875 0.396875,0.39688 h -0.79375 l 0.396875,0.39687 m 0,-1.5875 0.396875,0.39688 h -0.79375 l 0.396875,0.39687" />
    <path
       id="path6957"
       style="fill:none;stroke:#000000;stroke-width:0.35277778;stroke-linecap:butt;stroke-linejoin:miter;stroke-miterlimit:4;stroke-dasharray:none;stroke-opacity:1"
       d="m 78.770229,141.425 v 0.98274 h 9.97858 v 0.98274 M 68.791649,141.425 v 0.98274 h 9.97858 v 0.98274 M 58.813069,141.425 v 0.98274 h 9.97858 v 0.98274 M 48.834489,141.425 v 0.98274 h 9.97858 v 0.98274 m -9.97858,-1.96548 v 0.98274 h 9.97858 v 0.98274 m -9.97858,-1.96548 v 0.98274 h 9.97858 v 0.98274"
       inkscape:connector-curvature="0" />
    <path
       style="fill:none;stroke:#000000;stroke-width:0.35277778;stroke-linecap:butt;stroke-linejoin:miter;stroke-miterlimit:4;stroke-dasharray:none;stroke-opacity:1"
       d="m 48.834489,141.425 v -7.33274"
       id="path6960"
       inkscape:connector-curvature="0" />
    <path
       style="fill:none;stroke:#000000;stroke-width:0.35277778;stroke-linecap:butt;stroke-linejoin:miter;stroke-miterlimit:4;stroke-dasharray:none;stroke-opacity:1"
       d="m 48.834489,142.40774 v 18.89881"
       id="path6962"
       inkscape:connector-curvature="0" />
    <text
       xml:space="preserve"
       style="font-style:italic;font-variant:normal;font-weight:normal;font-stretch:normal;font-size:4.23333311px;line-height:1.25;font-family:'Myriad Pro';-inkscape-font-specification:'Myriad Pro Italic';letter-spacing:0px;word-spacing:0px;fill:#000000;fill-opacity:1;stroke:none;stroke-width:0.35277778;stroke-miterlimit:4;stroke-dasharray:none"
       x="49.666073"
       y="146.3387"
       id="text6981"><tspan
         sodipodi:role="line"
         id="tspan6979"
         x="49.666073"
         y="146.3387"
         style="stroke-width:0.35277778;stroke-miterlimit:4;stroke-dasharray:none">C</tspan></text>
    <text
       xml:space="preserve"
       style="font-style:italic;font-variant:normal;font-weight:normal;font-stretch:normal;font-size:4.23333311px;line-height:1.25;font-family:'Myriad Pro';-inkscape-font-specification:'Myriad Pro Italic';letter-spacing:0px;word-spacing:0px;fill:#000000;fill-opacity:1;stroke:none;stroke-width:0.35277778;stroke-miterlimit:4;stroke-dasharray:none"
       x="89.960144"
       y="143.60757"
       id="text6981-4"><tspan
         sodipodi:role="line"
         id="tspan6979-7"
         x="89.960144"
         y="143.60757"
         style="stroke-width:0.35277778;stroke-miterlimit:4;stroke-dasharray:none">D</tspan></text>
    <circle
       style="fill:#ffffff;stroke:#000000;stroke-width:0.35277778;stroke-miterlimit:4;stroke-dasharray:none;stroke-opacity:0.99065396"
       id="path5985"
       cx="88.673218"
       cy="165.2375"
       r="3.912854" />
  </g>
</svg>
