<?xml version="1.0" encoding="UTF-8" standalone="no"?>
<!-- Created with Inkscape (http://www.inkscape.org/) -->

<svg
   xmlns:dc="http://purl.org/dc/elements/1.1/"
   xmlns:cc="http://creativecommons.org/ns#"
   xmlns:rdf="http://www.w3.org/1999/02/22-rdf-syntax-ns#"
   xmlns:svg="http://www.w3.org/2000/svg"
   xmlns="http://www.w3.org/2000/svg"
   xmlns:xlink="http://www.w3.org/1999/xlink"
   xmlns:sodipodi="http://sodipodi.sourceforge.net/DTD/sodipodi-0.dtd"
   xmlns:inkscape="http://www.inkscape.org/namespaces/inkscape"
   width="68.257942mm"
   height="69.304459mm"
   viewBox="0 0 68.257943 69.304458"
   version="1.1"
   id="svg1773"
   inkscape:version="0.92.2 5c3e80d, 2017-08-06"
   sodipodi:docname="LH_35_09_15_018-019_d4.svg">
  <sodipodi:namedview
     id="base"
     pagecolor="#ffffff"
     bordercolor="#666666"
     borderopacity="1.0"
     inkscape:pageopacity="0.0"
     inkscape:pageshadow="2"
     inkscape:zoom="1.651069"
     inkscape:cx="117.68124"
     inkscape:cy="170.98511"
     inkscape:document-units="mm"
     inkscape:current-layer="layer1"
     showgrid="true"
     inkscape:window-width="2048"
     inkscape:window-height="1047"
     inkscape:window-x="2960"
     inkscape:window-y="1"
     inkscape:window-maximized="1"
     fit-margin-top="0.5"
     fit-margin-left="0.5"
     fit-margin-right="0.5"
     fit-margin-bottom="0.5">
    <inkscape:grid
       originy="36.611075"
       originx="4.3259374"
       id="grid4163"
       type="xygrid" />
  </sodipodi:namedview>
  <defs
     id="defs1767">
    <linearGradient
       id="linearGradient5712"
       inkscape:collect="always">
      <stop
         id="stop5714"
         offset="0"
         style="stop-color:#000000;stop-opacity:1;" />
      <stop
         id="stop5716"
         offset="1"
         style="stop-color:#000000;stop-opacity:0;" />
    </linearGradient>
    <linearGradient
       id="linearGradient5704"
       inkscape:collect="always">
      <stop
         id="stop5706"
         offset="0"
         style="stop-color:#000000;stop-opacity:1;" />
      <stop
         id="stop5708"
         offset="1"
         style="stop-color:#000000;stop-opacity:0;" />
    </linearGradient>
    <linearGradient
       id="linearGradient5640"
       inkscape:collect="always">
      <stop
         id="stop5642"
         offset="0"
         style="stop-color:#000000;stop-opacity:1;" />
      <stop
         id="stop5644"
         offset="1"
         style="stop-color:#000000;stop-opacity:0;" />
    </linearGradient>
    <linearGradient
       id="linearGradient5632"
       inkscape:collect="always">
      <stop
         id="stop5634"
         offset="0"
         style="stop-color:#000000;stop-opacity:1;" />
      <stop
         id="stop5636"
         offset="1"
         style="stop-color:#000000;stop-opacity:0;" />
    </linearGradient>
    <linearGradient
       gradientTransform="translate(125.71799,-125.58979)"
       gradientUnits="userSpaceOnUse"
       y2="209.29842"
       x2="130.63138"
       y1="209.29842"
       x1="125.83138"
       id="linearGradient5648"
       xlink:href="#linearGradient5640"
       inkscape:collect="always" />
    <linearGradient
       gradientTransform="translate(125.71799,-125.58979)"
       gradientUnits="userSpaceOnUse"
       y2="199.03725"
       x2="109.09649"
       y1="199.03725"
       x1="105.49649"
       id="linearGradient5650"
       xlink:href="#linearGradient5632"
       inkscape:collect="always" />
    <linearGradient
       gradientTransform="translate(125.71799,-125.58979)"
       gradientUnits="userSpaceOnUse"
       y2="241.4787"
       x2="97.97924"
       y1="241.4787"
       x1="95.213844"
       id="linearGradient5710"
       xlink:href="#linearGradient5704"
       inkscape:collect="always" />
    <linearGradient
       gradientTransform="translate(125.71799,-125.58979)"
       gradientUnits="userSpaceOnUse"
       y2="251.73987"
       x2="114.14202"
       y1="251.73987"
       x1="110.47618"
       id="linearGradient5718"
       xlink:href="#linearGradient5712"
       inkscape:collect="always" />
    <linearGradient
       gradientTransform="translate(125.71799,-125.58979)"
       gradientUnits="userSpaceOnUse"
       y2="199.03725"
       x2="109.09649"
       y1="199.03725"
       x1="105.49649"
       id="linearGradient5650-757"
       xlink:href="#linearGradient5632-497"
       inkscape:collect="always" />
    <linearGradient
       id="linearGradient5632-497"
       inkscape:collect="always">
      <stop
         id="stop284"
         offset="0"
         style="stop-color:#000000;stop-opacity:1;;opacity:1" />
      <stop
         id="stop286"
         offset="1"
         style="stop-color:#000000;stop-opacity:0;;opacity:1" />
    </linearGradient>
    <linearGradient
       gradientTransform="translate(125.71799,-125.58979)"
       gradientUnits="userSpaceOnUse"
       y2="209.29842"
       x2="130.63138"
       y1="209.29842"
       x1="125.83138"
       id="linearGradient5648-638"
       xlink:href="#linearGradient5640-268"
       inkscape:collect="always" />
    <linearGradient
       id="linearGradient5640-268"
       inkscape:collect="always">
      <stop
         id="stop290"
         offset="0"
         style="stop-color:#000000;stop-opacity:1;;opacity:1" />
      <stop
         id="stop292"
         offset="1"
         style="stop-color:#000000;stop-opacity:0;;opacity:1" />
    </linearGradient>
    <linearGradient
       gradientTransform="translate(125.71799,-125.58979)"
       gradientUnits="userSpaceOnUse"
       y2="241.4787"
       x2="97.97924"
       y1="241.4787"
       x1="95.213844"
       id="linearGradient5710-161"
       xlink:href="#linearGradient5704-474"
       inkscape:collect="always" />
    <linearGradient
       id="linearGradient5704-474"
       inkscape:collect="always">
      <stop
         id="stop296"
         offset="0"
         style="stop-color:#000000;stop-opacity:1;;opacity:1" />
      <stop
         id="stop298"
         offset="1"
         style="stop-color:#000000;stop-opacity:0;;opacity:1" />
    </linearGradient>
    <linearGradient
       gradientTransform="translate(125.71799,-125.58979)"
       gradientUnits="userSpaceOnUse"
       y2="251.73987"
       x2="114.14202"
       y1="251.73987"
       x1="110.47618"
       id="linearGradient5718-782"
       xlink:href="#linearGradient5712-548"
       inkscape:collect="always" />
    <linearGradient
       id="linearGradient5712-548"
       inkscape:collect="always">
      <stop
         id="stop302"
         offset="0"
         style="stop-color:#000000;stop-opacity:1;;opacity:1" />
      <stop
         id="stop304"
         offset="1"
         style="stop-color:#000000;stop-opacity:0;;opacity:1" />
    </linearGradient>
  </defs>
  <metadata
     id="metadata1770">
    <rdf:RDF>
      <cc:Work
         rdf:about="">
        <dc:format>image/svg+xml</dc:format>
        <dc:type
           rdf:resource="http://purl.org/dc/dcmitype/StillImage" />
        <dc:title></dc:title>
      </cc:Work>
    </rdf:RDF>
  </metadata>
  <g
     transform="translate(-57.774777,-187.54491)"
     id="layer1"
     inkscape:groupmode="layer"
     inkscape:label="Ebene 1">
    <flowRoot
       xml:space="preserve"
       id="flowRoot2756"
       style="font-style:italic;font-variant:normal;font-weight:normal;font-stretch:normal;line-height:0.01%;font-family:'Myriad Pro';-inkscape-font-specification:'Myriad Pro Italic';letter-spacing:0px;word-spacing:0px;fill:#000000;fill-opacity:1;stroke:none;stroke-width:1.33333337;stroke-miterlimit:4;stroke-dasharray:none"
       transform="matrix(0.26458333,0,0,0.26458333,27.344651,81.373814)"><flowRegion
         id="flowRegion2752"
         style="stroke-width:1.33333337;stroke-miterlimit:4;stroke-dasharray:none"><rect
           id="rect2750"
           width="16.407187"
           height="20.507141"
           x="154.92958"
           y="507.02673"
           style="stroke-width:1.33333337;stroke-miterlimit:4;stroke-dasharray:none" /></flowRegion><flowPara
         style="font-size:16px;line-height:1.25"
         id="flowPara2754">ba</flowPara></flowRoot>    <flowRoot
       style="font-style:italic;font-variant:normal;font-weight:normal;font-stretch:normal;line-height:0.01%;font-family:'Myriad Pro';-inkscape-font-specification:'Myriad Pro Italic';letter-spacing:0px;word-spacing:0px;fill:#000000;fill-opacity:1;stroke:none"
       id="flowRoot2774"
       xml:space="preserve"><flowRegion
         id="flowRegion2776"><rect
           y="800.53015"
           x="469.10992"
           height="21.989517"
           width="8.9005375"
           id="rect2778" /></flowRegion><flowPara
         style="font-size:16px;line-height:1.25"
         id="flowPara2780"> </flowPara></flowRoot>    <g
       transform="matrix(0,1,1,0,-125.58979,125.71799)"
       id="g4179" />
    <g
       id="g265">
      <flowRoot
         xml:space="preserve"
         id="flowRoot2770"
         style="font-style:italic;font-variant:normal;font-weight:normal;font-stretch:normal;line-height:0.01%;font-family:'Myriad Pro';-inkscape-font-specification:'Myriad Pro Italic';letter-spacing:0px;word-spacing:0px;opacity:1;fill:#000000;fill-opacity:1;stroke:none;stroke-width:1.33333337;stroke-miterlimit:4;stroke-dasharray:none"
         transform="matrix(0.26458333,0,0,0.26458333,84.494687,76.611305)"><flowRegion
           id="flowRegion2766"
           style="opacity:1;stroke-width:1.33333337;stroke-miterlimit:4;stroke-dasharray:none"><rect
             id="rect2764"
             width="11.171583"
             height="21.030718"
             x="154.92958"
             y="507.02673"
             style="opacity:1;stroke-width:1.33333337;stroke-miterlimit:4;stroke-dasharray:none" /></flowRegion><flowPara
           style="font-size:16px;line-height:1.25;opacity:1"
           id="flowPara2768"> </flowPara></flowRoot>      <path
         inkscape:connector-curvature="0"
         d="m 63.45352,210.09222 c 0,0 0.62361,0.22373 0.62361,0.42325 0,0.19952 -0.62361,0.42325 -0.62361,0.42325 m 0,-1.693 c 0,0 -0.62361,0.22372 -0.62361,0.42325 0,0.19952 0.62361,0.42325 0.62361,0.42325 m 0,-1.69815 c 0,0 0.62361,0.22373 0.62361,0.42326 0,0.19951 -0.62361,0.42325 -0.62361,0.42325 m 0,-1.69301 c 0,0 -0.62361,0.22373 -0.62361,0.42326 0,0.19952 0.62361,0.42324 0.62361,0.42324 m 0,-1.69814 c 0,0 0.62361,0.22373 0.62361,0.42326 0,0.19952 -0.62361,0.42324 -0.62361,0.42324 m 0,-1.693 c 0,0 -0.62361,0.22373 -0.62361,0.42325 0,0.19952 0.62361,0.42325 0.62361,0.42325 m 0,-1.69814 c 0,0 0.62361,0.22373 0.62361,0.42325 0,0.19952 -0.62361,0.42325 -0.62361,0.42325 m 0,-1.693 c 0,0 -0.62361,0.22373 -0.62361,0.42325 0,0.19952 0.62361,0.42325 0.62361,0.42325 m 0,-1.69814 c 0,0 0.62361,0.22373 0.62361,0.42325 0,0.19952 -0.62361,0.42325 -0.62361,0.42325 m 0,-1.693 c 0,0 -0.62361,0.22373 -0.62361,0.42325 0,0.19952 0.62361,0.42325 0.62361,0.42325 m 0,-1.69814 c 0,0 0.62361,0.22373 0.62361,0.42324 0,0.19953 -0.62361,0.42326 -0.62361,0.42326 m 0,-1.693 c 0,0 -0.62361,0.22373 -0.62361,0.42325 0,0.19952 0.62361,0.42325 0.62361,0.42325 m 0,-1.693 c 0,0 0.62361,0.22373 0.62361,0.42325 0,0.19952 -0.62361,0.42325 -0.62361,0.42325 m 0,-1.693 c 0,0 -0.62361,0.22373 -0.62361,0.42325 0,0.19952 0.62361,0.42325 0.62361,0.42325 m 0,-1.69814 c 0,0 0.62361,0.22373 0.62361,0.42325 0,0.19952 -0.62361,0.42325 -0.62361,0.42325 m 0,-1.693 c 0,0 -0.62361,0.22372 -0.62361,0.42325 0,0.19952 0.62361,0.42325 0.62361,0.42325 m 0,-1.69814 c 0,0 0.62361,0.22372 0.62361,0.42325 0,0.19952 -0.62361,0.42325 -0.62361,0.42325 m 0,-1.693 c 0,0 -0.62361,0.22372 -0.62361,0.42325 0,0.19952 0.62361,0.42325 0.62361,0.42325 m 0,-1.69815 c 0,0 0.62361,0.22373 0.62361,0.42325 0,0.19952 -0.62361,0.42325 -0.62361,0.42325 m 0,-1.693 c 0,0 -0.62361,0.22373 -0.62361,0.42325 0,0.19953 0.62361,0.42325 0.62361,0.42325 m 0,-1.69814 c 0,0 0.62361,0.22373 0.62361,0.42325 0,0.19952 -0.62361,0.42325 -0.62361,0.42325 m 0,-1.693 c 0,0 -0.62361,0.22373 -0.62361,0.42325 0,0.19952 0.62361,0.42325 0.62361,0.42325 m 0,-1.69814 c 0,0 0.62361,0.22373 0.62361,0.42325 0,0.19952 -0.62361,0.42325 -0.62361,0.42325 m 0,-1.693 c 0,0 -0.62361,0.22373 -0.62361,0.42325 0,0.19952 0.62361,0.42325 0.62361,0.42325"
         style="opacity:1;fill:none;stroke:#000000;stroke-width:0.28222227;stroke-linecap:butt;stroke-linejoin:miter;stroke-miterlimit:4;stroke-dasharray:none;stroke-opacity:1"
         id="path1904" />
      <path
         id="path4173"
         style="opacity:1;fill:none;stroke:#000000;stroke-width:0.28222227;stroke-linecap:butt;stroke-linejoin:miter;stroke-miterlimit:4;stroke-dasharray:none;stroke-opacity:1"
         d="m 73.4381,210.13044 c 0,0 0.62361,0.22373 0.62361,0.42326 0,0.19951 -0.62361,0.42324 -0.62361,0.42324 m 0,-1.693 c 0,0 -0.62361,0.22373 -0.62361,0.42325 0,0.19952 0.62361,0.42325 0.62361,0.42325 m 0,-1.69814 c 0,0 0.62361,0.22373 0.62361,0.42325 0,0.19952 -0.62361,0.42325 -0.62361,0.42325 m 0,-1.693 c 0,0 -0.62361,0.22373 -0.62361,0.42325 0,0.19952 0.62361,0.42325 0.62361,0.42325 m 0,-1.69815 c 0,0 0.62361,0.22373 0.62361,0.42326 0,0.19952 -0.62361,0.42325 -0.62361,0.42325 m 0,-1.693 c 0,0 -0.62361,0.22373 -0.62361,0.42325 0,0.19952 0.62361,0.42324 0.62361,0.42324 m 0,-1.69813 c 0,0 0.62361,0.22372 0.62361,0.42325 0,0.19952 -0.62361,0.42324 -0.62361,0.42324 m 0,-1.693 c 0,0 -0.62361,0.22373 -0.62361,0.42325 0,0.19952 0.62361,0.42326 0.62361,0.42326 m 0,-1.69815 c 0,0 0.62361,0.22373 0.62361,0.42325 0,0.19952 -0.62361,0.42325 -0.62361,0.42325 m 0,-1.693 c 0,0 -0.62361,0.22373 -0.62361,0.42325 0,0.19952 0.62361,0.42325 0.62361,0.42325 m 0,-1.69814 c 0,0 0.62361,0.22373 0.62361,0.42325 0,0.19952 -0.62361,0.42325 -0.62361,0.42325 m 0,-1.693 c 0,0 -0.62361,0.22373 -0.62361,0.42325 0,0.19952 0.62361,0.42325 0.62361,0.42325 m 0,-1.693 c 0,0 0.62361,0.22373 0.62361,0.42325 0,0.19952 -0.62361,0.42325 -0.62361,0.42325 m 0,-1.693 c 0,0 -0.62361,0.22373 -0.62361,0.42325 0,0.19952 0.62361,0.42325 0.62361,0.42325 m 0,-1.69814 c 0,0 0.62361,0.22373 0.62361,0.42325 0,0.19952 -0.62361,0.42325 -0.62361,0.42325 m 0,-1.693 c 0,0 -0.62361,0.22373 -0.62361,0.42325 0,0.19952 0.62361,0.42325 0.62361,0.42325 m 0,-1.69814 c 0,0 0.62361,0.22373 0.62361,0.42325 0,0.19952 -0.62361,0.42325 -0.62361,0.42325 m 0,-1.693 c 0,0 -0.62361,0.22373 -0.62361,0.42325 0,0.19952 0.62361,0.42325 0.62361,0.42325 m 0,-1.69814 c 0,0 0.62361,0.22372 0.62361,0.42325 0,0.19952 -0.62361,0.42325 -0.62361,0.42325 m 0,-1.693 c 0,0 -0.62361,0.22373 -0.62361,0.42325 0,0.19952 0.62361,0.42325 0.62361,0.42325 m 0,-1.69815 c 0,0 0.62361,0.22373 0.62361,0.42325 0,0.19953 -0.62361,0.42325 -0.62361,0.42325 m 0,-1.69299 c 0,0 -0.62361,0.22372 -0.62361,0.42324 0,0.19953 0.62361,0.42325 0.62361,0.42325 m 0,-1.69814 c 0,0 0.62361,0.22373 0.62361,0.42325 0,0.19952 -0.62361,0.42325 -0.62361,0.42325 m 0,-1.693 c 0,0 -0.62361,0.22373 -0.62361,0.42325 0,0.19952 0.62361,0.42325 0.62361,0.42325"
         inkscape:connector-curvature="0" />
      <path
         inkscape:connector-curvature="0"
         d="m 73.4381,230.50186 c 0,0 0.62361,0.22371 0.62361,0.42323 0,0.19953 -0.62361,0.42327 -0.62361,0.42327 m 0,-1.69303 c 0,0 -0.62361,0.22376 -0.62361,0.42329 0,0.19949 0.62361,0.42324 0.62361,0.42324 m 0,-1.69814 c 0,0 0.62361,0.22371 0.62361,0.42323 0,0.19953 -0.62361,0.42326 -0.62361,0.42326 m 0,-1.69301 c 0,0 -0.62361,0.22375 -0.62361,0.42328 0,0.19949 0.62361,0.42324 0.62361,0.42324 m 0,-1.69816 c 0,0 0.62361,0.22373 0.62361,0.42325 0,0.19953 -0.62361,0.42326 -0.62361,0.42326 m 0,-1.69301 c 0,0 -0.62361,0.22373 -0.62361,0.42325 0,0.19952 0.62361,0.42325 0.62361,0.42325 m 0,-1.69813 c 0,0 0.62361,0.22372 0.62361,0.42324 0,0.19953 -0.62361,0.42326 -0.62361,0.42326 m 0,-1.693 c 0,0 -0.62361,0.22372 -0.62361,0.42325 0,0.19952 0.62361,0.42325 0.62361,0.42325 m 0,-1.69815 c 0,0 0.62361,0.22373 0.62361,0.42326 0,0.19951 -0.62361,0.42324 -0.62361,0.42324 m 0,-1.69299 c 0,0 -0.62361,0.22373 -0.62361,0.42324 0,0.19953 0.62361,0.42325 0.62361,0.42325 m 0,-1.69814 c 0,0 0.62361,0.22373 0.62361,0.42325 0,0.19952 -0.62361,0.42325 -0.62361,0.42325 m 0,-1.693 c 0,0 -0.62361,0.22373 -0.62361,0.42325 0,0.19952 0.62361,0.42325 0.62361,0.42325 m 0,-1.693 c 0,0 0.62361,0.22373 0.62361,0.42326 0,0.19952 -0.62361,0.42324 -0.62361,0.42324 m 0,-1.69299 c 0,0 -0.62361,0.22372 -0.62361,0.42325 0,0.19951 0.62361,0.42324 0.62361,0.42324 m 0,-1.69814 c 0,0 0.62361,0.22373 0.62361,0.42325 0,0.19952 -0.62361,0.42325 -0.62361,0.42325 m 0,-1.693 c 0,0 -0.62361,0.22373 -0.62361,0.42325 0,0.19952 0.62361,0.42325 0.62361,0.42325 m 0,-1.69814 c 0,0 0.62361,0.22373 0.62361,0.42325 0,0.19952 -0.62361,0.42325 -0.62361,0.42325 m 0,-1.693 c 0,0 -0.62361,0.22373 -0.62361,0.42325 0,0.19952 0.62361,0.42325 0.62361,0.42325 m 0,-1.69814 c 0,0 0.62361,0.22373 0.62361,0.42325 0,0.19952 -0.62361,0.42325 -0.62361,0.42325 m 0,-1.693 c 0,0 -0.62361,0.22373 -0.62361,0.42325 0,0.19952 0.62361,0.42325 0.62361,0.42325 m 0,-1.69814 c 0,0 0.62361,0.22372 0.62361,0.42325 0,0.19952 -0.62361,0.42325 -0.62361,0.42325 m 0,-1.693 c 0,0 -0.62361,0.22373 -0.62361,0.42325 0,0.19952 0.62361,0.42325 0.62361,0.42325 m 0,-1.69815 c 0,0 0.62361,0.22373 0.62361,0.42325 0,0.19953 -0.62361,0.42325 -0.62361,0.42325 m 0,-1.693 c 0,0 -0.62361,0.22373 -0.62361,0.42326 0,0.19952 0.62361,0.42324 0.62361,0.42324"
         style="opacity:1;fill:none;stroke:#000000;stroke-width:0.28222227;stroke-linecap:butt;stroke-linejoin:miter;stroke-miterlimit:4;stroke-dasharray:none;stroke-opacity:1"
         id="path4175" />
      <path
         id="path4177"
         style="opacity:1;fill:none;stroke:#000000;stroke-width:0.28222227;stroke-linecap:butt;stroke-linejoin:miter;stroke-miterlimit:4;stroke-dasharray:none;stroke-opacity:1"
         d="m 83.65649,210.07 c 0,0 0.62361,0.22373 0.62361,0.42325 0,0.19952 -0.62361,0.42325 -0.62361,0.42325 m 0,-1.693 c 0,0 -0.62361,0.22373 -0.62361,0.42325 0,0.19952 0.62361,0.42325 0.62361,0.42325 m 0,-1.69815 c 0,0 0.62361,0.22374 0.62361,0.42326 0,0.19952 -0.62361,0.42325 -0.62361,0.42325 m 0,-1.693 c 0,0 -0.62361,0.22372 -0.62361,0.42325 0,0.19952 0.62361,0.42324 0.62361,0.42324 m 0,-1.69814 c 0,0 0.62361,0.22373 0.62361,0.42325 0,0.19953 -0.62361,0.42325 -0.62361,0.42325 m 0,-1.69299 c 0,0 -0.62361,0.22372 -0.62361,0.42325 0,0.19951 0.62361,0.42324 0.62361,0.42324 m 0,-1.69814 c 0,0 0.62361,0.22373 0.62361,0.42325 0,0.19952 -0.62361,0.42325 -0.62361,0.42325 m 0,-1.693 c 0,0 -0.62361,0.22373 -0.62361,0.42325 0,0.19952 0.62361,0.42325 0.62361,0.42325 m 0,-1.69814 c 0,0 0.62361,0.22373 0.62361,0.42325 0,0.19952 -0.62361,0.42325 -0.62361,0.42325 m 0,-1.693 c 0,0 -0.62361,0.22373 -0.62361,0.42325 0,0.19952 0.62361,0.42325 0.62361,0.42325 m 0,-1.69814 c 0,0 0.62361,0.22373 0.62361,0.42325 0,0.19952 -0.62361,0.42325 -0.62361,0.42325 m 0,-1.693 c 0,0 -0.62361,0.22373 -0.62361,0.42325 0,0.19952 0.62361,0.42325 0.62361,0.42325 m 0,-1.693 c 0,0 0.62361,0.22373 0.62361,0.42325 0,0.19952 -0.62361,0.42325 -0.62361,0.42325 m 0,-1.693 c 0,0 -0.62361,0.22373 -0.62361,0.42325 0,0.19952 0.62361,0.42325 0.62361,0.42325 m 0,-1.69814 c 0,0 0.62361,0.22372 0.62361,0.42325 0,0.19952 -0.62361,0.42325 -0.62361,0.42325 m 0,-1.693 c 0,0 -0.62361,0.22373 -0.62361,0.42325 0,0.19952 0.62361,0.42325 0.62361,0.42325 m 0,-1.69814 c 0,0 0.62361,0.22372 0.62361,0.42325 0,0.19952 -0.62361,0.42325 -0.62361,0.42325 m 0,-1.693 c 0,0 -0.62361,0.22373 -0.62361,0.42325 0,0.19952 0.62361,0.42325 0.62361,0.42325 m 0,-1.69814 c 0,0 0.62361,0.22372 0.62361,0.42324 0,0.19953 -0.62361,0.42326 -0.62361,0.42326 m 0,-1.693 c 0,0 -0.62361,0.22372 -0.62361,0.42324 0,0.19953 0.62361,0.42326 0.62361,0.42326 m 0,-1.69815 c 0,0 0.62361,0.22373 0.62361,0.42325 0,0.19953 -0.62361,0.42325 -0.62361,0.42325 m 0,-1.693 c 0,0 -0.62361,0.22373 -0.62361,0.42325 0,0.19953 0.62361,0.42325 0.62361,0.42325 m 0,-1.69814 c 0,0 0.62361,0.22373 0.62361,0.42325 0,0.19952 -0.62361,0.42325 -0.62361,0.42325 m 0,-1.693 c 0,0 -0.62361,0.22373 -0.62361,0.42325 0,0.19953 0.62361,0.42325 0.62361,0.42325"
         inkscape:connector-curvature="0" />
      <path
         inkscape:connector-curvature="0"
         d="m 83.65649,230.44143 c 0,0 0.62361,0.2237 0.62361,0.42323 0,0.19952 -0.62361,0.42327 -0.62361,0.42327 m 0,-1.69304 c 0,0 -0.62361,0.22376 -0.62361,0.42327 0,0.19951 0.62361,0.42327 0.62361,0.42327 m 0,-1.69814 c 0,0 0.62361,0.22368 0.62361,0.42322 0,0.19954 -0.62361,0.42326 -0.62361,0.42326 m 0,-1.69302 c 0,0 -0.62361,0.22377 -0.62361,0.42328 0,0.19951 0.62361,0.42326 0.62361,0.42326 m 0,-1.69817 c 0,0 0.62361,0.22373 0.62361,0.42326 0,0.19952 -0.62361,0.42325 -0.62361,0.42325 m 0,-1.69301 c 0,0 -0.62361,0.22373 -0.62361,0.42325 0,0.19953 0.62361,0.42325 0.62361,0.42325 m 0,-1.69813 c 0,0 0.62361,0.22372 0.62361,0.42324 0,0.19952 -0.62361,0.42326 -0.62361,0.42326 m 0,-1.69301 c 0,0 -0.62361,0.22373 -0.62361,0.42325 0,0.19953 0.62361,0.42326 0.62361,0.42326 m 0,-1.69815 c 0,0 0.62361,0.22373 0.62361,0.42325 0,0.19952 -0.62361,0.42325 -0.62361,0.42325 m 0,-1.693 c 0,0 -0.62361,0.22373 -0.62361,0.42325 0,0.19952 0.62361,0.42325 0.62361,0.42325 m 0,-1.69814 c 0,0 0.62361,0.22373 0.62361,0.42325 0,0.19952 -0.62361,0.42325 -0.62361,0.42325 m 0,-1.693 c 0,0 -0.62361,0.22373 -0.62361,0.42325 0,0.19952 0.62361,0.42325 0.62361,0.42325 m 0,-1.693 c 0,0 0.62361,0.22373 0.62361,0.42325 0,0.19952 -0.62361,0.42325 -0.62361,0.42325 m 0,-1.693 c 0,0 -0.62361,0.22373 -0.62361,0.42325 0,0.19952 0.62361,0.42325 0.62361,0.42325 m 0,-1.69814 c 0,0 0.62361,0.22373 0.62361,0.42325 0,0.19952 -0.62361,0.42325 -0.62361,0.42325 m 0,-1.693 c 0,0 -0.62361,0.22373 -0.62361,0.42325 0,0.19952 0.62361,0.42325 0.62361,0.42325 m 0,-1.69814 c 0,0 0.62361,0.22372 0.62361,0.42325 0,0.19952 -0.62361,0.42325 -0.62361,0.42325 m 0,-1.693 c 0,0 -0.62361,0.22373 -0.62361,0.42325 0,0.19952 0.62361,0.42325 0.62361,0.42325 m 0,-1.69815 c 0,0 0.62361,0.22373 0.62361,0.42326 0,0.19952 -0.62361,0.42325 -0.62361,0.42325 m 0,-1.693 c 0,0 -0.62361,0.22373 -0.62361,0.42324 0,0.19953 0.62361,0.42325 0.62361,0.42325 m 0,-1.69814 c 0,0 0.62361,0.22373 0.62361,0.42325 0,0.19953 -0.62361,0.42325 -0.62361,0.42325 m 0,-1.69299 c 0,0 -0.62361,0.22372 -0.62361,0.42324 0,0.19953 0.62361,0.42325 0.62361,0.42325 m 0,-1.69814 c 0,0 0.62361,0.22373 0.62361,0.42325 0,0.19952 -0.62361,0.42325 -0.62361,0.42325 m 0,-1.693 c 0,0 -0.62361,0.22373 -0.62361,0.42325 0,0.19953 0.62361,0.42325 0.62361,0.42325"
         style="opacity:1;fill:none;stroke:#000000;stroke-width:0.28222227;stroke-linecap:butt;stroke-linejoin:miter;stroke-miterlimit:4;stroke-dasharray:none;stroke-opacity:1"
         id="path4179" />
      <path
         id="path4181"
         style="opacity:1;fill:none;stroke:#000000;stroke-width:0.28222227;stroke-linecap:butt;stroke-linejoin:miter;stroke-miterlimit:4;stroke-dasharray:none;stroke-opacity:1"
         d="m 83.65649,250.81281 c 0,0 0.62361,0.22376 0.62361,0.42328 0,0.19948 -0.62361,0.42326 -0.62361,0.42326 m 0,-1.69302 c 0,0 -0.62361,0.22371 -0.62361,0.42327 0,0.1995 0.62361,0.42321 0.62361,0.42321 m 0,-1.69813 c 0,0 0.62361,0.22376 0.62361,0.42328 0,0.19948 -0.62361,0.42323 -0.62361,0.42323 m 0,-1.693 c 0,0 -0.62361,0.22372 -0.62361,0.42327 0,0.1995 0.62361,0.42322 0.62361,0.42322 m 0,-1.69815 c 0,0 0.62361,0.22376 0.62361,0.42325 0,0.19952 -0.62361,0.42327 -0.62361,0.42327 m 0,-1.69299 c 0,0 -0.62361,0.22371 -0.62361,0.42327 0,0.1995 0.62361,0.4232 0.62361,0.4232 m 0,-1.69813 c 0,0 0.62361,0.22373 0.62361,0.42323 0,0.19954 -0.62361,0.42328 -0.62361,0.42328 m 0,-1.69302 c 0,0 -0.62361,0.22374 -0.62361,0.42328 0,0.19952 0.62361,0.42323 0.62361,0.42323 m 0,-1.69815 c 0,0 0.62361,0.22375 0.62361,0.42323 0,0.19953 -0.62361,0.4233 -0.62361,0.4233 m 0,-1.69302 c 0,0 -0.62361,0.22373 -0.62361,0.42326 0,0.19954 0.62361,0.42323 0.62361,0.42323 m 0,-1.69814 c 0,0 0.62361,0.22374 0.62361,0.42322 0,0.19954 -0.62361,0.42329 -0.62361,0.42329 m 0,-1.69302 c 0,0 -0.62361,0.22376 -0.62361,0.42328 0,0.19951 0.62361,0.42323 0.62361,0.42323 m 0,-1.69297 c 0,0 0.62361,0.22369 0.62361,0.42321 0,0.19954 -0.62361,0.42325 -0.62361,0.42325 m 0,-1.69299 c 0,0 -0.62361,0.22375 -0.62361,0.42326 0,0.1995 0.62361,0.42327 0.62361,0.42327 m 0,-1.69813 c 0,0 0.62361,0.22369 0.62361,0.42321 0,0.19954 -0.62361,0.42324 -0.62361,0.42324 m 0,-1.693 c 0,0 -0.62361,0.22377 -0.62361,0.42327 0,0.1995 0.62361,0.42328 0.62361,0.42328 m 0,-1.69816 c 0,0 0.62361,0.22369 0.62361,0.42322 0,0.19954 -0.62361,0.42324 -0.62361,0.42324 m 0,-1.69298 c 0,0 -0.62361,0.22376 -0.62361,0.42327 0,0.1995 0.62361,0.42325 0.62361,0.42325 m 0,-1.69815 c 0,0 0.62361,0.2237 0.62361,0.42323 0,0.19955 -0.62361,0.42324 -0.62361,0.42324 m 0,-1.69299 c 0,0 -0.62361,0.22376 -0.62361,0.42324 0,0.19953 0.62361,0.42328 0.62361,0.42328 m 0,-1.69814 c 0,0 0.62361,0.2237 0.62361,0.42323 0,0.19955 -0.62361,0.42324 -0.62361,0.42324 m 0,-1.69299 c 0,0 -0.62361,0.22373 -0.62361,0.42324 0,0.19953 0.62361,0.42328 0.62361,0.42328 m 0,-1.69813 c 0,0 0.62361,0.22369 0.62361,0.42323 0,0.19954 -0.62361,0.42323 -0.62361,0.42323 m 0,-1.69299 c 0,0 -0.62361,0.22373 -0.62361,0.42324 0,0.19951 0.62361,0.42329 0.62361,0.42329"
         inkscape:connector-curvature="0" />
      <ellipse
         transform="matrix(0,1,1,0,0,0)"
         cy="63.365318"
         cx="189.41095"
         id="path4183"
         style="opacity:1;fill:none;fill-opacity:1;stroke:#000000;stroke-width:0.28222227;stroke-linecap:round;stroke-linejoin:round;stroke-miterlimit:4;stroke-dasharray:none;stroke-dashoffset:0;stroke-opacity:1"
         rx="1.1635276"
         ry="1.1235" />
      <ellipse
         transform="matrix(0,1,1,0,0,0)"
         style="opacity:1;fill:none;fill-opacity:1;stroke:#000000;stroke-width:0.28222227;stroke-linecap:round;stroke-linejoin:round;stroke-miterlimit:4;stroke-dasharray:none;stroke-dashoffset:0;stroke-opacity:1"
         id="circle4187"
         cx="189.41095"
         cy="73.392494"
         rx="1.1635276"
         ry="1.1235" />
      <circle
         transform="matrix(0,1,1,0,0,0)"
         cy="73.447456"
         cx="233.01448"
         id="circle4189"
         style="opacity:1;fill:url(#linearGradient5650-757);fill-opacity:1;stroke:#000000;stroke-width:0.28222227;stroke-linecap:round;stroke-linejoin:round;stroke-miterlimit:4;stroke-dasharray:none;stroke-dashoffset:0;stroke-opacity:1"
         r="1.6588888" />
      <ellipse
         transform="matrix(0,1,1,0,0,0)"
         cy="83.406563"
         cx="189.41095"
         id="circle4191"
         style="opacity:1;fill:none;fill-opacity:1;stroke:#000000;stroke-width:0.28222227;stroke-linecap:round;stroke-linejoin:round;stroke-miterlimit:4;stroke-dasharray:none;stroke-dashoffset:0;stroke-opacity:1"
         rx="1.1635276"
         ry="1.1235" />
      <ellipse
         transform="matrix(0,1,1,0,0,0)"
         style="opacity:1;fill:url(#linearGradient5648-638);fill-opacity:1;stroke:#000000;stroke-width:0.28222227;stroke-linecap:round;stroke-linejoin:round;stroke-miterlimit:4;stroke-dasharray:none;stroke-dashoffset:0;stroke-opacity:1"
         id="circle4193"
         cx="253.94937"
         cy="83.708626"
         rx="2.258889"
         ry="2.2588887" />
      <path
         id="path5652"
         style="opacity:1;fill:none;stroke:#000000;stroke-width:0.28222227;stroke-linecap:butt;stroke-linejoin:miter;stroke-miterlimit:4;stroke-dasharray:none;stroke-opacity:1"
         d="m 103.47761,205.15903 c 0,0 0.43243,0.16707 0.43243,0.31606 0,0.14899 -0.43243,0.31605 -0.43243,0.31605 m 0,-1.26423 c 0,0 -0.43243,0.16707 -0.43243,0.31606 0,0.14899 0.43243,0.31606 0.43243,0.31606 m 0,-1.26807 c 0,0 0.43243,0.16706 0.43243,0.31606 0,0.14898 -0.43243,0.31605 -0.43243,0.31605 m 0,-1.26423 c 0,0 -0.43243,0.16707 -0.43243,0.31606 0,0.14899 0.43243,0.31606 0.43243,0.31606 m 0,-1.26807 c 0,0 0.43243,0.16707 0.43243,0.31606 0,0.14899 -0.43243,0.31605 -0.43243,0.31605 m 0,-1.26423 c 0,0 -0.43243,0.16707 -0.43243,0.31606 0,0.14899 0.43243,0.31606 0.43243,0.31606 m 0,-1.26807 c 0,0 0.43243,0.16707 0.43243,0.31606 0,0.14899 -0.43243,0.31605 -0.43243,0.31605 m 0,-1.26423 c 0,0 -0.43243,0.16707 -0.43243,0.31606 0,0.14899 0.43243,0.31606 0.43243,0.31606 m 0,-1.26807 c 0,0 0.43243,0.16707 0.43243,0.31606 0,0.14899 -0.43243,0.31605 -0.43243,0.31605 m 0,-1.26423 c 0,0 -0.43243,0.16707 -0.43243,0.31606 0,0.14899 0.43243,0.31606 0.43243,0.31606 m 0,-1.26807 c 0,0 0.43243,0.16707 0.43243,0.31605 0,0.149 -0.43243,0.31606 -0.43243,0.31606 m 0,-1.26422 c 0,0 -0.43243,0.16706 -0.43243,0.31605 0,0.14899 0.43243,0.31606 0.43243,0.31606 m 0,-1.26423 c 0,0 0.43243,0.16707 0.43243,0.31606 0,0.14899 -0.43243,0.31606 -0.43243,0.31606 m 0,-1.26423 c 0,0 -0.43243,0.16706 -0.43243,0.31605 0,0.14899 0.43243,0.31606 0.43243,0.31606 m 0,-1.26807 c 0,0 0.43243,0.16707 0.43243,0.31606 0,0.14899 -0.43243,0.31605 -0.43243,0.31605 m 0,-1.26422 c 0,0 -0.43243,0.16706 -0.43243,0.31606 0,0.14898 0.43243,0.31605 0.43243,0.31605 m 0,-1.26807 c 0,0 0.43243,0.16707 0.43243,0.31606 0,0.14899 -0.43243,0.31606 -0.43243,0.31606 m 0,-1.26423 c 0,0 -0.43243,0.16706 -0.43243,0.31605 0,0.149 0.43243,0.31606 0.43243,0.31606 m 0,-1.26807 c 0,0 0.43243,0.16707 0.43243,0.31606 0,0.14899 -0.43243,0.31606 -0.43243,0.31606 m 0,-1.26423 c 0,0 -0.43243,0.16707 -0.43243,0.31606 0,0.14899 0.43243,0.31605 0.43243,0.31605 m 0,-1.26807 c 0,0 0.43243,0.16707 0.43243,0.31606 0,0.14899 -0.43243,0.31606 -0.43243,0.31606 m 0,-1.26423 c 0,0 -0.43243,0.16707 -0.43243,0.31606 0,0.14899 0.43243,0.31605 0.43243,0.31605 m 0,-1.26807 c 0,0 0.43243,0.16707 0.43243,0.31606 0,0.14899 -0.43243,0.31606 -0.43243,0.31606 m 0,-1.26423 c 0,0 -0.43243,0.16707 -0.43243,0.31606 0,0.14899 0.43243,0.31605 0.43243,0.31605"
         inkscape:connector-curvature="0" />
      <path
         inkscape:connector-curvature="0"
         d="m 113.46473,205.18707 c 0,0 0.45444,0.16744 0.45444,0.31678 0,0.14932 -0.45444,0.31677 -0.45444,0.31677 m 0,-1.26712 c 0,0 -0.45445,0.16745 -0.45445,0.31679 0,0.14932 0.45445,0.31678 0.45445,0.31678 m 0,-1.27097 c 0,0 0.45444,0.16744 0.45444,0.31678 0,0.14932 -0.45444,0.31678 -0.45444,0.31678 m 0,-1.26712 c 0,0 -0.45445,0.16744 -0.45445,0.31678 0,0.14933 0.45445,0.31678 0.45445,0.31678 m 0,-1.27097 c 0,0 0.45444,0.16744 0.45444,0.31678 0,0.14933 -0.45444,0.31678 -0.45444,0.31678 m 0,-1.26712 c 0,0 -0.45445,0.16745 -0.45445,0.31678 0,0.14933 0.45445,0.31678 0.45445,0.31678 m 0,-1.27097 c 0,0 0.45444,0.16745 0.45444,0.31678 0,0.14933 -0.45444,0.31678 -0.45444,0.31678 m 0,-1.26712 c 0,0 -0.45445,0.16745 -0.45445,0.31678 0,0.14933 0.45445,0.31678 0.45445,0.31678 m 0,-1.27097 c 0,0 0.45444,0.16745 0.45444,0.31679 0,0.14932 -0.45444,0.31677 -0.45444,0.31677 m 0,-1.26712 c 0,0 -0.45445,0.16745 -0.45445,0.31678 0,0.14933 0.45445,0.31678 0.45445,0.31678 m 0,-1.27096 c 0,0 0.45444,0.16744 0.45444,0.31677 0,0.14934 -0.45444,0.31679 -0.45444,0.31679 m 0,-1.26712 c 0,0 -0.45445,0.16745 -0.45445,0.31678 0,0.14933 0.45445,0.31678 0.45445,0.31678 m 0,-1.26712 c 0,0 0.45444,0.16745 0.45444,0.31678 0,0.14933 -0.45444,0.31678 -0.45444,0.31678 m 0,-1.26712 c 0,0 -0.45445,0.16745 -0.45445,0.31678 0,0.14933 0.45445,0.31678 0.45445,0.31678 m 0,-1.27097 c 0,0 0.45444,0.16745 0.45444,0.31678 0,0.14933 -0.45444,0.31678 -0.45444,0.31678 m 0,-1.26712 c 0,0 -0.45445,0.16745 -0.45445,0.31678 0,0.14933 0.45445,0.31678 0.45445,0.31678 m 0,-1.27097 c 0,0 0.45444,0.16745 0.45444,0.31679 0,0.14933 -0.45444,0.31677 -0.45444,0.31677 m 0,-1.26711 c 0,0 -0.45445,0.16744 -0.45445,0.31678 0,0.14933 0.45445,0.31677 0.45445,0.31677 m 0,-1.27096 c 0,0 0.45444,0.16745 0.45444,0.31678 0,0.14933 -0.45444,0.31678 -0.45444,0.31678 m 0,-1.26712 c 0,0 -0.45445,0.16745 -0.45445,0.31678 0,0.14933 0.45445,0.31678 0.45445,0.31678 m 0,-1.27097 c 0,0 0.45444,0.16745 0.45444,0.31678 0,0.14933 -0.45444,0.31678 -0.45444,0.31678 m 0,-1.26712 c 0,0 -0.45445,0.16745 -0.45445,0.31678 0,0.14933 0.45445,0.31678 0.45445,0.31678 m 0,-1.27097 c 0,0 0.45444,0.16745 0.45444,0.31678 0,0.14933 -0.45444,0.31678 -0.45444,0.31678 m 0,-1.26712 c 0,0 -0.45445,0.16745 -0.45445,0.31678 0,0.14933 0.45445,0.31678 0.45445,0.31678"
         style="opacity:1;fill:none;stroke:#000000;stroke-width:0.28222227;stroke-linecap:butt;stroke-linejoin:miter;stroke-miterlimit:4;stroke-dasharray:none;stroke-opacity:1"
         id="path5654" />
      <path
         id="path5656"
         style="opacity:1;fill:none;stroke:#000000;stroke-width:0.28222227;stroke-linecap:butt;stroke-linejoin:miter;stroke-miterlimit:4;stroke-dasharray:none;stroke-opacity:1"
         d="m 113.46473,220.43397 c 0,0 0.45444,0.16743 0.45444,0.31676 0,0.14934 -0.45444,0.3168 -0.45444,0.3168 m 0,-1.26715 c 0,0 -0.45445,0.16748 -0.45445,0.31681 0,0.14931 0.45445,0.31678 0.45445,0.31678 m 0,-1.27097 c 0,0 0.45444,0.16744 0.45444,0.31677 0,0.14933 -0.45444,0.31678 -0.45444,0.31678 m 0,-1.26712 c 0,0 -0.45445,0.16746 -0.45445,0.3168 0,0.14931 0.45445,0.31677 0.45445,0.31677 m 0,-1.27098 c 0,0 0.45444,0.16745 0.45444,0.31678 0,0.14934 -0.45444,0.31679 -0.45444,0.31679 m 0,-1.26713 c 0,0 -0.45445,0.16745 -0.45445,0.31678 0,0.14933 0.45445,0.31678 0.45445,0.31678 m 0,-1.27096 c 0,0 0.45444,0.16745 0.45444,0.31677 0,0.14934 -0.45444,0.31679 -0.45444,0.31679 m 0,-1.26712 c 0,0 -0.45445,0.16745 -0.45445,0.31678 0,0.14933 0.45445,0.31678 0.45445,0.31678 m 0,-1.27097 c 0,0 0.45444,0.16745 0.45444,0.31678 0,0.14933 -0.45444,0.31678 -0.45444,0.31678 m 0,-1.26712 c 0,0 -0.45445,0.16745 -0.45445,0.31678 0,0.14933 0.45445,0.31678 0.45445,0.31678 m 0,-1.27096 c 0,0 0.45444,0.16744 0.45444,0.31677 0,0.14933 -0.45444,0.31678 -0.45444,0.31678 m 0,-1.26711 c 0,0 -0.45445,0.16745 -0.45445,0.31677 0,0.14933 0.45445,0.31679 0.45445,0.31679 m 0,-1.26712 c 0,0 0.45444,0.16745 0.45444,0.31678 0,0.14933 -0.45444,0.31678 -0.45444,0.31678 m 0,-1.26712 c 0,0 -0.45445,0.16744 -0.45445,0.31678 0,0.14933 0.45445,0.31678 0.45445,0.31678 m 0,-1.27097 c 0,0 0.45444,0.16745 0.45444,0.31678 0,0.14933 -0.45444,0.31678 -0.45444,0.31678 m 0,-1.26712 c 0,0 -0.45445,0.16745 -0.45445,0.31678 0,0.14933 0.45445,0.31678 0.45445,0.31678 m 0,-1.27097 c 0,0 0.45444,0.16745 0.45444,0.31678 0,0.14933 -0.45444,0.31678 -0.45444,0.31678 m 0,-1.26712 c 0,0 -0.45445,0.16745 -0.45445,0.31678 0,0.14933 0.45445,0.31678 0.45445,0.31678 m 0,-1.27096 c 0,0 0.45444,0.16744 0.45444,0.31678 0,0.14932 -0.45444,0.31677 -0.45444,0.31677 m 0,-1.26711 c 0,0 -0.45445,0.16744 -0.45445,0.31678 0,0.14933 0.45445,0.31678 0.45445,0.31678 m 0,-1.27097 c 0,0 0.45444,0.16745 0.45444,0.31678 0,0.14933 -0.45444,0.31678 -0.45444,0.31678 m 0,-1.26712 c 0,0 -0.45445,0.16745 -0.45445,0.31678 0,0.14933 0.45445,0.31678 0.45445,0.31678 m 0,-1.27097 c 0,0 0.45444,0.16745 0.45444,0.31678 0,0.14933 -0.45444,0.31678 -0.45444,0.31678 m 0,-1.26712 c 0,0 -0.45445,0.16745 -0.45445,0.31678 0,0.14934 0.45445,0.31678 0.45445,0.31678"
         inkscape:connector-curvature="0" />
      <path
         inkscape:connector-curvature="0"
         d="m 123.69443,205.16333 c 0,0 0.45797,0.16757 0.45797,0.317 0,0.14943 -0.45797,0.317 -0.45797,0.317 m 0,-1.26799 c 0,0 -0.45797,0.16756 -0.45797,0.317 0,0.14943 0.45797,0.31699 0.45797,0.31699 m 0,-1.27183 c 0,0 0.45797,0.16756 0.45797,0.31699 0,0.14944 -0.45797,0.317 -0.45797,0.317 m 0,-1.26799 c 0,0 -0.45797,0.16757 -0.45797,0.317 0,0.14943 0.45797,0.317 0.45797,0.317 m 0,-1.27184 c 0,0 0.45797,0.16756 0.45797,0.317 0,0.14943 -0.45797,0.31699 -0.45797,0.31699 m 0,-1.26798 c 0,0 -0.45797,0.16756 -0.45797,0.317 0,0.14943 0.45797,0.31699 0.45797,0.31699 m 0,-1.27184 c 0,0 0.45797,0.16757 0.45797,0.317 0,0.14943 -0.45797,0.317 -0.45797,0.317 m 0,-1.26799 c 0,0 -0.45797,0.16757 -0.45797,0.317 0,0.14943 0.45797,0.31699 0.45797,0.31699 m 0,-1.27183 c 0,0 0.45797,0.16756 0.45797,0.317 0,0.14943 -0.45797,0.31699 -0.45797,0.31699 m 0,-1.26798 c 0,0 -0.45797,0.16756 -0.45797,0.31699 0,0.14944 0.45797,0.317 0.45797,0.317 m 0,-1.27183 c 0,0 0.45797,0.16756 0.45797,0.31699 0,0.14943 -0.45797,0.317 -0.45797,0.317 m 0,-1.26799 c 0,0 -0.45797,0.16757 -0.45797,0.317 0,0.14943 0.45797,0.317 0.45797,0.317 m 0,-1.26799 c 0,0 0.45797,0.16757 0.45797,0.317 0,0.14943 -0.45797,0.31699 -0.45797,0.31699 m 0,-1.26798 c 0,0 -0.45797,0.16756 -0.45797,0.317 0,0.14943 0.45797,0.31699 0.45797,0.31699 m 0,-1.27183 c 0,0 0.45797,0.16756 0.45797,0.31699 0,0.14943 -0.45797,0.317 -0.45797,0.317 m 0,-1.26799 c 0,0 -0.45797,0.16757 -0.45797,0.317 0,0.14944 0.45797,0.317 0.45797,0.317 m 0,-1.27184 c 0,0 0.45797,0.16756 0.45797,0.317 0,0.14943 -0.45797,0.317 -0.45797,0.317 m 0,-1.26799 c 0,0 -0.45797,0.16756 -0.45797,0.317 0,0.14943 0.45797,0.31699 0.45797,0.31699 m 0,-1.27183 c 0,0 0.45797,0.16756 0.45797,0.31699 0,0.14944 -0.45797,0.317 -0.45797,0.317 m 0,-1.26798 c 0,0 -0.45797,0.16756 -0.45797,0.31699 0,0.14943 0.45797,0.317 0.45797,0.317 m 0,-1.27184 c 0,0 0.45797,0.16756 0.45797,0.317 0,0.14943 -0.45797,0.31699 -0.45797,0.31699 m 0,-1.26798 c 0,0 -0.45797,0.16756 -0.45797,0.317 0,0.14943 0.45797,0.31699 0.45797,0.31699 m 0,-1.27184 c 0,0 0.45797,0.16757 0.45797,0.317 0,0.14944 -0.45797,0.317 -0.45797,0.317 m 0,-1.26799 c 0,0 -0.45797,0.16757 -0.45797,0.317 0,0.14944 0.45797,0.31699 0.45797,0.31699"
         style="opacity:1;fill:none;stroke:#000000;stroke-width:0.28222227;stroke-linecap:butt;stroke-linejoin:miter;stroke-miterlimit:4;stroke-dasharray:none;stroke-opacity:1"
         id="path5658" />
      <path
         id="path5660"
         style="opacity:1;fill:none;stroke:#000000;stroke-width:0.28222227;stroke-linecap:butt;stroke-linejoin:miter;stroke-miterlimit:4;stroke-dasharray:none;stroke-opacity:1"
         d="m 123.69443,220.42065 c 0,0 0.45797,0.16755 0.45797,0.31699 0,0.14943 -0.45797,0.31701 -0.45797,0.31701 m 0,-1.26802 c 0,0 -0.45797,0.16759 -0.45797,0.31701 0,0.14943 0.45797,0.31701 0.45797,0.31701 m 0,-1.27183 c 0,0 0.45797,0.16753 0.45797,0.31697 0,0.14945 -0.45797,0.31701 -0.45797,0.31701 m 0,-1.268 c 0,0 -0.45797,0.16759 -0.45797,0.31702 0,0.14942 0.45797,0.317 0.45797,0.317 m 0,-1.27186 c 0,0 0.45797,0.16757 0.45797,0.31701 0,0.14943 -0.45797,0.31699 -0.45797,0.31699 m 0,-1.26798 c 0,0 -0.45797,0.16756 -0.45797,0.31699 0,0.14944 0.45797,0.31699 0.45797,0.31699 m 0,-1.27182 c 0,0 0.45797,0.16756 0.45797,0.31699 0,0.14943 -0.45797,0.317 -0.45797,0.317 m 0,-1.26798 c 0,0 -0.45797,0.16756 -0.45797,0.31699 0,0.14944 0.45797,0.317 0.45797,0.317 m 0,-1.27184 c 0,0 0.45797,0.16756 0.45797,0.317 0,0.14943 -0.45797,0.31699 -0.45797,0.31699 m 0,-1.26798 c 0,0 -0.45797,0.16756 -0.45797,0.31699 0,0.14944 0.45797,0.317 0.45797,0.317 m 0,-1.27183 c 0,0 0.45797,0.16756 0.45797,0.31699 0,0.14943 -0.45797,0.317 -0.45797,0.317 m 0,-1.26799 c 0,0 -0.45797,0.16757 -0.45797,0.317 0,0.14943 0.45797,0.317 0.45797,0.317 m 0,-1.26799 c 0,0 0.45797,0.16756 0.45797,0.317 0,0.14943 -0.45797,0.31699 -0.45797,0.31699 m 0,-1.26798 c 0,0 -0.45797,0.16757 -0.45797,0.317 0,0.14943 0.45797,0.31699 0.45797,0.31699 m 0,-1.27183 c 0,0 0.45797,0.16756 0.45797,0.31699 0,0.14944 -0.45797,0.317 -0.45797,0.317 m 0,-1.26798 c 0,0 -0.45797,0.16756 -0.45797,0.31699 0,0.14943 0.45797,0.317 0.45797,0.317 m 0,-1.27184 c 0,0 0.45797,0.16756 0.45797,0.317 0,0.14943 -0.45797,0.317 -0.45797,0.317 m 0,-1.26799 c 0,0 -0.45797,0.16756 -0.45797,0.317 0,0.14943 0.45797,0.31699 0.45797,0.31699 m 0,-1.27183 c 0,0 0.45797,0.16756 0.45797,0.31699 0,0.14944 -0.45797,0.317 -0.45797,0.317 m 0,-1.26798 c 0,0 -0.45797,0.16756 -0.45797,0.31699 0,0.14944 0.45797,0.317 0.45797,0.317 m 0,-1.27184 c 0,0 0.45797,0.16757 0.45797,0.317 0,0.14943 -0.45797,0.31699 -0.45797,0.31699 m 0,-1.26798 c 0,0 -0.45797,0.16756 -0.45797,0.317 0,0.14943 0.45797,0.31699 0.45797,0.31699 m 0,-1.27183 c 0,0 0.45797,0.16756 0.45797,0.31699 0,0.14944 -0.45797,0.317 -0.45797,0.317 m 0,-1.26798 c 0,0 -0.45797,0.16756 -0.45797,0.31699 0,0.14944 0.45797,0.317 0.45797,0.317"
         inkscape:connector-curvature="0" />
      <path
         inkscape:connector-curvature="0"
         d="m 123.69443,235.67794 c 0,0 0.45797,0.16759 0.45797,0.31702 0,0.1494 -0.45797,0.317 -0.45797,0.317 m 0,-1.268 c 0,0 -0.45797,0.16755 -0.45797,0.31702 0,0.14941 0.45797,0.31696 0.45797,0.31696 m 0,-1.27182 c 0,0 0.45797,0.16758 0.45797,0.31701 0,0.14941 -0.45797,0.31699 -0.45797,0.31699 m 0,-1.26799 c 0,0 -0.45797,0.16756 -0.45797,0.31701 0,0.14942 0.45797,0.31698 0.45797,0.31698 m 0,-1.27185 c 0,0 0.45797,0.16759 0.45797,0.317 0,0.14943 -0.45797,0.31701 -0.45797,0.31701 m 0,-1.26798 c 0,0 -0.45797,0.16755 -0.45797,0.31702 0,0.14941 0.45797,0.31695 0.45797,0.31695 m 0,-1.27182 c 0,0 0.45797,0.16756 0.45797,0.31698 0,0.14945 -0.45797,0.31702 -0.45797,0.31702 m 0,-1.268 c 0,0 -0.45797,0.16757 -0.45797,0.31702 0,0.14943 0.45797,0.31698 0.45797,0.31698 m 0,-1.27184 c 0,0 0.45797,0.16758 0.45797,0.31698 0,0.14944 -0.45797,0.31703 -0.45797,0.31703 m 0,-1.268 c 0,0 -0.45797,0.16757 -0.45797,0.31701 0,0.14944 0.45797,0.31698 0.45797,0.31698 m 0,-1.27184 c 0,0 0.45797,0.16757 0.45797,0.31698 0,0.14944 -0.45797,0.31702 -0.45797,0.31702 m 0,-1.268 c 0,0 -0.45797,0.16759 -0.45797,0.31702 0,0.14943 0.45797,0.31698 0.45797,0.31698 m 0,-1.26796 c 0,0 0.45797,0.16754 0.45797,0.31697 0,0.14944 -0.45797,0.31699 -0.45797,0.31699 m 0,-1.26797 c 0,0 -0.45797,0.16758 -0.45797,0.317 0,0.14942 0.45797,0.31701 0.45797,0.31701 m 0,-1.27183 c 0,0 0.45797,0.16754 0.45797,0.31697 0,0.14945 -0.45797,0.31699 -0.45797,0.31699 m 0,-1.26798 c 0,0 -0.45797,0.16759 -0.45797,0.31701 0,0.14941 0.45797,0.31701 0.45797,0.31701 m 0,-1.27184 c 0,0 0.45797,0.16753 0.45797,0.31697 0,0.14945 -0.45797,0.31699 -0.45797,0.31699 m 0,-1.26797 c 0,0 -0.45797,0.16759 -0.45797,0.31701 0,0.14942 0.45797,0.317 0.45797,0.317 m 0,-1.27185 c 0,0 0.45797,0.16755 0.45797,0.31699 0,0.14945 -0.45797,0.31698 -0.45797,0.31698 m 0,-1.26797 c 0,0 -0.45797,0.16758 -0.45797,0.31699 0,0.14944 0.45797,0.31701 0.45797,0.31701 m 0,-1.27183 c 0,0 0.45797,0.16754 0.45797,0.31698 0,0.14946 -0.45797,0.31699 -0.45797,0.31699 m 0,-1.26798 c 0,0 -0.45797,0.16757 -0.45797,0.31699 0,0.14944 0.45797,0.31702 0.45797,0.31702 m 0,-1.27183 c 0,0 0.45797,0.16754 0.45797,0.31699 0,0.14944 -0.45797,0.31698 -0.45797,0.31698 m 0,-1.26798 c 0,0 -0.45797,0.16756 -0.45797,0.31699 0,0.14942 0.45797,0.31702 0.45797,0.31702"
         style="opacity:1;fill:none;stroke:#000000;stroke-width:0.28222227;stroke-linecap:butt;stroke-linejoin:miter;stroke-miterlimit:4;stroke-dasharray:none;stroke-opacity:1"
         id="path5662" />
      <ellipse
         transform="matrix(0,1,1,0,0,0)"
         ry="1.1235"
         rx="1.1635276"
         style="opacity:1;fill:none;fill-opacity:1;stroke:#000000;stroke-width:0.28222227;stroke-linecap:round;stroke-linejoin:round;stroke-miterlimit:4;stroke-dasharray:none;stroke-dashoffset:0;stroke-opacity:1"
         id="ellipse5664"
         cx="189.41095"
         cy="103.38941" />
      <ellipse
         transform="matrix(0,1,1,0,0,0)"
         ry="1.1235"
         rx="1.1635276"
         cy="113.41659"
         cx="189.41095"
         id="ellipse5666"
         style="opacity:1;fill:none;fill-opacity:1;stroke:#000000;stroke-width:0.28222227;stroke-linecap:round;stroke-linejoin:round;stroke-miterlimit:4;stroke-dasharray:none;stroke-dashoffset:0;stroke-opacity:1" />
      <ellipse
         transform="matrix(0,1,1,0,0,0)"
         style="opacity:1;fill:url(#linearGradient5710-161);fill-opacity:1;stroke:#000000;stroke-width:0.28222227;stroke-linecap:round;stroke-linejoin:round;stroke-miterlimit:4;stroke-dasharray:none;stroke-dashoffset:0;stroke-opacity:1"
         id="circle5668"
         cx="222.31453"
         cy="113.47155"
         rx="1.2415884"
         ry="1.2088889" />
      <ellipse
         transform="matrix(0,1,1,0,0,0)"
         ry="1.1235"
         rx="1.1635276"
         style="opacity:1;fill:none;fill-opacity:1;stroke:#000000;stroke-width:0.28222227;stroke-linecap:round;stroke-linejoin:round;stroke-miterlimit:4;stroke-dasharray:none;stroke-dashoffset:0;stroke-opacity:1"
         id="ellipse5670"
         cx="189.41095"
         cy="123.43066" />
      <ellipse
         transform="matrix(0,1,1,0,0,0)"
         ry="1.6588887"
         rx="1.6918107"
         cy="123.73272"
         cx="238.02708"
         id="ellipse5672"
         style="opacity:1;fill:url(#linearGradient5718-782);fill-opacity:1;stroke:#000000;stroke-width:0.28222227;stroke-linecap:round;stroke-linejoin:round;stroke-miterlimit:4;stroke-dasharray:none;stroke-dashoffset:0;stroke-opacity:1" />
      <text
         xml:space="preserve"
         style="font-style:normal;font-weight:normal;line-height:0%;font-family:sans-serif;letter-spacing:0px;word-spacing:0px;opacity:1;fill:#000000;fill-opacity:1;stroke:none;stroke-width:1px;stroke-linecap:butt;stroke-linejoin:miter;stroke-opacity:1"
         x="58.427177"
         y="192.02837"
         id="text4210"><tspan
           sodipodi:role="line"
           id="tspan4212"
           x="58.427177"
           y="192.02837"
           style="font-style:italic;font-variant:normal;font-weight:normal;font-stretch:normal;font-size:5.64444447px;line-height:1.25;font-family:'Myriad Pro';-inkscape-font-specification:'Myriad Pro Italic';opacity:1">A</tspan></text>
      <text
         id="text4214"
         y="191.87749"
         x="118.47857"
         style="font-style:normal;font-weight:normal;line-height:0%;font-family:sans-serif;letter-spacing:0px;word-spacing:0px;opacity:1;fill:#000000;fill-opacity:1;stroke:none;stroke-width:1px;stroke-linecap:butt;stroke-linejoin:miter;stroke-opacity:1"
         xml:space="preserve"><tspan
           style="font-style:italic;font-variant:normal;font-weight:normal;font-stretch:normal;font-size:5.64444447px;line-height:1.25;font-family:'Myriad Pro';-inkscape-font-specification:'Myriad Pro Italic';opacity:1"
           y="191.87749"
           x="118.47857"
           id="tspan4216"
           sodipodi:role="line">P</tspan></text>
      <text
         xml:space="preserve"
         style="font-style:normal;font-weight:normal;line-height:0%;font-family:sans-serif;letter-spacing:0px;word-spacing:0px;opacity:1;fill:#000000;fill-opacity:1;stroke:none;stroke-width:1px;stroke-linecap:butt;stroke-linejoin:miter;stroke-opacity:1"
         x="58.563595"
         y="210.90002"
         id="text4218"><tspan
           sodipodi:role="line"
           id="tspan4220"
           x="58.563595"
           y="210.90002"
           style="font-style:italic;font-variant:normal;font-weight:normal;font-stretch:normal;font-size:5.64444447px;line-height:1.25;font-family:'Myriad Pro';-inkscape-font-specification:'Myriad Pro Italic';opacity:1">B</tspan></text>
      <text
         id="text4222"
         y="192.03206"
         x="68.07608"
         style="font-style:normal;font-weight:normal;line-height:0%;font-family:sans-serif;letter-spacing:0px;word-spacing:0px;opacity:1;fill:#000000;fill-opacity:1;stroke:none;stroke-width:1px;stroke-linecap:butt;stroke-linejoin:miter;stroke-opacity:1"
         xml:space="preserve"><tspan
           style="font-style:italic;font-variant:normal;font-weight:normal;font-stretch:normal;font-size:5.64444447px;line-height:1.25;font-family:'Myriad Pro';-inkscape-font-specification:'Myriad Pro Italic';opacity:1"
           y="192.03206"
           x="68.07608"
           id="tspan4224"
           sodipodi:role="line">C</tspan></text>
      <text
         xml:space="preserve"
         style="font-style:normal;font-weight:normal;line-height:0%;font-family:sans-serif;letter-spacing:0px;word-spacing:0px;opacity:1;fill:#000000;fill-opacity:1;stroke:none;stroke-width:1px;stroke-linecap:butt;stroke-linejoin:miter;stroke-opacity:1"
         x="67.315811"
         y="234.93263"
         id="text4226"><tspan
           sodipodi:role="line"
           id="tspan4228"
           x="67.315811"
           y="234.93263"
           style="font-style:italic;font-variant:normal;font-weight:normal;font-stretch:normal;font-size:5.64444447px;line-height:1.25;font-family:'Myriad Pro';-inkscape-font-specification:'Myriad Pro Italic';opacity:1">D</tspan></text>
      <text
         id="text4234"
         y="255.70145"
         x="78.188812"
         style="font-style:normal;font-weight:normal;line-height:0%;font-family:sans-serif;letter-spacing:0px;word-spacing:0px;opacity:1;fill:#000000;fill-opacity:1;stroke:none;stroke-width:1px;stroke-linecap:butt;stroke-linejoin:miter;stroke-opacity:1"
         xml:space="preserve"><tspan
           style="font-style:italic;font-variant:normal;font-weight:normal;font-stretch:normal;font-size:5.64444447px;line-height:1.25;font-family:'Myriad Pro';-inkscape-font-specification:'Myriad Pro Italic';opacity:1"
           y="255.70145"
           x="78.188812"
           id="tspan4236"
           sodipodi:role="line">F</tspan></text>
      <text
         id="text5674"
         y="191.94991"
         x="99.201355"
         style="font-style:normal;font-weight:normal;line-height:0%;font-family:sans-serif;letter-spacing:0px;word-spacing:0px;opacity:1;fill:#000000;fill-opacity:1;stroke:none;stroke-width:1px;stroke-linecap:butt;stroke-linejoin:miter;stroke-opacity:1"
         xml:space="preserve"><tspan
           style="font-style:italic;font-variant:normal;font-weight:normal;font-stretch:normal;font-size:5.64444447px;line-height:1.25;font-family:'Myriad Pro';-inkscape-font-specification:'Myriad Pro Italic';opacity:1"
           y="191.94991"
           x="99.201355"
           id="tspan5676"
           sodipodi:role="line">L</tspan></text>
      <text
         id="text5678"
         y="205.89761"
         x="97.815178"
         style="font-style:normal;font-weight:normal;line-height:0%;font-family:sans-serif;letter-spacing:0px;word-spacing:0px;opacity:1;fill:#000000;fill-opacity:1;stroke:none;stroke-width:1px;stroke-linecap:butt;stroke-linejoin:miter;stroke-opacity:1"
         xml:space="preserve"><tspan
           style="font-style:italic;font-variant:normal;font-weight:normal;font-stretch:normal;font-size:5.64444447px;line-height:1.25;font-family:'Myriad Pro';-inkscape-font-specification:'Myriad Pro Italic';opacity:1"
           y="205.89761"
           x="97.815178"
           id="tspan5680"
           sodipodi:role="line">M</tspan></text>
      <text
         xml:space="preserve"
         style="font-style:normal;font-weight:normal;line-height:0%;font-family:sans-serif;letter-spacing:0px;word-spacing:0px;opacity:1;fill:#000000;fill-opacity:1;stroke:none;stroke-width:1px;stroke-linecap:butt;stroke-linejoin:miter;stroke-opacity:1"
         x="107.78"
         y="192.00372"
         id="text5682"><tspan
           sodipodi:role="line"
           id="tspan5684"
           x="107.78"
           y="192.00372"
           style="font-style:italic;font-variant:normal;font-weight:normal;font-stretch:normal;font-size:5.64444447px;line-height:1.25;font-family:'Myriad Pro';-inkscape-font-specification:'Myriad Pro Italic';opacity:1">N</tspan></text>
      <text
         id="text5686"
         y="223.85765"
         x="107.76678"
         style="font-style:normal;font-weight:normal;line-height:0%;font-family:sans-serif;letter-spacing:0px;word-spacing:0px;opacity:1;fill:#000000;fill-opacity:1;stroke:none;stroke-width:1px;stroke-linecap:butt;stroke-linejoin:miter;stroke-opacity:1"
         xml:space="preserve"><tspan
           style="font-style:italic;font-variant:normal;font-weight:normal;font-stretch:normal;font-size:5.64444447px;line-height:1.25;font-family:'Myriad Pro';-inkscape-font-specification:'Myriad Pro Italic';opacity:1"
           y="223.85765"
           x="107.76678"
           id="tspan5688"
           sodipodi:role="line">O</tspan></text>
      <text
         xml:space="preserve"
         style="font-style:normal;font-weight:normal;line-height:0%;font-family:sans-serif;letter-spacing:0px;word-spacing:0px;opacity:1;fill:#000000;fill-opacity:1;stroke:none;stroke-width:1px;stroke-linecap:butt;stroke-linejoin:miter;stroke-opacity:1"
         x="117.5022"
         y="239.91826"
         id="text5692"><tspan
           sodipodi:role="line"
           id="tspan5694"
           x="117.5022"
           y="239.91826"
           style="font-style:italic;font-variant:normal;font-weight:normal;font-stretch:normal;font-size:5.64444447px;line-height:1.25;font-family:'Myriad Pro';-inkscape-font-specification:'Myriad Pro Italic';opacity:1">Q</tspan></text>
      <text
         xml:space="preserve"
         style="font-style:normal;font-weight:normal;line-height:0%;font-family:sans-serif;letter-spacing:0px;word-spacing:0px;opacity:1;fill:#000000;fill-opacity:1;stroke:none;stroke-width:1px;stroke-linecap:butt;stroke-linejoin:miter;stroke-opacity:1"
         x="78.689514"
         y="191.9754"
         id="text213"><tspan
           sodipodi:role="line"
           id="tspan211"
           x="78.689514"
           y="191.9754"
           style="font-style:italic;font-variant:normal;font-weight:normal;font-stretch:normal;font-size:5.64444447px;line-height:1.25;font-family:'Myriad Pro';-inkscape-font-specification:'Myriad Pro Italic';opacity:1">E</tspan></text>
    </g>
  </g>
</svg>
