<?xml version="1.0" encoding="UTF-8" standalone="no"?>
<!-- Created with Inkscape (http://www.inkscape.org/) -->

<svg
   xmlns:dc="http://purl.org/dc/elements/1.1/"
   xmlns:cc="http://creativecommons.org/ns#"
   xmlns:rdf="http://www.w3.org/1999/02/22-rdf-syntax-ns#"
   xmlns:svg="http://www.w3.org/2000/svg"
   xmlns="http://www.w3.org/2000/svg"
   xmlns:sodipodi="http://sodipodi.sourceforge.net/DTD/sodipodi-0.dtd"
   xmlns:inkscape="http://www.inkscape.org/namespaces/inkscape"
   width="210mm"
   height="297mm"
   viewBox="0 0 744.09448819 1052.3622047"
   id="svg2"
   version="1.1"
   inkscape:version="0.91 r13725"
   sodipodi:docname="LH_35_09_15_001,022_d6.svg">
  <defs
     id="defs4" />
  <sodipodi:namedview
     id="base"
     pagecolor="#ffffff"
     bordercolor="#666666"
     borderopacity="1.0"
     inkscape:pageopacity="0.0"
     inkscape:pageshadow="2"
     inkscape:zoom="2.3356057"
     inkscape:cx="111.9119"
     inkscape:cy="143.06259"
     inkscape:document-units="px"
     inkscape:current-layer="layer1"
     showgrid="false"
     inkscape:window-width="2048"
     inkscape:window-height="1035"
     inkscape:window-x="2960"
     inkscape:window-y="1"
     inkscape:window-maximized="1">
    <inkscape:grid
       type="xygrid"
       id="grid4136" />
  </sodipodi:namedview>
  <metadata
     id="metadata7">
    <rdf:RDF>
      <cc:Work
         rdf:about="">
        <dc:format>image/svg+xml</dc:format>
        <dc:type
           rdf:resource="http://purl.org/dc/dcmitype/StillImage" />
        <dc:title></dc:title>
      </cc:Work>
    </rdf:RDF>
  </metadata>
  <g
     inkscape:label="Ebene 1"
     inkscape:groupmode="layer"
     id="layer1">
    <rect
       style="opacity:1;fill:none;fill-opacity:1;stroke:#000000;stroke-width:1;stroke-linecap:round;stroke-linejoin:round;stroke-miterlimit:4;stroke-dasharray:none;stroke-dashoffset:0;stroke-opacity:1"
       id="rect4138"
       width="176.16536"
       height="176.16536"
       x="0.5"
       y="875.69684" />
    <path
       style="fill:none;fill-rule:evenodd;stroke:#000000;stroke-width:0.99999994px;stroke-linecap:butt;stroke-linejoin:round;stroke-opacity:1"
       d="m 141.80529,734.64855 c 0,213.64339 -0.0823,282.86095 -0.13625,305.86285 -0.0273,11.2333 -0.0461,11.2333 -0.0461,11.2333"
       id="path4140"
       inkscape:connector-curvature="0"
       sodipodi:nodetypes="csc" />
    <path
       sodipodi:nodetypes="csc"
       inkscape:connector-curvature="0"
       id="path4181"
       d="m 106.35535,769.2923 c 0,190.32178 -0.0682,251.9835 -0.11286,272.4744 -0.0226,10.0071 -0.0382,10.0071 -0.0382,10.0071"
       style="fill:none;fill-rule:evenodd;stroke:#000000;stroke-width:0.99999994px;stroke-linecap:butt;stroke-linejoin:round;stroke-opacity:1" />
    <path
       style="fill:none;fill-rule:evenodd;stroke:#000000;stroke-width:1.00000012px;stroke-linecap:butt;stroke-linejoin:round;stroke-opacity:1"
       d="m 70.906014,804.90057 c 0,166.3507 -0.05342,220.24603 -0.08844,238.15613 -0.01773,8.7467 -0.02992,8.7467 -0.02992,8.7467"
       id="path4183"
       inkscape:connector-curvature="0"
       sodipodi:nodetypes="csc" />
    <path
       sodipodi:nodetypes="csc"
       inkscape:connector-curvature="0"
       id="path4185"
       d="m 0,907.53339 c 47.756067,0 63.228388,0.0246 68.370038,0.0408 2.511008,0.008 2.511008,0.0138 2.511008,0.0138"
       style="fill:none;fill-rule:evenodd;stroke:#000000;stroke-width:0.9999997px;stroke-linecap:butt;stroke-linejoin:round;stroke-opacity:1" />
    <path
       style="fill:none;fill-rule:evenodd;stroke:#000000;stroke-width:0.99999976px;stroke-linecap:butt;stroke-linejoin:round;stroke-opacity:1"
       d="m 71.320268,938.45194 c 23.536138,0 31.161532,0.0246 33.695542,0.0408 1.23753,0.008 1.23753,0.0138 1.23753,0.0138"
       id="path4187"
       inkscape:connector-curvature="0"
       sodipodi:nodetypes="csc" />
    <path
       sodipodi:nodetypes="csc"
       inkscape:connector-curvature="0"
       id="path4189"
       d="m 106.9791,979.86148 c 23.53613,0 31.16152,0.0246 33.69553,0.0408 1.23753,0.008 1.23753,0.0138 1.23753,0.0138"
       style="fill:none;fill-rule:evenodd;stroke:#000000;stroke-width:0.99999976px;stroke-linecap:butt;stroke-linejoin:round;stroke-opacity:1" />
    <path
       sodipodi:nodetypes="csc"
       inkscape:connector-curvature="0"
       id="path4191"
       d="m 176.74417,698.56708 c 0,119.64962 -0.0187,158.41447 -0.0309,171.2965 -0.006,6.29118 -0.0105,6.29118 -0.0105,6.29118"
       style="fill:none;fill-rule:evenodd;stroke:#000000;stroke-width:0.99999994px;stroke-linecap:round;stroke-linejoin:round;stroke-opacity:1" />
    <path
       style="fill:none;fill-rule:evenodd;stroke:#000000;stroke-width:1px;stroke-linecap:round;stroke-linejoin:miter;stroke-opacity:1"
       d="M 0.51240317,875.40357 C 176.69598,699.3331 176.69598,698.69406 176.69598,698.69406 l 0,0 0,0"
       id="path4195"
       inkscape:connector-curvature="0" />
    <path
       style="fill:none;fill-rule:evenodd;stroke:#000000;stroke-width:0.99999976px;stroke-linecap:butt;stroke-linejoin:round;stroke-opacity:1"
       d="m 70.89645,805.03545 c 71.69674,0 94.92551,0.0617 102.64473,0.10229 3.76981,0.0201 3.76981,0.0346 3.76981,0.0346"
       id="path4199"
       inkscape:connector-curvature="0"
       sodipodi:nodetypes="csc" />
    <path
       sodipodi:nodetypes="csc"
       inkscape:connector-curvature="0"
       id="path4201"
       d="m 106.07527,769.53938 c 47.75607,0 63.22839,0.0246 68.37004,0.0408 2.51101,0.008 2.51101,0.0138 2.51101,0.0138"
       style="fill:none;fill-rule:evenodd;stroke:#000000;stroke-width:0.9999997px;stroke-linecap:butt;stroke-linejoin:round;stroke-opacity:1" />
    <path
       style="fill:none;fill-rule:evenodd;stroke:#000000;stroke-width:0.9999997px;stroke-linecap:butt;stroke-linejoin:round;stroke-opacity:1"
       d="m 141.57333,734.04256 c 24.032,0 31.81804,-0.0118 34.40545,-0.0196 1.2636,-0.004 1.2636,-0.007 1.2636,-0.007"
       id="path4203"
       inkscape:connector-curvature="0"
       sodipodi:nodetypes="csc" />
    <path
       transform="matrix(0,-1,1,0,0,0)"
       style="opacity:1;fill:none;fill-opacity:1;stroke:#000000;stroke-width:1;stroke-linecap:round;stroke-linejoin:miter;stroke-miterlimit:4;stroke-dasharray:none;stroke-dashoffset:0;stroke-opacity:1"
       d="m -875.69691,0.50712126 c -0.24921,16.78125974 -28.7992,66.28371074 -31.96118,70.29959274 -6.71703,8.530992 -22.50467,27.22203 -30.85804,35.590726 -10.08378,10.10228 -29.77663,27.94548 -40.74853,35.06683 -22.97474,14.91184 -44.59974,27.10071 -72.28774,34.89828"
       id="path4231"
       inkscape:connector-curvature="0"
       sodipodi:nodetypes="csssc" />
  </g>
</svg>
