<?xml version="1.0" encoding="UTF-8" standalone="no"?>
<!-- Created with Inkscape (http://www.inkscape.org/) -->

<svg
   xmlns:dc="http://purl.org/dc/elements/1.1/"
   xmlns:cc="http://creativecommons.org/ns#"
   xmlns:rdf="http://www.w3.org/1999/02/22-rdf-syntax-ns#"
   xmlns:svg="http://www.w3.org/2000/svg"
   xmlns="http://www.w3.org/2000/svg"
   xmlns:sodipodi="http://sodipodi.sourceforge.net/DTD/sodipodi-0.dtd"
   xmlns:inkscape="http://www.inkscape.org/namespaces/inkscape"
   width="23.528877mm"
   height="32.086674mm"
   viewBox="0 0 23.528877 32.086674"
   version="1.1"
   id="svg8"
   inkscape:version="0.92.2 (5c3e80d, 2017-08-06)"
   sodipodi:docname="LH037,05_118r-d1.svg">
  <defs
     id="defs2" />
  <sodipodi:namedview
     id="base"
     pagecolor="#ffffff"
     bordercolor="#666666"
     borderopacity="1.0"
     inkscape:pageopacity="0.0"
     inkscape:pageshadow="2"
     inkscape:zoom="3"
     inkscape:cx="4.8672248"
     inkscape:cy="67.396458"
     inkscape:document-units="mm"
     inkscape:current-layer="layer1"
     showgrid="false"
     inkscape:measure-start="533.663,384.158"
     inkscape:measure-end="187.324,625.352"
     inkscape:window-width="1076"
     inkscape:window-height="690"
     inkscape:window-x="1806"
     inkscape:window-y="0"
     inkscape:window-maximized="0"
     inkscape:snap-grids="true"
     inkscape:snap-to-guides="false"
     fit-margin-top="0.5"
     fit-margin-right="0.5"
     fit-margin-bottom="0.5"
     fit-margin-left="0.5" />
  <metadata
     id="metadata5">
    <rdf:RDF>
      <cc:Work
         rdf:about="">
        <dc:format>image/svg+xml</dc:format>
        <dc:type
           rdf:resource="http://purl.org/dc/dcmitype/StillImage" />
        <dc:title></dc:title>
      </cc:Work>
    </rdf:RDF>
  </metadata>
  <g
     inkscape:label="Ebene 1"
     inkscape:groupmode="layer"
     id="layer1"
     transform="translate(-37.217533,-130.51308)">
    <circle
       style="fill:#ffffff;stroke:#000000;stroke-width:0.35277778;stroke-miterlimit:4;stroke-dasharray:none;stroke-opacity:0.99065396"
       id="path5985"
       cx="48.997623"
       cy="158.01051"
       r="3.912854" />
    <flowRoot
       xml:space="preserve"
       id="flowRoot5987"
       style="font-style:italic;font-variant:normal;font-weight:normal;font-stretch:normal;font-size:16px;line-height:1.25;font-family:'Myriad Pro';-inkscape-font-specification:'Myriad Pro Italic';letter-spacing:0px;word-spacing:0px;fill:#000000;fill-opacity:1;stroke:none;stroke-width:1.33333337;stroke-miterlimit:4;stroke-dasharray:none"
       transform="matrix(0.26458333,0,0,0.26458333,4.1809406,-2.3602929)"><flowRegion
         id="flowRegion5989"
         style="stroke-width:1.33333337;stroke-miterlimit:4;stroke-dasharray:none"><rect
           id="rect5991"
           width="11.171583"
           height="21.030718"
           x="154.92958"
           y="507.02673"
           style="stroke-width:1.33333337;stroke-miterlimit:4;stroke-dasharray:none" /></flowRegion><flowPara
         id="flowPara5993">A</flowPara></flowRoot>    <flowRoot
       xml:space="preserve"
       id="flowRoot5987-3"
       style="font-style:italic;font-variant:normal;font-weight:normal;font-stretch:normal;font-size:16px;line-height:1.25;font-family:'Myriad Pro';-inkscape-font-specification:'Myriad Pro Italic';letter-spacing:0px;word-spacing:0px;fill:#000000;fill-opacity:1;stroke:none;stroke-width:1.33333337;stroke-miterlimit:4;stroke-dasharray:none"
       transform="matrix(0.26458333,0,0,0.26458333,4.077239,16.333399)"><flowRegion
         id="flowRegion5989-3"
         style="stroke-width:1.33333337;stroke-miterlimit:4;stroke-dasharray:none"><rect
           id="rect5991-1"
           width="11.171583"
           height="21.030718"
           x="154.92958"
           y="507.02673"
           style="stroke-width:1.33333337;stroke-miterlimit:4;stroke-dasharray:none" /></flowRegion><flowPara
         id="flowPara5993-2">B</flowPara></flowRoot>    <path
       style="fill:none;stroke:#000000;stroke-width:0.35277778;stroke-linecap:butt;stroke-linejoin:miter;stroke-miterlimit:4;stroke-dasharray:none;stroke-opacity:1"
       d="M 49.033625,131.18947 H 60.24641 37.717533"
       id="path6019"
       inkscape:connector-curvature="0" />
    <path
       inkscape:connector-curvature="0"
       id="path6879"
       style="fill:none;stroke:#000000;stroke-width:0.35277778;stroke-linecap:butt;stroke-linejoin:miter;stroke-miterlimit:4;stroke-dasharray:none;stroke-opacity:1"
       d="m 49.033625,136.74572 0.396875,0.39687 h -0.79375 l 0.396875,0.39688 m 0,-1.5875 0.396875,0.39688 h -0.79375 l 0.396875,0.39687 m 0,-1.5875 0.396875,0.39688 h -0.79375 l 0.396875,0.39687 m 0,-1.5875 0.396875,0.39688 h -0.79375 l 0.396875,0.39687 m 0,-1.5875 0.396875,0.39688 h -0.79375 l 0.396875,0.39687 m 0,-1.5875 0.396875,0.39688 h -0.79375 l 0.396875,0.39687 m 0,-1.5875 0.396875,0.39688 h -0.79375 l 0.396875,0.39687 m 0,-1.5875 0.396875,0.39688 h -0.79375 l 0.396875,0.39687" />
    <path
       inkscape:connector-curvature="0"
       id="path6879-1"
       style="fill:none;stroke:#000000;stroke-width:0.35277778;stroke-linecap:butt;stroke-linejoin:miter;stroke-miterlimit:4;stroke-dasharray:none;stroke-opacity:1"
       d="m 49.033625,143.09572 0.396875,0.39687 h -0.79375 l 0.396875,0.39688 m 0,-1.5875 0.396875,0.39687 h -0.79375 l 0.396875,0.39688 m 0,-1.5875 0.396875,0.39687 h -0.79375 l 0.396875,0.39688 m 0,-1.5875 0.396875,0.39687 h -0.79375 l 0.396875,0.39688 m 0,-1.5875 0.396875,0.39687 h -0.79375 l 0.396875,0.39688 m 0,-1.5875 0.396875,0.39687 h -0.79375 l 0.396875,0.39688 m 0,-1.5875 0.396875,0.39687 h -0.79375 l 0.396875,0.39688 m 0,-1.5875 0.396875,0.39687 h -0.79375 l 0.396875,0.39688"
       inkscape:transform-center-x="-0.26458049"
       inkscape:transform-center-y="1.675695" />
    <path
       inkscape:connector-curvature="0"
       id="path6879-8"
       style="fill:none;stroke:#000000;stroke-width:0.35277778;stroke-linecap:butt;stroke-linejoin:miter;stroke-miterlimit:4;stroke-dasharray:none;stroke-opacity:1"
       d="m 49.033625,147.85822 0.396875,0.39687 h -0.79375 l 0.396875,0.39688 m 0,-1.5875 0.396875,0.39687 h -0.79375 l 0.396875,0.39688 m 0,-1.5875 0.396875,0.39687 h -0.79375 l 0.396875,0.39688 m 0,-1.5875 0.396875,0.39687 h -0.79375 l 0.396875,0.39688 m 0,-1.5875 0.396875,0.39687 h -0.79375 l 0.396875,0.39688 m 0,-1.5875 0.396875,0.39687 h -0.79375 l 0.396875,0.39688 m 0,-1.5875 0.396875,0.39687 h -0.79375 l 0.396875,0.39688 m 0,-1.5875 0.396875,0.39687 h -0.79375 l 0.396875,0.39688" />
    <path
       inkscape:connector-curvature="0"
       id="path6879-2"
       style="fill:none;stroke:#000000;stroke-width:0.35277778;stroke-linecap:butt;stroke-linejoin:miter;stroke-miterlimit:4;stroke-dasharray:none;stroke-opacity:1"
       d="m 49.033625,153.41447 0.396875,0.39687 h -0.79375 l 0.396875,0.39688 m 0,-1.5875 0.396875,0.39687 h -0.79375 l 0.396875,0.39688 m 0,-1.5875 0.396875,0.39687 h -0.79375 l 0.396875,0.39688 m 0,-1.5875 0.396875,0.39687 h -0.79375 l 0.396875,0.39688 m 0,-1.5875 0.396875,0.39687 h -0.79375 l 0.396875,0.39688 m 0,-1.5875 0.396875,0.39687 h -0.79375 l 0.396875,0.39688 m 0,-1.5875 0.396875,0.39687 h -0.79375 l 0.396875,0.39688 m 0,-1.5875 0.396875,0.39687 h -0.79375 l 0.396875,0.39688" />
  </g>
</svg>
