<?xml version="1.0" encoding="UTF-8" standalone="no"?>
<!-- Created with Inkscape (http://www.inkscape.org/) -->

<svg
   xmlns:dc="http://purl.org/dc/elements/1.1/"
   xmlns:cc="http://creativecommons.org/ns#"
   xmlns:rdf="http://www.w3.org/1999/02/22-rdf-syntax-ns#"
   xmlns:svg="http://www.w3.org/2000/svg"
   xmlns="http://www.w3.org/2000/svg"
   xmlns:sodipodi="http://sodipodi.sourceforge.net/DTD/sodipodi-0.dtd"
   xmlns:inkscape="http://www.inkscape.org/namespaces/inkscape"
   width="85.943886mm"
   height="17.960964mm"
   viewBox="0 0 85.943886 17.960964"
   version="1.1"
   id="svg10928"
   inkscape:version="0.92.2 (5c3e80d, 2017-08-06)"
   sodipodi:docname="LH035,09,16_004r-d2.svg">
  <defs
     id="defs10922" />
  <sodipodi:namedview
     id="base"
     pagecolor="#ffffff"
     bordercolor="#666666"
     borderopacity="1.0"
     inkscape:pageopacity="0.0"
     inkscape:pageshadow="2"
     inkscape:zoom="2.5"
     inkscape:cx="146.8423"
     inkscape:cy="47.041764"
     inkscape:document-units="mm"
     inkscape:current-layer="layer1"
     showgrid="false"
     inkscape:window-width="1366"
     inkscape:window-height="706"
     inkscape:window-x="1672"
     inkscape:window-y="-8"
     inkscape:window-maximized="1"
     fit-margin-left="0.5"
     fit-margin-top="0.5"
     fit-margin-right="0.5"
     fit-margin-bottom="0.5" />
  <metadata
     id="metadata10925">
    <rdf:RDF>
      <cc:Work
         rdf:about="">
        <dc:format>image/svg+xml</dc:format>
        <dc:type
           rdf:resource="http://purl.org/dc/dcmitype/StillImage" />
        <dc:title></dc:title>
      </cc:Work>
    </rdf:RDF>
  </metadata>
  <g
     inkscape:label="Ebene 1"
     inkscape:groupmode="layer"
     id="layer1"
     transform="translate(-39.615832,-143.31884)">
    <path
       inkscape:connector-curvature="0"
       id="path11527"
       style="fill:none;stroke:#000000;stroke-width:0.35277778;stroke-linecap:butt;stroke-linejoin:miter;stroke-miterlimit:4;stroke-dasharray:none;stroke-opacity:1"
       d="m 107.19406,153.21786 c 0,0 0.97604,1.84647 1.84648,1.84647 0.87043,0 1.84647,-1.84647 1.84647,-1.84647 m -7.3859,0 c 0,0 0.97604,-1.84648 1.84648,-1.84648 0.87043,0 1.84647,1.84648 1.84647,1.84648 m -7.408339,0 c 0,0 0.976039,1.84647 1.846479,1.84647 0.87043,0 1.84647,-1.84647 1.84647,-1.84647 m -7.3859,0 c 0,0 0.97604,-1.84648 1.846477,-1.84648 0.870436,0 1.846474,1.84648 1.846474,1.84648 m -7.408337,0 c 0,0 0.976038,1.84647 1.846475,1.84647 0.870437,0 1.846477,-1.84647 1.846477,-1.84647 m -7.385903,0 c 0,0 0.976039,-1.84648 1.846475,-1.84648 0.870437,0 1.846476,1.84648 1.846476,1.84648 m -7.408338,0 c 0,0 0.976039,1.84647 1.846475,1.84647 0.870437,0 1.846476,-1.84647 1.846476,-1.84647 m -7.385902,0 c 0,0 0.976039,-1.84648 1.846475,-1.84648 0.870437,0 1.846476,1.84648 1.846476,1.84648 m -7.408338,0 c 0,0 0.976039,1.84647 1.846475,1.84647 0.870437,0 1.846476,-1.84647 1.846476,-1.84647 m -7.385902,0 c 0,0 0.976039,-1.84648 1.846475,-1.84648 0.870437,0 1.846476,1.84648 1.846476,1.84648 m -7.408338,0 c 0,0 0.976039,1.84647 1.846475,1.84647 0.870437,0 1.846476,-1.84647 1.846476,-1.84647 m -7.385902,0 c 0,0 0.976039,-1.84648 1.846475,-1.84648 0.870437,0 1.846476,1.84648 1.846476,1.84648" />
    <path
       style="fill:none;stroke:#000000;stroke-width:0.35277778;stroke-linecap:butt;stroke-linejoin:miter;stroke-miterlimit:4;stroke-dasharray:none;stroke-opacity:1"
       d="m 110.88701,153.21786 v 0 h 1.97668"
       id="path11545"
       inkscape:connector-curvature="0"
       sodipodi:nodetypes="ccc" />
    <path
       style="fill:none;stroke:#000000;stroke-width:0.35277778;stroke-linecap:butt;stroke-linejoin:miter;stroke-miterlimit:4;stroke-dasharray:none;stroke-opacity:1"
       d="M 66.459419,153.21786 H 64.407142"
       id="path11547"
       inkscape:connector-curvature="0" />
    <rect
       style="fill:#ffffff;stroke:#000000;stroke-width:0.35277778;stroke-miterlimit:4;stroke-dasharray:none;stroke-dashoffset:0;stroke-opacity:0.99065396"
       id="rect11549"
       width="12.095239"
       height="12.095239"
       x="112.78809"
       y="143.99522" />
    <rect
       y="143.99522"
       x="52.463066"
       height="12.095239"
       width="12.095239"
       id="rect11551"
       style="fill:#ffffff;stroke:#000000;stroke-width:0.35277778;stroke-miterlimit:4;stroke-dasharray:none;stroke-dashoffset:0;stroke-opacity:0.99065396" />
    <rect
       style="fill:#ffffff;stroke:#000000;stroke-width:0.35277778;stroke-miterlimit:4;stroke-dasharray:none;stroke-dashoffset:0;stroke-opacity:0.99065396"
       id="rect11553"
       width="12.095239"
       height="12.095239"
       x="40.292221"
       y="143.99522" />
    <flowRoot
       xml:space="preserve"
       id="flowRoot5987"
       style="font-style:italic;font-variant:normal;font-weight:normal;font-stretch:normal;font-size:16px;line-height:1.25;font-family:'Myriad Pro';-inkscape-font-specification:'Myriad Pro Italic';letter-spacing:0px;word-spacing:0px;fill:#000000;fill-opacity:1;stroke:none;stroke-width:1.33333337;stroke-miterlimit:4;stroke-dasharray:none"
       transform="matrix(0.26458333,0,0,0.26458333,10.366987,22.882317)"><flowRegion
         id="flowRegion5989"
         style="stroke-width:1.33333337;stroke-miterlimit:4;stroke-dasharray:none"><rect
           id="rect5991"
           width="11.171583"
           height="21.030718"
           x="154.92958"
           y="507.02673"
           style="stroke-width:1.33333337;stroke-miterlimit:4;stroke-dasharray:none" /></flowRegion><flowPara
         id="flowPara5993">L</flowPara></flowRoot>    <flowRoot
       transform="matrix(0.26458333,0,0,0.26458333,24.125329,22.882317)"
       style="font-style:italic;font-variant:normal;font-weight:normal;font-stretch:normal;font-size:16px;line-height:1.25;font-family:'Myriad Pro';-inkscape-font-specification:'Myriad Pro Italic';letter-spacing:0px;word-spacing:0px;fill:#000000;fill-opacity:1;stroke:none;stroke-width:1.33333337;stroke-miterlimit:4;stroke-dasharray:none"
       id="flowRoot11585"
       xml:space="preserve"><flowRegion
         style="stroke-width:1.33333337;stroke-miterlimit:4;stroke-dasharray:none"
         id="flowRegion11581"><rect
           style="stroke-width:1.33333337;stroke-miterlimit:4;stroke-dasharray:none"
           y="507.02673"
           x="154.92958"
           height="21.030701"
           width="14.771585"
           id="rect11579" /></flowRegion><flowPara
         id="flowPara11583">A</flowPara></flowRoot>    <flowRoot
       xml:space="preserve"
       id="flowRoot11593"
       style="font-style:italic;font-variant:normal;font-weight:normal;font-stretch:normal;font-size:16px;line-height:1.25;font-family:'Myriad Pro';-inkscape-font-specification:'Myriad Pro Italic';letter-spacing:0px;word-spacing:0px;fill:#000000;fill-opacity:1;stroke:none;stroke-width:1.33333337;stroke-miterlimit:4;stroke-dasharray:none"
       transform="matrix(0.26458333,0,0,0.26458333,68.575357,22.882317)"><flowRegion
         id="flowRegion11589"
         style="stroke-width:1.33333337;stroke-miterlimit:4;stroke-dasharray:none"><rect
           id="rect11587"
           width="11.171583"
           height="21.030718"
           x="154.92958"
           y="507.02673"
           style="stroke-width:1.33333337;stroke-miterlimit:4;stroke-dasharray:none" /></flowRegion><flowPara
         id="flowPara11591">C</flowPara></flowRoot>    <flowRoot
       transform="matrix(0.26458333,0,0,0.26458333,68.575357,22.882317)"
       style="font-style:italic;font-variant:normal;font-weight:normal;font-stretch:normal;font-size:16px;line-height:1.25;font-family:'Myriad Pro';-inkscape-font-specification:'Myriad Pro Italic';letter-spacing:0px;word-spacing:0px;fill:#000000;fill-opacity:1;stroke:none;stroke-width:1.33333337;stroke-miterlimit:4;stroke-dasharray:none"
       id="flowRoot11601"
       xml:space="preserve"><flowRegion
         style="stroke-width:1.33333337;stroke-miterlimit:4;stroke-dasharray:none"
         id="flowRegion11597"><rect
           style="stroke-width:1.33333337;stroke-miterlimit:4;stroke-dasharray:none"
           y="507.02673"
           x="154.92958"
           height="21.030718"
           width="11.171583"
           id="rect11595" /></flowRegion><flowPara
         id="flowPara11599" /></flowRoot>    <flowRoot
       xml:space="preserve"
       id="flowRoot11609"
       style="font-style:italic;font-variant:normal;font-weight:normal;font-stretch:normal;font-size:16px;line-height:1.25;font-family:'Myriad Pro';-inkscape-font-specification:'Myriad Pro Italic';letter-spacing:0px;word-spacing:0px;fill:#000000;fill-opacity:1;stroke:none;stroke-width:1.33333337;stroke-miterlimit:4;stroke-dasharray:none"
       transform="matrix(0.26458333,0,0,0.26458333,78.62953,22.882317)"><flowRegion
         id="flowRegion11605"
         style="stroke-width:1.33333337;stroke-miterlimit:4;stroke-dasharray:none"><rect
           id="rect11603"
           width="12.771579"
           height="22.630651"
           x="154.92958"
           y="507.02673"
           style="stroke-width:1.33333337;stroke-miterlimit:4;stroke-dasharray:none" /></flowRegion><flowPara
         id="flowPara11607">M</flowPara><flowPara
         id="flowPara11611" /></flowRoot>  </g>
</svg>
