<?xml version="1.0" encoding="UTF-8" standalone="no"?>
<!-- Created with Inkscape (http://www.inkscape.org/) -->

<svg
   xmlns:osb="http://www.openswatchbook.org/uri/2009/osb"
   xmlns:dc="http://purl.org/dc/elements/1.1/"
   xmlns:cc="http://creativecommons.org/ns#"
   xmlns:rdf="http://www.w3.org/1999/02/22-rdf-syntax-ns#"
   xmlns:svg="http://www.w3.org/2000/svg"
   xmlns="http://www.w3.org/2000/svg"
   xmlns:xlink="http://www.w3.org/1999/xlink"
   xmlns:sodipodi="http://sodipodi.sourceforge.net/DTD/sodipodi-0.dtd"
   xmlns:inkscape="http://www.inkscape.org/namespaces/inkscape"
   width="90.035164mm"
   height="55.303505mm"
   viewBox="0 0 90.035164 55.303505"
   version="1.1"
   id="svg853"
   sodipodi:docname="LH_35_10_17_005-008_d1.svg"
   inkscape:version="0.91 r13725">
  <sodipodi:namedview
     id="base"
     pagecolor="#ffffff"
     bordercolor="#666666"
     borderopacity="1.0"
     inkscape:pageopacity="0.0"
     inkscape:pageshadow="2"
     inkscape:zoom="2.1496046"
     inkscape:cx="186.72253"
     inkscape:cy="74.001443"
     inkscape:document-units="mm"
     inkscape:current-layer="layer1"
     showgrid="true"
     inkscape:window-width="2051"
     inkscape:window-height="1029"
     inkscape:window-x="4000"
     inkscape:window-y="943"
     inkscape:window-maximized="0"
     objecttolerance="5"
     inkscape:measure-start="0,0"
     inkscape:measure-end="0,0"
     fit-margin-top="0.5"
     fit-margin-left="0.5"
     fit-margin-right="0.5"
     fit-margin-bottom="0.5">
    <inkscape:grid
       id="grid4243"
       type="xygrid" />
  </sodipodi:namedview>
  <defs
     id="defs847">
    <linearGradient
       osb:paint="solid"
       id="linearGradient2418">
      <stop
         id="stop2416"
         offset="0"
         style="stop-color:#ffffff;stop-opacity:1;" />
    </linearGradient>
    <linearGradient
       osb:paint="solid"
       id="linearGradient2333">
      <stop
         id="stop2331"
         offset="0"
         style="stop-color:#000000;stop-opacity:1;" />
    </linearGradient>
    <linearGradient
       osb:paint="solid"
       id="linearGradient2327">
      <stop
         id="stop2325"
         offset="0"
         style="stop-color:#ffffff;stop-opacity:1;" />
    </linearGradient>
    <linearGradient
       osb:paint="solid"
       id="linearGradient887">
      <stop
         id="stop885"
         offset="0"
         style="stop-color:#ffffff;stop-opacity:1;" />
    </linearGradient>
    <linearGradient
       gradientUnits="userSpaceOnUse"
       y2="143.3007"
       x2="99.939705"
       y1="143.3007"
       x1="91.70945"
       id="linearGradient2420"
       xlink:href="#linearGradient2418"
       inkscape:collect="always" />
    <linearGradient
       gradientTransform="translate(-165.4916)"
       y2="143.3007"
       x2="99.939705"
       y1="143.3007"
       x1="91.70945"
       gradientUnits="userSpaceOnUse"
       id="linearGradient6317"
       xlink:href="#linearGradient2418"
       inkscape:collect="always" />
    <linearGradient
       gradientTransform="translate(-52.916694)"
       y2="143.3007"
       x2="99.939705"
       y1="143.3007"
       x1="91.70945"
       gradientUnits="userSpaceOnUse"
       id="linearGradient6450"
       xlink:href="#linearGradient2418"
       inkscape:collect="always" />
    <linearGradient
       gradientUnits="userSpaceOnUse"
       y2="143.3007"
       x2="99.939705"
       y1="143.3007"
       x1="91.70945"
       id="linearGradient2420-712"
       xlink:href="#linearGradient2418-849"
       inkscape:collect="always" />
    <linearGradient
       osb:paint="solid"
       id="linearGradient2418-849">
      <stop
         id="stop4356"
         offset="0"
         style="stop-color:#ffffff;stop-opacity:1;" />
    </linearGradient>
    <linearGradient
       gradientTransform="translate(-165.4916,0)"
       y2="143.3007"
       x2="99.939705"
       y1="143.3007"
       x1="91.70945"
       gradientUnits="userSpaceOnUse"
       id="linearGradient6317-368"
       xlink:href="#linearGradient2418-449"
       inkscape:collect="always" />
    <linearGradient
       osb:paint="solid"
       id="linearGradient2418-449">
      <stop
         id="stop4360"
         offset="0"
         style="stop-color:#ffffff;stop-opacity:1;" />
    </linearGradient>
    <linearGradient
       gradientTransform="translate(-52.916694,0)"
       y2="143.3007"
       x2="99.939705"
       y1="143.3007"
       x1="91.70945"
       gradientUnits="userSpaceOnUse"
       id="linearGradient6450-490"
       xlink:href="#linearGradient2418-434"
       inkscape:collect="always" />
    <linearGradient
       osb:paint="solid"
       id="linearGradient2418-434">
      <stop
         id="stop4364"
         offset="0"
         style="stop-color:#ffffff;stop-opacity:1;" />
    </linearGradient>
    <linearGradient
       gradientUnits="userSpaceOnUse"
       y2="143.3007"
       x2="99.939705"
       y1="143.3007"
       x1="91.70945"
       id="linearGradient2420-712-742"
       xlink:href="#linearGradient2418-849-435"
       inkscape:collect="always" />
    <linearGradient
       osb:paint="solid"
       id="linearGradient2418-849-435">
      <stop
         id="stop4470"
         offset="0"
         style="stop-color:#ffffff;stop-opacity:1;" />
    </linearGradient>
    <linearGradient
       gradientTransform="translate(-165.4916,0)"
       y2="143.3007"
       x2="99.939705"
       y1="143.3007"
       x1="91.70945"
       gradientUnits="userSpaceOnUse"
       id="linearGradient6317-368-676"
       xlink:href="#linearGradient2418-449-850"
       inkscape:collect="always" />
    <linearGradient
       osb:paint="solid"
       id="linearGradient2418-449-850">
      <stop
         id="stop4474"
         offset="0"
         style="stop-color:#ffffff;stop-opacity:1;" />
    </linearGradient>
    <linearGradient
       gradientTransform="translate(-52.916694,0)"
       y2="143.3007"
       x2="99.939705"
       y1="143.3007"
       x1="91.70945"
       gradientUnits="userSpaceOnUse"
       id="linearGradient6450-490-900"
       xlink:href="#linearGradient2418-434-773"
       inkscape:collect="always" />
    <linearGradient
       osb:paint="solid"
       id="linearGradient2418-434-773">
      <stop
         id="stop4478"
         offset="0"
         style="stop-color:#ffffff;stop-opacity:1;" />
    </linearGradient>
    <linearGradient
       gradientUnits="userSpaceOnUse"
       y2="143.3007"
       x2="99.939705"
       y1="143.3007"
       x1="91.70945"
       id="linearGradient2420-712-742-147"
       xlink:href="#linearGradient2418-849-435-35"
       inkscape:collect="always" />
    <linearGradient
       osb:paint="solid"
       id="linearGradient2418-849-435-35">
      <stop
         id="stop4488"
         offset="0"
         style="stop-color:#ffffff;stop-opacity:1;" />
    </linearGradient>
    <linearGradient
       gradientTransform="translate(-165.4916,0)"
       y2="143.3007"
       x2="99.939705"
       y1="143.3007"
       x1="91.70945"
       gradientUnits="userSpaceOnUse"
       id="linearGradient6317-368-676-512"
       xlink:href="#linearGradient2418-449-850-427"
       inkscape:collect="always" />
    <linearGradient
       osb:paint="solid"
       id="linearGradient2418-449-850-427">
      <stop
         id="stop4492"
         offset="0"
         style="stop-color:#ffffff;stop-opacity:1;" />
    </linearGradient>
    <linearGradient
       gradientTransform="translate(-52.916694,0)"
       y2="143.3007"
       x2="99.939705"
       y1="143.3007"
       x1="91.70945"
       gradientUnits="userSpaceOnUse"
       id="linearGradient6450-490-900-432"
       xlink:href="#linearGradient2418-434-773-738"
       inkscape:collect="always" />
    <linearGradient
       osb:paint="solid"
       id="linearGradient2418-434-773-738">
      <stop
         id="stop4496"
         offset="0"
         style="stop-color:#ffffff;stop-opacity:1;" />
    </linearGradient>
  </defs>
  <metadata
     id="metadata850">
    <rdf:RDF>
      <cc:Work
         rdf:about="">
        <dc:format>image/svg+xml</dc:format>
        <dc:type
           rdf:resource="http://purl.org/dc/dcmitype/StillImage" />
        <dc:title></dc:title>
      </cc:Work>
    </rdf:RDF>
  </metadata>
  <g
     transform="translate(-21.290948,-130.16404)"
     id="layer1"
     inkscape:groupmode="layer"
     inkscape:label="Ebene 1">
    <g
       id="g4357">
      <path
         style="fill:none;stroke:#000000;stroke-width:0.35277778;stroke-linecap:butt;stroke-linejoin:miter;stroke-miterlimit:4;stroke-dasharray:none;stroke-opacity:1"
         d="m 95.521537,139.28422 0.39687,0.39687 0,-0.79374 0.39688,0.39687"
         id="path6234"
         inkscape:connector-curvature="0" />
      <path
         style="fill:none;stroke:#000000;stroke-width:0.35277778;stroke-linecap:butt;stroke-linejoin:miter;stroke-miterlimit:4;stroke-dasharray:none;stroke-opacity:1"
         d="m 89.171537,139.28422 0.39687,0.39687 0,-0.79374 0.39688,0.39687"
         id="path6232"
         inkscape:connector-curvature="0" />
      <path
         style="fill:none;stroke:#000000;stroke-width:0.35277778;stroke-linecap:butt;stroke-linejoin:miter;stroke-miterlimit:4;stroke-dasharray:none;stroke-opacity:1"
         d="m 89.965287,139.28422 0.39687,0.39687 0,-0.79374 0.39688,0.39687"
         id="path6230"
         inkscape:connector-curvature="0" />
      <path
         style="fill:none;stroke:#000000;stroke-width:0.35277778;stroke-linecap:butt;stroke-linejoin:miter;stroke-miterlimit:4;stroke-dasharray:none;stroke-opacity:1"
         d="m 90.759037,139.28422 0.39687,0.39687 0,-0.79374 0.39688,0.39687"
         id="path6228"
         inkscape:connector-curvature="0" />
      <path
         style="fill:none;stroke:#000000;stroke-width:0.35277778;stroke-linecap:butt;stroke-linejoin:miter;stroke-miterlimit:4;stroke-dasharray:none;stroke-opacity:1"
         d="m 91.552787,139.28422 0.39687,0.39687 0,-0.79374 0.39688,0.39687"
         id="path6226"
         inkscape:connector-curvature="0" />
      <path
         style="fill:none;stroke:#000000;stroke-width:0.35277778;stroke-linecap:butt;stroke-linejoin:miter;stroke-miterlimit:4;stroke-dasharray:none;stroke-opacity:1"
         d="m 92.346537,139.28422 0.39687,0.39687 0,-0.79374 0.39688,0.39687"
         id="path6224"
         inkscape:connector-curvature="0" />
      <path
         style="fill:none;stroke:#000000;stroke-width:0.35277778;stroke-linecap:butt;stroke-linejoin:miter;stroke-miterlimit:4;stroke-dasharray:none;stroke-opacity:1"
         d="m 93.140287,139.28422 0.39687,0.39687 0,-0.79374 0.39688,0.39687"
         id="path6222"
         inkscape:connector-curvature="0" />
      <path
         style="fill:none;stroke:#000000;stroke-width:0.35277778;stroke-linecap:butt;stroke-linejoin:miter;stroke-miterlimit:4;stroke-dasharray:none;stroke-opacity:1"
         d="m 93.934037,139.28422 0.39687,0.39687 0,-0.79374 0.39688,0.39687"
         id="path6220"
         inkscape:connector-curvature="0" />
      <path
         style="fill:none;stroke:#000000;stroke-width:0.35277778;stroke-linecap:butt;stroke-linejoin:miter;stroke-miterlimit:4;stroke-dasharray:none;stroke-opacity:1"
         d="m 94.727787,139.28422 0.39687,0.39687 0,-0.79374 0.39688,0.39687"
         id="path883"
         inkscape:connector-curvature="0" />
      <path
         style="fill:#ffffff;fill-opacity:1;fill-rule:nonzero;stroke:#000000;stroke-width:0.35983065px;stroke-linecap:butt;stroke-linejoin:miter;stroke-miterlimit:4;stroke-dasharray:none;stroke-opacity:1"
         d="m 99.814808,141.20695 -0.423328,0.59266 0.71966,0.14817 -0.529161,0.508 0.698491,0.25399 -0.613825,0.42333 0,0 -0.02117,0.67733 -0.169332,0.65616 0,0 0,0 -0.253999,0.635 -0.35983,0.5715 0,0 -0.465664,0.50799 0,0 0,0 -0.550329,0.40216 0.550329,-0.40216 -1.164157,0.71966 0,0 -0.634996,0.1905 0,0 -0.677329,0.0847 0,0 -0.677328,-0.0212 0,0 -0.656158,-0.16933 -0.634996,-0.254 0,0 -0.571495,-0.35983 0,0 -0.507997,-0.46566 0,0 0,0 -0.402163,-0.55033 0,0 -0.317498,-0.61383 0,0 -0.190499,-0.635 0,0 -0.08467,-0.67733 0,0 0.02117,-0.67732 0,0 0.169332,-0.65617 0,0 0.253998,-0.63499 0,0 0.359831,-0.5715 0,0 0.465663,-0.50799 0,0 0.550329,-0.40217 0,0 0.592663,-0.31749 0,0 0.656161,-0.1905 0,0 0.677329,-0.0847 0,0 0.677328,0.0212 0.48683,-0.55033 0.169332,0.71966 0.571495,-0.46566 0.0635,0.71966 0.634995,-0.35983 -0.0635,0.71966 0.698495,-0.23283 -0.190499,0.69849 0.719661,-0.10583 -0.317497,0.65616 z"
         id="path862"
         inkscape:connector-curvature="0"
         sodipodi:nodetypes="ccccccccccccccccccccccccccccccccccccccccccccccccccccccccccccccccccccccccc" />
      <path
         id="path6279"
         style="fill:none;stroke:#000000;stroke-width:0.35277778;stroke-linecap:butt;stroke-linejoin:miter;stroke-miterlimit:4;stroke-dasharray:none;stroke-opacity:1"
         d="m 99.901275,142.91707 0.396865,0.39687 -0.793742,0 0.396877,0.39688 m -0.03509,11.81431 0.396865,0.39687 -0.793742,0 0.396877,0.39688 m 0,-1.5875 0.396865,0.39687 -0.793742,0 0.396877,0.39688 m 0,-1.5875 0.396865,0.39687 -0.793742,0 0.396877,0.39688 m 0,-1.5875 0.396865,0.39687 -0.793742,0 0.396877,0.39688 m 0,-1.5875 0.396865,0.39687 -0.793742,0 0.396877,0.39688 m 0,-1.5875 0.396865,0.39687 -0.793742,0 0.396877,0.39688 m 0,-1.5875 0.396865,0.39687 -0.793742,0 0.396877,0.39688 m 0,-1.5875 0.396865,0.39687 -0.793742,0 0.396877,0.39688 m 0,11.1125 0.396865,0.39687 -0.793742,0 0.396877,0.39688 m 0,-1.5875 0.396865,0.39687 -0.793742,0 0.396877,0.39688 m 0,-1.5875 0.396865,0.39687 -0.793742,0 0.396877,0.39688 m 0,-1.5875 0.396865,0.39687 -0.793742,0 0.396877,0.39688 m 0,-1.5875 0.396865,0.39687 -0.793742,0 0.396877,0.39688 m 0,-1.5875 0.396865,0.39687 -0.793742,0 0.396877,0.39688 m 0,-1.5875 0.396865,0.39687 -0.793742,0 0.396877,0.39688 m 0,-1.5875 0.396865,0.39687 -0.793742,0 0.396877,0.39688 m 0,-13.49375 0.396865,0.39687 -0.793742,0 0.396877,0.39688 m 0,0 0.396865,0.39687 -0.793742,0 0.396877,0.39688 m 0,0 0.396865,0.39687 -0.793742,0 0.396877,0.39688 m 0,0 0.396865,0.39687 -0.793742,0 0.396877,0.39688 m 0,0 0.396865,0.39687 -0.793742,0 0.396877,0.39688 m 0,0 0.396865,0.39687 -0.793742,0 0.396877,0.39688 m 0,0 0.396865,0.39687 -0.793742,0 0.396877,0.39688 m -10e-7,0 0.396866,0.39687 -0.793743,0 0.396877,0.39688"
         inkscape:connector-curvature="0" />
      <circle
         style="fill:url(#linearGradient2420-712-742-147);fill-opacity:1;stroke:#000000;stroke-width:0.35299999;stroke-miterlimit:4;stroke-dasharray:none;stroke-dashoffset:0;stroke-opacity:0.99065396"
         id="path2376"
         cx="95.824577"
         cy="143.3007"
         r="4.1140842" />
      <rect
         style="fill:#ffffff;stroke:#000000;stroke-width:0.35277778;stroke-miterlimit:4;stroke-dasharray:none;stroke-dashoffset:0;stroke-opacity:0.99065396"
         id="rect881"
         width="6.0863366"
         height="6.0863366"
         x="96.640419"
         y="162.60512" />
      <path
         style="fill:none;stroke:#000000;stroke-width:0.35277778;stroke-linecap:butt;stroke-linejoin:miter;stroke-miterlimit:4;stroke-dasharray:none;stroke-opacity:1"
         d="m 83.615287,139.28422 0.39687,0.39687 0,-0.79374 0.39688,0.39687"
         id="path6333"
         inkscape:connector-curvature="0" />
      <path
         style="fill:none;stroke:#000000;stroke-width:0.35277778;stroke-linecap:butt;stroke-linejoin:miter;stroke-miterlimit:4;stroke-dasharray:none;stroke-opacity:1"
         d="m 84.409037,139.28422 0.39687,0.39687 0,-0.79374 0.39688,0.39687"
         id="path6331"
         inkscape:connector-curvature="0" />
      <path
         style="fill:none;stroke:#000000;stroke-width:0.35277778;stroke-linecap:butt;stroke-linejoin:miter;stroke-miterlimit:4;stroke-dasharray:none;stroke-opacity:1"
         d="m 85.202787,139.28422 0.39687,0.39687 0,-0.79374 0.39688,0.39687"
         id="path6329"
         inkscape:connector-curvature="0" />
      <path
         style="fill:none;stroke:#000000;stroke-width:0.35277778;stroke-linecap:butt;stroke-linejoin:miter;stroke-miterlimit:4;stroke-dasharray:none;stroke-opacity:1"
         d="m 85.996537,139.28422 0.39687,0.39687 0,-0.79374 0.39688,0.39687"
         id="path6327"
         inkscape:connector-curvature="0" />
      <path
         style="fill:none;stroke:#000000;stroke-width:0.35277778;stroke-linecap:butt;stroke-linejoin:miter;stroke-miterlimit:4;stroke-dasharray:none;stroke-opacity:1"
         d="m 86.790287,139.28422 0.39687,0.39687 0,-0.79374 0.39688,0.39687"
         id="path6325"
         inkscape:connector-curvature="0" />
      <path
         style="fill:none;stroke:#000000;stroke-width:0.35277778;stroke-linecap:butt;stroke-linejoin:miter;stroke-miterlimit:4;stroke-dasharray:none;stroke-opacity:1"
         d="m 87.584037,139.28422 0.39687,0.39687 0,-0.79374 0.39688,0.39687"
         id="path6323"
         inkscape:connector-curvature="0" />
      <path
         style="fill:none;stroke:#000000;stroke-width:0.35277778;stroke-linecap:butt;stroke-linejoin:miter;stroke-miterlimit:4;stroke-dasharray:none;stroke-opacity:1"
         d="m 88.377787,139.28422 0.39687,0.39687 0,-0.79374 0.39688,0.39687"
         id="path6216"
         inkscape:connector-curvature="0" />
      <text
         xml:space="preserve"
         style="font-style:italic;font-variant:normal;font-weight:normal;font-stretch:normal;font-size:4.23333311px;line-height:1.25;font-family:'Myriad Pro';-inkscape-font-specification:'Myriad Pro Italic';letter-spacing:0px;word-spacing:0px;fill:#000000;fill-opacity:1;stroke:none;stroke-width:0.26458332"
         x="95.478195"
         y="143.54596"
         id="text2339"><tspan
           sodipodi:role="line"
           id="tspan2337"
           x="95.478195"
           y="143.54596"
           style="stroke-width:0.26458332">.</tspan></text>
      <path
         style="fill:none;stroke:#000000;stroke-width:0.26458332px;stroke-linecap:butt;stroke-linejoin:miter;stroke-opacity:1"
         d="M 96.315285,139.28422 Z"
         id="path6236"
         inkscape:connector-curvature="0" />
      <path
         sodipodi:nodetypes="ccccccccccccccccccccccccccccccccccccccccccccccccccccccccccccccccccccccccc"
         inkscape:connector-curvature="0"
         id="path6301"
         d="m 65.676795,141.20695 0.423328,0.59266 -0.71966,0.14817 0.529161,0.508 -0.698491,0.25399 0.613825,0.42333 0,0 0.02117,0.67733 0.169332,0.65616 0,0 0,0 0.253999,0.635 0.35983,0.5715 0,0 0.465664,0.50799 0,0 0,0 0.550329,0.40216 -0.550329,-0.40216 1.164157,0.71966 0,0 0.634996,0.1905 0,0 0.677329,0.0847 0,0 0.677328,-0.0212 0,0 0.656158,-0.16933 0.634996,-0.254 0,0 0.571495,-0.35983 0,0 0.507997,-0.46566 0,0 0,0 0.402163,-0.55033 0,0 0.317498,-0.61383 0,0 0.190499,-0.635 0,0 0.08467,-0.67733 0,0 -0.02117,-0.67732 0,0 -0.169332,-0.65617 0,0 -0.253998,-0.63499 0,0 -0.359831,-0.5715 0,0 -0.465663,-0.50799 0,0 -0.550329,-0.40217 0,0 -0.592663,-0.31749 0,0 -0.656161,-0.1905 0,0 -0.677329,-0.0847 0,0 -0.677328,0.0212 -0.48683,-0.55033 -0.169332,0.71966 -0.571495,-0.46566 -0.0635,0.71966 -0.634995,-0.35983 0.0635,0.71966 -0.698495,-0.23283 0.190499,0.69849 -0.719661,-0.10583 0.317497,0.65616 z"
         style="fill:#ffffff;fill-opacity:1;fill-rule:nonzero;stroke:#000000;stroke-width:0.35983065px;stroke-linecap:butt;stroke-linejoin:miter;stroke-miterlimit:4;stroke-dasharray:none;stroke-opacity:1" />
      <path
         inkscape:connector-curvature="0"
         d="m 65.590328,142.91707 -0.396865,0.39687 0.793742,0 -0.396877,0.39688 m 0.03509,11.81431 -0.396865,0.39687 0.793742,0 -0.396877,0.39688 m 0,-1.5875 -0.396865,0.39687 0.793742,0 -0.396877,0.39688 m 0,-1.5875 -0.396865,0.39687 0.793742,0 -0.396877,0.39688 m 0,-1.5875 -0.396865,0.39687 0.793742,0 -0.396877,0.39688 m 0,-1.5875 -0.396865,0.39687 0.793742,0 -0.396877,0.39688 m 0,-1.5875 -0.396865,0.39687 0.793742,0 -0.396877,0.39688 m 0,-1.5875 -0.396865,0.39687 0.793742,0 -0.396877,0.39688 m 0,-1.5875 -0.396865,0.39687 0.793742,0 -0.396877,0.39688 m 0,11.1125 -0.396865,0.39687 0.793742,0 -0.396877,0.39688 m 0,-1.5875 -0.396865,0.39687 0.793742,0 -0.396877,0.39688 m 0,-1.5875 -0.396865,0.39687 0.793742,0 -0.396877,0.39688 m 0,-1.5875 -0.396865,0.39687 0.793742,0 -0.396877,0.39688 m 0,-1.5875 -0.396865,0.39687 0.793742,0 -0.396877,0.39688 m 0,-1.5875 -0.396865,0.39687 0.793742,0 -0.396877,0.39688 m 0,-1.5875 -0.396865,0.39687 0.793742,0 -0.396877,0.39688 m 0,-1.5875 -0.396865,0.39687 0.793742,0 -0.396877,0.39688 m 0,-13.49375 -0.396865,0.39687 0.793742,0 -0.396877,0.39688 m 0,0 -0.396865,0.39687 0.793742,0 -0.396877,0.39688 m 0,0 -0.396865,0.39687 0.793742,0 -0.396877,0.39688 m 0,0 -0.396865,0.39687 0.793742,0 -0.396877,0.39688 m 0,0 -0.396865,0.39687 0.793742,0 -0.396877,0.39688 m 0,0 -0.396865,0.39687 0.793742,0 -0.396877,0.39688 m 0,0 -0.396865,0.39687 0.793742,0 -0.396877,0.39688 m 10e-7,0 -0.396866,0.39687 0.793743,0 -0.396877,0.39688"
         style="fill:none;stroke:#000000;stroke-width:0.35277778;stroke-linecap:butt;stroke-linejoin:miter;stroke-miterlimit:4;stroke-dasharray:none;stroke-opacity:1"
         id="path6303" />
      <path
         id="path6358"
         style="fill:none;stroke:#000000;stroke-width:0.35277778;stroke-linecap:butt;stroke-linejoin:miter;stroke-miterlimit:4;stroke-dasharray:none;stroke-opacity:1"
         d="m 82.027787,139.28422 0.39687,0.39687 0,-0.79374 0.39688,0.39687 m -7.14375,0 0.39687,0.39687 0,-0.79374 0.39688,0.39687 m 0,0 0.39687,0.39687 0,-0.79374 0.39688,0.39687 m 0,0 0.39687,0.39687 0,-0.79374 0.39688,0.39687 m 0,0 0.39687,0.39687 0,-0.79374 0.39688,0.39687 m 0,0 0.39687,0.39687 0,-0.79374 0.39688,0.39687 m 0,0 0.39687,0.39687 0,-0.79374 0.39688,0.39687 m 0,0 0.39687,0.39687 0,-0.79374 0.39688,0.39687 m 0,0 0.39687,0.39687 0,-0.79374 0.39688,0.39687 m -7.14375,0 0.39687,0.39687 0,-0.79374 0.39688,0.39687 m -1.5875,0 0.39687,0.39687 0,-0.79374 0.39688,0.39687 m -1.5875,0 0.39687,0.39687 0,-0.79374 0.39688,0.39687 m -1.5875,0 0.39687,0.39687 0,-0.79374 0.39688,0.39687 m -1.5875,0 0.39687,0.39687 0,-0.79374 0.39688,0.39687 m -1.5875,0 0.39687,0.39687 0,-0.79374 0.39688,0.39687 m -1.5875,0 0.39687,0.39687 0,-0.79374 0.39688,0.39687 m -1.5875,0 0.39687,0.39687 0,-0.79374 0.39688,0.39687 m 12.699998,0 z"
         inkscape:connector-curvature="0" />
      <circle
         r="4.1140842"
         cy="143.3007"
         cx="-69.66703"
         id="circle6305"
         style="fill:url(#linearGradient6317-368-676-512);fill-opacity:1;stroke:#000000;stroke-width:0.35299999;stroke-miterlimit:4;stroke-dasharray:none;stroke-dashoffset:0;stroke-opacity:0.99065396"
         transform="scale(-1,1)" />
      <rect
         y="162.60512"
         x="-68.851189"
         height="6.0863366"
         width="6.0863366"
         id="rect6307"
         style="fill:#ffffff;stroke:#000000;stroke-width:0.35277778;stroke-miterlimit:4;stroke-dasharray:none;stroke-dashoffset:0;stroke-opacity:0.99065396"
         transform="scale(-1,1)" />
      <text
         id="text6313"
         y="143.54596"
         x="-70.013412"
         style="font-style:italic;font-variant:normal;font-weight:normal;font-stretch:normal;font-size:4.23333311px;line-height:1.25;font-family:'Myriad Pro';-inkscape-font-specification:'Myriad Pro Italic';letter-spacing:0px;word-spacing:0px;fill:#000000;fill-opacity:1;stroke:none;stroke-width:0.26458332"
         xml:space="preserve"
         transform="scale(-1,1)"><tspan
           style="stroke-width:0.26458332"
           y="143.54596"
           x="-70.013412"
           id="tspan6311"
           sodipodi:role="line">.</tspan></text>
      <path
         style="fill:none;stroke:#000000;stroke-width:0.35277778;stroke-linecap:butt;stroke-linejoin:miter;stroke-miterlimit:4;stroke-dasharray:none;stroke-opacity:1"
         d="m 82.821537,139.28422 0.39687,0.39687 0,-0.79374 0.39688,0.39687"
         id="path6315"
         inkscape:connector-curvature="0" />
      <path
         id="path6402"
         d="m 42.604837,139.28422 0.39687,0.39687 0,-0.79374 0.39688,0.39687"
         style="fill:none;stroke:#000000;stroke-width:0.35277778;stroke-linecap:butt;stroke-linejoin:miter;stroke-miterlimit:4;stroke-dasharray:none;stroke-opacity:1"
         inkscape:connector-curvature="0" />
      <path
         id="path6408"
         d="m 37.842337,139.28422 0.39687,0.39687 0,-0.79374 0.39688,0.39687"
         style="fill:none;stroke:#000000;stroke-width:0.35277778;stroke-linecap:butt;stroke-linejoin:miter;stroke-miterlimit:4;stroke-dasharray:none;stroke-opacity:1"
         inkscape:connector-curvature="0" />
      <path
         id="path6410"
         d="m 38.636087,139.28422 0.39687,0.39687 0,-0.79374 0.39688,0.39687"
         style="fill:none;stroke:#000000;stroke-width:0.35277778;stroke-linecap:butt;stroke-linejoin:miter;stroke-miterlimit:4;stroke-dasharray:none;stroke-opacity:1"
         inkscape:connector-curvature="0" />
      <path
         id="path6412"
         d="m 39.429837,139.28422 0.39687,0.39687 0,-0.79374 0.39688,0.39687"
         style="fill:none;stroke:#000000;stroke-width:0.35277778;stroke-linecap:butt;stroke-linejoin:miter;stroke-miterlimit:4;stroke-dasharray:none;stroke-opacity:1"
         inkscape:connector-curvature="0" />
      <path
         id="path6414"
         d="m 40.223587,139.28422 0.39687,0.39687 0,-0.79374 0.39688,0.39687"
         style="fill:none;stroke:#000000;stroke-width:0.35277778;stroke-linecap:butt;stroke-linejoin:miter;stroke-miterlimit:4;stroke-dasharray:none;stroke-opacity:1"
         inkscape:connector-curvature="0" />
      <path
         id="path6416"
         d="m 41.017337,139.28422 0.39687,0.39687 0,-0.79374 0.39688,0.39687"
         style="fill:none;stroke:#000000;stroke-width:0.35277778;stroke-linecap:butt;stroke-linejoin:miter;stroke-miterlimit:4;stroke-dasharray:none;stroke-opacity:1"
         inkscape:connector-curvature="0" />
      <path
         id="path6418"
         d="m 41.811087,139.28422 0.39687,0.39687 0,-0.79374 0.39688,0.39687"
         style="fill:none;stroke:#000000;stroke-width:0.35277778;stroke-linecap:butt;stroke-linejoin:miter;stroke-miterlimit:4;stroke-dasharray:none;stroke-opacity:1"
         inkscape:connector-curvature="0" />
      <path
         sodipodi:nodetypes="ccccccccccccccccccccccccccccccccccccccccccccccccccccccccccccccccccccccccc"
         inkscape:connector-curvature="0"
         id="path6420"
         d="m 46.898108,141.20695 -0.423328,0.59266 0.71966,0.14817 -0.529161,0.508 0.698491,0.25399 -0.613825,0.42333 0,0 -0.02117,0.67733 -0.169332,0.65616 0,0 0,0 -0.253999,0.635 -0.35983,0.5715 0,0 -0.465664,0.50799 0,0 0,0 -0.550329,0.40216 0.550329,-0.40216 -1.164157,0.71966 0,0 -0.634996,0.1905 0,0 -0.677329,0.0847 0,0 -0.677328,-0.0212 0,0 -0.656158,-0.16933 -0.634996,-0.254 0,0 -0.571495,-0.35983 0,0 -0.507997,-0.46566 0,0 0,0 -0.402163,-0.55033 0,0 -0.317498,-0.61383 0,0 -0.190499,-0.635 0,0 -0.08467,-0.67733 0,0 0.02117,-0.67732 0,0 0.169332,-0.65617 0,0 0.253998,-0.63499 0,0 0.359831,-0.5715 0,0 0.465663,-0.50799 0,0 0.550329,-0.40217 0,0 0.592663,-0.31749 0,0 0.656161,-0.1905 0,0 0.677329,-0.0847 0,0 0.677328,0.0212 0.48683,-0.55033 0.169332,0.71966 0.571495,-0.46566 0.0635,0.71966 0.634995,-0.35983 -0.0635,0.71966 0.698495,-0.23283 -0.190499,0.69849 0.719661,-0.10583 -0.317497,0.65616 z"
         style="fill:#ffffff;fill-opacity:1;fill-rule:nonzero;stroke:#000000;stroke-width:0.35983065px;stroke-linecap:butt;stroke-linejoin:miter;stroke-miterlimit:4;stroke-dasharray:none;stroke-opacity:1" />
      <path
         inkscape:connector-curvature="0"
         d="m 46.984575,142.91707 0.396865,0.39687 -0.793742,0 0.396877,0.39688 m -0.03509,11.81431 0.396865,0.39687 -0.793742,0 0.396877,0.39688 m 0,-1.5875 0.396865,0.39687 -0.793742,0 0.396877,0.39688 m 0,-1.5875 0.396865,0.39687 -0.793742,0 0.396877,0.39688 m 0,-1.5875 0.396865,0.39687 -0.793742,0 0.396877,0.39688 m 0,-1.5875 0.396865,0.39687 -0.793742,0 0.396877,0.39688 m 0,-1.5875 0.396865,0.39687 -0.793742,0 0.396877,0.39688 m 0,-1.5875 0.396865,0.39687 -0.793742,0 0.396877,0.39688 m 0,-1.5875 0.396865,0.39687 -0.793742,0 0.396877,0.39688 m 0,11.1125 0.396865,0.39687 -0.793742,0 0.396877,0.39688 m 0,-1.5875 0.396865,0.39687 -0.793742,0 0.396877,0.39688 m 0,-1.5875 0.396865,0.39687 -0.793742,0 0.396877,0.39688 m 0,-1.5875 0.396865,0.39687 -0.793742,0 0.396877,0.39688 m 0,-1.5875 0.396865,0.39687 -0.793742,0 0.396877,0.39688 m 0,-1.5875 0.396865,0.39687 -0.793742,0 0.396877,0.39688 m 0,-1.5875 0.396865,0.39687 -0.793742,0 0.396877,0.39688 m 0,-1.5875 0.396865,0.39687 -0.793742,0 0.396877,0.39688 m 0,-13.49375 0.396865,0.39687 -0.793742,0 0.396877,0.39688 m 0,0 0.396865,0.39687 -0.793742,0 0.396877,0.39688 m 0,0 0.396865,0.39687 -0.793742,0 0.396877,0.39688 m 0,0 0.396865,0.39687 -0.793742,0 0.396877,0.39688 m 0,0 0.396865,0.39687 -0.793742,0 0.396877,0.39688 m 0,0 0.396865,0.39687 -0.793742,0 0.396877,0.39688 m 0,0 0.396865,0.39687 -0.793742,0 0.396877,0.39688 m -1e-6,0 0.396866,0.39687 -0.793743,0 0.396877,0.39688"
         style="fill:none;stroke:#000000;stroke-width:0.35277778;stroke-linecap:butt;stroke-linejoin:miter;stroke-miterlimit:4;stroke-dasharray:none;stroke-opacity:1"
         id="path6422" />
      <circle
         r="4.1140842"
         cy="143.3007"
         cx="42.90786"
         id="circle6424"
         style="fill:url(#linearGradient6450-490-900-432);fill-opacity:1;stroke:#000000;stroke-width:0.35299999;stroke-miterlimit:4;stroke-dasharray:none;stroke-dashoffset:0;stroke-opacity:0.99065396" />
      <rect
         y="162.60512"
         x="43.723701"
         height="6.0863366"
         width="6.0863366"
         id="rect6426"
         style="fill:#ffffff;stroke:#000000;stroke-width:0.35277778;stroke-miterlimit:4;stroke-dasharray:none;stroke-dashoffset:0;stroke-opacity:0.99065396" />
      <text
         id="text6444"
         y="143.54596"
         x="42.561478"
         style="font-style:italic;font-variant:normal;font-weight:normal;font-stretch:normal;font-size:4.23333311px;line-height:1.25;font-family:'Myriad Pro';-inkscape-font-specification:'Myriad Pro Italic';letter-spacing:0px;word-spacing:0px;fill:#000000;fill-opacity:1;stroke:none;stroke-width:0.26458332"
         xml:space="preserve"><tspan
           style="stroke-width:0.26458332"
           y="143.54596"
           x="42.561478"
           id="tspan6442"
           sodipodi:role="line">.</tspan></text>
      <path
         id="path6446"
         d="M 43.398585,139.28422 Z"
         style="fill:none;stroke:#000000;stroke-width:0.26458332px;stroke-linecap:butt;stroke-linejoin:miter;stroke-opacity:1"
         inkscape:connector-curvature="0" />
      <path
         id="path6464"
         style="fill:none;stroke:#000000;stroke-width:0.35277778;stroke-linecap:butt;stroke-linejoin:miter;stroke-miterlimit:4;stroke-dasharray:none;stroke-opacity:1"
         d="m 29.904837,139.28422 0.39687,0.39687 0,-0.79374 0.39688,0.39687 m 3.96875,0 0.39687,0.39687 0,-0.79374 0.39688,0.39687 m -1.5875,0 0.39687,0.39687 0,-0.79374 0.39688,0.39687 m -1.5875,0 0.39687,0.39687 0,-0.79374 0.39688,0.39687 m -1.5875,0 0.39687,0.39687 0,-0.79374 0.39688,0.39687 m -1.5875,0 0.39687,0.39687 0,-0.79374 0.39688,0.39687 m -1.5875,0 0.39687,0.39687 0,-0.79374 0.39688,0.39687 m -1.5875,0 0.39687,0.39687 0,-0.79374 0.39688,0.39687 m 4.7625,0 0.39687,0.39687 0,-0.79374 0.39688,0.39687 m -1.5875,0 0.39687,0.39687 0,-0.79374 0.39688,0.39687 m -1.5875,0 0.39687,0.39687 0,-0.79374 0.39688,0.39687 m -1.5875,0 0.39687,0.39687 0,-0.79374 0.39688,0.39687 m -1.5875,0 0.39687,0.39687 0,-0.79374 0.39688,0.39687 m -1.5875,0 0.39687,0.39687 0,-0.79374 0.39688,0.39687 m -1.5875,0 0.39687,0.39687 0,-0.79374 0.39688,0.39687 m 5.55625,0 0.39687,0.39687 0,-0.79374 0.39688,0.39687 m -1.5875,0 0.39687,0.39687 0,-0.79374 0.39688,0.39687"
         inkscape:connector-curvature="0" />
      <path
         d="m 21.967337,139.28422 0.39687,0.39687 0,-0.79374 0.39688,0.39687 m 3.96875,0 0.39687,0.39687 0,-0.79374 0.39688,0.39687 m -1.5875,0 0.39687,0.39687 0,-0.79374 0.39688,0.39687 m -1.5875,0 0.39687,0.39687 0,-0.79374 0.39688,0.39687 m -1.5875,0 0.39687,0.39687 0,-0.79374 0.39688,0.39687 m -1.5875,0 0.39687,0.39687 0,-0.79374 0.39688,0.39687 m -1.5875,0 0.39687,0.39687 0,-0.79374 0.39688,0.39687 m -1.5875,0 0.39687,0.39687 0,-0.79374 0.39688,0.39687 m 4.7625,0 0.39687,0.39687 0,-0.79374 0.39688,0.39687 m -1.5875,0 0.39687,0.39687 0,-0.79374 0.39688,0.39687 m -1.5875,0 0.39687,0.39687 0,-0.79374 0.39688,0.39687 m -1.5875,0 0.39687,0.39687 0,-0.79374 0.39688,0.39687 m -1.5875,0 0.39687,0.39687 0,-0.79374 0.39688,0.39687 m -1.5875,0 0.39687,0.39687 0,-0.79374 0.39688,0.39687 m -1.5875,0 0.39687,0.39687 0,-0.79374 0.39688,0.39687 m 5.55625,0 0.39687,0.39687 0,-0.79374 0.39688,0.39687 m -1.5875,0 0.39687,0.39687 0,-0.79374 0.39688,0.39687"
         style="fill:none;stroke:#000000;stroke-width:0.35277778;stroke-linecap:butt;stroke-linejoin:miter;stroke-miterlimit:4;stroke-dasharray:none;stroke-opacity:1"
         id="path6481"
         inkscape:connector-curvature="0" />
      <path
         style="fill:none;stroke:#000000;stroke-width:0.45155554;stroke-linecap:butt;stroke-linejoin:miter;stroke-miterlimit:4;stroke-dasharray:none;stroke-opacity:1"
         d="m 21.967337,160.17525 0,-19.51093 0,-8.05072"
         id="path6483"
         inkscape:connector-curvature="0" />
      <text
         xml:space="preserve"
         style="font-style:italic;font-variant:normal;font-weight:normal;font-stretch:normal;font-size:4.23333311px;line-height:1.25;font-family:'Myriad Pro';-inkscape-font-specification:'Myriad Pro Italic';letter-spacing:0px;word-spacing:0px;fill:#000000;fill-opacity:1;stroke:none;stroke-width:0.35277778;stroke-miterlimit:4;stroke-dasharray:none"
         x="22.971664"
         y="137.48227"
         id="text6981"><tspan
           sodipodi:role="line"
           id="tspan6979"
           x="22.971664"
           y="137.48227"
           style="font-size:6.3499999px;stroke-width:0.35277778;stroke-miterlimit:4;stroke-dasharray:none">L</tspan></text>
      <text
         id="text6505"
         y="137.48227"
         x="40.935497"
         style="font-style:italic;font-variant:normal;font-weight:normal;font-stretch:normal;font-size:4.23333311px;line-height:1.25;font-family:'Myriad Pro';-inkscape-font-specification:'Myriad Pro Italic';letter-spacing:0px;word-spacing:0px;fill:#000000;fill-opacity:1;stroke:none;stroke-width:0.35277778;stroke-miterlimit:4;stroke-dasharray:none"
         xml:space="preserve"><tspan
           style="font-size:6.3499999px;stroke-width:0.35277778;stroke-miterlimit:4;stroke-dasharray:none"
           y="137.48227"
           x="40.935497"
           id="tspan6503"
           sodipodi:role="line">M</tspan></text>
      <text
         xml:space="preserve"
         style="font-style:italic;font-variant:normal;font-weight:normal;font-stretch:normal;font-size:4.23333311px;line-height:1.25;font-family:'Myriad Pro';-inkscape-font-specification:'Myriad Pro Italic';letter-spacing:0px;word-spacing:0px;fill:#000000;fill-opacity:1;stroke:none;stroke-width:0.35277778;stroke-miterlimit:4;stroke-dasharray:none"
         x="67.672363"
         y="137.48227"
         id="text6509"><tspan
           sodipodi:role="line"
           id="tspan6507"
           x="67.672363"
           y="137.48227"
           style="font-size:6.3499999px;stroke-width:0.35277778;stroke-miterlimit:4;stroke-dasharray:none">N</tspan></text>
      <text
         id="text6513"
         y="137.48227"
         x="94.594902"
         style="font-style:italic;font-variant:normal;font-weight:normal;font-stretch:normal;font-size:4.23333311px;line-height:1.25;font-family:'Myriad Pro';-inkscape-font-specification:'Myriad Pro Italic';letter-spacing:0px;word-spacing:0px;fill:#000000;fill-opacity:1;stroke:none;stroke-width:0.35277778;stroke-miterlimit:4;stroke-dasharray:none"
         xml:space="preserve"><tspan
           style="font-size:6.3499999px;stroke-width:0.35277778;stroke-miterlimit:4;stroke-dasharray:none"
           y="137.48227"
           x="94.594902"
           id="tspan6511"
           sodipodi:role="line">P</tspan></text>
      <text
         xml:space="preserve"
         style="font-style:italic;font-variant:normal;font-weight:normal;font-stretch:normal;font-size:4.23333311px;line-height:1.25;font-family:'Myriad Pro';-inkscape-font-specification:'Myriad Pro Italic';letter-spacing:0px;word-spacing:0px;fill:#000000;fill-opacity:1;stroke:none;stroke-width:0.35277778;stroke-miterlimit:4;stroke-dasharray:none"
         x="91.215683"
         y="167.02237"
         id="text6517"><tspan
           sodipodi:role="line"
           id="tspan6515"
           x="91.215683"
           y="167.02237"
           style="font-size:6.3499999px;stroke-width:0.35277778;stroke-miterlimit:4;stroke-dasharray:none">C</tspan></text>
      <text
         id="text6521"
         y="167.1152"
         x="70.253227"
         style="font-style:italic;font-variant:normal;font-weight:normal;font-stretch:normal;font-size:4.23333311px;line-height:1.25;font-family:'Myriad Pro';-inkscape-font-specification:'Myriad Pro Italic';letter-spacing:0px;word-spacing:0px;fill:#000000;fill-opacity:1;stroke:none;stroke-width:0.35277778;stroke-miterlimit:4;stroke-dasharray:none"
         xml:space="preserve"><tspan
           style="font-size:6.3499999px;stroke-width:0.35277778;stroke-miterlimit:4;stroke-dasharray:none"
           y="167.1152"
           x="70.253227"
           id="tspan6519"
           sodipodi:role="line">B</tspan></text>
      <text
         xml:space="preserve"
         style="font-style:italic;font-variant:normal;font-weight:normal;font-stretch:normal;font-size:4.23333311px;line-height:1.25;font-family:'Myriad Pro';-inkscape-font-specification:'Myriad Pro Italic';letter-spacing:0px;word-spacing:0px;fill:#000000;fill-opacity:1;stroke:none;stroke-width:0.35277778;stroke-miterlimit:4;stroke-dasharray:none"
         x="38.954144"
         y="167.1152"
         id="text6525"><tspan
           sodipodi:role="line"
           id="tspan6523"
           x="38.954144"
           y="167.1152"
           style="font-size:6.3499999px;stroke-width:0.35277778;stroke-miterlimit:4;stroke-dasharray:none">A</tspan></text>
      <rect
         style="fill:#ffffff;stroke:#000000;stroke-width:0.35277778;stroke-miterlimit:4;stroke-dasharray:none;stroke-dashoffset:0;stroke-opacity:0.99065396"
         id="rect6527"
         width="13.291002"
         height="13.291001"
         x="93.124046"
         y="169.27477" />
      <path
         style="fill:none;stroke:#000000;stroke-width:0.08819444;stroke-linecap:butt;stroke-linejoin:miter;stroke-miterlimit:4;stroke-dasharray:none;stroke-opacity:1"
         d="m 93.623886,182.48852 0,-13.27436"
         id="path7802"
         inkscape:connector-curvature="0" />
      <path
         inkscape:connector-curvature="0"
         id="path7804"
         d="m 94.077237,182.48852 0,-13.27436"
         style="fill:none;stroke:#000000;stroke-width:0.08819444;stroke-linecap:butt;stroke-linejoin:miter;stroke-miterlimit:4;stroke-dasharray:none;stroke-opacity:1" />
      <path
         style="fill:none;stroke:#000000;stroke-width:0.08819444;stroke-linecap:butt;stroke-linejoin:miter;stroke-miterlimit:4;stroke-dasharray:none;stroke-opacity:1"
         d="m 94.530588,182.48852 0,-13.27436"
         id="path7806"
         inkscape:connector-curvature="0" />
      <path
         inkscape:connector-curvature="0"
         id="path7808"
         d="m 94.983939,182.48852 0,-13.27436"
         style="fill:none;stroke:#000000;stroke-width:0.08819444;stroke-linecap:butt;stroke-linejoin:miter;stroke-miterlimit:4;stroke-dasharray:none;stroke-opacity:1" />
      <path
         style="fill:none;stroke:#000000;stroke-width:0.08819444;stroke-linecap:butt;stroke-linejoin:miter;stroke-miterlimit:4;stroke-dasharray:none;stroke-opacity:1"
         d="m 95.43729,182.48852 0,-13.27436"
         id="path7810"
         inkscape:connector-curvature="0" />
      <path
         inkscape:connector-curvature="0"
         id="path7812"
         d="m 95.890641,182.48852 0,-13.27436"
         style="fill:none;stroke:#000000;stroke-width:0.08819444;stroke-linecap:butt;stroke-linejoin:miter;stroke-miterlimit:4;stroke-dasharray:none;stroke-opacity:1" />
      <path
         style="fill:none;stroke:#000000;stroke-width:0.08819444;stroke-linecap:butt;stroke-linejoin:miter;stroke-miterlimit:4;stroke-dasharray:none;stroke-opacity:1"
         d="m 96.343992,182.48852 0,-13.27436"
         id="path7814"
         inkscape:connector-curvature="0" />
      <path
         inkscape:connector-curvature="0"
         id="path7816"
         d="m 96.797343,182.48852 0,-13.27436"
         style="fill:none;stroke:#000000;stroke-width:0.08819444;stroke-linecap:butt;stroke-linejoin:miter;stroke-miterlimit:4;stroke-dasharray:none;stroke-opacity:1" />
      <path
         style="fill:none;stroke:#000000;stroke-width:0.08819444;stroke-linecap:butt;stroke-linejoin:miter;stroke-miterlimit:4;stroke-dasharray:none;stroke-opacity:1"
         d="m 97.250693,182.48852 0,-13.27436"
         id="path7818"
         inkscape:connector-curvature="0" />
      <path
         inkscape:connector-curvature="0"
         id="path7820"
         d="m 97.704044,182.48852 0,-13.27436"
         style="fill:none;stroke:#000000;stroke-width:0.08819444;stroke-linecap:butt;stroke-linejoin:miter;stroke-miterlimit:4;stroke-dasharray:none;stroke-opacity:1" />
      <path
         style="fill:none;stroke:#000000;stroke-width:0.08819444;stroke-linecap:butt;stroke-linejoin:miter;stroke-miterlimit:4;stroke-dasharray:none;stroke-opacity:1"
         d="m 98.157395,182.48852 0,-13.27436"
         id="path7822"
         inkscape:connector-curvature="0" />
      <path
         inkscape:connector-curvature="0"
         id="path7824"
         d="m 98.610746,182.48852 0,-13.27436"
         style="fill:none;stroke:#000000;stroke-width:0.08819444;stroke-linecap:butt;stroke-linejoin:miter;stroke-miterlimit:4;stroke-dasharray:none;stroke-opacity:1" />
      <path
         style="fill:none;stroke:#000000;stroke-width:0.08819444;stroke-linecap:butt;stroke-linejoin:miter;stroke-miterlimit:4;stroke-dasharray:none;stroke-opacity:1"
         d="m 98.610746,182.48852 0,-13.27436"
         id="path7826"
         inkscape:connector-curvature="0" />
      <path
         inkscape:connector-curvature="0"
         id="path7828"
         d="m 99.064097,182.48852 0,-13.27436"
         style="fill:none;stroke:#000000;stroke-width:0.08819444;stroke-linecap:butt;stroke-linejoin:miter;stroke-miterlimit:4;stroke-dasharray:none;stroke-opacity:1" />
      <path
         style="fill:none;stroke:#000000;stroke-width:0.08819444;stroke-linecap:butt;stroke-linejoin:miter;stroke-miterlimit:4;stroke-dasharray:none;stroke-opacity:1"
         d="m 99.517448,182.48852 0,-13.27436"
         id="path7830"
         inkscape:connector-curvature="0" />
      <path
         inkscape:connector-curvature="0"
         id="path7832"
         d="m 99.970795,182.48852 0,-13.27436"
         style="fill:none;stroke:#000000;stroke-width:0.08819444;stroke-linecap:butt;stroke-linejoin:miter;stroke-miterlimit:4;stroke-dasharray:none;stroke-opacity:1" />
      <path
         style="fill:none;stroke:#000000;stroke-width:0.08819444;stroke-linecap:butt;stroke-linejoin:miter;stroke-miterlimit:4;stroke-dasharray:none;stroke-opacity:1"
         d="m 100.42415,182.48852 0,-13.27436"
         id="path7834"
         inkscape:connector-curvature="0" />
      <path
         inkscape:connector-curvature="0"
         id="path7836"
         d="m 100.8775,182.48852 0,-13.27436"
         style="fill:none;stroke:#000000;stroke-width:0.08819444;stroke-linecap:butt;stroke-linejoin:miter;stroke-miterlimit:4;stroke-dasharray:none;stroke-opacity:1" />
      <path
         style="fill:none;stroke:#000000;stroke-width:0.08819444;stroke-linecap:butt;stroke-linejoin:miter;stroke-miterlimit:4;stroke-dasharray:none;stroke-opacity:1"
         d="m 101.33086,182.48852 0,-13.27436"
         id="path7838"
         inkscape:connector-curvature="0" />
      <path
         inkscape:connector-curvature="0"
         id="path7840"
         d="m 101.78421,182.48852 0,-13.27436"
         style="fill:none;stroke:#000000;stroke-width:0.08819444;stroke-linecap:butt;stroke-linejoin:miter;stroke-miterlimit:4;stroke-dasharray:none;stroke-opacity:1" />
      <path
         style="fill:none;stroke:#000000;stroke-width:0.08819444;stroke-linecap:butt;stroke-linejoin:miter;stroke-miterlimit:4;stroke-dasharray:none;stroke-opacity:1"
         d="m 102.23757,182.48852 0,-13.27436"
         id="path7842"
         inkscape:connector-curvature="0" />
      <path
         inkscape:connector-curvature="0"
         id="path7844"
         d="m 102.69092,182.48852 0,-13.27436"
         style="fill:none;stroke:#000000;stroke-width:0.08819444;stroke-linecap:butt;stroke-linejoin:miter;stroke-miterlimit:4;stroke-dasharray:none;stroke-opacity:1" />
      <path
         style="fill:none;stroke:#000000;stroke-width:0.08819444;stroke-linecap:butt;stroke-linejoin:miter;stroke-miterlimit:4;stroke-dasharray:none;stroke-opacity:1"
         d="m 103.14428,182.48852 0,-13.27436"
         id="path7846"
         inkscape:connector-curvature="0" />
      <path
         inkscape:connector-curvature="0"
         id="path7848"
         d="m 103.59763,182.48852 0,-13.27436"
         style="fill:none;stroke:#000000;stroke-width:0.08819444;stroke-linecap:butt;stroke-linejoin:miter;stroke-miterlimit:4;stroke-dasharray:none;stroke-opacity:1" />
      <path
         style="fill:none;stroke:#000000;stroke-width:0.08819444;stroke-linecap:butt;stroke-linejoin:miter;stroke-miterlimit:4;stroke-dasharray:none;stroke-opacity:1"
         d="m 104.05098,182.48852 0,-13.27436"
         id="path7850"
         inkscape:connector-curvature="0" />
      <path
         inkscape:connector-curvature="0"
         id="path7852"
         d="m 104.50434,182.48852 0,-13.27436"
         style="fill:none;stroke:#000000;stroke-width:0.08819444;stroke-linecap:butt;stroke-linejoin:miter;stroke-miterlimit:4;stroke-dasharray:none;stroke-opacity:1" />
      <path
         style="fill:none;stroke:#000000;stroke-width:0.08819444;stroke-linecap:butt;stroke-linejoin:miter;stroke-miterlimit:4;stroke-dasharray:none;stroke-opacity:1"
         d="m 104.95769,182.48852 0,-13.27436"
         id="path7854"
         inkscape:connector-curvature="0" />
      <path
         inkscape:connector-curvature="0"
         id="path7856"
         d="m 105.41104,182.48852 0,-13.27436"
         style="fill:none;stroke:#000000;stroke-width:0.08819444;stroke-linecap:butt;stroke-linejoin:miter;stroke-miterlimit:4;stroke-dasharray:none;stroke-opacity:1" />
      <path
         style="fill:none;stroke:#000000;stroke-width:0.08819444;stroke-linecap:butt;stroke-linejoin:miter;stroke-miterlimit:4;stroke-dasharray:none;stroke-opacity:1"
         d="m 105.8644,182.48852 0,-13.27436"
         id="path7858"
         inkscape:connector-curvature="0" />
      <text
         id="text7862"
         y="177.7356"
         x="88.272781"
         style="font-style:italic;font-variant:normal;font-weight:normal;font-stretch:normal;font-size:4.23333311px;line-height:1.25;font-family:'Myriad Pro';-inkscape-font-specification:'Myriad Pro Italic';letter-spacing:0px;word-spacing:0px;fill:#000000;fill-opacity:1;stroke:none;stroke-width:0.35277778;stroke-miterlimit:4;stroke-dasharray:none"
         xml:space="preserve"><tspan
           style="font-size:6.3499999px;stroke-width:0.35277778;stroke-miterlimit:4;stroke-dasharray:none"
           y="177.7356"
           x="88.272781"
           id="tspan7860"
           sodipodi:role="line">E</tspan></text>
    </g>
    <flowRoot
       transform="scale(0.26458333)"
       style="font-style:italic;font-variant:normal;font-weight:normal;font-stretch:normal;font-size:16px;line-height:1.25;font-family:'Myriad Pro';-inkscape-font-specification:'Myriad Pro Italic';letter-spacing:0px;word-spacing:0px;fill:#000000;fill-opacity:1;stroke:none"
       id="flowRoot7864"
       xml:space="preserve"><flowRegion
         id="flowRegion7866"><rect
           y="603.70776"
           x="507.92081"
           height="18.811882"
           width="218.81187"
           id="rect7868" /></flowRegion><flowPara
         id="flowPara7870" /></flowRoot>  </g>
  <g
     transform="translate(-21.290948,-130.16404)"
     inkscape:label="Ebene 2"
     id="layer2"
     inkscape:groupmode="layer" />
</svg>
