<?xml version="1.0" encoding="UTF-8" standalone="no"?>
<!-- Created with Inkscape (http://www.inkscape.org/) -->

<svg
   xmlns:osb="http://www.openswatchbook.org/uri/2009/osb"
   xmlns:dc="http://purl.org/dc/elements/1.1/"
   xmlns:cc="http://creativecommons.org/ns#"
   xmlns:rdf="http://www.w3.org/1999/02/22-rdf-syntax-ns#"
   xmlns:svg="http://www.w3.org/2000/svg"
   xmlns="http://www.w3.org/2000/svg"
   xmlns:sodipodi="http://sodipodi.sourceforge.net/DTD/sodipodi-0.dtd"
   xmlns:inkscape="http://www.inkscape.org/namespaces/inkscape"
   width="210mm"
   height="297mm"
   viewBox="0 0 744.09448819 1052.3622047"
   id="svg3338"
   version="1.1"
   inkscape:version="0.91 r13725"
   sodipodi:docname="LH035,09,15_012-013_d-2.svg">
  <defs
     id="defs3340">
    <linearGradient
       id="linearGradient5594"
       osb:paint="solid">
      <stop
         style="stop-color:#000000;stop-opacity:1;"
         offset="0"
         id="stop5596" />
    </linearGradient>
  </defs>
  <sodipodi:namedview
     id="base"
     pagecolor="#ffffff"
     bordercolor="#666666"
     borderopacity="1.0"
     inkscape:pageopacity="0.0"
     inkscape:pageshadow="2"
     inkscape:zoom="2.828427"
     inkscape:cx="95.21688"
     inkscape:cy="963.35958"
     inkscape:document-units="px"
     inkscape:current-layer="layer1"
     showgrid="true"
     showguides="true"
     inkscape:window-width="2048"
     inkscape:window-height="1039"
     inkscape:window-x="2960"
     inkscape:window-y="1"
     inkscape:window-maximized="1"
     inkscape:snap-bbox="true"
     inkscape:snap-global="false">
    <inkscape:grid
       type="xygrid"
       id="grid3346" />
  </sodipodi:namedview>
  <metadata
     id="metadata3343">
    <rdf:RDF>
      <cc:Work
         rdf:about="">
        <dc:format>image/svg+xml</dc:format>
        <dc:type
           rdf:resource="http://purl.org/dc/dcmitype/StillImage" />
        <dc:title />
      </cc:Work>
    </rdf:RDF>
  </metadata>
  <g
     inkscape:label="Ebene 1"
     inkscape:groupmode="layer"
     id="layer1">
    <path
       inkscape:connector-curvature="0"
       id="path5689"
       d="m 0.17913817,167.5972 c 7.15359193,-0.006 14.32726883,-0.006 21.49265883,-0.006 9.829491,0.008 19.652489,0.0269 29.49852,0.0226 7.066853,-0.0115 14.14551,-0.0241 21.249402,-0.0184 2.521948,-2.4e-4 5.044152,-2.5e-4 7.5663,-2.2e-4 -0.05946,0.005 -0.454175,-0.002 -0.525197,0.001"
       style="fill:none;fill-rule:evenodd;stroke:#000000;stroke-width:1;stroke-linecap:round;stroke-linejoin:round;stroke-miterlimit:4;stroke-dasharray:none;stroke-opacity:1" />
    <text
       sodipodi:linespacing="125%"
       id="text5695"
       y="15.889093"
       x="-12.931908"
       style="font-style:normal;font-weight:normal;font-size:15px;line-height:125%;font-family:sans-serif;letter-spacing:0px;word-spacing:0px;fill:#000000;fill-opacity:1;stroke:none;stroke-width:1px;stroke-linecap:butt;stroke-linejoin:miter;stroke-opacity:1"
       xml:space="preserve"><tspan
         style="font-style:italic;font-variant:normal;font-weight:normal;font-stretch:normal;font-size:12.5px;font-family:'Myriad Pro';-inkscape-font-specification:'Myriad Pro Italic'"
         y="15.889093"
         x="-12.931908"
         id="tspan5697"
         sodipodi:role="line">H</tspan></text>
    <text
       sodipodi:linespacing="125%"
       id="text5703"
       y="167.24066"
       x="84.390671"
       style="font-style:normal;font-weight:normal;font-size:15px;line-height:125%;font-family:sans-serif;letter-spacing:0px;word-spacing:0px;fill:#000000;fill-opacity:1;stroke:none;stroke-width:1px;stroke-linecap:butt;stroke-linejoin:miter;stroke-opacity:1"
       xml:space="preserve"><tspan
         style="font-style:italic;font-variant:normal;font-weight:normal;font-stretch:normal;font-size:12.5px;font-family:'Myriad Pro';-inkscape-font-specification:'Myriad Pro Italic'"
         y="167.24066"
         x="84.390671"
         id="tspan5705"
         sodipodi:role="line">G</tspan></text>
    <text
       xml:space="preserve"
       style="font-style:italic;font-variant:normal;font-weight:normal;font-stretch:normal;font-size:15px;line-height:125%;font-family:sans-serif;-inkscape-font-specification:'sans-serif Italic';letter-spacing:0px;word-spacing:0px;fill:#000000;fill-opacity:1;stroke:none;stroke-width:1px;stroke-linecap:butt;stroke-linejoin:miter;stroke-opacity:1"
       x="-12.049767"
       y="167.4115"
       id="text5709"
       sodipodi:linespacing="125%"><tspan
         sodipodi:role="line"
         id="tspan5711"
         x="-12.049767"
         y="167.4115"
         style="font-style:italic;font-variant:normal;font-weight:normal;font-stretch:normal;font-size:12.5px;font-family:'Myriad Pro';-inkscape-font-specification:'Myriad Pro Italic'">K</tspan></text>
    <path
       style="fill:none;fill-rule:evenodd;stroke:#000000;stroke-width:1;stroke-linecap:round;stroke-linejoin:round;stroke-miterlimit:4;stroke-dasharray:none;stroke-dashoffset:0;stroke-opacity:1"
       d="M 159.83396,87.046918 C 145.53217,79.914741 131.18727,72.781645 116.85894,65.656944 97.198911,55.911914 77.545832,46.212731 57.859504,36.407309 43.734826,29.337297 29.586635,22.255149 15.378116,15.212196 10.335215,12.703682 5.2916553,10.195737 0.24821557,7.6879831 0.36409043,7.7665613 1.1578923,8.1301757 1.2976986,8.2147424"
       id="path4146"
       inkscape:connector-curvature="0" />
    <path
       inkscape:connector-curvature="0"
       id="path4148"
       d="M 79.958576,167.60424 C 72.799513,153.22298 65.618877,138.8404 58.446516,124.47426 48.605264,104.82492 38.76753,85.267698 28.913107,65.49609 21.842679,51.240563 14.760512,36.960397 7.6481478,22.759102 5.1238185,17.701001 2.5991594,12.643994 0.07455991,7.5875192 0.1325113,7.7452295 0.52990924,8.4784057 0.59990077,8.650249"
       style="fill:none;fill-rule:evenodd;stroke:#000000;stroke-width:1;stroke-linecap:round;stroke-linejoin:round;stroke-miterlimit:4;stroke-dasharray:none;stroke-dashoffset:0;stroke-opacity:1" />
    <path
       style="fill:none;fill-rule:evenodd;stroke:#000000;stroke-width:1;stroke-linecap:round;stroke-linejoin:round;stroke-miterlimit:4;stroke-dasharray:none;stroke-opacity:1"
       d="m 0.62602086,127.4779 c 0.37845214,-2.7e-4 0.75796684,-2.7e-4 1.13704314,-2.7e-4 0.5200173,3.9e-4 1.0396912,9.6e-4 1.5605836,9.6e-4 0.3738633,-5.6e-4 0.7483512,-9.6e-4 1.124174,-8.9e-4 0.1334207,-1e-5 0.2668547,-1e-5 0.4002859,-1e-5 -0.00315,2.4e-4 -0.024028,-1.2e-4 -0.027785,8e-5"
       id="path4154"
       inkscape:connector-curvature="0" />
    <path
       style="fill:none;fill-rule:evenodd;stroke:#000000;stroke-width:1.00009346;stroke-linecap:round;stroke-linejoin:round;stroke-miterlimit:4;stroke-dasharray:none;stroke-opacity:1"
       d="M 0.03412253,7.6387213 C 0.04529836,21.974159 0.04529836,36.349845 0.04529836,50.708926 0.02943267,70.406729 -0.00828577,90.091522 1.9588474e-4,109.82248 0.02314626,123.98409 0.04829189,138.16936 0.0368167,152.40521 c 4.7896e-4,5.05385 5.089e-4,10.10822 4.4903e-4,15.16248 -0.0099784,-0.11915 0.0049892,-0.91014 -0.0029935,-1.05247"
       id="path4156"
       inkscape:connector-curvature="0" />
    <path
       inkscape:connector-curvature="0"
       id="path4158"
       d="M 0.30760391,87.216178 C 14.609437,87.204998 28.951424,87.204998 43.276845,87.204998 c 19.651629,0.0159 39.290279,0.0537 58.974975,0.0452 14.12842,-0.023 28.28044,-0.0482 42.48291,-0.0367 5.04201,-4.8e-4 10.08453,-5.1e-4 15.12694,-4.5e-4 -0.11887,0.01 -0.90801,-0.005 -1.05,0.003"
       style="fill:none;fill-rule:evenodd;stroke:#000000;stroke-width:1;stroke-linecap:round;stroke-linejoin:round;stroke-miterlimit:4;stroke-dasharray:none;stroke-opacity:1" />
    <path
       inkscape:connector-curvature="0"
       id="path4160"
       d="m 0.68830625,47.477907 c 0.36164945,-2.8e-4 0.72431435,-2.8e-4 1.08656025,-2.8e-4 0.4969294,4e-4 0.9935306,0.001 1.4912962,0.001 0.3572644,-5.8e-4 0.7151256,-0.001 1.0742625,-9.3e-4 0.127497,-10e-6 0.2550068,-10e-6 0.3825139,-10e-6 -0.00301,2.5e-4 -0.022961,-1.3e-4 -0.026551,8e-5"
       style="fill:none;fill-rule:evenodd;stroke:#000000;stroke-width:1;stroke-linecap:round;stroke-linejoin:round;stroke-miterlimit:4;stroke-dasharray:none;stroke-opacity:1" />
    <text
       xml:space="preserve"
       style="font-style:normal;font-weight:normal;font-size:15px;line-height:125%;font-family:sans-serif;letter-spacing:0px;word-spacing:0px;fill:#000000;fill-opacity:1;stroke:none;stroke-width:1px;stroke-linecap:butt;stroke-linejoin:miter;stroke-opacity:1"
       x="-12.401579"
       y="87.218498"
       id="text4162"
       sodipodi:linespacing="125%"><tspan
         sodipodi:role="line"
         id="tspan4164"
         x="-12.401579"
         y="87.218498"
         style="font-style:italic;font-variant:normal;font-weight:normal;font-stretch:normal;font-size:12.5px;font-family:'Myriad Pro';-inkscape-font-specification:'Myriad Pro Italic'">X</tspan></text>
    <text
       sodipodi:linespacing="125%"
       id="text4166"
       y="87.395271"
       x="161.81186"
       style="font-style:normal;font-weight:normal;font-size:15px;line-height:125%;font-family:sans-serif;letter-spacing:0px;word-spacing:0px;fill:#000000;fill-opacity:1;stroke:none;stroke-width:1px;stroke-linecap:butt;stroke-linejoin:miter;stroke-opacity:1"
       xml:space="preserve"><tspan
         style="font-style:italic;font-variant:normal;font-weight:normal;font-stretch:normal;font-size:12.5px;font-family:'Myriad Pro';-inkscape-font-specification:'Myriad Pro Italic'"
         y="87.395271"
         x="161.81186"
         id="tspan4168"
         sodipodi:role="line">Y</tspan></text>
    <text
       xml:space="preserve"
       style="font-style:normal;font-weight:normal;font-size:15px;line-height:125%;font-family:sans-serif;letter-spacing:0px;word-spacing:0px;fill:#000000;fill-opacity:1;stroke:none;stroke-width:1px;stroke-linecap:butt;stroke-linejoin:miter;stroke-opacity:1"
       x="30.643543"
       y="100.29996"
       id="text4170"
       sodipodi:linespacing="125%"><tspan
         sodipodi:role="line"
         id="tspan4172"
         x="30.643543"
         y="100.29996"
         style="font-style:italic;font-variant:normal;font-weight:normal;font-stretch:normal;font-size:12.5px;font-family:'Myriad Pro';-inkscape-font-specification:'Myriad Pro Italic'">V</tspan></text>
  </g>
</svg>
