<?xml version="1.0" encoding="UTF-8" standalone="no"?>
<!-- Created with Inkscape (http://www.inkscape.org/) -->

<svg
   xmlns:dc="http://purl.org/dc/elements/1.1/"
   xmlns:cc="http://creativecommons.org/ns#"
   xmlns:rdf="http://www.w3.org/1999/02/22-rdf-syntax-ns#"
   xmlns:svg="http://www.w3.org/2000/svg"
   xmlns="http://www.w3.org/2000/svg"
   xmlns:sodipodi="http://sodipodi.sourceforge.net/DTD/sodipodi-0.dtd"
   xmlns:inkscape="http://www.inkscape.org/namespaces/inkscape"
   version="1.1"
   id="svg2"
   xml:space="preserve"
   width="113.78996"
   height="208.9113"
   viewBox="0 0 113.78996 208.9113"
   sodipodi:docname="LH_35_10_07_009-010_d7_010r.svg"
   inkscape:version="0.92.2 5c3e80d, 2017-08-06"><sodipodi:namedview
     pagecolor="#ffffff"
     bordercolor="#666666"
     borderopacity="1"
     objecttolerance="10"
     gridtolerance="10"
     guidetolerance="10"
     inkscape:pageopacity="0"
     inkscape:pageshadow="2"
     inkscape:window-width="1424"
     inkscape:window-height="788"
     id="namedview4"
     showgrid="true"
     inkscape:zoom="1.9403277"
     inkscape:cx="47.35535"
     inkscape:cy="86.994535"
     inkscape:window-x="0"
     inkscape:window-y="0"
     inkscape:window-maximized="0"
     inkscape:current-layer="g10"
     fit-margin-top="0"
     fit-margin-left="0"
     fit-margin-right="0"
     fit-margin-bottom="0"><inkscape:grid
       id="grid898"
       type="xygrid"
       originx="-13.291422"
       originy="-17.825079" /></sodipodi:namedview><metadata
     id="metadata8"><rdf:RDF><cc:Work
         rdf:about=""><dc:format>image/svg+xml</dc:format><dc:type
           rdf:resource="http://purl.org/dc/dcmitype/StillImage" /><dc:title></dc:title></cc:Work></rdf:RDF></metadata><defs
     id="defs6"><clipPath
       id="clipPath20"
       clipPathUnits="userSpaceOnUse"><path
         inkscape:connector-curvature="0"
         id="path18"
         d="M 0,0 H 595 V 841 H 0 Z" /></clipPath></defs><g
     transform="matrix(1.3333333,0,0,-1.3333333,-383.51276,682.31129)"
     inkscape:label="LH_35_10_07_009-010_d7_010r"
     inkscape:groupmode="layer"
     id="g10"><g
       id="g12" /><g
       id="g940"><path
         inkscape:connector-curvature="0"
         id="path24"
         style="opacity:1;fill:none;stroke:#202020;stroke-width:0.72000003;stroke-linecap:butt;stroke-linejoin:miter;stroke-miterlimit:4;stroke-dasharray:none;stroke-opacity:1"
         d="m 331.65733,413.76191 c 0,3.97656 -3.22344,7.2 -7.2,7.2 -3.97656,0 -7.2,-3.22344 -7.2,-7.2 0,-3.97656 3.22344,-7.2 7.2,-7.2 3.97656,0 7.2,3.22344 7.2,7.2 z" /><path
         inkscape:connector-curvature="0"
         id="path28"
         style="opacity:1;fill:none;stroke:#202020;stroke-width:0.61200005;stroke-linecap:butt;stroke-linejoin:miter;stroke-miterlimit:4;stroke-dasharray:none;stroke-opacity:1"
         d="m 312.14935,486.29455 c 0,3.38008 -2.73992,6.12 -6.12,6.12 -3.38008,0 -6.12,-2.73992 -6.12,-6.12 0,-3.38008 2.73992,-6.12 6.12,-6.12 3.38008,0 6.12,2.73992 6.12,6.12 z" /><path
         inkscape:connector-curvature="0"
         id="path32"
         style="opacity:1;fill:none;stroke:#202020;stroke-width:0.61200005;stroke-linecap:butt;stroke-linejoin:miter;stroke-miterlimit:4;stroke-dasharray:none;stroke-opacity:1"
         d="m 362.63686,505.30748 c 0,3.38008 -2.73992,6.12 -6.12,6.12 -3.38008,0 -6.12,-2.73992 -6.12,-6.12 0,-3.38008 2.73992,-6.12 6.12,-6.12 3.38008,0 6.12,2.73992 6.12,6.12 z" /><path
         inkscape:connector-curvature="0"
         id="path36"
         style="opacity:1;fill:none;stroke:#202020;stroke-width:0.60000002;stroke-linecap:round;stroke-linejoin:round;stroke-miterlimit:4;stroke-dasharray:none;stroke-opacity:1"
         d="m 305.82076,486.32547 c 0,0 16.88844,-65.32589 16.88844,-65.32589" /><path
         inkscape:connector-curvature="0"
         id="path40"
         style="opacity:1;fill:none;stroke:#202020;stroke-width:0.60000002;stroke-linecap:round;stroke-linejoin:round;stroke-miterlimit:4;stroke-dasharray:none;stroke-opacity:1"
         d="m 305.81039,486.33594 c 0,0 51.48645,19.34993 51.48645,19.34993" /><path
         inkscape:connector-curvature="0"
         id="path44"
         style="opacity:1;fill:none;stroke:#202020;stroke-width:0.60000002;stroke-linecap:round;stroke-linejoin:round;stroke-miterlimit:4;stroke-dasharray:none;stroke-opacity:1"
         d="m 357.29061,505.67958 c 0,0 -30.66691,-85.06075 -30.66691,-85.06075" /><path
         inkscape:connector-curvature="0"
         id="path48"
         style="opacity:1;fill:none;stroke:#202020;stroke-width:0.60000002;stroke-linecap:round;stroke-linejoin:miter;stroke-miterlimit:4;stroke-dasharray:none;stroke-opacity:1"
         d="m 331.3693,495.42828 c 0,0 -6.59712,-74.26631 -6.59712,-74.26631" /><text
         transform="scale(1,-1)"
         style="font-style:italic;font-variant:normal;font-size:24px;font-family:'Myriad Pro';-inkscape-font-specification:Myriad-Italic;writing-mode:lr-tb;opacity:1;fill:#202020;fill-opacity:1;fill-rule:nonzero;stroke:none"
         id="text52"
         x="307.17883"
         y="-409.80237"><tspan
           x="307.17883"
           y="-409.80237"
           id="tspan50"
           style="font-size:12px;opacity:1">A</tspan></text>
<text
         transform="scale(1,-1)"
         style="font-style:italic;font-variant:normal;font-size:24px;font-family:'Myriad Pro';-inkscape-font-specification:Myriad-Italic;writing-mode:lr-tb;opacity:1;fill:#202020;fill-opacity:1;fill-rule:nonzero;stroke:none"
         id="text56"
         x="290.31244"
         y="-482.36719"><tspan
           x="290.31244"
           y="-482.36719"
           id="tspan54"
           style="font-size:12px;opacity:1">B</tspan></text>
<text
         transform="scale(1,-1)"
         style="font-style:italic;font-variant:normal;font-size:24px;font-family:'Myriad Pro';-inkscape-font-specification:Myriad-Italic;writing-mode:lr-tb;opacity:1;fill:#202020;fill-opacity:1;fill-rule:nonzero;stroke:none"
         id="text60"
         x="325.7933"
         y="-499.22037"><tspan
           x="325.7933"
           y="-499.22037"
           id="tspan58"
           style="font-size:12px;opacity:1">D</tspan></text>
<text
         transform="scale(1,-1)"
         style="font-style:italic;font-variant:normal;font-size:24px;font-family:'Myriad Pro';-inkscape-font-specification:Myriad-Italic;writing-mode:lr-tb;opacity:1;fill:#202020;fill-opacity:1;fill-rule:nonzero;stroke:none"
         id="text64"
         x="365.86105"
         y="-501.15298"><tspan
           x="365.86105"
           y="-501.15298"
           id="tspan62"
           style="font-size:12px;opacity:1">C</tspan></text>
<path
         inkscape:connector-curvature="0"
         id="path68"
         style="opacity:1;fill:none;stroke:#202020;stroke-width:0.60000002;stroke-linecap:butt;stroke-linejoin:miter;stroke-miterlimit:4;stroke-dasharray:1.20000005, 1.20000005;stroke-dashoffset:2.2980001;stroke-opacity:1"
         d="m 326.05526,406.71708 c 0,0 5.08071,-19.88918 5.08071,-19.88918" /><path
         inkscape:connector-curvature="0"
         id="path72"
         style="opacity:1;fill:none;stroke:#202020;stroke-width:0.60802323;stroke-linecap:butt;stroke-linejoin:miter;stroke-miterlimit:4;stroke-dasharray:1.21604645, 1.21604645;stroke-dashoffset:2.27400684;stroke-opacity:1"
         d="m 321.80063,407.02432 c 0,0 -16.81696,-47.13755 -16.81696,-47.13755" /><text
         transform="scale(1,-1)"
         style="font-style:italic;font-variant:normal;font-size:24px;font-family:'Myriad Pro';-inkscape-font-specification:Myriad-Italic;writing-mode:lr-tb;opacity:1;fill:#202020;fill-opacity:1;fill-rule:nonzero;stroke:none"
         id="text76"
         x="287.47858"
         y="-356.66333"><tspan
           x="287.47858"
           y="-356.66333"
           id="tspan74"
           style="font-size:12px;opacity:1">M</tspan></text>
<text
         transform="scale(1,-1)"
         style="font-style:italic;font-variant:normal;font-size:24px;font-family:'Myriad Pro';-inkscape-font-specification:Myriad-Italic;writing-mode:lr-tb;opacity:1;fill:#202020;fill-opacity:1;fill-rule:nonzero;stroke:none"
         id="text80"
         x="339.2088"
         y="-381.93216"><tspan
           x="339.2088"
           y="-381.93216"
           id="tspan78"
           style="font-size:12px;opacity:1">L</tspan></text>
<path
         inkscape:connector-curvature="0"
         id="path84"
         style="opacity:1;fill:none;stroke:#202020;stroke-width:0.90000004;stroke-linecap:butt;stroke-linejoin:miter;stroke-miterlimit:4;stroke-dasharray:none;stroke-opacity:1"
         d="m 309.5,360 c 0,2.4854 -2.0146,4.5 -4.5,4.5 -2.4854,0 -4.5,-2.0146 -4.5,-4.5 0,-2.4854 2.0146,-4.5 4.5,-4.5 2.4854,0 4.5,2.0146 4.5,4.5 z" /><path
         inkscape:connector-curvature="0"
         id="path88"
         style="opacity:1;fill:none;stroke:#202020;stroke-width:0.90000004;stroke-linecap:butt;stroke-linejoin:miter;stroke-miterlimit:4;stroke-dasharray:none;stroke-opacity:1"
         d="m 335.5,387 c 0,2.4854 -2.0146,4.5 -4.5,4.5 -2.4854,0 -4.5,-2.0146 -4.5,-4.5 0,-2.4854 2.0146,-4.5 4.5,-4.5 2.4854,0 4.5,2.0146 4.5,4.5 z" /><path
         d="m 324.74129,413.68119 c 0,0.19883 -0.16117,0.36 -0.36,0.36 -0.19883,0 -0.36,-0.16117 -0.36,-0.36 0,-0.19883 0.16117,-0.36 0.36,-0.36 0.19883,0 0.36,0.16117 0.36,0.36 z"
         style="opacity:1;fill:#202020;fill-opacity:1;stroke:#202020;stroke-width:0.036;stroke-linecap:butt;stroke-linejoin:miter;stroke-miterlimit:4;stroke-dasharray:none;stroke-opacity:1"
         id="path914"
         inkscape:connector-curvature="0" /></g></g></svg>